<?xml version="1.0" encoding="UTF-8"?><svg id="a" xmlns="http://www.w3.org/2000/svg" width="233.8" height="376.32" viewBox="0 0 233.8 376.32"><defs><style>.i{fill:#ff8906;stroke-linejoin:round;}.i,.j,.k,.l,.m,.n,.o{stroke:#636363;}.i,.k,.m{stroke-linecap:round;}.p{fill:#faa81a;}.q,.r,.s,.t{fill:#696969;}.u{fill:#e7e7e7;}.v,.l,.m,.w,.n,.x{fill:#fff;}.y,.j{fill:#eff0f3;}.z{fill:#8f8f8f;}.aa{fill:#d0dfeb;}.ab{fill:#c3dbef;}.ac{fill:#abbfd1;}.ad,.ae,.af{fill:#636363;}.j{stroke-width:2px;}.j,.k,.l,.m,.w,.n,.ag,.o,.x{stroke-miterlimit:10;}.ah,.ai,.aj{fill:#3a3435;}.ah,.aj{isolation:isolate;opacity:.17;}.k,.ag,.o{fill:none;}.l,.s{stroke-width:.25px;}.w,.af,.r,.s,.t,.aj{stroke:#707070;}.ak{fill:#1c1c1c;opacity:.21;}.ai,.ae{opacity:.17;}.ag{stroke:#696969;}.al{opacity:.55;}.am{opacity:.55;}.an{opacity:.89;}.x{stroke:#3a3435;stroke-width:3px;}.t{stroke-width:.5px;}</style></defs><g class="an"><path class="ah" d="M6.17,136.99h0c.39-.36,1.01-.53,1.93-.07,1.6,.69,2.9,1.92,3.71,3.46l.39,.75,.15,.21c.58,.72,.87,1.63,.82,2.55l.18,.3,.14,.24,.13,.23,.46,.79,.16,.27,.26,.45,.25,.44,.24,.42,.44,.76,.51,.87,.88,1.52,2.32,4.01c.59,1.03,1.22,2.11,1.88,3.25l.11,.2c.29,.5,.59,1.02,.9,1.54l.19,.33,.82,1.41,2.81,4.85,2.72,4.68,.83,1.43,.55,.94,.47,.82,.99,1.71,.4,.69,1.16,2,1.04,1.79,.9,1.56,1.08,1.85,1.12,1.92,.61,1.06,1.64,2.83,.42,.73c.38,.66,.76,1.32,1.15,1.98l.8,1.39c4.71-1,8.97,2.49,10.87,4.39,1.74-.47,5.91-.7,8.01,6.82,1.48,5.3,3.52,7.94,5.07,9.25,.63-.26,1.28-.46,1.94-.6,.35,1.76,.48,3.55,.4,5.34,.28-1.21,.42-2.44,.43-3.68l8.68,6.73c5.14-4.46,9.61-2.22,12.44,.41l9.02-13.14-.05-.11,1.92-2.77,.04,.1,.29-.42-1.46-3.8,12.28-11.86,.21,.4,.68-.63,.39-.61-21.84-33.61h-.04s-1.71-2.61-1.71-2.61c-1.05,.11-2.1,.17-3.15,.17-14.35,0-26.61-10.33-29.04-24.47h-4.75c-.58,0-1.04-.47-1.04-1.04h0v-7.91c0-.58,.47-1.04,1.04-1.04h4.75c.65-3.8,2.04-7.43,4.1-10.7-1.03-2.67-1.57-4.37-1.57-4.37-17.88-12.78-7.4-27.84-7.4-27.84-4.54-16.76,8.49-26.42,8.49-26.42,4.44-9.91,11.3-18.54,19.96-25.1l.17-.19,.2-.09c2.53-1.94,5.25-3.62,8.11-5.02,27.13-29.4,52.55-6.25,52.55-6.25,37.78-19.32,51.7,5.4,51.7,5.4,21.87,.85,27.84,26.7,27.84,26.7,12.5,11.36,9.94,26.7,9.94,26.7,6.82,7.95-1.99,19.6-1.99,19.6-1.99,29.54-22.44,34.39-22.44,34.39-9.7,16.73-14.9,21.88-21.25,23.23-.32,.07-.66,0-.94-.17-4.98,4.77-12.53,2.76-12.53,2.76l-30.11,39.77c-.48,.37-.99,.71-1.52,1.02l1.62,.04,1.18-1.77s8.32-.74,20.7,4.23c2.21,.7,4.36,1.58,6.42,2.65,6.82,3.69,25.75,24.75,30.18,36.85l.57,1.28c.56,1.2,.82,2.51,.76,3.83h.15s-.1,.33-.33,.96c-.05,.18-.12,.35-.19,.52-1.71,4.48-8,18.51-24.39,34.19,.15-.05,.31-.09,.47-.13l.4-.23,.33,.16c1.31,.03,2.55,.61,3.41,1.6,.71,.69,1.21,1.57,1.43,2.54l.4,.71-.28,.71c-.14,3.19-2.91,6.15-4.11,5.85l-1.17-1.37c3,4.69-4.79,7.12-4.79,7.12,0,0-2.34,3.62-4.26,4.26-1.16,.39-5.49,.46-8.93,.37,.03,.13,.05,.27,.08,.4l.12,.02,.04-.35,.33,2.98c1.1,6.22,1.88,12.4,1.92,17.46l.2,1.83-4.46,.5-7.38,1.26v.14s.55-.1,.55-.1l-1.58,20.11c1.41,2.37,2.07,5.12,1.87,7.87,.55,4.48-25.69,4.35-26.42-.28-.17-3.28,.86-6.51,2.9-9.08l.23-16.07c-1.68,.11-3.36,.19-5.04,.24l-1.58,22.25c.39,.49,.75,1,1.08,1.53-1.49,2.74-21.94,4.12-29.91,1.64-2.07-.42-1.85-16.92,10.56-15.08l.15-11.72c-1.51-.34-2.97-.91-4.31-1.69,0,0-5.47-34.1-6.25-51.55-.21-6.88,.16-13.76,1.11-20.58-1.35,.65-3.1,.84-5.37,.4-.11-.01-.21-.03-.32-.06-.51-.11-1.02-.23-1.54-.35h-.35s-.63-.24-.63-.24c-5.07-1.31-10.06-2.89-14.95-4.76,4.7,7.89,8.29,14.02,8.26,14.39-.28,4.18-4.32,3.44-4.82,2.95l-11.94-20.74-4.79-2.09-4.57-1.66,1.54-1.21c-.96,.37-1.94,.67-2.94,.91,.21-2.1,.59-4.18,1.14-6.22-.48-.76-.88-1.57-1.2-2.41-1.64,.4-3.36,.27-4.92-.37-4.49-1.36-8.49-5.27-8.48-8.11-1.69-1.62-2.9-3.68-3.5-5.94-.85-.4-1.54-1.08-1.94-1.93-.33-1.15-2.53-9.21,3.71-14.72l.04,.09,.26-.24,1.4,4.06c.27,.04,.55,.07,.82,.1l-.39-1.23-30.28-52.46c-.87-.72-1.61-1.59-2.16-2.58-1.59-2.75-1.64-5.69-.11-6.58h0Zm34.71,71.35c0,.75-.08,1.5-.26,2.23l4.35-1.15c-1.42-.08-2.81-.45-4.09-1.08h0Zm9.75,.84l.87-.09c-.3,0-.6,.01-.9,.04l.03,.05Zm4.03,6.22l.22,.34-.04-.33h-.18Zm-3.96-.26l-4.22-5.56,1.46-.14c-.83,.05-1.67,.05-2.5,0,1.31,.8,4.3,3.61,4.17,6.38,.09,0,.18,0,.27,0,.2-.3,.5-.54,.84-.67h0Zm2.57-5.77l1.45,2.19c.09-.98-.51-1.89-1.45-2.19h0Zm57.23,101.39c-.04-.3-.08-.6-.11-.9l-.12,.89h.23Zm-1.11-62.16l.1,1.31,.24-.88-.02-.13-.2,.35c-.05-.22-.08-.44-.12-.66h0Zm3.45-55.25l.11-.37c-.04,.13-.09,.26-.13,.39l.02-.02Zm7.44,1.45h0s2.58,.59,2.58,.59c.58,0,1.16,.09,1.71,.28,.06,.02,.11,.04,.17,.06l1.31-.15,.02,.42,.15-.25,.02-.19c-2.01-.05-4.01-.3-5.97-.75h0Zm.44,33.6l-.04,.33c.27-.5,.54-1,.81-1.51l-.77,1.18ZM217.59,47.04c.01,.33,.02,.66,0,1.01,0-.34,0-.68-.01-1.01h0ZM157.69,12.11l.43,.07,1.37,.23-1.37-.23-.43-.07h0Zm-55.15,11.09h0s0,0,0,0Zm28.47,2.55h0l.55-.39-.55,.39h0Zm-44.15,17.63s.02-.08,0-.12c-.03-.05-.06-.09-.1-.13,.04,.03,.08,.08,.1,.13,.02,.04,.02,.08,0,.12Zm68.52,21.38h0c-.03,1.38-.21,2.76-.54,4.11h0c.33-1.35,.51-2.72,.54-4.11Zm-55.89,10.34c-.48-.1-.95-.19-1.4-.27-1.57-.29-3.15-.45-4.75-.49,1.59,.04,3.18,.21,4.75,.49,.47,.08,.94,.17,1.4,.27Zm31.18-2.96c.56,.23,1.11,.49,1.63,.79-.53-.3-1.07-.57-1.63-.79-.11-.04-.22-.08-.33-.12-2.57-.9-5.25-1.4-7.97-1.48,2.72,.09,5.4,.59,7.97,1.48,.11,.04,.23,.08,.33,.12h0Zm3.25,1.75c.15,.09,.3,.19,.44,.28h0c-.15-.09-.3-.19-.44-.28l-.82-.5,.82,.5h0Zm1.49,13.21h0c.06,.14,.13,.27,.19,.4h0c-.07-.14-.14-.27-.19-.4h0Zm-14.25-16.55c-.41,.01-.81,.04-1.23,.07,.41-.04,.82-.06,1.23-.08h0Zm-5,.86l.1-.04s-.07,.03-.1,.04Zm51.18-4.53c.07,.05,.13,.12,.18,.19,.09,.12,.17,.25,.24,.38,.13,.22,.27,.52,.44,.88h0c-.17-.36-.32-.66-.44-.88-.07-.13-.15-.26-.24-.38-.05-.07-.11-.14-.18-.19-.02-.02-.04-.03-.07-.03,.02,0,.05,.01,.07,.03h0Zm4.9,26.67c-.07-.06-.13-.11-.19-.14-.04-.03-.08-.05-.13-.08,.05,.02,.09,.05,.13,.08,.06,.05,.13,.09,.19,.14,.16,.13,.37,.33,.64,.6h0c-.2-.21-.42-.41-.64-.6h0Zm-53.28-42.47h.02s-.02,0-.02,0Zm1.25-.58c.38-.16,.76-.31,1.15-.44-.39,.14-.78,.29-1.14,.44h0Zm10.36-.83c-.57-.17-1.14-.3-1.73-.4-.78-.13-1.57-.2-2.36-.19,.79,0,1.58,.05,2.36,.19,.58,.1,1.16,.23,1.73,.4Zm-5.39-.51c-.44,.05-.88,.12-1.32,.21,.43-.08,.87-.15,1.32-.21h0Zm-39.41-14.3h0Zm-.71,.05h-.34s.34,0,.34,0h0Zm56.91-4.78c.84,.04,1.68,.1,2.51,.19-.81-.08-1.66-.15-2.51-.19h0Zm-8.61,20.65c.73,.36,1.45,.77,2.14,1.21-.69-.44-1.4-.85-2.14-1.21h0Zm5.17,3.44c-.32-.27-.65-.53-.98-.79,.33,.26,.66,.52,.99,.79h0Zm4.08,3.92c-.28-.3-.57-.6-.86-.9,.29,.3,.58,.6,.86,.9h0Zm-56.54-15.39c-.53-.23-1.12-.42-1.12-.42-1.27-.26-2.56-.38-3.85-.38,1.29,0,2.58,.12,3.85,.38,.38,.12,.75,.26,1.12,.42h0Zm20.98-28.54c.14-.02,.27-.04,.41-.07-.15,.03-.29,.06-.4,.07h0Zm27.23,9.46c.72-.4,1.46-.75,2.22-1.06-.76,.31-1.5,.67-2.22,1.06-.33,.18-.67,.38-1.02,.59,.36-.21,.7-.41,1.03-.59h0Zm3.65-1.59l-.68,.23,.68-.23h0Zm7.16,8.29c.6,.07,1.18,.15,1.74,.23l-1.74-.23h0Zm3.35,.5l.98,.19-.97-.19h0Zm4.44,1.81c.09,0,.18-.02,.27-.04-.09,.02-.18,.03-.27,.04Zm-7.83,10.03c.37,0,.75,.01,1.12,.04,1.21,.42,2.48,.62,3.75,.58-1.28,.03-2.55-.17-3.75-.58-.37-.02-.74-.03-1.12-.03h0Zm23.15-14.24h0c-.41-.09-.83-.17-1.26-.23,.43,.07,.85,.15,1.26,.24h0Zm-66.57-5.03c.53-.05,.88-.12,.93-.21h0c-.05,.09-.4,.16-.93,.21l-.34,.03h0l.34-.03Zm-.83-.74l.32,.06-.32-.06Zm1.72,.44c-.1-.06-.2-.1-.31-.13,.11,.03,.21,.07,.31,.13h0Zm23.85-12.8c-1.1-.12-2.19-.18-3.28-.19,1.08,0,2.17,.07,3.28,.19h0Zm23.51,20.82c.3,.07,.58,.13,.85,.2-.27-.07-.55-.14-.85-.2Zm3.16,.98c-.11-.06-.24-.12-.4-.18,.13,.05,.27,.11,.4,.18h0Zm.32,.42s.06-.07,.05-.11c-.02-.06-.09-.14-.22-.22,.13,.08,.2,.16,.22,.22,.01,.04,0,.09-.04,.11h0Zm13.18-18.6c-.45-.13-.91-.25-1.37-.36l1.37,.36h0Zm-2.07-.54l-1.42-.33c.48,.1,.95,.21,1.42,.33h0Zm25.12,11.68c1.57,.1,2.96,.21,4.22,.34h0c-1.26-.13-2.65-.24-4.22-.34h0Zm25.99,68.38h.04s-.04,0-.04,0c-.61,0-1.22,.11-1.79,.32,.57-.21,1.18-.32,1.79-.32Zm-1.93,.45s.03-.03,.04-.04c-.01,.02-.03,.03-.04,.04h0ZM57.36,75.46h0s0,0,0,0Zm119.29,166.66l-.46-.11s-3.6-1.26-7.45-8.32c-.58-.95-1.08-1.95-1.49-2.98l-4.66,19.29-.65,.44-.25,.73c4.42-2.93,9.58-6.13,14.96-9.04h0Zm-8.63,39.52l-2.21,3.73c.38-.62,2.44-3.81,5.45-4.38l-.82-.3c-.35,.3-.71,.59-1.07,.89l-.91-.72-.22,.15-1.37-1.44c-4.5-3.65-8.78-7.55-12.85-11.68l-.19,.29,14.19,13.46Z"/><ellipse class="ah" cx="118.63" cy="344.38" rx="59.05" ry="11.24"/></g><polygon class="v" points="44.98 211.39 42.65 207.96 37.98 206.56 30.98 213.1 42.33 221.49 47.16 217.76 44.98 211.39"/><polygon class="x" points="120.13 120.3 118.97 113.92 115.3 111.41 111.82 116.24 112.59 120.88 120.13 120.3"/><g><g><path class="z" d="M131.71,73.5c6.71,2.86-2.13-3.26-4.86-4.29-3.43-1.29-11.43-3.14-17.43,.57-6,3.71-3.71-8.86-1.43-11.43,2.29-2.57,6.28-8.14,13.14-8.57,9.04-.57,15.25,5.43,18.89,10.68,3.72,5.36,11.11,14.75,11.68,1.32,0,0-2,6-4.29,4-2.29-2-13.04-21.11-26-19.71-4.32,.46-7.71,2.57-9.71,4-2,1.43-6.29,2-.29-6.57,6-8.57,18.29-16.29,33.43-14.29,15.14,2-9-6-19.57-.14,0,0,.29-6.86,15.57-10.14s-1.79-1.54-5.57-.43c-2.64,.77-8.43,2.43-17.86,13.43,0,0-5.29,5.29-1.57-.71,3.71-6,22.57-28.14,51-17.71,0,0,6.14,1.29,.86-1.14s-16-4.14-19.71-4.14,26.57-10.14,40.14,9.43c0,0,9.43-.57,15,5.71,5.57,6.29,6.11,11.61-1,4-3.9-4.17-7.32-4.89-16.04-5.46,0,0,21.61,7.46,12.46,17.04-9.14,9.57-16.29-2.29-18.14-4.57-1.86-2.29-10.57-10.71-24.29-9.57,0,0,21.04,2.61,25.46,17.46,0,0,1.89,2.64-1.82,7.5-3.71,4.86-5.07,1.04-7.79-1.54-2.71-2.57-10-9.57-15.86-9.14-5.86,.43-9.71,2-13.71,.57,0,0-6.57-.43-.29,1.71s6.29-1.29,13.86,1.29c7.57,2.57,23.57,12.29,13.43,24.71,0,0-2.29,3.71-4.57-1.43-2.29-5.14-1,.71-.71,3.14,.29,2.43,2,9.86-3.43,14.71s-11.43,10.14-16.86,9.57c-5.22-.55-10.56-5.19-12.23-9.1,1.01,2.56,5.23,14.94-7.05,17.24-13.71,2.57-20.5-7.79-19.71-24,0,0,8.15-11.96,26.86-4Z"/><path class="z" d="M176.64,121.07c1-1.07,6.36-8.57,8.29-13,1.93-4.43,4.97-6.36,7.43-7.42,2.64-1.15,4.79-2.01,4.79-2.01,9.07-1.43,12.43,7.57,12.43,7.57,1.36-2.36-1.86-8.64-4.71-10.29-2.3-1.32-2.21-2.86-.93-4.14,2.11-2.11,4.36-7.11,4.36-7.11,14.46-5.79,17.14-11.89,17.14-11.89,3.54,13.71-9.86,17.68-13.18,17.89s-2.25,1.07,2.04,1.39c4.29,.32,6.75-1.61,6.75-1.61,1.07,19.93-17.14,29.04-17.14,29.04,0-3.75-1.07-7.07-1.07-7.07,0,0-2.14-6.21-1.39-.43,.75,5.79-.75,10.07-.75,10.07-8.03,17.59-16.39,20.36-16.39,20.36-3.43-8.14-13.36-4.63-10.23-5.79s2.59-15.57,2.59-15.57Z"/><path class="z" d="M182.56,103.19c.29,4.55-6.95,13.58-6.95,13.58l-1.57-1.12-4.41-7.29c1.26-4.46,1.36-11,1.36-11,3.71,4,11.57,5.83,11.57,5.83Z"/><path class="z" d="M135.85,94.5c9.43,6.29,24.85-3.52,30.11-12.29,3.21-5.36,5.25-9.86,5.25-9.86,7.21,.82,13.07,12,13.07,12,0,0,2.43,5.71,1.57,.29-.86-5.43-3.29-8.14-8.04-12.71-4.75-4.57-2.82-5.86-2.61-6.71s3.36-15.57,13.5-19.14c10.14-3.57,14.71,4.86,16,11.29,1.29,6.43,4.57,9,4.57,9,0,0,2.14,1.86-.29-2.57-2.43-4.43-1.14-4-3-11.71-1.86-7.71-7.86-10.14-5.57-10.14s6-3,7.71-6,3.75-2.11,4.43-.86c1.39,2.57,.92,3.24,1.29,5.29,.37,2.09,.79,4.89,0,7.79-.6,2.21-2,4.79-.57,5.21,1.43,.43,1.29-1.29,1.29-1.29,0,0-.43-8.29,6-1.14,6.43,7.14,3.71,17.71,3.71,17.71-5.29,6.29-6,7.04-8.29,9.18s-6.29,5.82-9.29,.11-7.29-9.14-9.43-10.43c-2.14-1.29-2.14-.57-.29,1.29,1.86,1.86,4.14,5.86,4.14,5.86,0,0,7,9.29-4.14,18.86-11.14,9.57-23.43,2.43-26.57-1-3.14-3.43-2-1.43-2-1.43,1,3.71-2.19,13.4-2.19,13.4-3.9,8.83-36.53,11.88-42.85,10.6-6.32-1.29-10.68-10.6-10.68-10.6,19.66,3.73,23.14-9.97,23.14-9.97Z"/></g><g><path class="u" d="M53.13,72.5c-1.86-.14-2.43-.71-2.43-.71-1.29-4.71-1-14.29,7.14-22.29,8.14-8,16-9.29,22-9,6,.29,1-1.29,1-1.29-10.43-2.14-20.43,5.43-20.43,5.43,9.71-19.43,29-23.57,31-24,2-.43,12.43-.14,3.71-1.43s-17.57,4.43-17.57,4.43c-.14-3.29,9.29-5.43,9.29-5.43,2.29-3.86,5.14-9.57,21.43-13.86,16.29-4.29,24.43,5.29,24.43,5.29-9.29-3.71-18-3.57-26.14-.43s-1.43,1.14,.86,.86c2.29-.29,5.14-1.14,11-1.14s13,3.86,9,7.29c-4,3.43-6.57,6.43-9.43,9.14-2.86,2.71-8.43,11.43-6.57,6.71,1.86-4.71,2.29-12.14-2.29-14.43s-.71,1.14-.71,1.14c5.43,3.57-2.29,18.71-2.29,18.71-5.14-9.43-16.43-9.71-23.86-7.14-7.43,2.57,3.14,.86,4.86,.71,1.71-.14,7.86-1.29,13.86,5.14,6,6.43,0,17.86,0,17.86-16.71-12.29-27.29,.43-30.43,8s-6.14,.29-6.14,.29c-2.29,3.29,3.43,9.71,8.71,0,5.29-9.71,9.43-9,13.86-9.71,4.43-.71,14.57,6.14,14,9.71-.57,3.57-1,11-1,11-17.43-5.29-21.14,1.57-23.43,4.43-2.29,2.86,.14,.86,2.14-.43,2-1.29,4.14-3.43,10.14-3.43s11.86,4.14,11.86,4.14c.57,11.29,3.71,16.57,5.43,19.29,1.71,2.71,.86,5.57-1.57,7.86-2.43,2.29-5.29,.71-5.29,.71,0,0-7.29,2.86-11.86-.29s-4.14-18.29-4.14-18.29c-5.29,9.29-17,20.14-28.43,9-11.43-11.14-1.71-23.86-1.71-23.86Z"/><path class="u" d="M80.85,95.5c.29,2.14,1.43,4.86,1.43,4.86,0,0-7.43,1.71-4.86-.86,2.57-2.57,3.14-6.14,3.43-4Z"/><path class="u" d="M65.42,103.64l-3.57,3.57c-1.86-.86-2.14-4.57-2.14-4.57,3.14,1.14,5.29,1.14,5.71,1Z"/><path class="u" d="M109.56,105.21c6.29,9.14-1.14,12.86-1.14,12.86l-6.29-8.29c4-.14,7.43-4.57,7.43-4.57Z"/></g><g class="am"><path class="v" d="M65.99,47.28c-4.8,4.38-9.11,9.01-11.79,15-.11-6.84,5.43-13.05,11.79-15h0Z"/><path class="v" d="M82.48,37.3c-4.58,.02-8.46-.07-12.88,.86,3.13-3.57,9.2-3.63,12.88-.86h0Z"/><path class="v" d="M100.49,29.07c-6.15-1.1-12.24-1.47-18.21,.64,4.69-4.77,13.04-4.5,18.21-.64h0Z"/><path class="v" d="M106.49,13.43c-1.5,1.5-8.81,3.88-8.56,.03,.41-1.5,1.94-2.32,3.21-2.81-.46,.98-1.08,1.85-1.37,2.63-.06,.13-.11,.31-.09,.41,.06,.05,0-.19-.05-.21,2.12,.23,4.61-.34,6.87-.04h0Z"/><path class="v" d="M205.28,112.78c-.61-2.75-1.63-6.77-5.05-4.16-2.14,2.03-1.73,6.08-1.2,8.88-3-3.48-2.87-11.08,2.8-11.57,3.58-.21,4.25,4.24,3.45,6.85h0Z"/><path class="v" d="M132.53,68.82c3.84,.81,9.53,4.86,5.71,9.07-3.18,3.58-8.97,1-10.92-2.6,2.77,1.73,6.76,3.84,9.46,1.26,2.83-2.95-2.06-5.96-4.25-7.73h0Z"/><path class="v" d="M169.24,12.04c2.57-.37,7.82,.82,6.07,4.45-2.62,4.45-9.74,2.45-12.34-1,2.78,1.38,8.59,2.99,10.66,.06,1.12-1.52-3.31-2.94-4.39-3.51h0Z"/><path class="v" d="M75.77,74.23c-1.37,2.17-5.25,6.81-1.71,8.43,3.18,1.37,6.44-1.94,8.46-4.34-.14,.98-.6,1.89-1.11,2.74-1.58,2.68-5.09,5.06-8.23,3.38-5.05-2.58-.68-8.32,2.59-10.2h0Z"/><path class="v" d="M181.28,86.07c.46,1.44,1.2,2.75,2.22,3.29,1.76,.84,5.18,.29,5.19-2.5,.07-1.3-.17-2.75-.55-4.22,1.68,1.65,2.87,4.43,1.7,6.81-1.43,2.42-5.13,2.84-7.24,1.15-1.32-1.14-1.68-2.95-1.32-4.54h0Z"/><path class="v" d="M201.53,66.57c-1.95-1.34-4.04-2.28-6.23-1.55-2.18,.81-3.02,1.95-1.61,4.09,.79,1.27,1.87,2.48,2.91,3.79-1.56-.62-3-1.51-4.19-2.83-2.64-2.76-1.18-6.05,2.4-6.83,2.68-.71,5.6,1.05,6.72,3.34h0Z"/><path class="v" d="M205.17,68.93c2.54,1.5,5.5,1.75,7.56-.44,2.18-2.13-.4-4.83-2.04-6.67,1.6,.43,3.01,1.39,3.99,2.78,1.95,2.65-.01,5.78-2.8,6.73-2.44,1.01-5.46-.3-6.71-2.39h0Z"/><path class="v" d="M219.96,93.78s.54,4.93-1.39,7.93c0,0,.75-4.61,.11-5.89,0,0-1.61-.21-5.79-1.82,0,0,5.04,1.07,7.07-.21Z"/><path class="v" d="M157.6,83.61c-3.4,5.35-10.79,8.71-16.85,6.02-.85-.32-1.59-.9-2.33-1.42,.89,.12,1.71,.41,2.6,.47,6.08,.93,11.44-1.83,16.58-5.08h0Z"/><path class="v" d="M70.71,95.13c-5.53,2.31-13.25,.77-16.11-4.9-.43-.75-.62-1.62-.83-2.44,.59,.62,1.02,1.31,1.64,1.88,3.96,4.27,9.6,5.03,15.3,5.46h0Z"/><path class="v" d="M153.1,66.36c.14,8.1-9.11,6.59-12.16,1.3-.89-1.56-1.56-3.05-2.42-4.62,1.46,1,2.64,2.43,3.69,3.72,1.05,1.29,2.22,2.09,3.74,2.69,1.55,.64,2.93,1.1,4.2,.54,1.27-.55,2.25-2.03,2.95-3.63h0Z"/><path class="v" d="M143.56,38.64c3.49-1.35,7.06-2.21,10.66-3.12,2.65-.58,5.3,.49,7.55,1.73,1.83,1.04,3.5,2.3,4.93,3.82-1.89-.87-3.72-1.72-5.58-2.44-2.18-.79-4.31-1.55-6.45-1.16-3.65,.82-7.35,1.32-11.12,1.18h0Z"/><path class="v" d="M166.14,23.93c8.13,.01,15.87,5.76,19,13.14-.77-.67-1.41-1.42-2.13-2.09-4.83-4.81-10.48-8.58-16.87-11.05h0Z"/><path class="v" d="M179.56,49.21s5.57-6.43-5.14-13.14c0,0,7,6.14,5.14,13.14Z"/><path class="v" d="M62.78,64.64c1.64,3.27,2.94,4.73,6.54,3.17,1.03-.4,2.01-.89,3.1-1.25-1.24,2.06-3.39,3.92-5.91,3.87-2.84,0-4.39-3.36-3.73-5.8h0Z"/></g><g class="am"><path class="ak" d="M107.63,97.64l5.5,5h-.35s-2,1.58-2,1.58l5.71,9.57,5.57,2.14,.86-3.29s-4.29-2.57-5.86-5c0,0,4.86,.71,7.14-.43l1.86-4.71-1.65,.02,3.79-.3,7.71-8.29-4.25-9.37,5.32,8.73,13.71-1.29,4.71-1.71,8.77-9.16-4.92,6.38-7.29,5.36,12.64,3.86,4.07,3.43v-1.59s5.36,8.45,5.36,8.45l4.07,8.79,1.71-4.71c-.43-4.5-4.93-8.57-4.93-8.57,2.79,2.57,7.5,3.21,7.5,3.21l2.47-2.76-3.11,7.26-3.64,8.36-1.93,12.64,5.57,1.07,3,3.64-1.29,7.71,.23-.08-.27,.73,1.5-1.18,.89-.32,1.71-1.71,5.75-4.5s7.38-7.56,9.13-16.57l.12,1.57,7.5-4.5,10.07-11.79,3-11.79,.38-5.71,3.9-5.86,1.29-7.71-3.43-3.86-1.61,1.44,2.25-2.3-.21-14.14-10.29-11.57-2.14,9,1.07,.21s2.15-4.71,4.94,.22c2.79,4.93,4.07,7.06,2.99,14.35,0,0-6,7.94-9.65,9.44-3.64,1.5-11.14-9.86-15.64-9.65l1.83,2.53-3.11-2.96s5.57,6.43,5.36,14.14c-.19,6.85-3.44,10.46-13.5,13.93-6.21,2.14-17.8-2.82-19.07-4.29l2.61,4.73-2.39,2.54v-2.77s-2.57-2.57-6.64-3.64-.86-.43,1.29-3c2.14-2.57,8.57-9.64,9.43-12.21s8.79,4.71,11.57,9.43l1.29,.64-4.34-8.67,.69,.75,3.43,4.93c0-1.71-.21-6.86-4.29-12.43-4.07-5.57-1.71-9-.22-12.01,1.48-2.98,4.07-7.29,9.65-9.22,5.57-1.93,9.22,2.15,10.93,6.44,1.71,4.29,5.14,6.64,5.14,6.64l-.77-4.7,.55,2.34,3,4.71c-1.5-4.71-1.51-5.36-1.29-11.14,.21-5.79-4.07-10.93-4.07-10.93,3.86-.43,5.36-2.57,6.01-5.36,.64-2.79,3.86,3.64,4.07,4.29l1.29-3.21-4.07-8.14-2.26,1.17-2.02-6.95-11.43-7.71-6.64-.12-.65-2.45-12.86-9-18.57-2-11.29,3.57-.99,2.71h-2.58s-9.71,3.71-9.71,3.71l-7.57,6.43-7.29,7.29-5.14,7,.35,2.11-5.07,2.75-2.14,11.14,3.14,2.43,2.44-.98-7.3,3.55-1.29,19.07,10.07-5.36c-3.21-5.71-2.21-10,1.71-13.5,3.52-3.14,13.48-5.13,21.43,3,7.42,7.59,11.14,9,11.14,9l-6.64-9-9.86-8.79-11.14-1.93-4.75,2.31,.61-1.95c-.07-8.04,8.03-14.03,16.94-16.68,8.33-2.48,17.49-1.89,17.49-1.89l-2.71-1-5.57-.57-10.86,.86-12.71,4.86-1.64,.89,3.92-2.75,2.49-3.11,2.51,1.54,4-2.14c.43-4,9.14-7.71,13-8.71,3.86-1,5.14-2.43,5.14-2.43l-4.14,.57-8.71,1.86-8.25,4.62c1.51-2.11,5.02-6.12,11.25-8.47,8.71-3.29,18.57-3.71,23.43-2.71s8.14,.71,8.14,.71l-6-2.43-6.29-1.14-7-.14h-1.79s5.36-.71,5.36-.71c0,0,6.86-3.43,18.14-.29,11.29,3.14,12.86,6.43,15.71,10.29l2.71,.29c1.4,.28,3.29-.43,8.29,1.71,5,2.14,9.04,10.25,5.42,6.07-4.93-5.71-13.1-5.03-13.1-5.03l.81,.91-4.56-1.23s5.14,2.34,8.13,5.38c2.29,2.33,2.78,5.06,1.94,7.48-1.93,5.57-9.21,5.26-11.36,2.58-3.7-4.63-8.79-10.08-16.93-11.58-8.14-1.5-1.28,.86-1.28,.86l-9.15-1.52c4.37,1.18,19.52,7.42,20.72,16.74,1.51,11.79-6.96,4.02-12,0-4.29-3.42-7.07-3.43-10.71-2.79l9.64,5.36,4.06,4.45-8.98-6.81-6.64-1.29-7.93,.43-4.5-.21s.88,1.75,9.21,2.36c11.1,.81,17.94,10.36,18.86,14.79,1.48,7.12-2.92,10.42-5.36,5.79l1.07,3.98-2.14-4.41s.02,5.36-.64,10.93c-1.18,10.05-18.55,22.32-30.84,10.09l-.07-.15c2.17,19.39-16.38,16.99-19.95,11.28-2.18-3.5-4.78-10.75-2.29-16.86,4.5-11,24.29-4.86,24.29-4.86l-8.57-4-9.71-.57-11.43,4.86-2.29,5.43,6,18Zm98.79-17.21l3.53,1.59-3.1,.55-2.14,4.29-5.36,8.57,2.29,.34-14.79,3.8,11.86-5.21,7.07-10.29-.83-5.69,1.48,2.05Zm-2.79,15.64l2.11,2.58-3.31-2.76,1.2,.18Zm9.75-15.06l-.54,.48-.67,.12,1.21-.6Zm-28.18,46.77c2.79,0,2.79-3.43,2.79-3.43,0,0,0-4.71,.21-8.36,.21-3.64-3-2.57-3-2.57,3.43-4.5-1.5,.43,6.86-8.36,8.36-8.79,17.14-.21,17.14-.21l-1.48-3.79,1.7,2.07c.64-3-4.5-8.57-1.29-11.36,3.21-2.79,3.43-5.14,3.43-5.14,6.86-2.36,10.07-10.71,11.57-6.21s-12.21,10.93-12.21,10.93c0,0,1.29,3.21,7.5,4.71-.46-.03,2.53,6.79-10.71,17.79,0,0-2.21,2.21-3.43,.21-1.58-2.6-2.57-4.07-2.57-4.07l.04,.5c-.09-.24-.18-.48-.29-.72,0,0-1.58,16.18-13.23,26.9-.27-3.68-1.6-5.33-4.09-6.32-3.21-1.29-4.07-1.5-3.86-2.79,.21-1.29,2.14,.21,4.93,.21Zm.35-26.4l-2.51-1.26,1.52,.44,1.66-.73-.66,1.55Zm-10.21-44.61l-.77-2.38,1.11,1.22-.34,1.16Zm30.46-23.21l-.95,.49,.68-.74,.27,.25Zm-12.9,10.33l3.23-.33,1.64-1.79,.93,2.43-5.81-.31Zm-11.01,4.38l3.31-4.93-3.27-4.56,4.96,4.79h-.19s-4.81,4.7-4.81,4.7Zm-16.78,31.64l1.38-7.44,.06,.23,7.26-10.72-2.33,7.93,4.71,2.36,2.34,2.51-7.06-4.87-3.21,2.14-1.07,5.14-2.09,2.71Z"/><path class="ak" d="M157.84,25.11l-1.14-.19c.11-.04,.52,.02,1.14,.19Z"/><path class="ak" d="M139.21,55.49c.71-.14,9.4,13.91,12.43,6.43l-1.14,4-2.43,1.43-3.71-2.71-4.86-7.43-.29-1.71Z"/></g><g class="am"><path class="ak" d="M63.92,63.49s.64,11.14,12.43-3c9.22-11.06,19.29-1.07,19.93,.86s1.93,6.21-1.07,11.36l7.29,2.57,.86-18.64-14.79-6.21-9.43,2.36-4.5,3.86-2.79,4.71-2.14,4.29-2.79,.86-3-3Z"/><path class="ak" d="M76.35,78.71s16.29-6.64,20.36,1.71c3.41,7,5.36,13.07,5.36,17.14s-.86,2.36-.86,2.36c0,0-15,2.14-17.79-12.43l-1.93,4.93,14.79,12.86h10.93s3-5.57,3-5.57l-5.57-8.14-2.14-16.29-9-1.71-7.07-1.29-6,1.5-4.07,4.93Z"/><path class="ak" d="M78.06,52.14s6.43-5.57,13.71-4.93c2.12,.19,4.68,2.17,6.19,1.65,3.7-1.26,3.24-8.3,.24-11.72-6.02-6.88-17.36-5.36-17.36-5.36l7.5-2.14,10.71,1.71,6.21,8.57-1.93,16.71-5.79-2.36-11.57-2.79-9,3.43-3.21,4.93-3.21,4.71,7.5-12.43Z"/><polygon class="ak" points="109.99 103.14 114.49 112.14 111.92 116.85 108.71 113.21 107.21 105.28 109.99 103.14"/><path class="ak" d="M53.2,72.49s-6.86,20.14,7.93,23.57,22.29-8.57,22.29-8.57l-1.93,6.21-19.71,9.86-8.36-6.21-7.07-12.43,2.79-10.71,4.07-1.71Z"/><path class="ak" d="M85.13,29.63s10.71-3.43,17.36-.43c6.64,3,7.71-7.93,4.93-11.57l2.79,1.5,1.5,5.57-5.14,17.36-5.57-8.36-7.29-3.86-8.57-.21Z"/><path class="ak" d="M108.92,17.42s1.66,.35,3.13,1.71c.84,.77,1.62,1.88,2.01,3.43,1.07,4.29,10.29-4.07,9.64-7.93s-3.43-5.57-20.36-3.86l6.64-2.14,12.64-.86,9.86,4.93-6,5.57-9.43,9-6.64,9.21-1.5-1.5,2.79-10.29-.43-3.64-2.36-3.64Z"/><path class="ak" d="M82.78,40.35s-12.86-.22-20.79,7.71-13.07,18.43-8.78,24.43l-2.57,.86-1.93-2.14,.86-14.36,6.86-9.43,6.64-3.43,8.14-3.64,6-1.07,5.57,1.07Z"/><path class="ak" d="M98.63,19.99s-27.21,4.29-34.5,22.71l-5.14,3.86,.21-3,7.71-12.21,9.86-6.21,12.86-4.71,3.64-.86,5.36,.43Z"/><path class="ak" d="M130.35,8.63s-23.57-13.07-40.5,9.43c0,0,4.29-.43,7.07,1.5l-5.79,.43-9.43,2.79s-10.07,4.29-9.86,3.64,4.93-5.79,4.93-5.79l8.14-3.64,8.57-7.93,14.14-6.86,14.14-.21,11.14,4.5,3.64,5.14-6.86,2.57,.64-5.57Z"/><path class="ak" d="M72.27,57.71s-5.36,10.07-8.14,4.71l.21,2.36,3,1.93,2.57-2.14,2.36-6.86Z"/></g><path class="r" d="M55.44,100.65s.73,2.32,2.14,5.82,2.7,6.96,7.2,3.53c4.25-3.24,10.29-6,15-4.93,4.14,.94,7.58,4.72,11.36,5.57,5.92,1.33,6,.86,10.5,7.07,1.72,2.38,6.34,7.62,8.5,4.6,1.68-2.35,3.4-4.99,5.14-7.96,0,0,6.63,7.34,16.36,4.85,35.44-9.08,35.7-5.13,38.79,1.5,2.37,5.11-6.2,16.14-2.14,18s5.8,1.39,7.93,1.5c3.03,.16,3.44,6.34,5.84,5.82,6.39-1.36,11.62-6.54,21.38-23.37,0,0,20.57-4.87,22.57-34.59,0,0,8.86-11.71,2-19.71,0,0,2.57-15.43-10-26.86,0,0-6-26-28-26.86,0,0-14-24.86-52-5.43,0,0-25.57-23.29-52.86,6.29,0,0-18.63,8.29-28.6,30.57,0,0-13.11,9.71-8.54,26.57,0,0-10.54,15.15,7.45,28.01ZM202.14,27.35c-3.9-4.17-7.32-4.89-16.04-5.46,0,0,21.61,7.46,12.46,17.04-9.14,9.57-16.29-2.29-18.14-4.57s-10.57-10.71-24.29-9.57c0,0,21.04,2.61,25.46,17.46,0,0,1.89,2.64-1.82,7.5-3.71,4.86-5.07,1.04-7.79-1.54-2.71-2.57-10-9.57-15.86-9.14-5.86,.43-9.71,2-13.71,.57,0,0-6.57-.43-.29,1.71,6.29,2.14,6.29-1.29,13.86,1.29,7.57,2.57,23.57,12.29,13.43,24.71,0,0-2.29,3.71-4.57-1.43-2.29-5.14-1,.71-.71,3.14,.29,2.43,2,9.86-3.43,14.71-5.43,4.86-11.43,10.14-16.86,9.57-5.22-.55-10.56-5.19-12.23-9.1,1.01,2.56,5.23,14.94-7.05,17.24-13.71,2.57-19.64-7.14-19.71-24,0,0,8.15-11.96,26.86-4,6.71,2.86-2.13-3.26-4.86-4.29-3.43-1.29-11.43-3.14-17.43,.57-6,3.71-3.71-8.86-1.43-11.43,2.29-2.57,6.28-8.14,13.14-8.57,9.04-.57,15.25,5.43,18.89,10.68s11.11,14.75,11.68,1.32c0,0-2,6-4.29,4-2.29-2-13.04-21.11-26-19.71-4.32,.46-7.71,2.57-9.71,4-2,1.43-6.29,2-.29-6.57,6-8.57,18.29-16.29,33.43-14.29,15.14,2-9-6-19.57-.14,0,0,.29-6.86,15.57-10.14,15.29-3.29-1.79-1.54-5.57-.43-2.64,.77-8.43,2.43-17.86,13.43,0,0-5.29,5.29-1.57-.71,3.71-6,22.57-28.14,51-17.71,0,0,6.14,1.29,.86-1.14s-16-4.14-19.71-4.14,26.57-10.14,40.14,9.43c0,0,9.43-.57,15,5.71,5.57,6.29,6.11,11.61-1,4Zm-28.09,109.29c3.12-1.16,2.59-15.57,2.59-15.57,1-1.07,6.36-8.57,8.29-13,1.93-4.43,4.97-6.36,7.43-7.42,2.64-1.15,4.79-2.01,4.79-2.01,9.07-1.43,12.43,7.57,12.43,7.57,1.36-2.36-1.86-8.64-4.71-10.29-2.3-1.32-2.21-2.86-.93-4.14,2.11-2.11,4.36-7.11,4.36-7.11,14.46-5.79,17.14-11.89,17.14-11.89,3.54,13.71-9.86,17.68-13.18,17.89s-2.25,1.07,2.04,1.39c4.29,.32,6.75-1.61,6.75-1.61,1.07,19.93-17.14,29.04-17.14,29.04,0-3.75-1.07-7.07-1.07-7.07,0,0-2.14-6.21-1.39-.43,.75,5.79-.75,10.07-.75,10.07-8.03,17.59-16.39,20.36-16.39,20.36-3.43-8.14-13.36-4.63-10.23-5.79Zm-4.41-28.29c1.26-4.46,1.36-11,1.36-11,3.71,4,11.57,5.83,11.57,5.83,.29,4.55-6.95,13.58-6.95,13.58l-1.57-1.12-4.41-7.29Zm-56.93-3.88c19.66,3.73,23.14-9.97,23.14-9.97,9.43,6.29,24.85-3.52,30.11-12.29,3.21-5.36,5.25-9.86,5.25-9.86,7.21,.82,13.07,12,13.07,12,0,0,2.43,5.71,1.57,.29-.86-5.43-3.29-8.14-8.04-12.71-4.75-4.57-2.82-5.86-2.61-6.71s3.36-15.57,13.5-19.14c10.14-3.57,14.71,4.86,16,11.29,1.29,6.43,4.57,9,4.57,9,0,0,2.14,1.86-.29-2.57-2.43-4.43-1.14-4-3-11.71-1.86-7.71-7.86-10.14-5.57-10.14s6-3,7.71-6,3.75-2.11,4.43-.86c1.39,2.57,.92,3.24,1.29,5.29,.37,2.09,.79,4.89,0,7.79-.6,2.21-2,4.79-.57,5.21,1.43,.43,1.29-1.29,1.29-1.29,0,0-.43-8.29,6-1.14,6.43,7.14,3.71,17.71,3.71,17.71-5.29,6.29-6,7.04-8.29,9.18s-6.29,5.82-9.29,.11c-3-5.71-7.29-9.14-9.43-10.43-2.14-1.29-2.14-.57-.29,1.29,1.86,1.86,4.14,5.86,4.14,5.86,0,0,7,9.29-4.14,18.86-11.14,9.57-23.43,2.43-26.57-1-3.14-3.43-2-1.43-2-1.43,1,3.71-2.19,13.4-2.19,13.4-3.9,8.83-36.53,11.88-42.85,10.6-6.32-1.29-10.68-10.6-10.68-10.6Zm-10.57,5.31c4-.14,7.43-4.57,7.43-4.57,6.29,9.14-1.14,12.86-1.14,12.86l-6.29-8.29Zm-24.71-10.29c2.57-2.57,3.14-6.14,3.43-4,.29,2.14,1.43,4.86,1.43,4.86,0,0-7.43,1.71-4.86-.86Zm-17.71,3.14c3.14,1.14,5.29,1.14,5.71,1l-3.57,3.57c-1.86-.86-2.14-4.57-2.14-4.57Zm-6.57-30.14c-1.86-.14-2.43-.71-2.43-.71-1.29-4.71-1-14.29,7.14-22.29,8.14-8,16-9.29,22-9,6,.29,1-1.29,1-1.29-10.43-2.14-20.43,5.43-20.43,5.43,9.71-19.43,29-23.57,31-24,2-.43,12.43-.14,3.71-1.43s-17.57,4.43-17.57,4.43c-.14-3.29,9.29-5.43,9.29-5.43,2.29-3.86,5.14-9.57,21.43-13.86,16.29-4.29,24.43,5.29,24.43,5.29-9.29-3.71-18-3.57-26.14-.43s-1.43,1.14,.86,.86c2.29-.29,5.14-1.14,11-1.14s13,3.86,9,7.29c-4,3.43-6.57,6.43-9.43,9.14-2.86,2.71-8.43,11.43-6.57,6.71,1.86-4.71,2.29-12.14-2.29-14.43-4.57-2.29-.71,1.14-.71,1.14,5.43,3.57-2.29,18.71-2.29,18.71-5.14-9.43-16.43-9.71-23.86-7.14-7.43,2.57,3.14,.86,4.86,.71,1.71-.14,7.86-1.29,13.86,5.14,6,6.43,0,17.86,0,17.86-16.71-12.29-27.29,.43-30.43,8-3.14,7.57-6.14,.29-6.14,.29-2.29,3.29,3.43,9.71,8.71,0,5.29-9.71,9.43-9,13.86-9.71,4.43-.71,14.57,6.14,14,9.71-.57,3.57-1,11-1,11-17.43-5.29-21.14,1.57-23.43,4.43-2.29,2.86,.14,.86,2.14-.43,2-1.29,4.14-3.43,10.14-3.43s11.86,4.14,11.86,4.14c.57,11.29,3.71,16.57,5.43,19.29,1.71,2.71,.86,5.57-1.57,7.86-2.43,2.29-5.29,.71-5.29,.71,0,0-7.29,2.86-11.86-.29-4.57-3.14-4.14-18.29-4.14-18.29-5.29,9.29-17,20.14-28.43,9-11.43-11.14-1.71-23.86-1.71-23.86Z"/></g><g id="b"><path id="c" class="w" d="M176.49,131.21s10.57-.86,7.43,9.71-15.43,7.71-15.43,7.71l-30.29,40s-10.57,8.57-26.29,2.57l-40.86-62.86,45.72-8.57,59.72,11.43Z"/><path id="d" class="ag" d="M135.77,162.92s-4.26,3.03-13.5,3.64c-3.7,.24-8.57,.43-13.71-1.29"/><path class="ai" d="M135.05,146.35s4.51,5.86,18.51,6.87c0,0-16.86,32.13-20.29,35.84l4.93-.43,30.29-40s13.14,3.5,16.25-9.61l-2.04-6.82-7.71-.86s-13.08,25.57-39.94,15Z"/><path class="ai" d="M115.74,135.35c.04,.28-4.31,5.92-9.89,6.71,0,0-3.43,7.86-18.86,10.86l-2.71-4.14,12.86-5.14,6.14-4.57c4.18-.05,7.98-1,12.46-3.71Z"/><path class="v" d="M170.27,144.69c1.34-1.37,2.67-2.73,4.01-4.1,.7-.72,1.48-1.47,2.48-1.58,1.47-.15,2.75,1.36,2.67,2.84s-1.23,2.73-2.59,3.32-2.88,.61-4.36,.51c-1.09-.08-2.18-.23-3.25-.44"/></g><g id="e"><path class="r" d="M48.11,115.8h4.78c2.39-13.98,14.55-24.62,29.21-24.62,14.66,0,26.82,10.64,29.21,24.62h8.43c2.39-13.98,14.55-24.62,29.21-24.62,14.66,0,26.82,10.64,29.21,24.62h5.85c.58,0,1.05,.47,1.05,1.05v7.95c0,.58-.47,1.05-1.05,1.05h-5.85c-2.39,13.98-14.55,24.62-29.21,24.62-14.66,0-26.82-10.64-29.21-24.62h-8.43c-2.39,13.98-14.55,24.62-29.21,24.62-14.66,0-26.82-10.64-29.21-24.62h-4.78c-.58,0-1.05-.47-1.05-1.05v-7.95c0-.58,.47-1.05,1.05-1.05Z"/><g><circle class="p" cx="148.95" cy="120.82" r="26.46"/><circle class="t" cx="148.95" cy="120.82" r="25.33"/><circle class="ab" cx="148.95" cy="120.82" r="24.26"/></g><g><circle class="p" cx="82.1" cy="120.82" r="26.32"/><circle class="s" cx="82.1" cy="120.82" r="25.2"/><circle class="ab" cx="82.1" cy="120.82" r="24.13"/><path class="ac" d="M98.51,120.82c0-12.01-8.78-21.97-20.27-23.82,1.26-.2,2.54-.31,3.86-.31,13.33,0,24.13,10.8,24.13,24.13s-10.8,24.13-24.13,24.13c-1.31,0-2.6-.11-3.86-.31,11.49-1.85,20.27-11.81,20.27-23.82Z"/><path class="ac" d="M165.87,120.82c0-12.01-8.78-21.97-20.27-23.82,1.26-.2,2.54-.31,3.86-.31,13.33,0,24.13,10.8,24.13,24.13,0,13.33-10.8,24.13-24.13,24.13-1.31,0-2.6-.11-3.86-.31,11.49-1.85,20.27-11.81,20.27-23.82Z"/></g></g><g id="f"><path class="v" d="M119.7,125.85c-5.65-.43-9.41-1.07-15.06-2.57s-8.53,1.86-8.28,6.5c.23,4.33,3.14,7,6.59,8.5,4.8,2.09,9.22-1.07,9.22-1.07"/><path class="q" d="M119.7,125.85c-4.09-.16-8.19-.63-12.2-1.55-2.02-.39-3.98-1.18-5.92-.97-4.37,.2-5.63,5.36-4.25,8.85,2.18,5.75,9.56,8.21,14.84,5.03-5.28,4.31-13.44,1.5-15.77-4.7-1.5-4.02,.12-9.87,5.13-9.96,2.13-.12,4.08,.73,6.11,1.19,3.96,1.02,7.99,1.69,12.06,2.11h0Z"/></g><polygon class="v" points="52.78 212.98 48.71 206.81 42.16 207.46 46.52 213.2 50.6 213.31 52.78 212.98"/><polygon class="y" points="97.04 203 95.34 199.5 107.7 187.57 109.2 190.35 103.84 200.42 97.04 203"/><g><path class="j" d="M110.59,189.42s21.43,21.86,1.18,40.61c-8.95,8.29-15.33,12.45-19.66,14.52-1.45,1.76-3.76,2.63-7.34,1.94-.22-.03-.32-.06-.32-.06-15.86-3.43-35.14-12.86-35.14-12.86,15.43-7.29,15-21,15-21l8.71,6.78c5.17-4.49,9.67-2.23,12.51,.41l11.5-16.75"/><path class="j" d="M99.36,345.61c11.92,2.17,18.49-.78,18.49-.78l2.51-35.21-20.54-.57-.46,36.57Z"/><path class="j" d="M124.72,310.33l-.51,36.57c13.84,5.14,20.76-.58,20.76-.58l2.82-35.43-23.06-.57Z"/><polygon class="aa" points="138.11 189.73 118.39 223.98 104.71 244.97 104.39 214.01 106.42 197.29 109.74 189.29 115.67 190.94 116.39 192.58 122.16 193.88 123.95 190.84 131.15 189.58 138.11 189.73"/><path id="g" class="i" d="M120.02,201.71l-3.36,26.02-10.65,20.74s-2.29-11.6-.77-27.69l9.32-19.18s-1.18,.03-1.68-1.2c-.43-1.06,2.25-5.12,2.25-5.12,0,0,.89-2.41,2.49-2.22,1.81,.22,1.7-.04,3.09,.39,.63,.19,1.21,.47,1.45,1.84s.67,6.91-2.14,6.43Z"/><g><path class="y" d="M110.03,188.42c-.52,1.64-1.47,4.5-1.47,4.5,0,0-6,19.71-3,55.29s2.79,60.29-1.93,72.29c0,0-3.57,.86-8.29-1.86,0,0-5.5-34.3-6.29-51.86-.64-14.43,2.57-28.42,2.71-33.71"/><path class="ad" d="M110.85,188.68c-2,5.1-3.27,10.58-4.04,15.99-1.64,10.94-2,22.06-1.54,33.11,.54,11.05,1.81,22.14,2.29,33.19,.6,11.1,.91,22.22,.09,33.34-.47,5.72-1.19,11.53-3.29,17.06-3.5,.82-6.99-.31-10-2.04,0,0-.08-.51-.08-.51-2.27-14.2-4.24-28.44-5.49-42.77-.68-7.17-.88-14.46-.15-21.63,.58-7.19,2.23-14.21,3.12-21.34-.51,10.66-2.51,21.43-1.92,32.12,1.01,17.86,3.98,35.59,6.54,53.28,0,0-.52-.75-.52-.75,.59,.33,1.19,.65,1.81,.9,1.74,.74,3.86,1.18,5.71,.91,0,0-.7,.61-.7,.61,1.99-5,2.83-10.51,3.43-15.96,3.86-37.26-7.04-75.15,1.89-112.02,0,0,1.2-3.98,1.2-3.98l1.64,.52h0Z"/></g><path class="ad" d="M138.31,190.71c-2.86-.04-5.77,0-8.61,.23-1.95,.21-4.17,.33-5.8,1.3-.42,.29-.45,.71-.55,1.23-.32,5.63,1.41,11.39,2.64,16.88,0,0-.87,.27-.87,.27-.96-2.78-1.82-5.58-2.51-8.44-.69-3.35-1.78-6.79-.88-10.26,.45-1.37,2.14-2.01,3.3-2.35,4.41-1.13,8.89-1.05,13.38-.88,0,0-.09,2-.09,2h0Z"/><g><path class="y" d="M104.27,250.78s20.35-40.86,35.22-62.86c0,0,11.28-1.01,27.14,7.14l.65,.43s23.07,20.14,30.43,37.71c6.14,14.67-25.07,6.86-25.07,6.86,0,0-4.83-1.68-9.28-12.09-2.4,13.45-6.52,28.35-13.65,39.09,0,0,9.57,32.57,9.14,49.71,0,0-30.57,6.43-50.71,4.71,0,0-2.92-22.34-3.65-29.79"/><path class="ad" d="M104.27,250.78c7.53-16.39,15.82-32.44,24.88-48.04,3.05-5.19,6.16-10.35,9.51-15.38,0,0,.27-.4,.27-.4,0,0,.47-.04,.47-.04,8.53-.24,16.75,2.27,24.45,5.69,1.33,.66,2.75,1.21,3.97,2.05,11.3,10.35,22.19,21.58,29.44,35.22,7.31,12.94-5,14.08-14.76,12.92-3.43-.39-6.79-.98-10.16-1.78-1.41-.59-2.47-1.51-3.52-2.54-2.83-2.85-4.79-6.48-6.39-10.12,0,0,1.9-.22,1.9-.22-2.54,13.72-6.13,27.59-13.8,39.47,0,0,.13-.83,.13-.83,1.18,4.08,2.25,8.17,3.27,12.29,2.97,12.65,6.05,25.43,5.89,38.53-8.65,1.76-17.34,3.12-26.1,4.08-8.76,.92-17.63,1.49-26.51,.74,0,0-.08-.8-.08-.8,0,0-1.49-14.94-1.49-14.94-.47-4.98-.96-9.96-1.33-14.96,0-.09,.06-.17,.15-.18,.09,0,.17,.06,.18,.15,.65,4.96,1.41,9.9,2.16,14.85,0,0,2.31,14.83,2.31,14.83l-.91-.87c16.84,1.06,33.88-1.56,50.42-4.7,0,0-.79,.95-.79,.95,.08-4.13-.34-8.32-.9-12.47-1.8-12.64-4.85-25.11-8.33-37.39,3.88-5.81,6.65-12.33,8.84-19.01,2.47-7.55,4.14-15.42,5.47-23.26,2.42,5.22,4.77,11.53,10.03,14.49,2.74,.65,6.6,1.36,9.76,1.7,3.3,.34,6.66,.53,9.81-.02,1.55-.28,3.09-.8,4.03-1.76,2.17-2.26,.05-5.84-1.08-8.25-7.05-13.31-17.85-24.4-28.86-34.53-5.23-2.92-13.36-5.94-20.21-6.9-2.27-.33-4.64-.54-6.83-.43,0,0,.74-.44,.74-.44-13.07,19.65-24.5,41.63-36.05,62.3h0Z"/></g><path class="ad" d="M110.28,188.21c2.27,.43,8.15,1.62,6.94,5.01-2.76,5.29-7.02,9.58-10.87,14.04,0,0-.77-.66-.77-.66,3.38-4.54,7.35-8.92,9.79-14.03,.07-.17,.04-.4,.07-.16-1.15-1.35-3.74-1.76-5.5-2.23,0,0,.34-1.97,.34-1.97h0Z"/><polygon class="ad" points="109.36 187.97 96.02 200.23 96.28 199.14 101.88 213.71 102.12 214.33 101.67 214.76 93.76 222.33 93.9 221.75 101.28 247.5 92.79 222.1 92.69 221.79 92.93 221.52 100.24 213.37 100.02 214.42 94.41 199.85 94.17 199.22 94.67 198.76 108.04 186.53 109.36 187.97 109.36 187.97"/><polygon class="ad" points="110.2 247.78 135.57 225.58 135.35 226.44 131.54 216.67 131.35 216.17 131.78 215.84 147.92 203.56 147.64 204.77 139.17 188.45 140.95 187.54 149.34 203.89 149.72 204.63 149.06 205.1 132.63 216.98 132.86 216.15 136.77 225.88 136.98 226.41 136.55 226.75 110.2 247.78 110.2 247.78"/><polygon class="v" points="164.78 278.2 174.44 272.59 178.2 274.35 180.04 277.62 178.3 282.06 175.63 284.21 173.06 281.21 168.45 279.55 164.78 278.2"/><path class="k" d="M170.49,275.21s3.64-4.93,7.71-.86-.86,10.29-2.57,9.86"/><g><path class="y" d="M198.63,237.07s-6.29,20.93-32.86,42.79c0,0-14.64-11.29-21.43-20.79,0,0,17.29-13.64,34.86-22"/><path class="ad" d="M199.38,237.29c-6.4,17.33-19.04,31.57-32.97,43.34,0,0-.62,.52-.62,.52l-.62-.5c-7.81-6.37-15.43-12.96-21.47-21.11,0,0-.46-.62-.46-.62,0,0,.62-.47,.62-.47,11.04-8.29,22.69-15.84,35.28-21.53,0,0,.15,.32,.15,.32-3.04,1.6-6.06,3.23-9.01,5-5.89,3.53-11.64,7.29-17.21,11.3-2.78,2.01-5.55,4.05-8.23,6.16,0,0,.16-1.09,.16-1.09,5.96,7.83,13.69,14.36,21.39,20.46,0,0-1.25,.02-1.24,.02,10.46-8.57,19.85-18.59,26.87-30.18,2.31-3.85,4.43-7.9,5.87-12.06,0,0,1.49,.45,1.49,.45h0Z"/></g><path class="m" d="M147.7,264.07s-4.29,9.86-3.64,18.86c.44,6.21,7.39,11.16,7.79,11.36,.86,.43,11.57,.64,13.5,0s4.29-4.29,4.29-4.29c0,0,9.64-3,3.43-8.79-6.21-5.79-10.93,2.57-10.93,2.57l2.29-3.86"/><line class="k" x1="163.85" y1="279.71" x2="160.35" y2="288.71"/></g><g><path class="ae" d="M101.28,262.97c0,1.9,1.33,3.43,2.95,3.42s2.94-1.55,2.93-3.44-1.33-3.42-2.95-3.41-2.93,1.55-2.92,3.44Z"/><path class="l" d="M100.65,262.86c0,1.87,1.22,3.39,2.71,3.38s2.7-1.53,2.69-3.4-1.22-3.38-2.71-3.38-2.69,1.53-2.68,3.4Z"/><path class="ad" d="M100.16,262.79c0,1.9,1.22,3.43,2.71,3.42s2.7-1.55,2.69-3.44-1.22-3.42-2.72-3.42-2.69,1.55-2.68,3.43Z"/></g><g><path class="ae" d="M102.03,278.29c0,1.9,1.32,3.43,2.93,3.42s2.92-1.55,2.92-3.44-1.32-3.42-2.94-3.41-2.92,1.55-2.91,3.44Z"/><path class="l" d="M101.4,278.18c0,1.87,1.22,3.39,2.71,3.38s2.7-1.53,2.69-3.4-1.22-3.38-2.71-3.38-2.69,1.53-2.68,3.4Z"/><path class="ad" d="M100.91,278.11c0,1.9,1.22,3.43,2.71,3.42s2.7-1.55,2.69-3.44-1.22-3.42-2.72-3.42-2.69,1.55-2.68,3.43Z"/></g><g id="h"><path class="ad" d="M144.87,238.3c-4.59,2.74-11.89,2.4-16.44-.29,5.36,1.37,11.07,1.69,16.44,.29h0Z"/></g><path class="ad" d="M63.47,210.9s-13.89,2.51-15.96,22.65c0,0,19.49-4.06,15.96-22.65Z"/><path class="n" d="M37.18,205.35c0-.32-.02-.65-.04-1l12.29-7.86s-7.71-9.57-15.43-4c-.24,.17-.47,.35-.69,.53"/><path class="n" d="M41.34,197.67c-16.17-27.86-32.84-56.61-32.84-56.61,0,0,0,3.43-4.71,2.36,0,0,15.72,27.23,31.48,54.53"/><path class="v" d="M32.23,193.6c-6.28,5.55-4.07,13.65-3.73,14.81,.64,2.22,8.71,6.15,8-3.43"/><path class="o" d="M32.52,193.46c-6.28,5.55-4.36,13.8-4.03,14.96,.64,2.22,8.71,6.15,8-3.43"/><g><path class="v" d="M53.89,229.73c-.36,.24-3.9-15.96-3.47-19.96s-5.43-2.57-5.43-2.57c-15.14,1.57-11.43-9.71-11.43-9.71,7.14,1.14,14-1.86,14-1.86,0,0,6.14-3.14,8.86,6.57s7.32,10.57,7.32,10.57c0,0,.8,9.78-9.86,16.96Z"/><path class="ad" d="M54.11,230.06c-.63,.32-.77-.59-.92-1-.15-.5-.53-1.98-.66-2.52-1.04-4.49-1.98-9.02-2.52-13.6-.09-.87-.17-1.76-.16-2.64,.03-.75,.16-1.54-.34-2.08-.28-.31-.72-.5-1.22-.61-1.01-.2-2.18-.09-3.22,.14-1.58,.16-3.19,.22-4.8,.06-6.05-.4-8.98-5.21-7.07-10.88,3.38,.6,6.89,.34,10.25-.48,1.67-.36,3.17-.98,4.78-1.55,1.74-.5,3.76-.1,5.15,1.09,2.8,2.3,3.23,6.03,4.45,9.14,1.2,2.86,2.91,6.17,5.97,7.26,0,0,.3,.08,.3,.08,0,0,.02,.27,.02,.27-.38,5.16-2.57,10.15-6.3,13.76-.87,.95-1.96,1.65-2.87,2.55-.27,.35-.51,.76-.87,1.01h0Zm-.44-.65c.34-.25,.8-.32,1.22-.47,1.11-.62,2.01-1.58,2.93-2.46,3.42-3.54,6.16-8.64,5.54-13.67,0,0,.32,.35,.32,.35-1.81-.53-3.04-1.81-4.15-3.21-1.04-1.39-1.82-2.93-2.46-4.51-1.22-3.03-1.62-6.61-4.23-8.75-2.9-2.48-6.05,.11-9.15,.69-3.31,.82-6.78,1.14-10.2,.62l.55-.34c-1.43,4.95,1.2,8.71,6.36,9.05,1.49,.16,3.02,.11,4.54-.04,.82-.18,2.42-.38,3.59-.12,1.37,.18,2.61,1.49,2.46,2.92-.12,1.17-.05,2.22,.06,3.38,.54,5.1,1.52,10.19,2.7,15.19,.1,.35,.28,1.12,.43,1.46-.06-.12-.38-.19-.5-.07h0Z"/></g><path class="n" d="M54.11,230.64s-1.72,2.02-2.84,.41c-.66-.95-3.42-4.4-4-6.79l2.83-.69"/><path class="v" d="M42.91,214.24c2.43-1.04,5.88-.27,6.57,.04,2.07,.93,6.12,8.07-1.71,10.5-6.16,1.91-12.46-5.02-13.43-8.93"/><path class="af" d="M121.42,346.78c-.4-7.73,5.78-14.2,13.14-14.29,7.58-.09,14,6.62,13.43,14.57,.56,4.51-25.84,4.37-26.57-.29Z"/><path class="af" d="M118.99,345.64c-1.49,2.75-22.07,4.14-30.08,1.65-2.1-.42-1.86-17.19,10.8-15.15,0,0,2.14,5.49,8.57,5.92,6.43,.43,10.71,7.57,10.71,7.57Z"/><path class="ad" d="M161.86,210.26c-.28-4.37-.95-13.28,3.83-15.43,1.28-.3,1.76,1.6,.49,1.94-3.38,2.27-3.1,9.55-3.07,13.37,.09,.83-1.18,.96-1.25,.12h0Z"/><path class="o" d="M30.41,210c-.05,1.71,4.25,11.1,11.43,7.78,7.45-3.45,.86-9.64-.93-10.57"/><path class="n" d="M46.77,207.35c6.28,10.83,28.49,47.24,28.42,48.18-.28,4.2-4.35,3.46-4.85,2.97-7.64-13.08-14.99-26.15-20.17-35.14"/><path class="o" d="M44.95,215.21c.96-4.07,4.21-1.53,4.75-1,1.18,1.17,6.19,8-1.64,10.43-6.16,1.91-14.24-4.39-14.09-8.41"/><ellipse class="n" cx="4.51" cy="139.44" rx="3.21" ry="5.79" transform="translate(-69.11 20.94) rotate(-30)"/><polygon class="ae" points="7.7 144.36 38.57 197.41 41.34 197.67 8.49 141.06 7.7 144.36"/><path class="ae" d="M52.3,221.62l21.26,35.9s.19,2.59,1.64-1.99l-22.9-38.02v4.11Z"/><polygon class="ae" points="44.18 207.12 47.66 212.92 50.89 214.08 46.21 206.83 44.18 207.12"/><path class="ae" d="M6.3,144.65s1.74-2.51-.77-6.38-3.72-3.53-4.3-2.56,.24-5.99,6.62,3.09c0,0,1.87,2.03,0,5.12-.31,.51-.68,.53-1.55,.72Z"/><g class="al"><path class="aj" d="M91.72,233.62s0-.06,0-.09c0,0,0,.04,0,.09Z"/><path class="aj" d="M55.35,229s9.47,4.96,21.52,9.69c2.68,1.05,6.73,2.26,8.41,1.52,5.89-2.58,6.39-6.03,6.43-6.6-.44,8.76-2.36,13.25-2.36,13.25l-7.1-.22-33.8-12.27,6.89-5.38Zm85.67,10.98l3.87-1.29s-2.58,12.49-4.52,13.99-10.98,2.15-12.92,0c0,0,8.61,1.51,10.98-.65,1.59-1.45,2.59-12.05,2.59-12.05h0Zm-40.69-25.62l-1.72,2.15-4.31-9.69,1.94-2.8,4.09,10.33Zm-17.33,9.58c-.63-2.59-2.48-4.71-4.95-5.7,3.23-1.94,7.43,2.69,7.43,2.69,0,0-1.5,7.34-2.48,3.01Zm59.95,66.77c-8.61-9.47,2.01-25.83,2.01-25.83l-5.17-6.31,13.49-9.76h.01c5.01-9.74,9.57-23.89,9.57-23.89,1.77,2.91,3.9,5.59,6.35,7.96,3.01,3.12,6.41,5.69,10.32,4.54-.85,.41-1.76,1-2.46,1.38-2.8,1.51-4.31,1.83-6.73-.09-1.19-.94-2.23-2.06-3.08-3.32-1.41-1.92-2.61-4-3.56-6.19l-4.71,19.5-3.39,2.29-2.46,2.27-8.61,6.31,3.01,4.45-1.87,6.6s-3.3,2.87-1.58,13.49,12.49,11.77,12.49,11.77l.04-.36,2.48,22.5-6.67,.75c.32-4.63-.12-9.28-1.29-13.78-.92-3.36-1.64-6.29-2.15-8.44-2.16-1.79-4.17-3.74-6.03-5.84Zm50.16-54.82c-2.09-8.36-12.58-21.93-22.71-30.77-4.2-4.53-5.55-1.22-5.06,5.15,0,0-2.4-4.97-1.54-10.2-4.82-3-10.18-5-15.79-5.89l5.62,12-16.36,11.77,3.73,8.61-30.58,21.39,25.35-20.95-3.16-10.05,15.5-12.34-5.17-12.05,.38,.04-2.1-4.06,3.45,.43s14.21,1.94,22.17,6.24c7.96,4.3,32.29,32.08,31.43,42.19,0,0-.54,11.95-29.17,39.72l-4.41,2.91-4.52-4.74s35.3-29.92,32.94-39.39h0Zm-49.87,84.67v.06s4.45-.78,4.45-.78l-1.64,20.88-6.25-1.07,.83-14.3c-3.72,2.06-10.16,2.48-16.04,.96l.29-4.02,18.37-1.72Zm-39.04,.29l2.01-8.61,1.44,9.18,11.19,1.44-1.07,21.97-6.1-2.37,.44-15.52c-4.14,1.16-8.76,1.06-12.49-1.77l.57-4.59,4.02,.28Zm1.15-72.9s-5.31-30.57,4.45-59.99l3.01,2.58s-2.27,2.03-3.96,12.57l3.37-3.78,.97,2.14-4.91,5.77c-.91,7.65-1.49,18.68-1.1,34.54l11.02-39.69s3.01-4.74,.2-7.97l3.66-.43,.07,1.29,1-4.02,13.93-.38s-7.57,.19-9.51,3.49c0,0-1.54,4.2-.54,12.96l-1.59,3.87-2.68-11.05,.53,3.73c-.23,.78-.8,1.42-1.55,1.75l-1.55,14.95-3.3,5.82,2.39-23.6-2.8,24.98-11.19,21.74v-.42l.38-1.41-.31,.54Zm17.34-48.34l-.39-1.59,.12,2.22c.14-.18,.23-.4,.26-.63h0Z"/><path class="aj" d="M107.62,188.9s-8.89,23.02-2.26,59.05c0,0-3.13-42.45,4.44-59.34l-.87-1.75-1.31,2.04Z"/></g></svg>