<svg xmlns="http://www.w3.org/2000/svg" width="150" height="150" viewBox="0 0 150 150"><path d="M59.2515,114.4692c4.0469-2.2151,8.2054-4.1364,12.4031-6.042l-1.7587-2.2216q-5.8564,5.94-11.7126,11.88a1.4317,1.4317,0,0,0,1.7587,2.2216,57.0344,57.0344,0,0,1,14.3212-6.4055l-1.098-2.6a41.0683,41.0683,0,0,0-15.4411,14.486,1.439,1.439,0,0,0,1.9862,1.93l23.7631-13.3335-1.4593-2.45L57.8947,129.5783a1.46,1.46,0,0,0-.7028,1.4132,1.3922,1.3922,0,0,0,1.04,1.1894,12.4381,12.4381,0,0,0,7.6288-1.5567c2.4425-1.252,4.7365-2.8224,7.0676-4.2667l14.7994-9.1695-1.4593-2.45A140.3769,140.3769,0,0,0,61.08,136.8186a1.4322,1.4322,0,0,0,1.7587,2.2216q13.3308-6.5784,26.1236-14.1745l-1.4594-2.45c-7.4813,4.7795-15.1494,9.65-21.2282,16.2054a44.9,44.9,0,0,0-4.5963,5.8389c-.8494,1.2911.7953,2.5421,1.9862,1.93a285.9347,285.9347,0,0,0,27.6264-16.1983L89.532,127.97l-15.9907,14.144a1.4008,1.4008,0,0,0-.1164,1.871,1.4961,1.4961,0,0,0,1.8751.3506l14.2461-6.3442-2.1384-.8477a3.5911,3.5911,0,0,1-1.1367,4.0977,1.4209,1.4209,0,0,0-.0015,2.0161,1.5072,1.5072,0,0,0,2.06-.0233,6.3339,6.3339,0,0,0,1.896-6.8454,1.4818,1.4818,0,0,0-2.1383-.8477l-14.2461,6.3442,1.7587,2.2216L91.59,129.9629c1.2311-1.0889-.3974-3.1265-1.7587-2.2216A285.9588,285.9588,0,0,1,62.205,143.94l1.9862,1.93c4.6585-7.0816,11.583-12.3089,18.5449-16.962,2.0572-1.375,4.1407-2.71,6.2259-4.0422a1.4262,1.4262,0,0,0-1.4594-2.45Q74.7231,130.01,61.3791,136.59l1.7587,2.2216A137.2286,137.2286,0,0,1,87.7272,117.188c1.5278-1.0509.1417-3.4423-1.4593-2.45l-14.0595,8.7111c-2.2227,1.3772-4.42,2.8136-6.6879,4.1148-1.9377,1.1115-4.2013,2.2073-6.5031,1.8625l.3366,2.6026,24.1194-17.6435a1.4632,1.4632,0,0,0,.5309-1.9545,1.4841,1.4841,0,0,0-1.99-.4958L58.251,125.2683l1.9862,1.93a38.109,38.109,0,0,1,14.3874-13.4459,1.4257,1.4257,0,0,0-1.098-2.6,60.05,60.05,0,0,0-15.0439,6.7045l1.7587,2.2216q5.8561-5.94,11.7125-11.88a1.41,1.41,0,0,0,.1165-1.871,1.4942,1.4942,0,0,0-1.8752-.3506,135.6864,135.6864,0,0,0-12.1659,6.44,1.1944,1.1944,0,0,0,1.2222,2.0521Z" fill="#ffb900"/><path d="M69.3438,30.086a43.9575,43.9575,0,0,0-14.6206,1.9917c-4.2683,1.3418-7.9541,3.825-9.9208,7.9568-1.9179,4.0292-1.9535,8.4589-2.96,12.7324-1.0761,4.57-2.62,9.0048-3.4447,13.6368a42.0894,42.0894,0,0,0-.4138,13.6554,26.4776,26.4776,0,0,0,5.3649,12.462,45.2991,45.2991,0,0,0,20.6654,14.5124,46.0245,46.0245,0,0,0,12.4344,2.4879,36.2255,36.2255,0,0,0,12.69-1.2723,19.1786,19.1786,0,0,0,10.4959-7.6372,54.7327,54.7327,0,0,0,4.8842-10.1353,120.651,120.651,0,0,0,5.9286-17.41c1.4062-5.8139,2.21-11.942,1.1241-17.88a21.44,21.44,0,0,0-9.1225-14.0593c-7.2144-4.8922-16.5574-5.8443-25.0411-5.3334-2.3956.1443-4.7795.4148-7.1566.7407a1.4484,1.4484,0,0,0-1.04,1.7521,1.4775,1.4775,0,0,0,1.777.9972c8.5621-1.174,17.873-1.4422,25.95,2.1083a21.4141,21.4141,0,0,1,7.1525,4.8757,18.257,18.257,0,0,1,3.7489,6.1891c1.755,4.9987,1.5713,10.5135.6764,15.6911a91.4743,91.4743,0,0,1-4.9718,16.9939c-.9991,2.6124-2.0656,5.1984-3.1555,7.774-1.5406,3.64-3.39,7.4208-6.5912,9.892-3.1321,2.4176-7.195,3.43-11.071,3.7765a41.6183,41.6183,0,0,1-11.6944-.6122A43.65,43.65,0,0,1,50.24,95.6573a30.1341,30.1341,0,0,1-7.6863-10.0316,28.0346,28.0346,0,0,1-2.03-12.2575,55.17,55.17,0,0,1,2.1231-12.5318c.6233-2.2721,1.314-4.5262,1.8755-6.8149.535-2.1811.8292-4.375,1.1585-6.5922.5574-3.7535,1.7193-7.5175,4.7133-10.0455a14.86,14.86,0,0,1,5.2972-2.6284,47.7815,47.7815,0,0,1,6.6255-1.4621q3.4838-.54,6.9948-.8279a1.19,1.19,0,0,0,.0323-2.3794Z" fill="#353535"/><path d="M44.0163,54.7045a5.0617,5.0617,0,0,0-3.67-4.4563,6.4951,6.4951,0,0,0-6.0714,1.0957,7.6558,7.6558,0,0,0-.592,11.11,17.0515,17.0515,0,0,0,3.14,2.1394,5.8113,5.8113,0,0,1,2.39,2.1459c.8571,1.6147,3.3885.1756,2.521-1.4588-.9256-1.7439-2.6591-2.6937-4.2931-3.6669a4.799,4.799,0,0,1-2.1711-7.1383,3.5382,3.5382,0,0,1,3.2607-1.711,3.246,3.246,0,0,1,3.2213,2.2381,1.1619,1.1619,0,0,0,2.2651-.2973Z" fill="#353535"/><path d="M53.3741,104.5812a72.2662,72.2662,0,0,0,.05,8.0517q.1227,3.8636.2352,7.7276.2238,7.7251.3884,15.452.0465,2.2232.0875,4.4465.021,1.1353.04,2.2707a8.9724,8.9724,0,0,0,.1935,2.5123,1.3607,1.3607,0,0,0,2.5914-.0089,15.3072,15.3072,0,0,0,.0976-4.2068q-.0366-2.024-.0779-4.0477-.0789-3.8667-.1746-7.733-.1908-7.7246-.4385-15.4475a81.3621,81.3621,0,0,0-.5486-9.3377,1.2109,1.2109,0,0,0-1.3506-.8725,1.2577,1.2577,0,0,0-1.0936,1.1933Z" fill="#353535"/><path d="M87.2915,107.0187a51.0415,51.0415,0,0,0,.0263,7.7743q.2189,3.7252.445,7.45.4462,7.3781.89,14.7564.2579,4.368.5017,8.7367c.1024,1.8412,3.0143,1.83,2.9126.0029-.5588-10.0417-1.1959-20.0787-1.7881-30.1183a60.9972,60.9972,0,0,0-.9462-8.87c-.2477-1.193-1.9411-.8066-2.0413.268Z" fill="#353535"/><path d="M69.0888,30.0646a1.2569,1.2569,0,0,1-.33-1.5276,2.4187,2.4187,0,0,1,1.6765-1.2331,27.6585,27.6585,0,0,1,6.65-.7917c1.8294-.0694,3.977-.2233,5.7112.5071a2.1077,2.1077,0,0,1,1.3251,1.2548,4.74,4.74,0,0,1-.6786,3.0319,1.507,1.507,0,0,0,.5436,2.029,1.5589,1.5589,0,0,0,2.0794-.5571c1.0375-2.1821,1.8487-4.751.1551-6.8411-1.3049-1.61-3.4808-2.1045-5.4541-2.2364a38.7343,38.7343,0,0,0-7.5439.38c-2.1774.2833-4.7273.5166-6.2,2.3709a3.9217,3.9217,0,0,0-.7577,3.0182A2.7385,2.7385,0,0,0,68.11,31.7127c.894.3512,1.75-1.0377.9787-1.6481Z" fill="#353535"/><path d="M43.4612,54.8876c1.3243.1054,2.6263.2775,3.9592.316,1.3612.0394,2.7205.0185,4.08-.0538a54.1516,54.1516,0,0,0,8.1022-1.0543,58.2974,58.2974,0,0,0,15.16-5.41,41.0052,41.0052,0,0,0,7.7121-4.9492c1.2631-1.0829-.3854-3.0713-1.7587-2.2216-2.2152,1.3707-4.3351,2.8561-6.6329,4.0957a58.6088,58.6088,0,0,1-6.93,3.1989,63.4519,63.4519,0,0,1-14.8779,3.6695c-1.4377.176-2.8828.2962-4.3287.38-1.47.0856-2.99.2-4.4608.1484a.94.94,0,0,0-.0255,1.88Z" fill="#353535"/><path d="M81.4993,43.89a1.4217,1.4217,0,0,0,.0385-2.8428,1.4217,1.4217,0,0,0-.0385,2.8428Z" fill="#353535"/><path d="M81.4112,44.817c6.9864,6.3792,15.6882,12.9678,25.7423,11.7628a1.6471,1.6471,0,0,0,1.6094-1.5535,1.5625,1.5625,0,0,0-1.5672-1.5566c-9.3471.8231-17.4292-4.3965-24.3418-10.08-.9722-.7994-2.42.5351-1.4427,1.4276Z" fill="#353535"/><path d="M68.3488,25.3742c-.7995-.9-1.5714-1.828-2.3651-2.7349a24.9291,24.9291,0,0,1-2.0491-2.5141,6.5839,6.5839,0,0,1-1.09-5.0776c.8215-3.9009,4.0576-6.485,7.6819-7.7174a31.6029,31.6029,0,0,1,6.2471-1.3426,20.3128,20.3128,0,0,1,6.5984-.1213c3.6913.7705,6.1764,4.1682,6.5976,7.8137.4075,3.5269-.9467,7.424-4.1269,9.2507a1.4262,1.4262,0,0,0,1.4594,2.45,11.843,11.843,0,0,0,5.5915-10.3448c.005-4.357-2.2688-9.0206-6.2959-10.9949a14.445,14.445,0,0,0-7.6523-1.064,44.7316,44.7316,0,0,0-7.6135,1.2074c-4.6994,1.2405-8.9732,3.9425-10.77,8.6371A9.1873,9.1873,0,0,0,60.806,20.2c1.3274,2.6653,3.8407,4.7581,6.113,6.5887a1.0069,1.0069,0,0,0,1.43-1.4149Z" fill="#353535"/><path d="M64.8789,62.3976a3.135,3.135,0,0,0-.2851.5661,2.803,2.803,0,0,0-.1119.5564c-.03.2357-.0563.4726-.0807.709A10.8921,10.8921,0,0,0,64.36,65.7a14.8624,14.8624,0,0,0,.1672,1.7163,6.3554,6.3554,0,0,0,.4912,1.6737,1.2906,1.2906,0,0,0,.6961.5788,1.4113,1.4113,0,0,0,.9327.0664,1.4783,1.4783,0,0,0,1.0879-1.3732c-.0241-.6391-.1448-1.2678-.2251-1.9012l.0508.404c-.0788-.6556-.1465-1.3128-.1646-1.9732-.0088-.3212-.0267-.6423-.0275-.9637,0-.168.019-.3383.0108-.506a2.9523,2.9523,0,0,0-.16-.7366,1.299,1.299,0,0,0-2.34-.2877Z" fill="#353535"/><path d="M82.66,62.1239l-.0494.089.4025-.3973a1.6374,1.6374,0,0,0-.7566,1.0481,7.1021,7.1021,0,0,0-.2053,1.0065c-.0669.4846-.1244.9707-.1861,1.456a29.03,29.03,0,0,0-.2515,3.0241,1.518,1.518,0,0,0,1.5178,1.5076,1.59,1.59,0,0,0,1.1074-.4536,1.7552,1.7552,0,0,0,.4513-1.0509,28.4731,28.4731,0,0,0,.1994-2.9682c.0108-.4851.0312-.971.0322-1.4562.0007-.3312-.0546-.6382-.0843-.9681q.0315.2479.0045.0159L84.8,62.6417a1.25,1.25,0,0,0-.4421-.6691l.289.4906-.0377-.1a1.0641,1.0641,0,0,0-.8794-.7489,1.0823,1.0823,0,0,0-1.07.5093Z" fill="#353535"/><path d="M62.821,59.659c-.0266-.0094-.0529-.0193-.0791-.03l.2743.1109a1.5222,1.5222,0,0,0-.482-.1468c-.0821-.0107-.1637-.0194-.2457-.0293l.3107.04a1.7908,1.7908,0,0,1-.4081-.109l.3054.1235a2.9465,2.9465,0,0,1-.62-.3335l.2806.2087a3.34,3.34,0,0,1-.5818-.5634l.2232.2817a2.0429,2.0429,0,0,1-.2712-.4517l.1421.3374a1.8978,1.8978,0,0,1-.0763-.2194,3.704,3.704,0,0,0-.1937-.5241l.1393.3307a1.8615,1.8615,0,0,1-.07-.2027,1.2624,1.2624,0,0,0-.4715-.6744,1.25,1.25,0,0,0-.7747-.2659,1.5921,1.5921,0,0,0-.6717.18,1.3384,1.3384,0,0,0-.6033.7689,1.84,1.84,0,0,0-.0546.2318,1.5652,1.5652,0,0,0-.0058.7528c.005.036.0105.0718.0175.1074a3.356,3.356,0,0,0,.2773.7486,2.8456,2.8456,0,0,0,.9106,1.0615,2.981,2.981,0,0,0,1.58.5961,3.2589,3.2589,0,0,0,.7594-.064,1.6588,1.6588,0,0,0,.8763-.4488,1.09,1.09,0,0,0,.2906-1.0518,1.0645,1.0645,0,0,0-.2895-.4918,1.11,1.11,0,0,0-.4881-.2739Z" fill="#353535"/><path d="M66.6428,58.1384a3.4644,3.4644,0,0,1-.2674-.2523l.1545.195a2.9156,2.9156,0,0,1-.2983-.5094l.1082.2569a3.9906,3.9906,0,0,1-.2469-.9642l.04.3225c-.0279-.2307-.0519-.4616-.0813-.6922l.0419.3332a6.7386,6.7386,0,0,1-.0019-1.0527,1.2418,1.2418,0,0,0-1.0978-1.2321,1.2971,1.2971,0,0,0-1.4124.9078,2.5643,2.5643,0,0,0-.1212.7333,5.6492,5.6492,0,0,0,.0709.7265,3.2937,3.2937,0,0,0,.39,1.0976,4.4247,4.4247,0,0,0,.6686.8732,6.36,6.36,0,0,0,.6742.6208,1.0491,1.0491,0,0,0,.6762.2716,1.0162,1.0162,0,0,0,.7011-.2872.9527.9527,0,0,0,.001-1.3483Z" fill="#353535"/><path d="M69.6479,60.1506c.0921-.1495.19-.297.2768-.45.0839-.1467.1529-.3038.228-.4552.1973-.3978.3694-.8052.5405-1.2148a.9272.9272,0,0,0,.0269-.4951.9376.9376,0,0,0-.1532-.4822,1.2983,1.2983,0,0,0-.7726-.5771,1.3376,1.3376,0,0,0-1,.1356l-.2666.2037a1.29,1.29,0,0,0-.3324.56c-.1223.3194-.2378.637-.339.9637-.0482.1556-.1045.311-.1432.4692-.0418.1708-.0729.3451-.1093.5171a1.12,1.12,0,0,0,.109.8435,1.1334,1.1334,0,0,0,.5352.445,1.0846,1.0846,0,0,0,.7169.051,1.1981,1.1981,0,0,0,.6829-.5147Z" fill="#353535"/><path d="M81.5877,58.6157c-.0345-.0026-.0688-.006-.1032-.01l.2672.0346-.0255-.0035.2453.0991c-.0279-.0152-.0551-.0313-.0814-.0491l.5005.6407-.0033-.01.0361.2877c-.0074-.0645-.0234-.2348-.0375-.299a1.0375,1.0375,0,0,0-.4081-.5837,1.771,1.771,0,0,0-.2-.1326,1.9759,1.9759,0,0,1-.1894-.1234l.247.1837c-.1579-.1185-.32-.23-.4785-.3467l.2566.1908a2.8685,2.8685,0,0,1-.4885-.489l.2108.2661a2.0521,2.0521,0,0,1-.2745-.4638l.1382.3281c-.0741-.1811-.155-.3586-.2329-.5377l.137.3253a1.967,1.967,0,0,1-.0771-.22,1.31,1.31,0,0,0-.6121-.7833l-.3116-.126a1.0047,1.0047,0,0,0-.5161-.0207.6828.6828,0,0,0-.3405.0912,1.0058,1.0058,0,0,0-.4366.276,1.264,1.264,0,0,0-.3885.9048,3.9387,3.9387,0,0,0,.0967.65,2.2623,2.2623,0,0,0,.2564.5836,4.1724,4.1724,0,0,0,.3933.5182,1.8966,1.8966,0,0,0,.2275.2286,3.3341,3.3341,0,0,0,1.0861.595,2.1229,2.1229,0,0,0,.5964.0881,1.4893,1.4893,0,0,0,.1494.0011,2.2122,2.2122,0,0,0,.3515-.0441,1.1143,1.1143,0,0,0,.6935-.5269l-.1727.2213.0093-.0111-.4914.2813c.0305-.0084.0611-.0162.0917-.0244l-.2774.0367c.043.0028.0859.0045.129.0049a1.0958,1.0958,0,0,0,.7469-.306,1.0379,1.0379,0,0,0,.3045-.7089,1.0069,1.0069,0,0,0-.3034-.7276l-.21-.1562a1.0457,1.0457,0,0,0-.51-.1332Z" fill="#353535"/><path d="M85.6374,58.5524a2.7753,2.7753,0,0,1-.0643-.3027l.037.2944a6.9259,6.9259,0,0,0-.1174-.8823l.0406.3227a4.6663,4.6663,0,0,1-.0056-1.1725l-.0486.33c.0133-.0907.03-.1805.05-.27a1.34,1.34,0,0,0-.1285-.9944,1.3213,1.3213,0,0,0-.7862-.5873,1.3613,1.3613,0,0,0-1.0174.138l-.2713.2073a1.3131,1.3131,0,0,0-.3382.57,5.75,5.75,0,0,0-.089.84,4.9327,4.9327,0,0,0,.0812.8645,2.6779,2.6779,0,0,0,.1638.5247c.0689.1707.1382.3422.2187.508a2.3084,2.3084,0,0,0,.339.4221l-.177-.2235c.1118.144.2232.289.3452.4247l.2137.1589a.7958.7958,0,0,0,.3839.118,1.037,1.037,0,0,0,.6785-.1279,1.0669,1.0669,0,0,0,.4923-1.1619Z" fill="#353535"/><path d="M88.6161,60.874l.3905-.5666c.1307-.19.27-.3722.4088-.5563A1.1474,1.1474,0,0,0,89,58.202l-.2731-.11a1.1781,1.1781,0,0,0-.6066.0023l-.288.1191a1.1679,1.1679,0,0,0-.42.4144c-.1137.1983-.2255.3974-.3473.5908l-.3656.58a.8109.8109,0,0,0-.1317.3969,1.0977,1.0977,0,0,0,.5289,1.0854,1.1323,1.1323,0,0,0,.8418.1035l.2755-.1139a1.1188,1.1188,0,0,0,.4018-.3966Z" fill="#353535"/><path d="M69.6221,88.4691a32.0265,32.0265,0,0,0,7.4218.46,35.0986,35.0986,0,0,0,7.2887-.9678,23.5137,23.5137,0,0,0,10.9785-5.9915A16.5334,16.5334,0,0,0,99.16,76.1586l-2.7071-.71C94.9318,80.6732,94.5,86.5622,91.38,91.17a11.3816,11.3816,0,0,1-4.8719,4.2176A7.9053,7.9053,0,0,1,80,95.029a23.98,23.98,0,0,1-6.5407-5.3262,1.3685,1.3685,0,0,0-1.8858.0213,1.3212,1.3212,0,0,0-.0013,1.8461c3.43,4.3249,8.6371,8.3676,14.4976,7.0089,5.6091-1.3,8.9765-6.76,10.5338-11.9039,1.0464-3.4566,1.5125-7.0609,2.5564-10.5166.4513-1.4942-1.8851-2.4637-2.5665-1.0357a17.6911,17.6911,0,0,1-7.1022,7.7728,27.2931,27.2931,0,0,1-11.7372,3.3924c-2.6133.2125-5.2345.0716-7.8468.2449-1.0553.07-1.4736,1.695-.2847,1.9361Z" fill="#353535"/><path d="M71.9529,93.1108a16.32,16.32,0,0,0,14.39.9927,17.9825,17.9825,0,0,0,9.6534-9.356L93.0877,83.99a9.4494,9.4494,0,0,1-4.1109,7.4616,14.3785,14.3785,0,0,1-4.2287,2.0608,39.9192,39.9192,0,0,0-5.3275,1.7056,1.471,1.471,0,0,0-.6295,1.8508,1.5327,1.5327,0,0,0,1.7721.8546,31.9583,31.9583,0,0,0,5.5886-1.5745,17.194,17.194,0,0,0,5.34-2.9275,12.2564,12.2564,0,0,0,4.718-9.4283,1.5245,1.5245,0,0,0-1.34-1.5042,1.6194,1.6194,0,0,0-1.7243,1.1083,14.8937,14.8937,0,0,1-7.9579,7.772,17.1361,17.1361,0,0,1-12.4413-.0981c-1.0824-.4267-1.774,1.2688-.7935,1.84Z" fill="#353535"/><path d="M109.5458,66.4709a6.5154,6.5154,0,0,1,1.17-1.6172,2.9229,2.9229,0,0,1,.7278-.5214c.15-.0863.3034-.1639.46-.2384.0783-.0373.1569-.074.2362-.1092.1395-.0618-.154.0444.0872-.0307a10.94,10.94,0,0,1,1.0641-.2863c.04-.0081.3093-.05.1328-.0258s.0927-.008.1333-.0107c.193-.0127.3853-.022.579-.0184.1712.0031.3427.0134.5129.0324-.3-.0335.25.0573.3177.0737.1652.04.3278.0893.49.1407.0391.0124.2877.1105.1244.042-.1709-.0716.144.072.1752.0878a5.5929,5.5929,0,0,1,.4993.2957c.1884.122-.1582-.1365.0119.01.0655.0562.1322.1108.1959.1691.1274.1165.2406.2422.3591.3671.1544.1628-.1274-.1818.0038-.0006.0623.0861.1241.1723.1818.2615.1044.1615.1942.3289.2834.4989.0214.0408.1339.2876.0561.1084s.026.0713.0409.1152a8.5085,8.5085,0,0,1,.2719,1.06c.0823.4039-.0115-.1967.0093.0544.0071.0863.0145.1725.0191.259q.0136.26.006.52c-.0052.1737-.0215.3451-.0369.5181-.02.2273.0442-.22.0006.0037-.0248.1272-.049.254-.08.38q-.0614.2508-.1436.4955c-.0275.0813-.0588.161-.0877.2417-.0762.2124.0993-.1987,0,.0033-.0756.1534-.152.3045-.2392.4518q-.065.11-.1351.2163c-.0247.0376-.2569.3469-.1445.21.1168-.1427-.0585.0622-.0879.093-.0737.0772-.1457.1556-.2228.23-.0619.0595-.128.1138-.19.1728-.2726.258.2231-.1139-.1036.0789a8.8865,8.8865,0,0,1-1.3026.6687c-1.1665.4308-2.36.7422-3.4927,1.2672a1.4112,1.4112,0,0,0-.6049,1.7786,1.4254,1.4254,0,0,0,1.7029.8212c2.1716-.8957,4.7273-1.1667,6.386-3.0027a7.238,7.238,0,0,0,1.7818-5.5319A6.3687,6.3687,0,0,0,111.9,61.2372c-1.9956.7647-4.0145,2.4944-4.1688,4.7612-.0674.99,1.3555,1.2593,1.8142.4725Z" fill="#353535"/><path d="M87.9977,111.0658c5.68-.59,10.6675-4.7229,14.68-8.4876a85.0954,85.0954,0,0,0,19.5207-27.5324,62.811,62.811,0,0,0,5.01-15.8555c.9156-6.0545.4793-12.534-3.1412-17.688l-2.6159,1.5138a4.4434,4.4434,0,0,0,4.982,1.5341,4.9391,4.9391,0,0,0,3.4626-4.23,6.83,6.83,0,0,0-2.0743-5.5236,12.0921,12.0921,0,0,0-5.9111-2.9027,1.4149,1.4149,0,0,0-.7761,2.72c2.317.7327,5.29,1.92,5.6947,4.6674a2.7482,2.7482,0,0,1-.1661,1.4738,1.5618,1.5618,0,0,1-.83.8382,2.1738,2.1738,0,0,1-1.0964.2,1.6791,1.6791,0,0,1-.669-.2909,1.5669,1.5669,0,0,0-2.0651-.5144,1.4865,1.4865,0,0,0-.5508,2.0282c6.1107,8.62,2.4539,20.4379-1.19,29.2858a83.5683,83.5683,0,0,1-17.6653,26.6506,56.8131,56.8131,0,0,1-6.7482,6.04,32.5447,32.5447,0,0,1-8.0806,4.2182.9708.9708,0,0,0-.705,1.0352.9322.9322,0,0,0,.9362.82Z" fill="#353535"/><path d="M52.72,103.2758A42.0953,42.0953,0,0,1,41.3986,96.33,43.06,43.06,0,0,1,32.66,86.3738a42.05,42.05,0,0,1-6.1466-27.2833,41.6242,41.6242,0,0,1,5.0888-15.68,1.5128,1.5128,0,0,0-.12-1.7017,1.6393,1.6393,0,0,0-1.6307-.5387A6.1834,6.1834,0,0,1,24.68,38.6991a6.3785,6.3785,0,0,1-1.254-6.0164,1.4114,1.4114,0,0,0-1-1.729,1.5008,1.5008,0,0,0-1.7784,1c-2.4929,5.8453,3.4243,13.0364,9.58,12.2327l-1.3329-2.2956A45.5542,45.5542,0,0,0,23.88,72.6992a43.9288,43.9288,0,0,0,28.1908,32.8494,1.2265,1.2265,0,0,0,1.4811-.8329,1.1881,1.1881,0,0,0-.8327-1.44Z" fill="#353535"/></svg>