<svg xmlns="http://www.w3.org/2000/svg" width="150" height="150" viewBox="0 0 150 150"><path d="M62.3227,117.4407c3.138-2.2674,6.344-4.4474,9.6423-6.4755l-1.8317-1.78q-4.3581,6.5865-8.68,13.1971a1.366,1.366,0,0,0,.3658,1.7968,1.4733,1.4733,0,0,0,1.873-.13c3.7961-3.1934,7.5412-6.45,11.31-9.6749L72.76,112.7045q-5.3794,7.1292-10.7588,14.2581c-.8908,1.1805.8243,2.5762,1.9488,1.8939A93.063,93.063,0,0,0,81.6174,114.966l-2.0193-1.9554L63.2845,130.9137a1.4107,1.4107,0,0,0-.0014,1.9782,1.4871,1.4871,0,0,0,2.0208-.0229l26.4153-20.6061L89.7,110.3075Q78.5881,122.6318,67.479,134.9583l-6.32,7.0139a1.4,1.4,0,0,0,2.01,1.9467l21.56-19.6748,6.13-5.5938-2.3573-1.3228C87.11,121.8421,83.9571,125.42,80.59,128.61c-3.5445,3.3576-7.4183,6.3853-10.6581,10.0547a28.0491,28.0491,0,0,0-4.6168,6.8757,1.413,1.413,0,0,0,2.2394,1.6671c7.819-6.507,15.6644-12.986,23.4312-19.5551L88.7922,126.02c-4.1342,6.5016-8.3164,12.9725-12.4869,19.4509-.8472,1.3159,1.0175,2.4863,2.0739,1.5439q6.2836-5.6062,12.5852-11.1923L88.7691,134.59a41.8247,41.8247,0,0,1-4.3874,10.9885c-.7128,1.2516,1.132,2.7278,2.066,1.538.6841-.8713,1.5031-2.0611,2.6352-2.3694.45-.1224,1.7558.1166,1.5937.8286-.3395,1.4914,1.9707,2.0717,2.3046.6046A3.4047,3.4047,0,0,0,89.7,142.1989c-2.1729-.1884-3.864,1.5816-5.1131,3.1164l2.0661,1.5381a41.7227,41.7227,0,0,0,4.648-11.5989,1.312,1.312,0,0,0-2.1953-1.2319q-6.2916,5.5982-12.5944,11.1834l2.0739,1.5439c4.1979-6.4644,8.3841-12.9364,12.6181-19.3773a1.338,1.338,0,0,0-.3584-1.76,1.4464,1.4464,0,0,0-1.8348.1275c-7.8662,6.4531-15.6582,12.9994-23.4728,19.5149l2.2394,1.6671c4.1188-9.0778,13.6866-13.9061,19.607-21.6068a23.2228,23.2228,0,0,0,3.8369-7.2742c.4362-1.4124-1.3819-2.2119-2.3573-1.3228L67.2919,136.3816l-6.1331,5.5906,2.01,1.9467q11.115-12.321,22.2278-24.644l6.3222-7.012a1.4117,1.4117,0,0,0,.0014-1.9782,1.4871,1.4871,0,0,0-2.0208.0228L63.2845,130.9137l2.0194,1.9553,16.3135-17.903a1.4059,1.4059,0,0,0-2.0193-1.9554,89.8524,89.8524,0,0,1-17.08,13.4418l1.9488,1.8939,10.7588-14.2581a1.3615,1.3615,0,0,0-.3665-1.8,1.4734,1.4734,0,0,0-1.8761.13c-3.7691,3.2251-7.5652,6.4215-11.3069,9.6781l2.2387,1.6667q4.2711-6.6369,8.5358-13.2779a1.3264,1.3264,0,0,0-1.8316-1.78,115.3623,115.3623,0,0,0-9.7418,6.91c-1.055.8369.3577,2.6113,1.4452,1.8255Z" fill="#ffb900"/><path d="M81.6386,4.8158c8.9859,2.01,15.0506,10.0683,18.2543,18.2252a92.6649,92.6649,0,0,1,4.1743,15q1.6844,8.069,2.6189,16.2729.9277,8.25,1.0956,16.5615a136.8714,136.8714,0,0,1-.4325,16.0123c-.4528,4.6366-1.6271,9.3246-4.759,12.9107a23.8525,23.8525,0,0,1-10.4813,6.6843,53.1189,53.1189,0,0,1-21.1709,2.4832c-6.9979-.5616-14.29-2.6161-19.81-7.0941a22.8543,22.8543,0,0,1-6.6194-8.5231A47.7244,47.7244,0,0,1,41.3273,80.98a76.2669,76.2669,0,0,1,1.0375-29.6246c1.18-4.7205,2.7631-9.5206,6.0894-13.1915a24.06,24.06,0,0,1,10.0877-6.4318,45.1136,45.1136,0,0,1,12.2275-2.2142,31.642,31.642,0,0,1,13.4418,1.8232,20.8793,20.8793,0,0,1,5.5366,3.2207,1.4884,1.4884,0,0,0,2.0207-.0229,1.3914,1.3914,0,0,0,.0014-1.9782c-7.6844-6.28-18.0354-6.693-27.4289-5.14a35.0642,35.0642,0,0,0-12.4058,4.3112,24.0434,24.0434,0,0,0-9.3609,10.2537,55.79,55.79,0,0,0-4.3925,16.0741A74.0981,74.0981,0,0,0,37.76,74.606a86.6635,86.6635,0,0,0,1.9758,13.267,30.2447,30.2447,0,0,0,5.1332,11.6515c4.82,6.1726,12.0748,9.7633,19.6332,11.3358a55.9173,55.9173,0,0,0,23.3445-.3,36.8579,36.8579,0,0,0,11.1682-4.1878,22.0915,22.0915,0,0,0,9.33-10.8018c1.9181-4.903,2.0887-10.36,2.2474-15.5588q.264-8.6455-.3011-17.29a168.155,168.155,0,0,0-5.4377-33.7431c-2.6207-9.4739-7.21-19.4222-16.2786-24.268a20.0584,20.0584,0,0,0-6.29-2.1591,1.25,1.25,0,0,0-1.4752.83,1.1684,1.1684,0,0,0,.8293,1.4342Z" fill="#353535"/><path d="M61.7928,109.8862c-.1394,5.8816-.1085,11.7619-.3713,17.6411q-.394,8.8146-1.3334,17.5925a1.4058,1.4058,0,0,0,1.41,1.4,1.4664,1.4664,0,0,0,1.4478-1.3976q.9348-8.7735,1.3334-17.5924a173.4555,173.4555,0,0,0,.1122-17.6414,1.3012,1.3012,0,0,0-2.5987-.0026Z" fill="#353535"/><path d="M95.0984,141.672c-.0258-.7536.1406-1.5125.1728-2.2721s.0587-1.5127.0347-2.2731c-.0449-1.4217-.1179-2.8426-.1618-4.2644q-.1362-4.4076-.1436-8.818-.015-8.82.4847-17.63c.1021-1.815-2.7572-1.7907-2.8578-.0028q-.4956,8.8057-.4847,17.63.0075,4.41.1436,8.818c.0439,1.4209.0789,2.8451.1618,4.2643.0458.7829.1435,1.5548.2576,2.33.1089.74.3656,1.4822.428,2.2159.1041,1.224,2.0076,1.2512,1.9647.002Z" fill="#353535"/><path d="M39.581,61.98A4.81,4.81,0,0,0,35.64,59.768a5.9509,5.9509,0,0,0-4.3663,1.8c-2.3981,2.38-3.1265,6.628-.7573,9.2828a4.4744,4.4744,0,0,0,5.3119,1.1071,1.2677,1.2677,0,0,0-.9763-2.3117,2.644,2.644,0,0,1-.2616.0651q.206-.0194-.0378.0018c-.1775.0121-.3559.0135-.5329.0254q-.2433-.0207-.048.0107-.1337-.02-.2653-.0513c-.0513-.012-.5063-.1677-.3207-.0882a4.0808,4.0808,0,0,1-.4819-.2611q-.2-.1358-.0563-.0351-.1065-.0864-.2061-.1807A1.8393,1.8393,0,0,1,32.164,68.5a3.7332,3.7332,0,0,1-.3962-1.9235,5.4181,5.4181,0,0,1,.4261-1.9062A4.5974,4.5974,0,0,1,33.292,63.132a3.4315,3.4315,0,0,1,1.5161-.8262,2.6289,2.6289,0,0,1,.7989-.0942,3.2237,3.2237,0,0,1,.8872.0778,3.496,3.496,0,0,1,1.6538.7846c.7143.6629,2.0061-.2061,1.433-1.0941Z" fill="#353535"/><path d="M35.893,72.4148a1.3949,1.3949,0,0,0,.0378-2.7892,1.3949,1.3949,0,0,0-.0378,2.7892Z" fill="#353535"/><path d="M109.5139,56.8164c.6969-.3315,1.4025-.8317,2.06-1.0709a6.744,6.744,0,0,1,2.16-.45,4.2394,4.2394,0,0,1,3.5276,1.508,4.1835,4.1835,0,0,1,.8744,2.0228c-.0281-.22-.0037.0108-.0036.0472,0,.091.0075.1814.0068.2727-.0006.0884-.0225.4231-.0155.3676.0167-.1307-.0175.0888-.0186.0932-.0328.1349-.0634.2678-.1062.4-.0215.0665-.0457.132-.07.1974-.0823.2184.0815-.1569-.0211.0432-.07.1371-.14.2737-.2208.4053-.047.0771-.3085.4283-.1528.24a4.8151,4.8151,0,0,1-.3492.3776c-.1082.1054-.2227.203-.3377.3006-.1708.1448.1689-.115-.017.0125-.0723.05-.1439.1-.2174.1478a7.3794,7.3794,0,0,1-.8782.4863c-.0824.0389-.1655.076-.2489.1127.2431-.1069-.0452.0165-.0935.0347q-.2945.1114-.5949.2062c-.3834.1216-.7725.2247-1.1643.315s-.79.1555-1.183.243c-.1805.04-.3649.08-.5411.1373a2.3536,2.3536,0,0,0-.4534.2014l-.2718.2077q.15-.12-.0427.0083a1.113,1.113,0,0,0,.2622,2.0269c.4122.1145-.31-.1006.2025.0572a2.2366,2.2366,0,0,0,.4558.1105,3.3238,3.3238,0,0,0,.7291-.0165A12.9881,12.9881,0,0,0,114.286,65.6a14.43,14.43,0,0,0,2.6312-.8651,6.6913,6.6913,0,0,0,3.7236-3.7468,5.9617,5.9617,0,0,0-.9057-5.3622,6.9243,6.9243,0,0,0-5.0935-2.9,8.2414,8.2414,0,0,0-3.35.4051,7.19,7.19,0,0,0-3.2009,1.8868,1.16,1.16,0,0,0,1.4236,1.7983Z" fill="#353535"/><path d="M61.8418,53.9234q-.0287.0855-.0562.1711l.4708-.6A2.0967,2.0967,0,0,0,61.5,55.2752a9.1239,9.1239,0,0,0-.0148,1.29,15.0416,15.0416,0,0,0,.174,1.5653,6.54,6.54,0,0,0,.2931,1.26,1.5108,1.5108,0,0,0,.6666.8531,1.47,1.47,0,0,0,1.973-.5286,1.6109,1.6109,0,0,0,.1507-1.0722c-.062-.4254-.194-.842-.28-1.2639-.0795-.3913-.1666-.78-.2324-1.1744-.0651-.39-.136-.78-.1991-1.1706a1.9623,1.9623,0,0,0-.75-1.55l.4711.6029q-.0252-.0852-.05-.1707a.9779.9779,0,0,0-1.8617.0063Z" fill="#353535"/><path d="M77.8747,52.529a5.1864,5.1864,0,0,0-.3344,1.94c-.0342.5454-.04,1.094-.0573,1.64-.0171.5264-.0284,1.053-.0411,1.58-.0131.5463.047,1.0954.0827,1.64a1.4234,1.4234,0,0,0,1.41,1.4005,1.4682,1.4682,0,0,0,1.4479-1.3976c.0343-.5244.0941-1.054.0841-1.5795q-.0157-.82-.0426-1.64c-.0171-.5261-.0228-1.0542-.0533-1.58a5.3905,5.3905,0,0,0-.335-2.025,1.2694,1.2694,0,0,0-2.1609.0209Z" fill="#353535"/><path d="M72.7358,90.8873a36.4524,36.4524,0,0,0,9.7436-3.5663,34.3125,34.3125,0,0,0,17.4312-26.01,32.9586,32.9586,0,0,0-.7592-12.7338c-.4713-1.7482-3.1446-1.0144-2.7644.7408a34.2081,34.2081,0,0,1-1.733,20.6212A32.9759,32.9759,0,0,1,82.1711,84.655,32.5742,32.5742,0,0,1,72.2569,89.1a.9252.9252,0,0,0,.4789,1.7871Z" fill="#353535"/><path d="M97.1808,50.3977a1.3949,1.3949,0,0,0,.0378-2.7892,1.3949,1.3949,0,0,0-.0378,2.7892Z" fill="#353535"/><path d="M94.53,49.8882a2.9272,2.9272,0,0,0,.5311-.0658c.1449-.0371.7628-.2953.2973-.11.1882-.0751.3679-.1534.5507-.2374q.0753-.0346.1515-.0672-.31.1262-.1045.0455a7.8872,7.8872,0,0,1,1.273-.3338q.0813-.0151.163-.0281.2322-.0343-.1374.0167c.1079,0,.22-.023.3278-.03a6.191,6.191,0,0,1,.659-.0076c.11.0046.22.0128.33.0227q.0822.0069.1643.016-.3636-.05-.1339-.0166.1626.0286.3255.0545.23.0333.46.0581-.3589-.0484-.13-.0143a1.6076,1.6076,0,0,0,1.1153-.1513,1.4721,1.4721,0,0,0,.6682-.8517,1.4323,1.4323,0,0,0-1.0027-1.7338,6.4311,6.4311,0,0,0-3.4919-.043,7.1078,7.1078,0,0,0-1.61.6278,4.74,4.74,0,0,0-.6981.4424,2.29,2.29,0,0,0-.7684,1.0316,1.09,1.09,0,0,0,1.06,1.3749Z" fill="#353535"/><path d="M100.2792,50.0535a1.395,1.395,0,0,0,.0378-2.7893,1.395,1.395,0,0,0-.0378,2.7893Z" fill="#353535"/><path d="M88.9674,20.2326a9.0669,9.0669,0,0,0-1.8466-2.9017A18.9,18.9,0,0,0,84.785,14.989a23.6713,23.6713,0,0,0-5.668-3.6326,23.1043,23.1043,0,0,0-14.2483-1.607,24.2178,24.2178,0,0,0-7.77,3.0991,1.395,1.395,0,0,0,1.4274,2.3967,21.7859,21.7859,0,0,1,23.7477,1.24,22.5227,22.5227,0,0,1,2.5293,2.2081A29.805,29.805,0,0,0,87.24,21.2222c.7209.5624,2.0533.0691,1.7277-.99Z" fill="#353535"/><path d="M63.4812,109.0766a241.388,241.388,0,0,1-19.6061,22.1481q-2.982,2.95-6.0839,5.7741l2.593.6584c-1.0463-3.0849-.2653-6.5522.3674-9.65a69.9145,69.9145,0,0,1,2.685-9.55c.5566-1.5558,1.166-3.0941,1.844-4.6011.6983-1.5519,1.6286-3.0577,2.2065-4.6563.6043-1.6715-.1078-3.0189-1.2361-4.2293a3.8945,3.8945,0,0,1-1.25-3.0375c.1443-3.3456,3.29-5.2134,5.6706-7.0069a1.3757,1.3757,0,0,0,.498-1.8338,1.3943,1.3943,0,0,0-1.8672-.4652c-2.8265,1.528-5.6613,3.7289-6.8213,6.83a7.6332,7.6332,0,0,0-.2788,4.5269,5.8475,5.8475,0,0,0,.9767,2.031c.4135.5467.9648.9964,1.351,1.5573.3412.4955.005.8419-.2786,1.37-.4323.8053-.85,1.6192-1.2417,2.4449q-1.1776,2.48-2.1676,5.0454a65.7741,65.7741,0,0,0-2.96,10.0122c-.8108,3.8228-1.8072,8.2005-.4949,12.0151a1.571,1.571,0,0,0,2.593.6584,195.0735,195.0735,0,0,0,20.3279-21.6872c1.7957-2.2446,3.4853-4.5425,5.1491-6.8836.8206-1.1546-1.1048-2.5754-1.9762-1.4712Z" fill="#353535"/><path d="M92.0948,108.4318a106.3741,106.3741,0,0,1,17.8789,9.1826c1.32.8584,2.6758,1.7192,3.9144,2.6936a2.7712,2.7712,0,0,1,.3412.3051,2.6172,2.6172,0,0,0-.0348-.3947,3.3655,3.3655,0,0,1-.2922.2867,23.9918,23.9918,0,0,1-2.1728,1.5186,68.0593,68.0593,0,0,1-8.4464,4.8012,65.8083,65.8083,0,0,1-10.2157,3.8593,1.6264,1.6264,0,0,0-1.1451,1.9284,9.2135,9.2135,0,0,0,9.3285,7.386,1.5811,1.5811,0,0,0,1.5564-1.5024,1.5185,1.5185,0,0,0-1.5157-1.5054,6.3755,6.3755,0,0,1-6.2682-5.2091L93.8782,133.71A66.9968,66.9968,0,0,0,113.41,124.6c.6953-.4745,1.3845-.96,2.0587-1.4641a4.0189,4.0189,0,0,0,1.7147-2.1155c.5421-2.2036-1.8256-3.3617-3.339-4.3584a90.5124,90.5124,0,0,0-9.41-5.416,75.22,75.22,0,0,0-11.5617-4.619c-1.0448-.32-1.8516,1.3677-.7786,1.805Z" fill="#353535"/></svg>