<svg xmlns="http://www.w3.org/2000/svg" width="185.373" height="399.83" xmlns:v="https://vecta.io/nano"><defs><clipPath id="A"><path fill="none" d="M0 0h185.373v399.83H0z"/></clipPath></defs><g clip-path="url(#A)"><path d="M37.483 55.551a133.76 133.76 0 0 0-24.068 60.74c-.463 3.37 4.4 3.247 5.459.705 9.478-22.689 18.982-45.54 32.533-66.167l-4.348-1.755-27.982 75.586c-1.069 2.876 3.389 4.428 4.849 1.957q23.245-39.332 42.945-80.609l-5.172-2.087c-14.23 36.712-36.776 69.978-43.894 109.3a3.29 3.29 0 0 0 6.356 1.667l24.433-61.851c4.28-10.267 8.7-20.479 13.365-30.577 3.876-8.39 8.091-17.193 15.836-22.689l-4.43-4.3-27.644 62.661c-8.568 19.826-16.459 39.958-21.009 61.129-.627 2.919 3.318 5.815 5.506 3.09 14.383-17.918 21.431-39.2 28.373-60.756 7.6-23.6 16.3-46.806 29.224-68.069l-5.858-.72c1.39 5.74-1.3 11.38-3.221 16.693l-5.96 16.517-12.25 33.943-24.172 66.987c-1.444 4 4.947 5.543 6.381 1.674A1351.02 1351.02 0 0 1 97.656 40.935l-6.385-1.663c.581 6.2-1.472 11.833-3.644 17.549-2.193 5.77-4.529 11.485-6.943 17.166-4.834 11.379-10.011 22.609-15.067 33.89-9.76 21.777-18.618 43.62-24.551 66.781-1.015 3.964 4.639 5.19 6.039 1.584a1010.98 1010.98 0 0 1 62.74-132.827l-5.7-.7c1.29 3.276-2.538 8.17-4.018 11.044q-2.5 4.859-4.922 9.759-4.438 8.982-8.6 18.094-8.7 19.031-16.23 38.571-7.531 19.566-13.707 39.6c-2.033 6.628-4.359 13.344-5.828 20.124-.843 3.892-.173 8.156 4.157 9.3a3.57 3.57 0 0 0 4.257-2.394c15.924-48.894 32.4-98.064 57.965-142.915l-6.089-3.417C90.286 87.447 74.145 136.362 62.943 186.51c-.975 4.368 5.437 5.988 6.744 1.769 14.711-47.464 32.426-93.846 56.73-137.288l-6.2-2.5a895.24 895.24 0 0 0-35.862 111.784c-.767 3.123 3.585 6.139 5.845 3.28 11.725-14.829 15.247-33.852 21.53-51.268 7.306-20.251 16.471-39.751 26.432-58.817l-5.977-3.354c-7.586 17.363-14.4 35.056-20.221 53.09-5.662 17.536-11.576 35.75-11.953 54.327-.088 4.33 5.79 4.525 7.17.926l38.961-101.668-6.753-.872c-.3 8.865-2.883 17.191-5.579 25.571-2.748 8.541-5.333 17.119-7.592 25.8-4.367 16.824-7.687 33.903-9.94 51.138-.537 4.086 6.427 4.9 7.235.935 6.733-33.05 21.2-63.579 35.716-93.79l-6.464-2.608c-11.048 28.284-17.687 57.89-24.157 87.481-1 4.59 5.407 6.078 6.993 1.835l27.361-73.518-7.087-.916q-2.917 24-7.742 47.7c-.61 3.007 3.315 5.878 5.615 3.151a74.93 74.93 0 0 0 11.4-18.161c1.682-3.8-3.962-6.911-5.624-3.156a67.05 67.05 0 0 1-10.525 16.715l5.615 3.151q5.235-24.525 8.487-49.4c.564-4.286-5.787-4.355-7.087-.916l-27.4 73.507 6.993 1.835c6.4-29.577 12.862-59.294 23.982-87.527 1.462-3.711-4.759-6.13-6.464-2.608-14.855 30.689-29.76 61.755-36.7 95.356l7.235.935c2.365-17.846 5.832-35.528 10.381-52.945 4.286-16.3 11.6-32.557 12.239-49.568.154-4.1-5.455-4.22-6.753-.872l-39.386 101.562 7.17.926c.412-17.985 6.044-35.535 11.453-52.549a525.98 525.98 0 0 1 19.393-51.521c1.743-3.982-3.909-7.308-5.977-3.354-9.526 17.91-17.966 36.377-25.274 55.3-6.631 17.523-9.8 38.366-21.659 53.346l5.845 3.28c9.205-38.081 21.123-75.454 35.663-111.833 1.465-3.623-4.37-5.689-6.2-2.5-25.06 43.522-42.733 90.984-57.611 138.81l6.744 1.769a778.19 778.19 0 0 1 47.528-144.389c1.79-4.053-3.838-7.38-6.089-3.417C85.314 85.929 69 135.665 52.601 185.061l4.257-2.394c.908.245.83-1.48 1.156-2.766.372-1.47.829-2.924 1.251-4.38q1.391-4.814 2.855-9.607 2.927-9.586 6.143-19.08c4.177-12.371 8.572-24.655 13.395-36.791q7.415-18.657 15.966-36.832 4.266-9.07 8.806-18.008c2.181-4.3 5.743-9.146 3.741-14.106-.935-2.318-4.3-3.224-5.7-.7a1086.2 1086.2 0 0 0-63.405 134.261l6.039 1.584c6.192-24.113 16.558-47.162 26.712-69.814l14.22-32.319C92.499 63.47 99.26 51.143 98.126 39.278c-.291-3.048-4.761-4.976-6.385-1.663-20.662 42.134-39.149 85.301-55.387 129.33l6.381 1.674 25.383-70.688 12.527-34.885c3.485-9.7 10.079-21.354 7.506-31.911-.664-2.725-4.488-2.983-5.858-.72-12.234 20.2-20.8 42.178-28.126 64.558-7.232 22.094-13.61 44.5-28.608 62.854l5.506 3.09c4.667-20.826 12.338-40.77 20.734-60.343l27.172-61.968c1.15-2.619-1.521-6.379-4.43-4.3-7.489 5.34-12.3 12.781-16.289 20.949-4.936 10.118-9.353 20.513-13.746 30.876-9.395 22.163-18.049 44.629-26.7 67.09l6.356 1.667c7.073-38.875 28.958-73.029 42.994-109.534 1.144-2.975-3.823-4.917-5.172-2.087-13.111 27.5-27.393 54.4-42.64 80.78l4.849 1.957 27.453-75.725c1.012-2.668-2.944-3.789-4.348-1.755-14.312 20.749-24.178 43.882-33.78 67.068l5.459.705A143.04 143.04 0 0 1 41.003 57.53c1.455-2.23-2.044-4.026-3.522-1.976" fill="#f5bfc0"/><path d="M178.858 378.225c2.34.869 4.837 1.948 5.961 4.024 1.608 2.97-.49 6.727-3.6 8.413s-28.344 8.847-31.952 8.958c-44.478 1.371-67.767-4.276-111.838-9.961-2.715-.35-5.565-.78-7.71-2.351-24.307-17.8 54.711-24.189 64.2-23.6 27.744 1.734 59.193 4.952 84.941 14.513" fill="#e8e8e9"/><path d="M96.528 374.868a92.85 92.85 0 0 1 29.057-1.034c3.731.458 8.106 1.678 9.142 5 .832 2.669-1.1 5.544-3.715 6.934s-5.746 1.632-8.763 1.79a256.91 256.91 0 0 1-38.364-.867c-3.426-.335-7.384-1.071-8.928-3.9-2.038-3.739 1.862-8.087 6.1-9.61a20.15 20.15 0 0 1 19.052 3.187" fill="#d0d2d3"/><path d="M137.469 273.778a179.95 179.95 0 0 0-16.4-11.925c-.835-.456-1.87-.31-2.547.358s-.836 1.701-.392 2.542l14.432 22.716 3.82-2.917q-9.591-8.3-19.226-16.559c-1.956-1.685-5.744.624-3.951 3.016q9.135 12.186 18.348 24.314l3.441-3.393a158.31 158.31 0 0 1-29.137-22.908c-2.223-2.212-5.65 1.14-3.515 3.479q13.923 15.252 27.851 30.5l3.453-3.417q-22.542-17.546-45.048-35.138c-2.374-1.852-5.581 1.047-3.448 3.412q24.339 26.995 48.694 53.975l3.418-3.382-47.258-43.053c-1.611-1.467-4.74-.039-3.984 2.282 6.924 21.27 30.713 29.578 39.958 49.281l3.822-2.918-40.064-33.242c-1.854-1.5-5.227.458-3.664 2.8l21.63 32.977 3.257-2.486q-10.774-9.5-21.485-19.063c-.666-.608-1.649-.716-2.431-.268s-1.186 1.351-.999 2.233a72.8 72.8 0 0 0 7.909 19.756l3.229-2.465c-2.355-2.793-5.445-5.911-9.45-4.98-2.922.547-4.862 3.339-4.356 6.268.229 1.811 3.3 1.364 3.236-.425-.186-5.462 6.224.177 7.341 1.6 1.543 1.968 4.843.308 3.553-2.056-3.295-5.906-5.816-12.212-7.5-18.762l-3.43 1.965q10.747 9.525 21.454 19.094c1.638 1.467 4.563-.448 3.256-2.487l-21.182-33.236-3.664 2.8 39.921 33.383c.873.798 2.191.856 3.131.138s1.231-2.005.691-3.056c-9.072-19.242-32.9-27.543-39.562-48.081l-3.984 2.282 47.207 43.1a2.41 2.41 0 0 0 3.418-3.382q-24.324-27.01-48.663-54.005l-3.448 3.412q22.523 17.57 45.044 35.142c2.373 1.855 5.6-1.057 3.453-3.417q-13.894-15.281-27.788-30.561l-3.515 3.479a163.84 163.84 0 0 0 30.117 23.7c1.969 1.208 4.979-1.353 3.441-3.393q-9.165-12.163-18.346-24.314l-3.951 3.016q9.671 8.222 19.343 16.443c1.927 1.629 5.421-.506 3.82-2.917l-14.925-22.431-2.938 2.9c5.639 3.429 11.123 7.1 16.57 10.828 1.489 1.017 3.436-1.36 1.995-2.551" fill="#ffb900"/><g fill="#2f2f31"><path d="M130.372 42.517c9.212-.029 18.52 1.278 26.1 6.888 7.022 5.2 11.43 13.029 14.863 20.889 4.247 9.723 8.6 20.6 7.11 31.4-1.264 9.179-6.443 17.063-10.788 25.024-4.21 7.713-7.67 15.848-8.18 24.728-.695 12.1 4.7 23.791 8.457 35 7.95 23.715 6.243 51.777-17.219 65.811-19.7 11.787-47.483 15.457-68.689 5.535-10.517-4.92-18.049-13.167-23.464-23.326-5.511-10.338-8.935-21.688-15.054-31.718-6.352-10.414-16.008-16.727-24.273-25.373-9.887-10.341-10.635-24.339-11.39-37.872-1.505-26.941-.682-55.172 10.874-80.077 18.716-40.337 74.3-66.185 115.513-44.735 3.385 1.762 6.4-3.117 3.062-5.156-37.846-23.108-90.819-.947-115.611 31.6C5.19 62.784.478 91.494.07 118.057c-.215 14-.107 28.813 2.932 42.539 1.325 6.551 4.156 12.705 8.269 17.973 4.394 5.441 10 9.6 15.217 14.186 19.754 17.348 20.631 47.066 41.237 63.638 18.5 14.878 44.932 16.009 66.939 9.457 12.858-3.828 25.8-10.251 34.05-21.162 7.4-9.784 10.069-22.266 10.042-34.34-.03-13.673-4.885-25.758-9.061-38.562-3.981-12.2-5.039-23.257.184-35.234 3.839-8.8 9.584-16.673 12.671-25.825 3.693-10.951 2.03-21.595-1.877-32.227-6.311-17.173-15.651-35.038-35.27-38.7-4.949-.853-9.991-1.023-14.986-.507-2.055.18-2.2 3.227-.044 3.221"/><path d="M131.975 263.765c-.988 10.251-.744 20.741-.371 31.022.347 9.582-.06 20.47 2.489 29.75.8 2.9 5.045 2.2 5.213-.684.286-4.922-.661-10.064-1.066-14.982q-.618-7.5-1.044-15.018c-.572-10.02-.574-20.074-1.231-30.084a2 2 0 0 0-3.99 0m1.181 60.241c-9.122.15-18.218.85-27.325 1.382l-13.245.906c-4.345.262-8.929.029-13.136 1.212-2.661.748-3.2 5.283-.052 5.756 8.23 1.235 17.969-.862 26.215-1.987a218.02 218.02 0 0 0 27.779-5.365.97.97 0 0 0-.237-1.9m-51.209-5.816c3.537-9.418 3.2-20.36 3.312-30.289.057-5.176-.009-10.349-.16-15.523-.146-4.965.209-10.476-1.5-15.2-.783-2.164-4.236-2.528-4.85.016-1.116 4.619-.439 9.49-.3 14.2l.281 16.493c.075 9.943-.991 20.582 1.453 30.3a.93.93 0 0 0 .884.639c.402-.001.757-.262.88-.645m55.695-51.642c7.6 5.8 14.545 12.149 19.616 20.359 1.083 1.742 2.073 3.54 2.965 5.387.972 2.03 1.746 2.845.662 4.8-.822 1.481-1.994 1.908-3.4 2.7-5.379 3.028-10.875 5.9-15.978 9.386a2.67 2.67 0 0 0 2.731 4.587c3.848-1.793 7.489-3.912 11.168-6.027 2.957-1.7 6.491-3.238 9.158-5.381 4.666-3.748 2.9-8.257.444-12.832-5.7-10.616-14.6-20.112-25.7-25.1-1.257-.565-2.995 1.109-1.662 2.125"/><path d="M124.07 328.101c.387 8.214.79 16.144-.163 24.347-.982 8.455-3.154 16.576-5.3 24.792-.73 2.8 3.562 4.7 4.838 1.952 7.135-15.378 8.752-35.165 4.517-51.6-.538-2.085-4-1.706-3.9.511"/><path d="M123.283 376.56c.567.34.578 1.451 1.043 1.948.436.429.948.773 1.51 1.015a18.98 18.98 0 0 0 4.1 1.514 13.62 13.62 0 0 0 8.614-.382c2.048-.856 1.549-4.421-.616-4.763-2.386-.376-4.784-.122-7.187-.375-1.3-.137-2.58-.632-3.862-.762-.692-.07-2.2.592-2.729.328-.975-.483-1.843.9-.877 1.477m-31.132-43.691c-5.4 3.167-6.808 13.213-7.723 18.782-1.245 7.517-1.196 15.192.143 22.693l1.409-3.326c-4.508 2.958-9.969 4.101-15.285 3.2-3.637-.612-5.336 4.9-1.586 5.56a27.6 27.6 0 0 0 19.9-3.678c1.137-.689 1.705-2.03 1.409-3.326a70.8 70.8 0 0 1-.546-21.28 73.13 73.13 0 0 1 2.482-10.967c.742-2.507 1.612-4.571 1.071-7.156a.87.87 0 0 0-1.275-.505M43.244 201.593c-7.169-5.019-17.636 1.948-15.972 10.485 1.67 8.566 13.876 12.756 21.392 9.7 2.472-1.007 2.227-4.324-.573-4.6-4.731-.462-10.724.053-14.105-4.081-3.9-4.766 2.489-10.783 7.5-8.547a1.72 1.72 0 0 0 1.754-2.954m126.449-27.46c2.116-2.806 7.47-2.509 8.633 1.022 1.578 4.79-4.068 8.965-6.378 12.377-1.475 2.179 1.354 4.193 3.323 3.23 6.551-3.2 12.559-13.9 6.656-20.278-4.167-4.5-12.5-3.662-15.231 1.967a1.72 1.72 0 0 0 .659 2.341 1.72 1.72 0 0 0 2.341-.659"/><path d="M151.719 182.925c-.371-6.242-6.8-10.771-12.757-9.5-5.563 1.19-12.614 6.414-11.743 12.722.264 1.913 2.914 2.155 4.079 1.036 2.726-2.62 3.676-6.027 7.553-7.532 4.555-1.768 7.137 1.521 10.189 4.367.906.845 2.76.286 2.678-1.1m-43.852.024c-6.436-9.42-21.572-3.958-20.163 7.547.439 3.586 5.953 3.807 5.878.006-.192-2.885 1.39-5.597 3.997-6.849s5.712-.792 7.844 1.162c1.227 1.034 3.491-.333 2.444-1.866m46.516 16.016c-4.794 3.077-9.484 6.228-14.016 9.7-4.937 3.78-10.46 8.529-16.943 8.977-6.51.449-12.544-3.433-18.28-6.008l-18.349-8.405c-2.609-1.239-5.02 2.588-2.339 3.939l21.206 11.081c5.609 2.865 11.618 5.6 18.069 4.845 5.547-.652 10.345-3.695 14.644-7.075a181.05 181.05 0 0 0 17.093-15.68.88.88 0 0 0 .052-1.156c-.273-.344-.758-.436-1.137-.215"/><path d="M93.335 210.234c2.535 4.134 5.892 7.7 8.73 11.618 2.954 4.082 5.47 8.4 8.006 12.743 3.916 6.708 8.863 13.332 16.949 14.9 18.5 3.6 21.394-23.292 18.2-35.758-.76-2.964-5.044-1.665-4.6 1.231 1.229 7.942 1.08 15.862-2.082 23.382-3.739 8.892-12.924 7.834-18.81 1.632-4.653-4.9-7.387-11.372-11.3-16.828-3.81-5.309-8.176-10.806-13.923-14.077a.86.86 0 0 0-1.169 1.153m24.082-183.137a45.91 45.91 0 0 1 22.109.585c7.357 2.088 12.075 6.551 18.272 10.618 2.184 1.433 4.7-1.354 3.528-3.479-3.852-6.955-13.44-11.288-20.9-12.838a34.33 34.33 0 0 0-23.8 3.238c-1.082.569-.326 2.128.792 1.876m-2.53 28.418c6.184-5.246 12.964-3.009 19.568.162 4.661 2.238 12.181 3.676 15.1 8.051 1.452 2.176 2.568 4.466 4.369 6.4 2.025 2.172 4.832 3.846 6.355 6.453 3.042 5.208-.984 12.4.025 18.14 1.237 7.039 7.729 17.27 2.824 24.046-3.563 4.922-11.15 4.366-16.475 5.658-4.717 1.145-12.014 6.486-16.146 2.05-1.895-2.035-4.815.938-3.082 3.05 3.005 3.661 7.049 3.939 11.4 2.748 2.412-.66 4.674-1.766 7.066-2.484 3.533-1.06 7.24-1.176 10.837-1.919 9.524-1.966 14.307-8.843 13-18.386-.606-4.424-2.125-8.6-3.394-12.855-1.843-6.185 1.122-11.81.252-17.962-.874-6.177-5.979-8.634-9.389-13.236-3.433-4.634-4.886-8.731-10.787-10.665-8.474-2.778-27.425-13.383-33.316-.583a1.13 1.13 0 0 0 1.793 1.334"/><path d="M87.823 164.481c5.732 1.216 9.8-1.388 15.01-3.229 6.116-2.16 12.258 1.494 18.49.254 5.012-1 9.795-4.231 10.751-9.487 1.271-6.986-4.854-13.029-3-19.885 1.339-4.961 5.132-8.723 4.164-14.209-1.111-6.3-5.588-13.081-9.7-17.83-3.534-4.079-8.85-7.974-14.542-6.309-5.066 1.482-7.884 6.235-7.939 11.279-.023 2.171 3.547 2.733 3.916.506.464-2.8 1.564-5.361 4.115-6.809 3.161-1.794 6.529.011 9.038 2.165 4.007 3.441 7 8.305 9.233 13.039 1.467 3.1 2.458 5.889 1.114 9.191-.719 1.768-1.779 3.362-2.6 5.08-1.579 3.013-2.093 6.471-1.459 9.813.923 4.731 5.106 10.687 2.122 15.316-3.087 4.789-9.452 4.305-14.4 3.815-3.652-.362-6.914-.377-10.327 1.073-4.528 1.925-8.167 4.93-13.414 4.24-1.276-.168-1.93 1.7-.567 1.988"/><path d="M105.482 98.901c-.7-5.911-6.534-10.784-12.409-11.083-6.539-.334-12.805 4.5-14.847 10.573-.842 2.5 2.651 3.42 3.976 1.6 2.822-3.867 5.718-7.894 11.106-7.468 4.77.377 7.339 4.1 10.613 7.013.509.453 1.658.189 1.56-.639"/><path d="M84.384 92.604c-5.546-2.738-11.122-2.113-16.111 1.523-2.443 1.78-4.551 4.107-7.2 5.6-4.612 2.594-8.7 1.039-13.206-.942-2.647-1.166-5.107 2.6-2.369 3.99 5.663 2.875 11.508 4.482 17.41 1.282 7.125-3.863 10.834-11.7 20.316-8.766 1.566.485 2.695-1.922 1.157-2.681m-49.637 63.581c-1.222-.442-2.378-1.049-3.435-1.806a3.41 3.41 0 0 1-2.236-4.3c-.461-.796-.576-1.746-.317-2.628a3.35 3.35 0 0 1 1.688-2.039 10.6 10.6 0 0 1 4.071-2.133c2.981-.875 6.18-.7 9.236-1.108a26.52 26.52 0 0 0 16.016-8.227c9.083-10.015-.974-20.9-10.706-25.166-2.362-1.035-4.558 2.367-2.108 3.55 7.73 3.731 17.263 11.949 8.5 20.043a22.5 22.5 0 0 1-11.2 5.579c-3.351.593-6.8.386-10.119 1.242-4.641 1.2-9.887 4.887-10.147 10.154-.267 5.4 5.829 7.923 10.255 8.6.478.117.962-.165 1.097-.638s-.129-.968-.597-1.119"/><path d="M53.446 95.994c-2.3-11.491-15.147-13.1-20.825-2.986-5.692 10.143-2.631 28.211 8.53 33.66.563.303 1.258.203 1.713-.246s.565-1.142.27-1.709c-4.249-7.466-9.572-13.138-8.552-22.485.46-4.21 2.264-10.027 6.671-11.676 4.383-1.641 8.936 1.952 10.367 5.932.155.48.659.754 1.146.623s.786-.62.681-1.113"/><path d="M37.348 118.815c-13.152-5.685-21.96 9.794-23.613 20.835-1.1 7.356.86 14.3 4.875 20.5 3.225 4.977 8.688 11.114 15.2 10.459a1.59 1.59 0 0 0 .457-3.108c-9.31-2.96-16.048-15.469-15.553-24.941.433-8.291 6.882-26.09 18.1-22.512.713.227 1.255-.918.531-1.231"/><path d="M21.62 125.156c-9.144-7.433-4.821-22.4-1.912-31.7 3.482-11.131 7.522-22.19 13.119-32.45 4.824-8.843 12.654-12.829 22.416-14.084 7.309-.939 27.538-5.054 26.37 7.615-.189 2.049 2.634 1.961 3.288.425 2.123-4.983-1.114-9.881-5.746-12-4.951-2.266-10.992-1.657-16.223-1.064-11.143 1.264-22.839 2.466-30.4 11.777-4.129 5.083-6.811 11.492-9.394 17.46a211.65 211.65 0 0 0-7.965 22.066c-3.138 10.228-7.355 27.678 4.992 33.817 1.119.557 2.576-.958 1.459-1.866m75.425-77.361c3.748-1.11 8.734-.916 11.411 2.512 1.8 2.309.475 4.64.548 7.211.133 4.66 3.346 7.49 7.445 9.155 3.839 1.559 11.363 3.132 4.881 8.291a24.8 24.8 0 0 0-4.868 4.425c-2.884 3.733-3.723 8.656-2.239 13.134.538 1.51 3.108 1.406 3.026-.4-.215-4.712.67-9.079 4.415-12.3 2.367-2.035 5.358-3.382 6.474-6.544 2.192-6.21-4.385-8.4-8.893-10.057-3.476-1.276-6.082-2.645-6.074-6.873 0-1.294.478-2.569.4-3.869-.112-1.882-.951-3.646-2.339-4.922-4.057-3.972-10.566-4.829-15.076-1.281-.746.587.068 1.757.891 1.513m28.295 53.936c-1.055-6.658 5.781-11.174 9.92-15.064a24.5 24.5 0 0 0 7.554-12.7c1.555-7.6-2.717-18.068-11.771-17.414-1.532.111-2.183 2.531-.418 2.844a10.87 10.87 0 0 1 8.728 12.905c-.9 5.037-4.388 9.187-8.1 12.5-5.531 4.937-11.248 9.79-7.034 17.4.347.626 1.216.168 1.116-.463m-12.276-36.462c-3.714-1.1-7.452-2.221-11.124-.208a10.98 10.98 0 0 0-5.321 8.053c-1.013 7.02 4.978 11.2 11.373 11.221 2.268.007 2.935-3.469.586-3.987-3.583-.79-7.931-2.029-7.464-6.653.6-5.945 6.864-6.928 11.717-6.842a.81.81 0 0 0 .233-1.583"/><path d="M102.371 80.731c-2.923.062-5.887.193-8.405 1.873-2.747 1.833-4.307 4.74-3.341 8 .483 1.627 3.3 1.878 3.616-.012.664-3.93 4.839-6.9 8.32-8.333.756-.31.786-1.544-.19-1.523m2.422-16.183c-1.641.565-5.18-2.661-5.74-4.165-.876-2.354 1.289-4.532 2.113-6.528.975-2.364 1.162-5.216-.751-7.2-4.375-4.526-13.318-.518-17.646 2.036-2.124 1.254-.257 4.028 1.862 3.126 1.931-.829 3.954-1.423 6.027-1.768 2.549-.418 6.57-1.353 5.4 2.712-.839 2.916-3.092 4.524-2.05 7.879 1.317 4.24 7.359 7.563 11.255 5.019.56-.366.226-1.354-.471-1.115m-33.203-.729c-.917-3.182 2.309-4.7 4.494-5.419 2.531-1.036 5.435.009 6.725 2.42 2.071 3.523 2.063 7.818 1.788 11.753-.354 5.067-3.033 12.427 1.358 16.36 1.007.9 2.938.032 2.474-1.417-1.008-3.151.027-7.2.412-10.369.554-3.514.699-7.081.431-10.629-.461-4.172-2.046-9.2-5.874-11.51-5.51-3.328-19.111 2.941-13.466 9.761.627.757 1.913-.066 1.658-.95m52.561 39.537c5.685-6.373 14.219-9.438 20.017-1.5.825 1.129 2.956.511 2.484-1.03-1.481-4.836-5.414-8.265-10.636-8.231-6.337.041-10.137 4.876-13.252 9.734-.203.381-.097.853.25 1.111s.829.224 1.136-.079"/><path d="M139.973 95.149c-2.62-4.949 4.439-12.8 8.86-14.658 3.168-1.332 7.927 1.332 9.227-3.2.136-.565-.077-1.157-.543-1.505s-1.094-.385-1.597-.095c-1.314.9-2.848 0-4.283-.122-1.418-.128-2.845.088-4.161.632-3.169 1.274-5.624 3.851-7.812 6.389-3.212 3.727-6.391 10.391-1.048 13.9.851.559 1.789-.521 1.357-1.338m-9.016 19.45c7.124 5.631 17.218 2.668 23-3.488 5.751-6.118 10.761-20.981 1.02-26.1a1.73 1.73 0 0 0-2.105 2.693c5.944 6.343 1.925 16.395-3.8 21.495-4.988 4.446-10.795 5.113-17.095 3.673-.913-.209-1.909 1.033-1.027 1.73M63.484 96.51c-1.414-1.894-3.78-4.114-4.4-6.442-.982-3.677 2.018-8.638 4.789-10.975 3.4-2.87 4.405-.9 6.641 1.536a17.93 17.93 0 0 0 4.353 3.882c.672.365 1.509.19 1.98-.412s.437-1.457-.08-2.021c-2.407-2.73-4.326-6.89-7.768-8.506-3.475-1.632-6.381.424-8.616 3.057-2.561 3.017-6.859 7.731-6.12 12.012.664 3.841 4.415 7.533 7.613 9.453.923.554 2.324-.624 1.607-1.585"/><path d="M65.889 72.906c-10.34-3.172-9.283-23.46 2.843-21.114 1.792.347 3.044-2.026 1.31-3.037-7.141-4.162-14.333 3.206-15.462 10.032-1.1 6.662 3.206 16.349 11.021 16.083a1 1 0 0 0 .289-1.964M35.776 52.784c4.709 2.744 10.262 6.4 12.155 11.764 2.251 6.378-1.838 10.148-7.832 10.527-.883.003-1.63.65-1.759 1.524a1.78 1.78 0 0 0 1.246 1.965c6.482 2.473 13-3.558 13.327-9.905.48-9.213-8.289-15.98-16.618-17.078-.692-.091-1.233.788-.519 1.2m6.161 11.617C28.58 63.372 25.822 84.234 34.096 91.45c1.372 1.2 3.716-.34 2.683-2.049-4.711-7.794-4.975-19.908 5.384-23.187.442-.123.727-.551.67-1.005s-.438-.8-.896-.811m29.154 44.288c-3.811 7.994.061 21.175 10.641 20.432 11.522-.81 13.593-16.583 10.875-25.24-.429-1.365-2.819-1.623-3.087.01-1 6.105 1.029 16.877-6.039 20.037-8.409 3.76-10.7-9.189-10.007-14.62.16-1.257-1.865-1.707-2.383-.621"/><path d="M87.423 123.6c3.005 7.924 11.9 13.39 20.134 9.4 8.256-4 13.3-16.493 10-25.079-.282-.856-1.133-1.391-2.026-1.274s-1.578.854-1.629 1.754c-.579 6.879-.7 14.244-6.549 19.076-6.371 5.266-13.934 1.1-18.227-4.583-.557-.737-2.1-.345-1.7.706"/><path d="M100.825 131.46c-9.847-2.769-15.111 8.227-14.22 16.469l2.128-2.054c-6.057-.495-10.739 2.96-13.272 8.3-.395.758-.116 1.694.63 2.112s1.689.169 2.13-.564c2.534-3.587 5.9-6.126 10.456-5.737a2.11 2.11 0 0 0 2.128-2.054c-.76-6.385 1.868-14.614 9.67-14.1.602 0 1.114-.441 1.201-1.037s-.275-1.166-.852-1.338m-61.309 32.218c4.581 6.719 11.735 11.877 20.084 12.292 7.954.395 17.071-3.874 21.1-10.875 1.222-2.125-1.513-3.763-3.2-2.384-5.52 4.5-10.219 8.933-17.836 8.958-7.352.024-13.357-4.32-18.034-9.6-.973-1.1-2.958.363-2.108 1.61m45.162-1.684c-3.584 7.314-6.6 15-13.092 20.326-7.375 6.058-17.02 6.42-24.032-.374-5.465-5.294-10.2-14.4-9.537-22.218.377-4.448 3.534-9.29 8.555-8.173 4.517 1 6.674 5.991 7.884 9.911.608 1.97 3.913 1.715 3.805-.5-.436-8.929-9.9-18.175-18.856-12.577-10.441 6.522-5.779 21.761-.633 30.153 6.077 9.912 16.714 16.251 28.311 11.861 11.065-4.188 18.7-16.334 20.291-27.708.2-1.431-2.1-1.911-2.7-.7"/><path d="M53.533 153.497c1.465-3.024 3.541-6.476 6.658-8.05 3.975-2.008 7.134.723 10.012 3.243.673.614 1.689.659 2.413.106s.949-1.545.534-2.356c-2.142-4.991-8.3-7.357-13.363-5.59-5.166 1.8-7.936 6.962-7.928 12.212a.9.9 0 0 0 1.674.436"/><path d="M70.693 143.444c-1.533-2.437 1.65-4.588 3.517-5.257a18.93 18.93 0 0 1 7.255-.919c1.97.078 2.548-3.1.509-3.459-4.086-.719-9.284-.087-12.535 2.76-2.445 2.142-3.047 6.194-.02 8.13.361.197.809.133 1.102-.155s.362-.735.171-1.1m18.041 20.337c5.907 2.056 11.991-.065 15.939-4.822 3.364-4.053 5.692-12.111.861-16.031-.728-.664-1.826-.712-2.609-.114s-1.026 1.67-.577 2.547c2.07 4.135 1.217 9.136-2.108 12.35a13.47 13.47 0 0 1-11.268 4.458c-.985-.093-1.085 1.317-.237 1.612m64.377-40.132c-5.305 1.04-6.3 6.243-6.827 10.823-1.015 8.842-7.056 11.061-14.923 12.746a1.72 1.72 0 0 0-.03 3.31c5.619 1.157 11.439-.641 15.426-4.766a13.81 13.81 0 0 0 3.639-7.354c.744-4.321-.734-10.04 3.46-12.991a.97.97 0 0 0-.746-1.767M48.285 47.137c8.658-3.6 16.154-10.5 25.494-12.419 9.441-1.941 19.183 4.551 25.225 11.217 1.48 1.633 4.775-.093 3.954-2.265-1.734-4.584-5.825-7.114-10.022-9.293-4.93-2.56-10.09-4.941-15.777-4.551-10.789.739-22.156 8.958-30 15.894-.865.765.25 1.78 1.122 1.417"/><path d="M97.551 39.621c4.281-2.688 9.794-1.354 13.412 1.86 2.836 2.52 4.066 5.926 6 9.059.813 1.315 3.429.9 3.239-.868-1.2-11.178-14.1-18.375-23.538-11.538-.9.654-.089 2.1.885 1.486M81.113 258.6c-11.635.313-20.059 9.8-27.456 17.709-4.423 4.73-8.587 9.7-12.563 14.808-1.144 1.47-4.615 7.6-6.545 6.771-2.261-.972-3.626-6.8-4.13-8.859-1.414-5.763-1.7-11.758-2.735-17.594a121.41 121.41 0 0 0-5.026-19.715c-1.693-4.734-3.845-5.947-8.435-7.4-8.594-2.728-8.678-11.095-4.727-17.742 1.489-2.5-1.828-4.522-3.824-2.847-4.593 3.853-5.772 10.7-3.709 16.2 1.884 5.021 5.9 7.913 10.748 9.688 2.4.88 3.317 1.285 4.54 3.553a30.95 30.95 0 0 1 1.849 5.915q1.594 5.531 2.717 11.181c1.424 7.158 1.593 14.657 3.642 21.674 1.216 4.166 4.082 11.659 9.27 12.045 5.417.4 8.924-7.64 11.615-11.157a230.18 230.18 0 0 1 15.635-18.294c5.49-5.8 11.155-12.252 19.421-13.618 1.339-.221 1.053-2.35-.288-2.314"/></g></g></svg>