<svg xmlns="http://www.w3.org/2000/svg" width="64.239" height="96.353" viewBox="0 0 64.239 96.353"><g transform="translate(25.534 -5.75) rotate(16)"><path d="M35.421,29.558a19.127,19.127,0,0,0-10.493-6.632l-1.491-.36.019-1.48L23.632,7.2l.024-1.926,2-.024.576-.007a2.846,2.846,0,0,0,1.934-.795A2.63,2.63,0,0,0,29,2.588h0A2.5,2.5,0,0,0,28.218.748,2.707,2.707,0,0,0,26.3,0L14.069.15a2.845,2.845,0,0,0-1.935.795A2.63,2.63,0,0,0,11.308,2.8h0a2.5,2.5,0,0,0,.779,1.84A2.709,2.709,0,0,0,14,5.391l.576-.007,2-.024-.024,1.926-.177,13.891-.019,1.479-1.5.4A20.425,20.425,0,0,0,4.21,29.948,18.767,18.767,0,0,0,0,41.511a18.012,18.012,0,0,0,5.591,13.3,19.536,19.536,0,0,0,13.84,5.366,20.52,20.52,0,0,0,13.98-5.706A18.968,18.968,0,0,0,39.344,41.03a17.939,17.939,0,0,0-3.923-11.473" transform="translate(4.009 28.609)" fill="#fff" fill-rule="evenodd"/><path d="M17.742,29.558A19.127,19.127,0,0,0,7.249,22.925l-1.491-.36.019-1.48L5.953,7.2l.024-1.926,2-.024.576-.007a2.846,2.846,0,0,0,1.934-.795,2.63,2.63,0,0,0,.826-1.859h0A2.5,2.5,0,0,0,10.539.748,2.707,2.707,0,0,0,8.625,0L5.116.043A2.708,2.708,0,0,1,7.031.791,2.5,2.5,0,0,1,7.81,2.63h0A2.63,2.63,0,0,1,6.984,4.49a2.846,2.846,0,0,1-1.934.795l-.576.007-2,.024L2.445,7.242,2.268,21.128l-.053,4.161c9.076-.1,16.338,6.888,16.228,15.613a15.47,15.47,0,0,1-1.363,6.152,19.442,19.442,0,0,1-4.854,7.455A20.5,20.5,0,0,1,0,60.12q.866.063,1.753.053a20.52,20.52,0,0,0,13.98-5.706A18.967,18.967,0,0,0,21.665,41.03a17.939,17.939,0,0,0-3.923-11.473" transform="translate(21.688 28.609)" fill="#f2f2f2" fill-rule="evenodd"/><path d="M39.43,33.411a19.128,19.128,0,0,0-10.493-6.632l-1.491-.36.019-1.48.177-13.886.024-1.926,2-.024.576-.007A2.847,2.847,0,0,0,32.181,8.3a2.63,2.63,0,0,0,.826-1.859h0A2.5,2.5,0,0,0,32.228,4.6a2.707,2.707,0,0,0-1.915-.748L18.078,4a2.845,2.845,0,0,0-1.934.795,2.63,2.63,0,0,0-.826,1.859h0A2.5,2.5,0,0,0,16.1,8.5a2.71,2.71,0,0,0,1.915.748l.576-.007,2-.024-.024,1.926L20.391,25.03l-.019,1.479-1.5.4A20.425,20.425,0,0,0,8.22,33.8,18.767,18.767,0,0,0,4.011,45.364,18.012,18.012,0,0,0,9.6,58.659a19.537,19.537,0,0,0,13.84,5.366,20.521,20.521,0,0,0,13.98-5.706,18.967,18.967,0,0,0,5.931-13.436A17.938,17.938,0,0,0,39.43,33.411m-7.939-9.95a22.923,22.923,0,0,1,11.132,7.564,21.6,21.6,0,0,1,4.738,13.81,22.831,22.831,0,0,1-7.14,16.174,24.7,24.7,0,0,1-16.829,6.869,23.516,23.516,0,0,1-16.66-6.46A21.683,21.683,0,0,1,0,45.413,22.607,22.607,0,0,1,5.086,31.492,24.534,24.534,0,0,1,16.4,23.653l.136-10.686a6.623,6.623,0,0,1-3.308-1.712,6.17,6.17,0,0,1-1.919-4.549h0a6.5,6.5,0,0,1,2.036-4.6A7.028,7.028,0,0,1,18.127.15L30.362,0A6.691,6.691,0,0,1,35.1,1.842a6.17,6.17,0,0,1,1.919,4.549h0a6.5,6.5,0,0,1-2.035,4.6,7.039,7.039,0,0,1-3.353,1.793Z" transform="translate(0 24.756)" fill="#353535"/><path d="M16.258,17.72c9.089-.111,16.547-7.281,16.658-16.015,0-.353,0-.7-.024-1.05-13.25-3.284-20.5,7.2-32.841.4C.024,1.4.006,1.754,0,2.107-.11,10.841,7.169,17.831,16.258,17.72" transform="translate(7.215 67.777)" fill="#d99216" fill-rule="evenodd"/><path d="M30.348.176c-11.682-1.5-18.768,7.233-30.3.879C.024,1.4.006,1.753,0,2.106a15.352,15.352,0,0,0,10.08,14.53,15.65,15.65,0,0,0,3.609.374C22.582,16.9,29.919,9.421,30.348.176" transform="translate(7.215 67.778)" fill="#ffb900" fill-rule="evenodd"/><path d="M2.534,4.929A2.442,2.442,0,0,1,0,2.5,2.593,2.593,0,0,1,2.6,0,2.442,2.442,0,0,1,5.13,2.434a2.594,2.594,0,0,1-2.6,2.5" transform="translate(20.596 70.667)" fill="#d99216" fill-rule="evenodd"/><path d="M2.164,4.21A2.085,2.085,0,0,1,0,2.132,2.214,2.214,0,0,1,2.217,0,2.085,2.085,0,0,1,4.381,2.078,2.215,2.215,0,0,1,2.164,4.21" transform="translate(23.728 75.892)" fill="#d99216" fill-rule="evenodd"/><path d="M.061,1.412c-.179-.287.046-.793.5-1.13S1.537-.1,1.716.191s-.046.793-.5,1.13S.24,1.7.061,1.412" transform="translate(24.173 76.291)" fill="#f0faff" fill-rule="evenodd"/><path d="M.3,1.989C-.085,1.75-.1,1.132.262.609A1.087,1.087,0,0,1,1.61.094c.381.239.4.857.034,1.38A1.087,1.087,0,0,1,.3,1.989" transform="translate(21.195 71.273)" fill="#f0faff" fill-rule="evenodd"/><path d="M1.16,3.105A1.534,1.534,0,0,1,.074,1.152,1.7,1.7,0,0,1,2.134.06,1.534,1.534,0,0,1,3.22,2.013,1.7,1.7,0,0,1,1.16,3.105" transform="translate(18.666 79.579)" fill="#d99216" fill-rule="evenodd"/><path d="M.08.942C-.083.754.011.42.29.193a.6.6,0,0,1,.8-.072c.163.187.069.521-.209.748a.6.6,0,0,1-.8.072" transform="translate(19.154 80.029)" fill="#f0faff" fill-rule="evenodd"/><path d="M8.179,6.827a4.69,4.69,0,0,1-6.324,1.1A4.2,4.2,0,0,1,.873,1.871,4.69,4.69,0,0,1,7.2.776a4.2,4.2,0,0,1,.982,6.051" transform="translate(21.763 0.867)" fill="#ffb900" fill-rule="evenodd"/><path d="M5.984,8.642A3.749,3.749,0,0,0,8.352,7.2,3.422,3.422,0,0,0,9.009,4.6a3.344,3.344,0,0,0-1.442-2.24,3.672,3.672,0,0,0-2.7-.567A3.748,3.748,0,0,0,2.5,3.231a3.423,3.423,0,0,0-.657,2.605,3.345,3.345,0,0,0,1.442,2.24,3.672,3.672,0,0,0,2.7.567m3.827-.455a5.619,5.619,0,0,1-3.549,2.16A5.5,5.5,0,0,1,2.225,9.5,5.014,5.014,0,0,1,.065,6.145a5.119,5.119,0,0,1,.98-3.9A5.617,5.617,0,0,1,4.594.084,5.5,5.5,0,0,1,8.63.929a5.016,5.016,0,0,1,2.16,3.358A5.121,5.121,0,0,1,9.811,8.187Z" transform="translate(20.861 0)" fill="#353535"/><path d="M5.878,4.906a3.37,3.37,0,0,1-4.545.787A3.017,3.017,0,0,1,.627,1.345,3.37,3.37,0,0,1,5.171.557a3.018,3.018,0,0,1,.706,4.349" transform="translate(14.933 11.739)" fill="#ffb900" fill-rule="evenodd"/><path d="M4.515,6.214A2.431,2.431,0,0,0,6.033,5.3h0l.018-.021A2.221,2.221,0,0,0,6.477,3.59a2.168,2.168,0,0,0-.913-1.437h0l-.021-.016a2.382,2.382,0,0,0-1.748-.368,2.433,2.433,0,0,0-1.519.913h0L2.258,2.7a2.22,2.22,0,0,0-.427,1.69,2.173,2.173,0,0,0,.935,1.452,2.386,2.386,0,0,0,1.748.368m2.994.052A4.3,4.3,0,0,1,4.792,7.919,4.209,4.209,0,0,1,1.7,7.273,3.838,3.838,0,0,1,.05,4.7,3.919,3.919,0,0,1,.783,1.74h0L.8,1.718A4.3,4.3,0,0,1,3.516.064,4.212,4.212,0,0,1,6.583.7h0l.021.016a3.839,3.839,0,0,1,1.653,2.57,3.916,3.916,0,0,1-.733,2.963v0h0Z" transform="translate(14.032 10.872)" fill="#353535"/><path d="M4.173,3.483a2.392,2.392,0,0,1-3.226.559A2.142,2.142,0,0,1,.445.955,2.393,2.393,0,0,1,3.672.4a2.142,2.142,0,0,1,.5,3.087" transform="translate(25.08 16.763)" fill="#ffb900" fill-rule="evenodd"/><path d="M3.426,4.416a1.455,1.455,0,0,0,.9-.538h0l.017-.021A1.328,1.328,0,0,0,4.6,2.845a1.3,1.3,0,0,0-.537-.854h0l-.022-.016a1.426,1.426,0,0,0-1.047-.221,1.454,1.454,0,0,0-.919.559,1.329,1.329,0,0,0-.256,1.012,1.3,1.3,0,0,0,.559.869,1.429,1.429,0,0,0,1.047.221M5.8,4.843A3.324,3.324,0,0,1,3.7,6.121a3.255,3.255,0,0,1-2.387-.5A2.967,2.967,0,0,1,.039,3.635,3.029,3.029,0,0,1,.618,1.328,3.323,3.323,0,0,1,2.718.05,3.254,3.254,0,0,1,5.083.534v0h0L5.1.549A2.968,2.968,0,0,1,6.383,2.536,3.029,3.029,0,0,1,5.82,4.821h0Z" transform="translate(24.178 15.896)" fill="#353535"/><path d="M2.444.1c.532.31.5,1.276-.069,2.158S.912,3.6.38,3.291s-.5-1.275.069-2.157S1.911-.213,2.444.1" transform="translate(23.12 2.447)" fill="#f0faff" fill-rule="evenodd"/><path d="M1.819.071c.4.23.373.949-.052,1.606s-1.089,1-1.485.772S-.09,1.5.334.843s1.089-1,1.485-.772" transform="translate(16.093 13.081)" fill="#f0faff" fill-rule="evenodd"/><path d="M1.039.04c.226.13.212.537-.031.908s-.622.568-.848.438S-.051.85.191.478.814-.09,1.039.04" transform="translate(26.251 17.918)" fill="#f0faff" fill-rule="evenodd"/><path d="M.784,2.1A1.037,1.037,0,0,1,.05.78,1.149,1.149,0,0,1,1.443.041a1.037,1.037,0,0,1,.734,1.32A1.149,1.149,0,0,1,.784,2.1" transform="translate(18.804 75.947)" fill="#d99216" fill-rule="evenodd"/><path d="M.054.636C-.056.51.007.284.2.131A.408.408,0,0,1,.736.082C.846.209.783.435.594.588a.407.407,0,0,1-.54.049" transform="translate(19.134 76.251)" fill="#f0faff" fill-rule="evenodd"/></g></svg>