<svg xmlns="http://www.w3.org/2000/svg" width="87.96" height="89.414" xmlns:v="https://vecta.io/nano"><path d="M48.824 21.254c2.2-3.59 10.012-9.814 12.871-12.555-.519-.642 2.724-5.384 2.2-6.027-2.962 6.072-13.727 18.427-16.624 24.551-.786 1.662.956 2.993 1.995 1.89 5.367-5.7 14.627-13.869 19.388-20.387L66.64 6.244c-5.247 8.49-13.29 24.257-18.525 32.759-1.17 1.9.65 4.214 2.109 2.6L62.94 27.518c4.062-4.5 8.023-9.692 12.845-12.849l-1.9-3.06c-8.212 11.495-21.886 27.122-29.919 38.822-1.474 2.147.73 4.615 2.4 2.957 8.162-8.1 26.068-24.028 34.23-32.132l-2.422-2.985c-8.268 10.092-24.708 28.045-31.8 39.5-1.359 2.2.77 4.919 2.447 3.016 7.046-8 22.854-23.142 30.489-30.23l-2.109-3.391c-7.925 10.33-19.812 24.741-26.5 36.437-1.018 1.78-4.953 10.037-3.583 8.725 7.989-7.653 27.948-27.94 35.936-35.593l-2.162-3.476c-6.085 8.614-21.5 27.337-29.663 38.265l-2.133 2.93c-1.294 1.833.454 5.1 2.183 3.51 6.36-5.851 27.058-26.609 33.418-32.461l-2.482-3.072c-3.134 6.036-25.987 32.514-29.121 38.55-1.047 2.016 1 4.149 2.5 3.086 3.6-2.561 26.921-25.562 30.522-28.123l-2.687-2.555c-1.114 3.88-22.23 28.082-23.833 31.674-.773 1.732 1.209 3.749 2.242 2.124 2.377-3.74 23.831-28.1 25.126-32.618.573-2-1.4-3.47-2.687-2.555-3.6 2.565-26.917 25.571-30.516 28.136l2.5 3.086c3.129-6.04 25.978-32.521 29.107-38.561.971-1.874-1.028-4.413-2.483-3.071-6.356 5.86-27.05 26.628-33.405 32.489l2.183 3.51c6.752-9.582 25.021-31.641 31.772-41.225 1.275-1.81-.474-5.1-2.162-3.476-7.982 7.668-21.938 22.229-29.919 29.9.8.995-4.387 7.73-3.583 8.725 6.5-11.394 24.209-31.255 31.912-41.316 1.332-1.74-.478-4.909-2.109-3.391-7.874 7.326-23.919 22.691-31.186 30.954l2.447 3.016c7.08-11.464 23.511-29.427 31.772-39.53 1.639-2-.762-4.637-2.422-2.985-8.154 8.114-26.053 24.047-34.207 32.16l2.4 2.957c8.026-11.709 21.9-27.129 29.744-39.033 1.113-1.688-.289-4.222-1.9-3.06-4.676 3.365-8.558 8.147-12.574 12.629l-13.513 15.08 2.342 2.219C55.67 32.696 63.68 16.9 68.88 8.363c.993-1.632-1.175-3.594-2.237-2.119-4.724 6.564-13.86 14.861-19.17 20.656l1.995 1.89c2.832-6.169 12.863-17.98 15.628-24.2.666-1.5-2.82-4.281-3.766-3.262C58.404 4.48 49.93 11.58 47.759 15.6c-.6 1.116.459 6.641 1.064 5.653" fill="#ffb900"/><path d="M42.123 12.992c.047.419.057.841.031 1.262a10.4 10.4 0 0 1-.174 1.308c-.076.401-.179.795-.309 1.182-.147.415-.343.813-.528 1.211l-.262.571-.271.571a3.6 3.6 0 0 1-.392.573l-.135.158.333.731.358.944.331 1.022c.106.334.194.673.263 1.017q.12.58.222 1.166l.116 1.013a9.52 9.52 0 0 1 .035 1.037c0 .358-.042.711-.073 1.066l-.049.775c0 .116-.016.222-.025.343.002.023.002.045 0 .068v.129c.006.037.006.074 0 .111h0c0 .074-.016.145-.022.222-.049.49-.14.968-.222 1.453l-.1.56-.1.5-.133.482-.171.49a.1.1 0 0 1-.018.071 10.69 10.69 0 0 1-.346 1.135 5.08 5.08 0 0 1-.245.548c-.057.109-.119.215-.187.318l-.024.078c-.118.352-.261.694-.427 1.026l-.022.042.022.04.855 1.677.384.9.347.915.666 1.948.584 1.868.5 1.975.222 1.111.178 1.048.171 1.024.133 1 .129 1.977a18.91 18.91 0 0 1-.054 2.13l-.116 1.066-.113.99-.1.666-.1.722-.384 2.235-.647 2.184-.3.848-.042.14-.364 1.171c-.13.411-.291.812-.48 1.2q-.116.23-.245.46l.271.591a5.68 5.68 0 0 1 .222.584l.235.576a12.92 12.92 0 0 1 .411 1.32c.127.466.225.939.294 1.417a12.87 12.87 0 0 1 .082 1.4c.009.42-.006.839-.045 1.257v.38a6.07 6.07 0 0 1-.093.777 4.28 4.28 0 0 1-.16.58l-.245.715-.273.642a4.21 4.21 0 0 1-.367.6c-.026.038-.058.075-.087.114l.013.017.109.147.413.666c.148.247.281.502.4.764a6.34 6.34 0 0 1 .313.871 8.1 8.1 0 0 1 .325 1.81c.032.467.015.936-.049 1.4-.036.226-.092.449-.167.666-.072.233-.169.456-.291.667-.128.215-.269.421-.422.619l-.08.1a4.84 4.84 0 0 1-.271.467c-.115.186-.244.364-.386.531l-.193.289a.47.47 0 0 1-.253.222.3.3 0 0 1-.064.015 5.47 5.47 0 0 1-.582.444l-.735.464-.064.042-.291.167-.064.035-.073.04a3.89 3.89 0 0 1-.591.373c-.223.112-.452.212-.686.3l-.26.087-.222.093a3.7 3.7 0 0 1-.4.133c-.346.096-.7.159-1.057.189l-.919.018h-.34c-.222.022-.444.027-.666.031h-.666l-.755-.042-.633-.067-1.333-.18c-.444-.087-.846-.211-1.268-.318-.469-.105-.931-.239-1.384-.4l-1.22-.535-.61-.3c-.201-.1-.38-.222-.564-.329l-1.127-.785a6.48 6.48 0 0 1-.953-.9l-.888-1.111a12.88 12.88 0 0 1-.715-1.161q-.093-.162-.173-.334l-.367-.49-.2-.033-.526-.107-1-.26c-.334-.107-.706-.258-1.055-.4a7.24 7.24 0 0 1-.935-.493l-.49-.326c-.164-.104-.369-.258-.548-.4l-.953-.773a8.56 8.56 0 0 1-.864-.831c-.289-.321-.554-.663-.793-1.022l-.631-1.075a8.26 8.26 0 0 1-.524-1.111c-.147-.375-.264-.762-.351-1.155a6 6 0 0 1-.1-.666c0-.138-.016-.276-.025-.411l-.5-.16-1.757-.649a7.19 7.19 0 0 1-.751-.382l-.2-.08a11 11 0 0 1-1.14-.524 7.9 7.9 0 0 1-1.05-.667l-.49-.4a4.98 4.98 0 0 1-.444-.4l-.245-.275a7.3 7.3 0 0 1-.713-.666c-.316-.339-.612-.696-.889-1.068a8.88 8.88 0 0 1-.724-1.086l-.653-1.333c-.178-.4-.322-.811-.469-1.222l-.444-1.308c-.058-.2-.1-.411-.14-.619l-.124-.74L1 59.148.987 57.753v-.297c.001-.008.001-.017 0-.025L1 56.271l.1-1.184.2-1.131.284-1.111.354-1.073.262-.759c-.088-.03-.161-.091-.208-.171-.074-.127-.131-.264-.193-.4-.015-.031-.024-.065-.025-.1l-.2-.56c-.1-.294-.175-.6-.251-.889l-.31-1.4q-.114-.642-.207-1.29L.639 44.87.564 43.482c-.015-.912.041-1.824.166-2.728a20.24 20.24 0 0 1 .471-2.619 13.89 13.89 0 0 1 .444-1.415c.177-.435.377-.861.6-1.274l.618-1.121.375-.611.222-.317-.036-1.053.049-2.372.129-1.274.1-.6.131-.637.486-2.241.291-1.228.32-1.168c.114-.388.275-.793.426-1.184l.222-.544.234-.513 1.092-2.141a20.82 20.82 0 0 1 1.317-2.143l.371-.5.384-.476q.4-.47.819-.915l.515-.5c.125-.038.238-.107.329-.2l.409-.367c.21-.178.428-.345.655-.5l.187-.118h0l.08-.049q.289-.182.58-.36l.235-.142.932-.535.082-.049a1.99 1.99 0 0 0 .28-.1l.338-.14.484-.2h0l.029-.088.049-.135.113-.322q.1-.28.208-.56l.107-.26c.054-.149.121-.292.2-.429a.61.61 0 0 1 .087-.107l.129-.273c.03-.063.071-.121.12-.171l.147-.291a13.16 13.16 0 0 1 .888-1.437 5.86 5.86 0 0 1 .373-.606 6.8 6.8 0 0 1 .809-.957l.784-.706q.222-.222.444-.426c.177-.17.363-.33.557-.48l.577-.427.5-.335.32-.191.313-.16c.416-.206.846-.381 1.288-.522l.147-.045.082-.038c.195-.086.396-.16.6-.222l.564-.18.666-.178.765-.147c.256-.047.444-.06.666-.084l.615-.045.666-.02h1.266c.231-.005.463.005.693.029l.777.078a7.74 7.74 0 0 1 1.274.3l.913.31.135.029.667.184c.223.07.444.167.666.26a12.02 12.02 0 0 1 2.255 1.263l1.062.771.322.271h0c.703.556 1.314 1.22 1.81 1.966l.337.571.193.314c.225.291.432.596.62.913.115.194.22.394.313.6l.255.591.24.637.145.511.042.116a5.67 5.67 0 0 1 .209.619c.103.445.175.898.215 1.353z" fill="#fff"/><path d="M54.421 89.399c-.105 0-.211 0-.313-.005h-.1a6.9 6.9 0 0 1-.686-.031h-.568c-.233 0-.48 0-.729-.018-.369-.031-.734-.098-1.09-.198a3.63 3.63 0 0 1-.416-.136l-.228-.1-.267-.086a7.47 7.47 0 0 1-.707-.313 4 4 0 0 1-.608-.384l-.074-.042-.066-.037-.3-.172-.066-.043-.757-.478c-.21-.139-.41-.291-.6-.457a.31.31 0 0 1-.066-.017c-.112-.042-.205-.123-.261-.229l-.2-.3a4.78 4.78 0 0 1-.4-.547 5.12 5.12 0 0 1-.279-.48l-.025-.029-.057-.07a6.28 6.28 0 0 1-.435-.638c-.125-.217-.226-.447-.3-.686a4.26 4.26 0 0 1-.172-.687c-.065-.477-.082-.96-.05-1.441.041-.631.153-1.254.334-1.86.086-.307.194-.608.323-.9a8.03 8.03 0 0 1 .407-.787l.426-.686.112-.151.014-.019-.033-.042-.056-.074c-.143-.195-.269-.401-.377-.617l-.282-.661-.228-.664v-.006l-.022-.066a4.32 4.32 0 0 1-.165-.6c-.05-.264-.084-.531-.1-.8v-.391a11.22 11.22 0 0 1-.045-1.295 13.18 13.18 0 0 1 .084-1.446c.07-.492.171-.979.3-1.459a13.5 13.5 0 0 1 .424-1.359l.242-.592a5.61 5.61 0 0 1 .228-.6l.279-.608-.253-.474a9.1 9.1 0 0 1-.494-1.239l-.375-1.206-.043-.144-.309-.874-.666-2.249c-.153-.626-.246-1.273-.337-1.9q-.029-.2-.058-.4l-.048-.355-.048-.385-.1-.686-.071-.606v-.022l-.045-.392-.12-1.097c-.059-.73-.077-1.463-.054-2.195l.132-2.036.006-.049v-.008l.132-.97.068-.41.108-.644.059-.355.009-.054.115-.672.228-1.144.511-2.034.6-1.924.251-.735.013-.04v-.011q.208-.611.417-1.22l.358-.942.051-.124v-.009l.341-.8.882-1.727.022-.041-.013-.039a8.11 8.11 0 0 1-.44-1.057l-.025-.081-.192-.327c-.095-.183-.18-.371-.253-.564a11.17 11.17 0 0 1-.356-1.17.11.11 0 0 1-.019-.072l-.176-.505c-.059-.172-.093-.317-.135-.486v-.01c-.034-.139-.058-.284-.082-.425l-.022-.092-.1-.577q-.025-.151-.052-.3l-.177-1.2c0-.03-.006-.059-.01-.087-.007-.047-.011-.094-.012-.141-.006-.038-.006-.077 0-.115v-.132c-.003-.023-.003-.047 0-.07 0-.04-.007-.078-.01-.115v-.006h0a2.33 2.33 0 0 1-.015-.233l-.05-.8-.022-.245-.053-.853a9.89 9.89 0 0 1 .037-1.067l.119-1.043.23-1.2a9.74 9.74 0 0 1 .27-1.048l.235-.729.105-.324.369-.972.056-.127.022-.05.265-.576-.139-.163a3.73 3.73 0 0 1-.4-.59l-.234-.489-.045-.1-.27-.588-.091-.194-.454-1.052a9.44 9.44 0 0 1-.318-1.217c-.087-.445-.147-.895-.178-1.347-.027-.433-.016-.868.031-1.3.051-.465.133-.925.247-1.379a5.9 5.9 0 0 1 .216-.638l.043-.12.149-.525.2-.536.047-.12.236-.548v-.011l.021-.039c.096-.213.204-.42.323-.621a9.39 9.39 0 0 1 .638-.94l.2-.322.14-.239.209-.349a8.74 8.74 0 0 1 1.862-2.029c.107-.1.231-.2.331-.28l.965-.7.128-.09a12.42 12.42 0 0 1 2.322-1.3l.079-.033.607-.234.686-.19.142-.033.939-.321a8.07 8.07 0 0 1 1.311-.308l.428-.043.373-.037c.197-.02.395-.031.593-.031h1.418l.687.02.112.007.521.04.107.012.58.075.787.152.577.151.11.031.36.114.221.072a5.72 5.72 0 0 1 .62.229l.085.039.151.046a9.47 9.47 0 0 1 1.326.538l.323.165.2.117.13.079.1.069.023.015.383.262.594.439a7.17 7.17 0 0 1 .574.494l.458.439.807.728c.307.302.586.632.832.985.141.2.27.408.385.624a13.76 13.76 0 0 1 .915 1.48l.107.212.044.088a.64.64 0 0 1 .124.176l.133.282c.034.033.064.07.089.11a2.76 2.76 0 0 1 .208.441l.11.267.215.577a4.7 4.7 0 0 1 .116.331l.051.139.029.091.5.208.135.057h.006l.206.085c.093.04.19.074.288.1l.084.05.959.551.242.146.6.37.083.051.192.121a8.4 8.4 0 0 1 .686.513l.412.382c.095.093.211.162.338.2l.531.519.844.942.4.49.33.438.053.072c.496.709.948 1.447 1.355 2.211l1.125 2.206.241.528.046.108.183.452.059.153.38 1.066.329 1.2.3 1.264.323 1.48.178.829.134.656.08.475.022.137c.07.443.1.9.132 1.31a24.3 24.3 0 0 1 .051 2.445l-.036 1.084a4.81 4.81 0 0 1 .228.327l.387.629.635 1.155a13.49 13.49 0 0 1 .615 1.313c.178.477.331.964.458 1.457a20.89 20.89 0 0 1 .484 2.7c.129.931.186 1.87.172 2.81l-.079 1.429-.171 1.372-.213 1.329-.321 1.442-.258.916-.211.576c-.001.035-.01.069-.025.1l-.041.089-.158.321a.4.4 0 0 1-.216.176l.09.26.18.523.364 1.1.292 1.144c.094.4.153.8.2 1.165.055.41.092.831.1 1.219l.014 1.194a.1.1 0 0 0 0 .025v.313l-.014 1.436c-.021.5-.083 1-.134 1.389l-.129.761-.01.053-.133.586-.351 1.053-.106.294-.026.073-.457 1.185-.062.131v.011l-.605 1.23a9.11 9.11 0 0 1-.745 1.119 12.99 12.99 0 0 1-.915 1.1c-.23.245-.475.474-.735.686l-.213.241-.039.043a5.34 5.34 0 0 1-.457.411l-.505.408a8.15 8.15 0 0 1-1.082.687c-.38.202-.772.382-1.173.539l-.207.083a7.57 7.57 0 0 1-.772.393l-1.81.668-.515.165c0 .039-.006.079-.009.119l-.016.3a6.1 6.1 0 0 1-.106.687 7.98 7.98 0 0 1-.361 1.189 8.5 8.5 0 0 1-.54 1.144l-.65 1.107a9.36 9.36 0 0 1-.817 1.052c-.276.305-.574.591-.89.855l-.981.8-.564.408-.224.15-.281.186c-.308.192-.629.362-.962.508l-1.086.416c-.354.116-.724.2-1.034.267l-.542.11-.13.021-.078.012-.377.505-.178.343c-.224.413-.47.814-.737 1.2l-.915 1.144a6.59 6.59 0 0 1-.98.931l-1.162.807-.2.119-.38.22-.629.31-1.256.551a12.3 12.3 0 0 1-1.425.416l-.409.108-.9.219c-.416.081-.839.127-1.248.172l-.124.014-.236.026h-.01l-.406.041-.547.032-.231.011c-.08.008-.169.01-.271.01zM49.48 79.156h0a1.7 1.7 0 0 0-.722.373c-.125.103-.236.222-.331.353-.082.06-.158.127-.228.2l-.031.034-.223.259-.025.034c-.027.037-.051.076-.074.116a2.1 2.1 0 0 0-.249.547 2.41 2.41 0 0 0-.066.757v.058l.047.384c.014.084.031.149.048.212l.007.025v.01l.017.05.069.215.016.042.022.063.017.052.018.048c.085.242.199.472.338.687a3.1 3.1 0 0 0 .151.229l.028.041.007.01.039.053a3.01 3.01 0 0 0 .228.318l.012.015.036.044.409.468.243.229.146.126.035.03.188.148.02.014a3.73 3.73 0 0 0 .257.18 5.79 5.79 0 0 0 .674.383l.011.005.555.262.266.101.05.021.025.008.253.084c.211.059.426.105.643.139l.318.043h.062l.053.006c.102.014.204.022.307.024h.089l.338.012h.73l.292-.016.2-.012.43-.031a5.86 5.86 0 0 0 1.025-.179l.2-.057 1.295-.311c.425-.123.842-.286 1.2-.43.342-.132.676-.285 1-.457h.014l.131-.071.055-.03.845-.487.711-.5.116-.083.148-.106.229-.156c.33-.217.655-.455.967-.708a8.61 8.61 0 0 0 1.015-.995c.355-.396.667-.829.929-1.292l.031-.059.158-.305.162-.362v-.024l.066-.2v-.006l.037-.141h.041l.7-.073c.298-.027.594-.071.887-.132l.863-.243c.285-.088.563-.194.835-.316l.152-.068.228-.112.151-.081.235-.127.047-.026.075-.04.823-.513.116-.08c.251-.165.492-.344.723-.536l.033-.027.35-.318.123-.128.209-.223.051-.054.726-.864.044-.056c.255-.421.464-.869.622-1.336l.092-.211v-.02-.013l.083-.216c.135-.351.199-.724.189-1.1v-.03l-.021-.228a2.23 2.23 0 0 0-.087-.4 2.09 2.09 0 0 0-.137-.341l-.034-.059-.009-.014-.01-.017-.004-.023-.022-.034-.02-.032-.042-.058a1 1 0 0 0-.068-.085c-.03-.05-.064-.098-.1-.144l-.034-.02-.072-.04-.071-.032-.062-.037a1.4 1.4 0 0 0-.293-.126 1.29 1.29 0 0 0-.3-.05h-.054c-.105 0-.21.012-.312.034-.046.009-.088.022-.133.035h-.008l-.055.016-.054.018-.145.055-.043.015c-.044.017-.089.039-.125.056l-.031.015-.112.06-.437.229-.066.042c-.105.069-.205.146-.3.229l-.023.027-.033.025c-.054.041-.099.093-.131.152l-.043.05c-.013.011-.026.023-.039.037l-.035.034-.56.5-.17.136-.061.049-.006.005-.116.092c-.185.225-.4.456-.647.707a9.17 9.17 0 0 1-.867.766l-.362.253a5.99 5.99 0 0 1-.663.457 4.8 4.8 0 0 1-2.341.7l-.3.007c-.106 0-.208 0-.3-.007l-.3-.027-.231-.039-.066-.014-.055-.019-.214.007c-.076 0-.147 0-.214-.007-.473-.038-.936-.152-1.372-.339l-.71-.331-.274-.152-.028-.025-.361-.2-.639-.352-.371-.235-.027-.017-.031-.018-.611-.377h-.014l-.476-.112-.673-.082-.41-.016-.41.016-.4.05-.046.031-.414.205-.292.121-.089.035-.43.155a.71.71 0 0 1-.433 0 .3.3 0 0 1-.1-.046.4.4 0 0 1-.252 0 .46.46 0 0 1-.3-.329.52.52 0 0 1 .155-.476.9.9 0 0 1 .06-.08 1.8 1.8 0 0 1 .3-.3c.173-.132.364-.24.567-.32a3.7 3.7 0 0 1 1.351-.29h.016c.456 0 .912.049 1.358.144a4.99 4.99 0 0 1 1.249.439l.253.064.057.015.59.164.812.282.073.027.2.076.5.171.519.126a8.11 8.11 0 0 0 1.137.081l.639-.025 1.343-.2.375-.082.471-.2.6-.311 1.088-.649a11.59 11.59 0 0 0 .959-.776 10.1 10.1 0 0 0 .894-.937c.109-.126.209-.26.3-.4l.258-.457c.054-.133.099-.269.135-.408l-.152-.316c-.122-.223-.256-.44-.4-.65l-.4-.514-.005-.007-.742-1c-.085-.123-.162-.252-.229-.385a.8.8 0 0 1-.092-.353c.006-.133.064-.258.16-.35a.51.51 0 0 1 .331-.125h.032a.84.84 0 0 1 .316.112 1.75 1.75 0 0 1 .337.229l.41.341-.089-.073 1.633 1.288.935.592.728.407.631.17c.338.047.679.07 1.02.071l.656-.029h.182a4.23 4.23 0 0 0 .574-.039c.292-.044.579-.115.858-.211a11.26 11.26 0 0 0 1.867-.823l.348-.183.995-.563.12-.079.012-.008.042-.028.089-.064.228-.179.025-.012a8.07 8.07 0 0 0 1.173-1.283l.35-.48.016-.021c.176-.258.333-.531.485-.794l.011-.019.058-.1.014-.023.281-.512.207-.393.508-1.027.017-.037.417-.958c.269-.699.458-1.427.563-2.169.05-.365.081-.732.092-1.1v-1.07c-.025-.709-.125-1.413-.3-2.1 0-.022 0-.044-.006-.067v-.041-.024l-.011-.172-.005-.016a1.38 1.38 0 0 0-.05-.151 16.32 16.32 0 0 0-.686-1.536l-.362-.686-.173-.343a11.88 11.88 0 0 0-.547-.869c-.221-.336-.461-.658-.718-.967a4.08 4.08 0 0 0-.766-.686l-.51-.49c-.252-.21-.515-.407-.788-.588-.284-.186-.581-.353-.888-.5a5.72 5.72 0 0 0-.914-.36h-.068c-.26.026-.518.078-.768.155-.127.052-.25.112-.37.179l-.11.113-.592.8-.279.439-.228.44c-.153.307-.328.603-.523.885a8.34 8.34 0 0 1-.7.915c-.226.254-.473.488-.739.7a10.98 10.98 0 0 1-.951.655l-.876.542-.609.341-.1.052-.013.006-.193.1-.629.33-.126.065a20.4 20.4 0 0 0-1.969 1.114 12.42 12.42 0 0 0-.858.707l-.389.337-.069.071-.2.249a3.14 3.14 0 0 0-.212.344c-.096.215-.172.438-.228.666a3.8 3.8 0 0 0-.021.771l.039.229a.23.23 0 0 1 .042.039 4.5 4.5 0 0 0 .51.592c.128.099.266.187.41.261.259.114.527.207.8.281h.006l.5.211c.141.051.286.089.434.127l.218.059a3.86 3.86 0 0 0 .94.159h.2l.632-.018.952-.085c.308-.046.614-.109.915-.187.726-.171 1.424-.443 2.074-.808l.721-.457a4.41 4.41 0 0 0 .769-.575c.041-.031.079-.064.116-.1a7.4 7.4 0 0 0 .551-.565l.066-.073.028-.032.05-.056.073-.085.071-.087.035-.04.009-.011.167-.206c.129-.163.249-.333.359-.509l.458-.818.177-.357a.71.71 0 0 0 .215-.07.8.8 0 0 0 .212-.158l.133-.037.057.065.03.039.012.014.018.019a.2.2 0 0 0 .023.025l.006.006-.121.5-.114.391-.044.131-.083.244-.015.041-.051.145-.117.287-.015.036v.011c-.007.02-.016.041-.025.061-.143.315-.306.62-.487.914l-.29.412-.039.05c-.006.011-.014.021-.023.029l-.292.371-.082.091-.623.687-.285.144-.086.077-.237.205c-.311.268-.642.514-.988.735l-.146.09-.018.011-.348.211c-.153.085-.311.161-.473.229l-.61.229-.52.176-.565.152-.578.1-.738.076-.369.032-.067.006-1.093.081h-.282c-.254 0-.528-.009-.862-.029l-.689-.017h-.008c-.139 0-.3 0-.446-.006l-.4-.006-.739.02-.325.02a4.01 4.01 0 0 0-.419.065 3.94 3.94 0 0 0-.483.142 4.1 4.1 0 0 0-.775.375l-.321.246c-.101.087-.194.182-.279.284a3.65 3.65 0 0 0-.4.6c0 .012-.007.022-.01.03a.21.21 0 0 0-.015.062 3.76 3.76 0 0 0-.043.42c-.005.153.002.306.02.458v-.087l.022.193.013.11v.006l.009.081.041.444a1.75 1.75 0 0 1-.173.914 2.1 2.1 0 0 1-.228.33l-.23.246a3.52 3.52 0 0 1-.294.245l-.14.1h-.012l-.068.041c-.063.063-.143.107-.23.126-.046.012-.094.018-.142.018h-.036a8.9 8.9 0 0 1-.921.28c-.471.096-.949.154-1.43.176l-.845.026c-.2 0-.4 0-.6-.013-.117 0-.234-.012-.347-.019l-.109-.007-.184-.014H57.1l-.567.166a3.6 3.6 0 0 0-.457.208l-.439.269-.126.1-.076.049-.092.073c-.14.126-.314.209-.5.24a.63.63 0 0 1-.116.01h-.009a.6.6 0 0 1-.193-.033.61.61 0 0 1-.311-.282l-.019-.05-.032-.086v-.038l.083-.229a2.54 2.54 0 0 1 .1-.259l.091-.183.04-.078a3.22 3.22 0 0 1 .179-.3 2.26 2.26 0 0 1 .229-.169l.065-.051a2.35 2.35 0 0 1 .271-.178l.384-.182a1.6 1.6 0 0 1 .277-.06c.074-.049.151-.094.23-.135l.248-.082a7.5 7.5 0 0 1 .74-.193h.015l.479-.039h.027l.248-.019a5.96 5.96 0 0 0 1.3-.272 6.73 6.73 0 0 0 1.3-.648 2.67 2.67 0 0 0 .323-.29 2.23 2.23 0 0 0 .208-.337c.076-.185.136-.376.179-.571l-.013-.094a2.23 2.23 0 0 1-.012-.416c.014-.13.035-.259.064-.387l.05-.194a.45.45 0 0 1 .071-.215l.088-.229a4.99 4.99 0 0 1 .307-.6 3.94 3.94 0 0 1 .436-.556c.287-.311.63-.567 1.01-.753l.023-.022.126-.05a4.85 4.85 0 0 0 .494-.191l.059-.029.033-.017.079-.043h.013a.41.41 0 0 0 .08-.014h.048c-.111-.152-.211-.312-.3-.478-.245-.42-.408-.883-.482-1.363v-.1a3.88 3.88 0 0 1-.169-1.006c-.01-.353.054-.703.19-1.029.115-.283.283-.542.494-.762.104-.106.223-.196.353-.267l.1-.148.087-.129.632-.281.749-.388h.007l.02-.01.138-.075.267-.145.3-.161 1.287-.685.462-.236.014-.007.1-.05.392-.2.365-.181h.005l.1-.049.5-.246.645-.326h.005.01l.734-.371.265-.176c.279-.21.546-.434.8-.673a9.24 9.24 0 0 0 .687-.668 8.93 8.93 0 0 0 .625-.959l.063-.1.056-.092.074-.123.011-.019.117-.2.285-.537.011-.024.313-.59c.096-.189.205-.372.324-.547.148-.206.309-.403.482-.589a3.42 3.42 0 0 1 .479-.424 3.68 3.68 0 0 1 .555-.345 2.68 2.68 0 0 1 .636-.207c.135-.026.272-.039.41-.041.031.024.065.045.1.062h.707a3.48 3.48 0 0 1 .52.058 4.06 4.06 0 0 1 .915.283l.281.139.4.16c.236.105.465.224.687.356a8.54 8.54 0 0 1 1.132.808c.293.251.564.526.812.822h0l.016-.028.149-.285c.239-.555.442-1.126.606-1.708.091-.28.164-.6.228-.9l.167-.828a15.86 15.86 0 0 0 .228-2.022v-1.01l-.034-1.036c0-.029 0-.058-.007-.087v-.028c-.006-.05-.01-.101-.011-.151v.084l-.252-1.5v-.006l-.017-.085-.089-.442v-.027l-.7-1.661c-.247-.516-.529-1.013-.844-1.49l-.177-.227-.077-.1-.284-.27-.089-.116a8.08 8.08 0 0 0-.592-.714c-.2-.21-.425-.42-.7-.66l-.116-.1-.737-.616a9.01 9.01 0 0 0-.782-.569 10 10 0 0 0-.887-.5h-.031l-.07-.035h-.009l-.355-.17-.435-.229-.033-.016h-.018l-.039-.018-.163-.071-.117-.05-.037-.016-.176-.069-.145-.054-.06-.021-.252-.072-.1-.025-.044-.01c-.071-.013-.142-.029-.211-.05l-.419-.111h-.037l-.27-.06-.126-.027h-.014l-.027-.019-.014-.014-.05-.054-.027-.032-.019-.023-.039-.05-.02-.023v-.012l-.005-.024c-.008-.007-.013-.016-.014-.026l-.037-.066v-.08a.4.4 0 0 1 0-.05v-.08c.001-.019.001-.039 0-.058v-.012a.21.21 0 0 1 .012-.043v-.02a.45.45 0 0 1 .022-.058.33.33 0 0 1 .022-.037l.113-.027h.045l.7-.03h.294l.867.021a9.6 9.6 0 0 1 1.132.147l.745.16.651.136.068.015.029.015a7.7 7.7 0 0 1 .807.208 3.67 3.67 0 0 1 .483.2l.1.05v-.842a1.59 1.59 0 0 1-.012-.212v-.181l-.02-.295a.44.44 0 0 1-.012-.122l-.038-.353v-.885c0-.007 0-.015 0-.022s-.001-.019 0-.029c-.006-.04-.01-.08-.01-.12l-.014-.1-.069-.474-.208-1.171-.014-.068-.112-.5c-.005-.016-.009-.033-.012-.05v-.007c-.007-.028-.011-.045-.012-.062l-.152-.556-.055-.179v-.017l-.021-.068-.019-.063-.035-.1-.04-.116-.074-.22c-.008-.029-.02-.062-.031-.093l-.291-.818-.013-.037-.011-.03-.036-.1-.187-.487-.062-.046c-.005-.009-.009-.018-.012-.027l-.058-.131-.051-.086-.015-.039-.118-.268-.092-.2-.04-.087-.253-.544v-.025a.49.49 0 0 1-.025-.052v-.007l-.008-.019-.069-.147-.121-.253-.006-.012-.062-.127-.139-.28-.19-.345-.005-.009v-.007l-.062-.107-.253-.412-1.292-1.734-.073-.091a17.09 17.09 0 0 0-1.217-1.4 6.54 6.54 0 0 0-.889-.768 10.01 10.01 0 0 0-.865-.526l-.195-.1-.558-.322-.287-.161-.656-.356c-.219-.11-.471-.2-.7-.295l-.364-.135a1.01 1.01 0 0 1-.356-.2c-.064-.071-.122-.147-.172-.229l-.064-.091-.013-.017-.185-.266v-.015c-.05-.293-.117-.583-.2-.868l-.024-.088-.042-.144-.005-.017-.019-.067-.089-.323-.018-.06-.108-.334-.146-.372c-.089-.208-.189-.412-.3-.609a3.93 3.93 0 0 0-.229-.4l-.073-.11-.208-.316-.636-.915a13.02 13.02 0 0 0-.857-1.084l-.337-.348-.369-.325-.107-.085-.295-.229-.118-.082-.234-.143-.009-.006-.043-.027h-.006l-.081-.05-.05-.036a5.38 5.38 0 0 0-.458-.258l-.726-.334a7.43 7.43 0 0 0-1.271-.384 13.01 13.01 0 0 0-1.966-.275h-.532l-.566-.017-.721.017a9.99 9.99 0 0 0-2.047.229l-.549.158-.087.018a.74.74 0 0 0-.179.068l-.78.281h-.006l-.088.033-.269.1-1.06.4-.211.093-.247.12-.126.066-.147.081-.128.071-.14.082-.133.079-.07.043-.174.106-.426.267-.151.1-.016.012c-.207.134-.408.279-.6.434-.564.46-1.063.994-1.484 1.588l-.069.075-.01.012c-.237.27-.456.554-.656.852l-.524.859-.106.193-.019.035a6.1 6.1 0 0 0-.348.784 8.21 8.21 0 0 0-.286.886v.022l-.112.643v.009c0 .013-.005.027-.009.041a.76.76 0 0 0-.019.152v.05a1.3 1.3 0 0 0-.021.229v.152a3.21 3.21 0 0 0 .061.576 7.22 7.22 0 0 0-.012.862 5.07 5.07 0 0 0 .116.963 4.23 4.23 0 0 0 .353.978l.051.095.027.05v.009l.055.1c.023.074.054.145.092.212.062.124.156.23.272.306.049.033.103.059.16.075l.1-.129.055-.074.051-.066.145-.186.458-.515.05-.05.032-.034h0l.093-.094a.6.6 0 0 0 .082-.166.63.63 0 0 0 .131-.215l.16-.158v-.006c.01-.006.019-.013.027-.021l.279-.269.039-.038.3-.275.05-.043.016-.016.021-.019.132-.118.174-.152.046-.041.03-.03.019-.016.014-.015h.01l.046-.041.158-.1.054-.027h.016l.152-.092.062-.038.19-.117.029-.016.021-.012.312-.174.323-.178.43-.229.192-.1h.006l.335-.182.081-.029.277-.094c.254-.078.512-.143.773-.194a6.05 6.05 0 0 1 .859-.092h.962l.19.014c.158.018.314.044.469.08l.23.051.028.006.026.006.442.1a2.17 2.17 0 0 1 .265.087l.059.148.042.085.006.023c.007.015.011.03.012.046v.028l.066.253v.021h-.012l-.033.014-.039.012-.05.014-.133.039h-.088-.011l-.242.053c-.12-.019-.241-.03-.363-.03a4.83 4.83 0 0 0-1.3.2l-.409.132-.051.019a7.03 7.03 0 0 0-.775.333l-.092.045-.361.2-.05.035-.229.151-.1.065h-.017l-.11.08-.217.165-.026.018c-.101.07-.198.147-.29.23l-.062.05-.026.023-.075.067-.017.015-.011.01-.149.135-.182.17-.025.025-.02.009-.177.177-.054.059-.028.031-.041.053-.025.028-.059.066-.167.2-.165.193a6.7 6.7 0 0 0-.5.687 8.26 8.26 0 0 0-.916 1.4l-.085.172-.643 1.039-.118.214-.012.023-.037.066-.05.1-.131.257-.05.107-.029.065-.037.087-.021.05v.012l-.051.118c-.002.008-.006.015-.01.022s-.011.025-.012.038l-.1.259-.008.018-.008.022-.029.079-.054.148-.017.05-.026.067-.021.066-.079.252v.025c-.121.413-.217.833-.288 1.257v.045l-.036.278v.01a.4.4 0 0 0-.011.11c-.004.036-.007.072-.007.108v.023a.95.95 0 0 1-.012.132 2.14 2.14 0 0 0-.014.3v.308c-.001.014-.001.029 0 .043v.3l-.024.356a1.98 1.98 0 0 0-.01.21l-.005.182c-.013.144-.013.283-.013.43v.192l.019.837v.037l.007.176.006.256a.66.66 0 0 1 .007.12v.048.012.028.015a.56.56 0 0 0 .006.1v.013l.007.17.013.2v.047c-.005.031-.005.063 0 .094a.6.6 0 0 1 .013.143l.015.18.04.457v.043c.036.401.093.799.171 1.194l.006.03v.018.012c0 .026.009.05.016.073a4.06 4.06 0 0 0 .1.393c0 .029.007.055.011.08a.76.76 0 0 1 .014.129.89.89 0 0 0 .013.094c.009.065.022.129.035.184.001.008.001.015 0 .023v.016l.069.238c.004.015.01.03.016.045l.015.041.008.023.009.024c.009.029.02.058.033.09l.005.01.007.021.051.12.034.08v.006l.02.044a1.73 1.73 0 0 0 .1.183l.006.011.007.013c.006.014.013.027.021.04l.058.089a3.21 3.21 0 0 0 .19.275c.397.442.911.763 1.482.927a6.2 6.2 0 0 0 1.038.252c.393.052.791.046 1.182-.018l1-.167c.358-.06.71-.156 1.049-.286a4.25 4.25 0 0 0 1.116-.741l.067-.057.151-.135a4.5 4.5 0 0 0 .556-.592l.018-.03.154-.227a.77.77 0 0 0 .042-.069c.021-.041.046-.079.074-.115l.125-.166.038-.045.015-.023.109-.179.084-.176c.008-.011.015-.024.019-.037l.046-.079.242-.413.067-.12.044-.079.014-.014.113-.209.041-.076.022-.042.018-.042.135-.265.02-.041.023-.047.045-.093.151-.331c.003-.006.006-.012.008-.019v-.009-.009c0-.009.008-.022.018-.044l.019-.048v-.012l.013-.032a.69.69 0 0 1 .024-.069v-.009l.021-.054v-.02c.009-.011.018-.02.029-.029.011-.017.017-.037.018-.057l.05-.138.014-.046.029-.1v-.008l.047-.161.035-.126.068-.277c.003-.012.006-.023.01-.034.01-.024.015-.049.016-.074v-.037l.041-.2.014-.078c0-.013.005-.026.008-.038a.22.22 0 0 0 .012-.069v-.032l.018-.092.012-.073v-.011l.021-.124.054-.443.008-.08v-.044-.009-.018l.019-.306c-.001-.012-.001-.025 0-.037v-.454l-.006-.186c-.006-.057-.006-.123-.006-.187V24.9v-.023-.007-.03a.91.91 0 0 1-.009-.1c-.016-.175-.042-.356-.078-.538a2.29 2.29 0 0 0-.064-.25l-.014-.041-.055-.162v-.009l-.013-.036-.014-.038a1.74 1.74 0 0 0-.2-.4v-.001a2.41 2.41 0 0 0-.217-.295l-.058-.062-.014-.1c-.014-.164-.014-.33 0-.494.002-.008.005-.016.008-.024s.009-.026.01-.04v-.015a1.41 1.41 0 0 1 .072-.114l.046-.039.109-.057.129-.03a.79.79 0 0 1 .064-.05.71.71 0 0 1 .353-.1h.058a1.19 1.19 0 0 1 .229.035 1.53 1.53 0 0 1 .32.133c.107.06.208.131.3.212.236.223.396.514.457.833a1.88 1.88 0 0 1 .051.229 1.85 1.85 0 0 1 .068.2 4.54 4.54 0 0 1 .124 1.241 3.73 3.73 0 0 1-.043.559v.269c-.003.161-.016.322-.04.482a9.6 9.6 0 0 1-.227 1l-.279.956-.085.252-.015.046-.2.618-.2.6-.005.015v.01l-.114.325-.616 1.887-.339 1.229-.263 1.144-.114.958-.027.505c-.007.13-.007.259 0 .389l.122.9.05.249.04.122.025.069.041.121.189.6.013.034.041.11a.6.6 0 0 1 0 .087l.286.458c.152.266.286.541.4.825l.126.162v.014l.062.094.02.028a1.13 1.13 0 0 1 .078.125l.106.211c.081.183.146.373.194.567.07.274.111.555.12.838a1.53 1.53 0 0 1-.078.55.7.7 0 0 1-.483.457c-.044.01-.09.015-.135.015h-.007a.6.6 0 0 1-.223-.044.9.9 0 0 1-.311-.229 1.54 1.54 0 0 1-.155-.229 1.3 1.3 0 0 1-.078-.155c-.059-.136-.099-.279-.12-.426-.023-.17-.036-.342-.039-.514 0-.1-.008-.19-.014-.268a2.97 2.97 0 0 0-.118-.62l-.11-.242-.073-.128c-.045-.167-.1-.331-.164-.492l-.068-.158-.016-.039-.025-.054a2.23 2.23 0 0 0-.112-.211l-.117-.185-.011-.017-.05-.069-.019-.026-.091-.127-.051-.062-.022-.028-.033-.039-.068-.081-.124-.123-.027-.029c-.014-.015-.029-.03-.044-.044l-.025-.021-.2-.171-.029-.025-.112-.091-.05-.041-.155-.119-.106-.075-.075-.05-.162-.107-.078-.051-.116-.068-.055-.03-.025-.014-.151-.082h-.015c-.054-.03-.109-.058-.166-.082l-.315-.139h-.013l-.256-.089-.152-.046-.188-.05-.188-.044h-.085l-.043-.008a1.01 1.01 0 0 0-.186-.026h-.12-.043c-.069-.009-.138-.014-.207-.016h-.645l-.2.014-.271.025h-.077l-.295.039-.288.058-.078.021-.2.05-.042.013-.086.026-.166.05-.029.012c-.06.019-.111.04-.16.061l-.112.052c-.073.029-.144.063-.213.1l-.061.037-.145.088-.057.036-.152.1-.06.042h-.012l-.026.018-.126.092-.216.163-.041.039c-.241.189-.471.393-.687.611a5.4 5.4 0 0 0-.416.473c-.082.099-.158.203-.228.311l-.051.071-.159.252-.019.032a.49.49 0 0 0-.028.046v.006l-.158.288-.023.044-.164.349-.008.015a.1.1 0 0 0-.017.045 8 8 0 0 0-.479 1.522l-.1.488v.012a.2.2 0 0 1-.01.027c-.011.021-.017.044-.019.067a33.84 33.84 0 0 0-.873 3.341l-.174 1.027-.017.115-.152 1.069-.106 1.23-.046.925v.039l-.01.262-.05 2.226v.085.107l.037.917.005.066.024.328.217 1.307v.011l.025.14.057.306.007.04.5 2.5a24.33 24.33 0 0 0 .958 3.246l.02.05.238.578a3.26 3.26 0 0 0 .2.353l.029.042.081.118.014.024c.038.002.076.002.114 0h.054.06a5.4 5.4 0 0 0 1.224-.294l.151-.061.048-.018.822-.354.36-.182h.007l.062-.032h.005l.59-.3 1.022-.457.61-.229.152-.054h.006l.353-.122c.615-.215 1.257-.346 1.908-.387h.089l.118.012a1.61 1.61 0 0 1 .176.029 1.17 1.17 0 0 1 .25.1c.012.006.023.013.034.021h.025c.068.028.132.066.19.112v.064c.041.051.079.105.114.16a.7.7 0 0 1 .064.155.47.47 0 0 1 0 .24.19.19 0 0 1-.016.046l-.151.037-.069.014-.062.012-.229.037-.292.046h-.087l-.057.012-.313.06c-.3.063-.592.155-.876.244l-.039.012-1.022.362-.025.012-.4.176-.142.066-.16.079-.4.2-.1.05-.228.125-.151.078-.167.086c-.1.047-.18.095-.269.145l-.06.034-.024.014-.091.05-.286.2-.093.06-.1.06-.167.114-.323.229-.13.106-.1.078-.159.142-.056.05a3.33 3.33 0 0 0-.295.307l-.2.146a5.25 5.25 0 0 0-.555.476l-.178.191-.03.031-.014.014-.116.136-.007.008-.236.277-.012.015a.34.34 0 0 1-.022.027l-.149.185-.034.042-.156.2-.012.013-.025.032-.171.237-.061.087-.188.286-.112.183v.016l-.042.073-.072.134v.02l-.015.029a.62.62 0 0 1-.024.05l-.015.029-.055.112-.035.085-.029.072-.017.042-.014.04-.017.045v.008l-.009.03-.012.034-.041.131a5.07 5.07 0 0 0-.2 1.044v.028l-.152.616-.013.077c-.002.034-.009.068-.021.1-.011.02-.016.042-.015.065v.04c-.004.016-.006.033-.006.05-.001.029-.005.057-.012.085s-.014.066-.012.1l-.011.157v.31a9.4 9.4 0 0 0 .068 1.1l.076.478v.05c.017.354.061.706.133 1.053.029.137.063.253.1.359.009.012.013.027.012.042l.116.329.034.084.007.016.019.045.048.107.024.051.158.3.025.042.183.29v.016l.555.757.23.27h0l.009.009c.012.011.022.02.022.03l.245.253c.286.281.6.531.938.746.57.384 1.184.697 1.829.933.475.144.968.217 1.464.217h.05l.1.019c.337.067.679.11 1.022.127h.35a2.94 2.94 0 0 0 .385.026l.163-.005a3.77 3.77 0 0 0 .6-.08l.366-.1.021-.006.032-.01.633-.2c.08-.03.161-.056.244-.078.006-.009.014-.017.022-.024a2.08 2.08 0 0 0 .229-.1l.337-.1a.44.44 0 0 1 .176.116.51.51 0 0 1 .128.36c-.008.114-.046.223-.11.318a1.66 1.66 0 0 1-.252.288 4.39 4.39 0 0 1-.4.362 5.36 5.36 0 0 1-.583.4c-.2.113-.411.204-.631.271l-.571.158c-.135.029-.272.05-.41.062-.075.026-.151.047-.228.064-.241.049-.485.085-.73.108l-.614.03h-.148a7.16 7.16 0 0 1-.732-.064 8.58 8.58 0 0 1-.718-.137h-.023l-.663-.157c-.388-.098-.77-.218-1.144-.36l-.072-.029-.57-.246-.3-.152zm9.69-22.908h0c-.351-.076-.694-.186-1-.284-.434-.138-.861-.297-1.279-.478a7.7 7.7 0 0 1-2.388-1.576 5.3 5.3 0 0 1-.89-1.116l-.2-.316-.171-.265c-.116-.187-.218-.371-.331-.6-.045-.085-.081-.174-.116-.259-.09-.201-.152-.412-.187-.629-.001-.048-.006-.096-.015-.144v-.018-.008c0-.023-.007-.048-.009-.073.003-.018-.003-.037-.016-.05v-.045l.044-.29v-.015a.25.25 0 0 1 .016-.107 5.64 5.64 0 0 1 .155-.567c.051-.147.111-.292.179-.432l.011-.022.112-.208.128-.208.179-.253a1.83 1.83 0 0 1 .162-.248 4.14 4.14 0 0 1 .314-.346c.143-.14.296-.27.456-.389.17-.135.353-.254.545-.356.197-.098.402-.181.613-.247.182-.055.371-.089.561-.1l.7-.05.372-.007.811.022h.609l.873-.064h.036l.12-.007.229-.028.343-.064.045-.009.16-.034.467-.106.11-.026c.187-.046.371-.103.551-.17l.813-.339c.276-.135.544-.287.8-.457l.84-.627.043-.048.021-.023a6.31 6.31 0 0 0 .432-.567 7.5 7.5 0 0 0 .4-.686 9.4 9.4 0 0 0 .4-.956 7.5 7.5 0 0 0 .267-1.01l.073-.592.021-.668v-.778a8.81 8.81 0 0 1-.381-1.323l-.19-1.16a10.25 10.25 0 0 1 .108-1.1l.02-.133v-.012l.007-.048v-.024l.011-.072.041-.2v-.073l.05-.229a.19.19 0 0 1 .01-.05c.004-.009.006-.018.007-.027s.002-.018 0-.027l.029-.121.02-.094.015-.05c.002-.027.007-.053.016-.078v-.008c.003-.006.005-.013.005-.02l.027-.111.034-.126v-.015l.027-.11v-.039l.021-.066v-.021l.008-.027.01-.031.021-.069v-.021l.02-.075.021-.066c.002-.018.008-.034.016-.05l.007-.017.051-.152v-.018c.001-.01.003-.02.008-.029s.005-.014.007-.021.013-.041.021-.062l.01-.03c0-.01.007-.018.01-.029v-.01l.007-.018c0-.013.008-.023.012-.032v-.03l.027-.078a.1.1 0 0 0 0-.025c.005-.01.009-.021.012-.032l.029-.075.056-.146c0-.012.004-.023.011-.032.001-.007.001-.015 0-.022l.025-.062c.005-.01.009-.02.014-.032v-.008l.022-.05.022-.053v-.009c.004-.012.009-.024.014-.035l.016-.038v-.006l.05-.123c.016-.032.036-.061.061-.087l.009-.01c.009-.01.018-.021.026-.032a.38.38 0 0 1 .025-.031.56.56 0 0 0 .037-.077l.065-.132.039-.1v-.008l.024-.062.041-.108.229-.567.283-.687.131-.412.028-.085.066-.206.025-.082v-.008l.015-.048.048-.088c.003-.016.008-.031.015-.045.001-.021.006-.042.014-.062 0-.013.009-.026.012-.039s.006-.026.014-.037l-.039.013.05-.144.064-.2.019-.057.042-.13.047-.141v-.011l.008-.026c0-.014.009-.031.016-.051v-.014l.009-.029v-.006l.055-.169.106-.376.018-.066v-.015l.064-.139.019-.039.034-.073.027-.064.092-.24v-.016l.012-.034.006-.023.006-.023.032-.117.02-.081.032-.142.006-.027.02-.126v-.044l.06-.4v-.007c0-.022.006-.043.009-.064l.008-.054v-.038l.047-.22v-.006-.007l.018-.083.021-.089.02-.082c.002-.022.007-.045.014-.066v-.011c.003-.008.006-.017.006-.026l.008-.039v-.009l.02-.1v-.044a.53.53 0 0 1 0-.058c-.003-.039.002-.077.015-.114.007-.016.009-.033.008-.05a.1.1 0 0 1 0-.04v-.78a1.49 1.49 0 0 0-.013-.229 1.2 1.2 0 0 1-.015-.142v-.028c0-.032-.005-.066-.01-.1v-.11l.021-.17v-.509a.11.11 0 0 1 0-.026v-.018c-.001-.075-.007-.149-.016-.223 0-.042-.008-.084-.012-.127v-.022l-.008-.078-.027-.237-.014-.081v-.017l-.009-.058-.037-.231c-.001-.019-.004-.038-.009-.056a.1.1 0 0 1-.007-.029v-.019h0l-.074-.347.078-.191a.3.3 0 0 0-.017-.081c0-.01-.006-.021-.008-.031s-.001-.023 0-.034l-.082-.3c.001-.012.001-.023 0-.035a.36.36 0 0 1-.069-.107c-.001-.031-.006-.061-.015-.091a.32.32 0 0 0-.008-.035.24.24 0 0 1 0-.039l-.021-.067-.006-.019-.008-.025c0-.016-.009-.029-.014-.042l-.035-.12v-.008l-.016-.054-.027-.085-.027-.081-.027-.08-.021-.059v-.007l-.061-.164-.125-.306-.146-.328-.01-.021-.05-.108-.012-.025-.126-.249-.083-.162-.074-.13-.01-.017-.067-.117-.05-.083v-.015l-.076-.121-.29-.434-.13-.193-.113-.161-.06-.085-.011-.015-.118-.165-.069-.094-.02-.029-.164-.229-.156-.221-.23-.313-.027-.037-.009-.009-.006-.007c-.012-.018-.025-.034-.039-.05l-.035-.044-.01-.014-.008-.01-.123-.162-.023-.024-.023-.028a.49.49 0 0 0-.05-.064l-.045-.05-.026-.029-.118-.13-.028-.029-.027-.027a.46.46 0 0 0-.039-.041l-.05-.047-.05-.046-.034-.039-.065-.061-.089-.083-.478-.377-.025-.016-.147-.1a.46.46 0 0 1 .215-.244c.07-.036.148-.055.227-.056h.014a.29.29 0 0 1 .11.025l.278.131.057.02c.271.111.526.259.757.439l.066.05c.206.139.402.292.588.457a6.55 6.55 0 0 1 .567.549l.9 1.1.457.652c.128.191.246.388.353.592.216.403.409.817.577 1.242a9.33 9.33 0 0 1 .457 1.372v.01l.2 1c.002.025.008.049.02.071.004.01.008.021.011.032a10.54 10.54 0 0 1 .322 1.777l.072.959a8.94 8.94 0 0 1 .012.9l-.083.906v.007l-.164.991-.155.69v.007l-.02.084-.022.1-.015.063-.008.032-.206.779-.531 1.732-.218.652-.345 1.07-.076.27-.005.018-.014.051-.151.53-.24.865-.1.453-.013.066-.081.5-.008.062-.068.664-.01.113v.029l-.029.491c-.004.193.002.385.019.577a8.34 8.34 0 0 0 .229 1.208c.089.17.189.334.3.49.257.351.542.68.852.984l.641.329a6.99 6.99 0 0 0 1.587.513 5.9 5.9 0 0 0 .988.084l.465-.019.686-.1a4.8 4.8 0 0 0 .657-.186c.448-.172.877-.389 1.282-.646a8.98 8.98 0 0 0 .824-.7c.124-.113.301-.147.458-.087l.027-.027.032-.018h.023.012l.022-.005.108-.022h.267l.031.021v.071a.54.54 0 0 0 .106.24c-.088.127-.182.248-.284.364-.244.278-.512.535-.8.767l-.457.354c-.168.126-.343.241-.524.347l-.091.05-.038.021-.372.2-.56.258c-.387.172-.789.309-1.2.41l-1.116.229-.865.122-1.048.151-.289.057-.066.003-.524.1-.572.061h-.033l-.629 1-.32.433-.061.079-.407.519-.014.017-.523.589a5.74 5.74 0 0 1-.456.429l-.252.208-.3.219-.023.016-.054.037c-.181.119-.369.227-.564.321a5.49 5.49 0 0 1-.458.2l-.149.061-.356.151c-.056.046-.121.08-.191.1l-.477.151-.915.284a10.08 10.08 0 0 1-1.357.208c-.385.043-.831.067-1.4.075h-.458l-.037.037h-.307a10.39 10.39 0 0 0-1.486.107l-.367.042h-.01-.036l-.244.025c-.185.015-.368.049-.546.1a2.55 2.55 0 0 0-.628.272c-.253.15-.464.361-.615.613-.176.289-.272.62-.279.959a4.69 4.69 0 0 0 .05.594c.019.123.049.244.091.362.069.256.17.503.3.734l.022.033c.159.309.346.602.56.876l.051.064a2.24 2.24 0 0 0 .228.256l.013.019c.081.11.169.214.263.313l.056.06.042.04.282.262.131.117.1.084.19.147.047.032a4.7 4.7 0 0 0 .915.491l.606.23.392.159.015.006.071.023.206.068.157.042.129.034a1.49 1.49 0 0 0 .178.05l.108.116.016.017.039.042.01.01.025.027.02.024.121.146v.016l.075.133.016.034v.035c.001.011.003.022.006.032v.015a.1.1 0 0 1 .007.031c-.001.007-.001.015 0 .022v.032h-.054l-.339.054-.366.023z" fill="#696969"/><path d="M35.831 68.036l-.06-.039.037-.068a.25.25 0 0 1 .023.107zm-5.336-50.807a.2.2 0 0 1 .09-.016h.011l.089.016-.192.085c.001-.017.001-.033 0-.05zm20.586 24.529h.011l-.011.018z" fill="#fff"/><path d="M32.325 54.833c.406-.273.789-.58 1.143-.917a5.29 5.29 0 0 0 .888-1.116l.379-.585a6.53 6.53 0 0 0 .332-.595l.117-.263c.089-.199.151-.409.185-.624 0-.08.021-.16.027-.242a.2.2 0 0 1 .016-.05.23.23 0 0 1 0-.046h0l-.046-.3c.002-.036-.003-.073-.016-.107l-.155-.567c-.052-.148-.111-.292-.179-.433l-.126-.229h0l-.128-.208h0q-.085-.13-.178-.252a1.8 1.8 0 0 0-.163-.249c-.098-.122-.203-.237-.316-.345a4.26 4.26 0 0 0-.457-.389c-.17-.135-.353-.255-.545-.357-.197-.098-.402-.181-.613-.247-.182-.055-.37-.088-.56-.1l-.706-.05c-.417-.016-.835 0-1.251.013h-.54l-1.03-.073a1.69 1.69 0 0 1-.228-.027l-.549-.107-.576-.133a5.1 5.1 0 0 1-.551-.169l-.812-.339a6.81 6.81 0 0 1-.8-.457l-.839-.627c-.02-.025-.042-.049-.066-.071-.153-.181-.297-.371-.43-.567a7.34 7.34 0 0 1-.4-.686 9.54 9.54 0 0 1-.4-.956c-.113-.33-.204-.667-.27-1.01l-.07-.592-.021-.668v-.778a8.49 8.49 0 0 0 .382-1.322l.19-1.161a9.84 9.84 0 0 0-.107-1.1h0l-.046-.288-.039-.2h0v-.073h0l-.051-.229c-.003-.027-.009-.053-.018-.078h0v-.037l-.027-.126c-.003-.031-.011-.061-.023-.089.001-.017.001-.033 0-.05-.004-.036-.012-.071-.025-.105l-.027-.112-.034-.126v-.014l-.027-.11v-.023h0v-.013a.1.1 0 0 0-.018-.066c-.001-.007-.001-.014 0-.021h0l-.039-.128v-.017h0l-.021-.076c-.004-.023-.012-.045-.023-.066l-.021-.069-.05-.151v-.016a.3.3 0 0 1-.016-.051.41.41 0 0 0-.032-.091c-.009-.032-.021-.062-.032-.091v-.03l-.027-.078h0c-.001-.008-.001-.017 0-.025l-.014-.032-.027-.076h0l-.055-.146a.14.14 0 0 1 0-.032c-.001-.008-.001-.015 0-.023 0-.021-.018-.042-.025-.062s-.027-.062-.039-.092l-.039-.1h0l-.071-.167c-.028-.046-.062-.089-.1-.128a.48.48 0 0 1-.032-.043.6.6 0 0 1-.03-.064l-.064-.133h0l-.107-.284-.229-.567-.283-.686-.13-.412-.094-.29-.066-.213c.003-.017-.003-.034-.016-.046l-.027-.1c.002-.019-.005-.038-.018-.051l.046.027h0l-.05-.144-.126-.382-.057-.178-.087-.27-.128-.457h0l-.064-.14c-.007-.013-.013-.026-.018-.039l-.034-.073-.027-.064-.091-.24h0v-.05l-.046-.163-.021-.08-.036-.169-.021-.125v-.043l-.08-.535a.2.2 0 0 0 0-.037l-.094-.4c.003-.029-.003-.057-.018-.082-.013-.032-.021-.066-.023-.1l-.03-.149v-.093c.001-.039-.004-.078-.016-.115s0-.06-.012-.091v-.78l.014-.229c0-.09.009-.179.027-.267v-.071h0v-.039l-.009-.17c.001-.019.001-.038 0-.057v-.16a2.44 2.44 0 0 1 0-.293.09.09 0 0 0 0-.025v-.02a2.27 2.27 0 0 1 .027-.35v-.023a2.05 2.05 0 0 1 .037-.314l.061-.387c.003-.029.008-.057.016-.085l.08-.373.027-.119a.5.5 0 0 1 .025-.112c.009-.037 0-.023 0-.035l.08-.3v-.034c.028-.032.05-.068.066-.108a.63.63 0 0 1 .025-.126c.001-.013.001-.026 0-.039l.05-.155v-.08l.082-.27.027-.078.027-.08.082-.229.128-.306.2-.457v-.025l.126-.249.082-.162q.1-.178.2-.35v-.014h0l.366-.555.13-.192.3-.427.066-.094.023-.03.327-.457.229-.314.027-.037.014-.016.042-.051.176-.229.021-.025.08-.092c.023-.027.05-.05.07-.078l.119-.13.027-.027.064-.069.1-.1.192-.181.478-.377.025-.016.146-.1a.46.46 0 0 0-.215-.245.49.49 0 0 0-.229-.055c-.038.001-.075.009-.11.025l-.277.13-.057.021c-.319.102-.621.253-.894.448l-.066.05c-.206.139-.403.292-.59.457a6.68 6.68 0 0 0-.561.555l-.9 1.1q-.229.323-.457.652c-.128.19-.242.389-.353.592-.217.402-.411.817-.579 1.242a9.67 9.67 0 0 0-.457 1.372l-.2 1.013a.44.44 0 0 1-.032.1c-.161.584-.27 1.181-.327 1.784l-.076.959a6.59 6.59 0 0 0 0 .9l.085.915.162.988.2.878.229.874.529 1.731.565 1.722.245.87.229.866.11.519.092.565.068.663.042.634c.005.192-.001.384-.018.576a8.3 8.3 0 0 1-.222 1.208c-.088.17-.189.334-.3.49a7.66 7.66 0 0 1-.856.984l-.638.329a6.96 6.96 0 0 1-1.587.512 6.05 6.05 0 0 1-.686.078 5.92 5.92 0 0 1-.757-.011l-.686-.1a4.68 4.68 0 0 1-.656-.185c-.45-.175-.882-.395-1.288-.656a8.74 8.74 0 0 1-.826-.707.44.44 0 0 0-.457-.087l-.027-.027h0l-.032-.018h-.023l-.142-.03h-.267l-.032.021v.071a.52.52 0 0 1-.105.24 3.92 3.92 0 0 0 .284.364 6.5 6.5 0 0 0 .8.769l.457.353c.161.114.328.219.5.314l.5.272.558.259c.387.171.789.308 1.2.409l1.119.229 1.914.275.881.167.572.062h.05l.629 1 .378.512.409.519.537.606a5.3 5.3 0 0 0 .446.432l.252.208c.124.1.253.183.379.272.18.119.369.226.563.32.2.1.4.176.608.261l.357.152c.056.046.12.08.19.1l.478.152.915.284c.447.1.9.17 1.356.208a14.74 14.74 0 0 0 1.4.076h.457l.037.037h.172a10.4 10.4 0 0 1 1.622.105l.656.073c.186.015.37.048.549.1a2.53 2.53 0 0 1 .627.267c.253.15.464.361.615.613a1.93 1.93 0 0 1 .279.959c-.004.199-.021.397-.05.594-.02.123-.05.244-.091.361-.068.257-.169.503-.3.734-.004.011-.01.021-.016.03a5.59 5.59 0 0 1-.561.876l-.05.064-.217.256-.013.018c-.086.105-.178.205-.275.3l-.057.059-.323.3-.13.117-.1.085-.19.146-.046.035a4.83 4.83 0 0 1-.915.491l-.608.229q-.2.089-.4.164h0l-.071.023c-.068.027-.138.05-.208.069l-.155.041-.128.035-.178.05-.123.133-.073.08-.142.172-.011.016h0a1.39 1.39 0 0 0-.076.133h0c-.008.013-.015.026-.021.039-.001.011-.001.023 0 .034a.48.48 0 0 1-.018.078h0v.023h0v.032h.055l.339.055.366.023c.339-.073.671-.178 1-.284l1.278-.478a8.88 8.88 0 0 0 1.253-.618z" fill="#696969"/><path d="M51.84 68.036l.057-.039-.034-.068c-.016.033-.024.07-.023.107zM26.801 14.257h0l.089-.037-.051-.016-.046-.016v.073zm9.783 27.501h-.014l.014.018z" fill="#fff"/><path d="M42.585 10.666c-.059-.217-.131-.43-.215-.638l-.043-.119-.152-.526c-.071-.229-.158-.437-.245-.656l-.275-.611a6.6 6.6 0 0 0-.32-.621 8.9 8.9 0 0 0-.641-.938l-.183-.318-.348-.588a8.77 8.77 0 0 0-1.864-2.024h0l-.332-.279-1.093-.793a12.32 12.32 0 0 0-2.31-1.329l-.686-.268c-.229-.078-.458-.135-.687-.19l-.139-.03-.941-.32c-.428-.139-.867-.243-1.312-.309l-.8-.08-.714-.03h-1.3l-.686.021-.634.046-.686.087-.787.151c-.261.051-.458.119-.686.184l-.581.185c-.21.066-.417.142-.62.229l-.085.046-.152.046c-.455.145-.899.325-1.327.537l-.322.165a4.25 4.25 0 0 0-.33.2c-.176.105-.343.229-.51.345l-.595.439c-.2.154-.392.319-.574.494q-.228.218-.458.439l-.807.728a7 7 0 0 0-.831.988c-.141.2-.27.408-.384.624-.335.474-.641.968-.915 1.48l-.149.3a.7.7 0 0 0-.126.176l-.133.281a.75.75 0 0 0-.087.11c-.084.137-.157.281-.217.43l-.11.267-.215.577-.117.332-.05.139-.03.091h0l-.5.208-.348.144a2.05 2.05 0 0 1-.288.1l-.087.051-.959.551-.242.147-.6.371-.084.05h0l-.192.121a7.93 7.93 0 0 0-.686.512l-.421.378a.8.8 0 0 1-.339.2l-.53.519-.856.959-.4.49-.382.51c-.495.705-.946 1.44-1.352 2.2l-1.126 2.205-.24.528-.229.56-.439 1.219-.33 1.2-.3 1.265-.5 2.308-.135.656-.1.612-.133 1.312c-.06.812-.062 1.629-.046 2.443l.036 1.084-.229.327-.387.629q-.336.569-.636 1.155a13.37 13.37 0 0 0-.615 1.312c-.18.477-.332.963-.458 1.457a20.82 20.82 0 0 0-.485 2.7c-.129.931-.187 1.87-.172 2.809l.076 1.429.173 1.372.213 1.329.318 1.443.261.915.21.576c.001.035.01.069.025.1l.2.409a.4.4 0 0 0 .215.176l-.27.783-.366 1.1-.293 1.144c-.087.385-.153.773-.2 1.165l-.105 1.219-.013 1.194v.339l.013 1.437a13.1 13.1 0 0 0 .135 1.389l.128.762.144.638c.128.457.3.9.457 1.347l.483 1.258.672 1.372a9.11 9.11 0 0 0 .746 1.118l.915 1.1c.229.244.473.474.732.686l.256.284c.144.147.297.284.458.412l.5.407c.342.257.703.486 1.081.686a11.33 11.33 0 0 0 1.173.54l.206.082c.251.161.512.307.78.437l1.81.668.515.165c0 .139.013.281.025.423.022.23.057.459.105.686a7.7 7.7 0 0 0 .362 1.189 8.48 8.48 0 0 0 .537 1.144l.652 1.107c.247.37.52.721.817 1.052a8.8 8.8 0 0 0 .828.851l.981.8.565.407.5.336a7.16 7.16 0 0 0 .963.508l1.086.417c.368.117.686.19 1.034.267l.542.11.208.034.375.5.181.343c.224.413.47.813.736 1.2a13.08 13.08 0 0 0 .915 1.143c.296.343.626.654.984.931a13.72 13.72 0 0 0 1.161.808l.581.339.629.311 1.256.551a12.22 12.22 0 0 0 1.425.416l1.306.327a15.67 15.67 0 0 0 1.372.185l.652.069.778.043h.686a4.93 4.93 0 0 0 .686-.032h.35l.949-.018a5.87 5.87 0 0 0 1.089-.194c.141-.038.28-.084.416-.137l.229-.1.27-.089a7.23 7.23 0 0 0 .707-.314c.214-.11.417-.238.608-.384l.076-.042.066-.037.3-.172.064-.043q.388-.227.762-.478a5.34 5.34 0 0 0 .6-.457.35.35 0 0 0 .069-.016c.112-.041.205-.123.261-.229l.2-.3c.261-.318.487-.662.677-1.027l.082-.1a6.42 6.42 0 0 0 .435-.638c.125-.217.225-.448.3-.687.076-.224.133-.453.172-.686a7.04 7.04 0 0 0 .051-1.441c-.04-.632-.152-1.257-.334-1.864a6.57 6.57 0 0 0-.322-.9 7.86 7.86 0 0 0-.407-.787l-.426-.686-.112-.152-.014-.018.089-.117c.141-.197.265-.405.371-.623l.281-.661.252-.737c.069-.196.124-.396.165-.6.049-.264.083-.532.1-.8v-.391c.039-.43.055-.863.046-1.295-.003-.483-.032-.965-.087-1.445a11.8 11.8 0 0 0-.3-1.459 13.44 13.44 0 0 0-.423-1.359l-.242-.592a5.68 5.68 0 0 0-.229-.6l-.279-.608.252-.473c.195-.4.359-.815.491-1.24q.2-.6.378-1.2l.043-.144.306-.874.668-2.249c.188-.76.281-1.532.4-2.3l.1-.743.1-.686.116-1.02.119-1.1c.059-.73.075-1.462.05-2.194l-.13-2.036-.137-1.027-.178-1.054-.18-1.08-.229-1.144-.51-2.034-.6-1.922-.686-2.006-.357-.942-.4-.931-.881-1.727-.023-.042.023-.043c.17-.342.317-.695.439-1.057a.36.36 0 0 1 .023-.08l.194-.327a4.72 4.72 0 0 0 .252-.565c.142-.382.262-.773.359-1.169.003-.025.009-.049.018-.073l.176-.5a4.87 4.87 0 0 0 .137-.5l.1-.517.1-.576.229-1.5.021-.229h0c.005-.038.005-.077 0-.115-.002-.045.002-.089.011-.133.002-.024.002-.047 0-.071 0-.117.019-.229.025-.353l.05-.8.076-1.1a9.31 9.31 0 0 0-.039-1.068l-.117-1.043q-.1-.605-.229-1.2l-.27-1.047-.341-1.052a9.79 9.79 0 0 0-.368-.972c-.1-.256-.229-.5-.343-.753.05-.051.096-.105.139-.162.171-.188.323-.393.454-.611l.279-.588.27-.588.542-1.247c.135-.398.242-.804.32-1.217a10.67 10.67 0 0 0 .178-1.347c.027-.433.016-.868-.032-1.3-.05-.465-.133-.927-.247-1.381zm-19.792 46.84h0zM9.54 68.716l-.027-.023.032.018zm27.4-64.173l.133.075-.08-.032zm4.58 54.566h0v.089a.3.3 0 0 0 0-.039c-.002-.017-.002-.033 0-.05zM27.18.95h0zM14.196 74.374h0l-.091-.21q-.051-.132-.09-.249c-.134-.351-.198-.725-.188-1.1v-.03c0-.077.008-.153.021-.229a2.18 2.18 0 0 1 .085-.4 2.33 2.33 0 0 1 .139-.34l.05-.09.016-.027.023-.035.021-.032.041-.057c.02-.03.044-.059.069-.085a1.25 1.25 0 0 1 .1-.144l.105-.06.071-.032c.019-.014.04-.026.061-.036.092-.053.191-.095.293-.126s.198-.046.3-.05c.123-.005.246.006.366.032h0c.066.013.13.034.2.05l.055.018.188.071.155.07.112.06a4.7 4.7 0 0 1 .438.229c.022.012.044.026.064.041l.3.229.023.027.035.025a.5.5 0 0 1 .13.151l.121.117.56.5.35.281.65.707c.272.274.561.53.866.766q.174.135.362.252a5.64 5.64 0 0 0 .663.457c.706.431 1.513.673 2.34.7.2.01.4.01.6 0l.3-.027a1.25 1.25 0 0 0 .229-.039l.066-.014.055-.018c.142.01.286.01.428 0a4.37 4.37 0 0 0 1.372-.339l.706-.332.668-.369.638-.353 1.041-.652h.014l.476-.112q.334-.055.672-.082c.273-.021.546-.021.819 0 .134.006.268.023.4.05l.046.032.414.206.384.155c.128.055.286.107.43.155s.291.045.432 0c.036-.009.07-.025.1-.046.082.026.17.026.252 0a.46.46 0 0 0 .3-.33c.032-.175-.027-.354-.156-.476l-.06-.08c-.088-.111-.189-.212-.3-.3a2.39 2.39 0 0 0-.567-.32c-.429-.181-.888-.279-1.354-.291a6.49 6.49 0 0 0-1.363.144c-.434.09-.853.238-1.248.439l-.252.064-.647.178-1.087.384-.5.172-.519.125a8.1 8.1 0 0 1-1.777.055l-1.343-.194-.375-.082-.471-.2-.595-.311-1.088-.65c-.335-.231-.657-.48-.965-.746-.319-.294-.62-.607-.9-.938-.108-.127-.209-.26-.3-.4-.095-.147-.181-.3-.259-.457a2.98 2.98 0 0 1-.135-.407l.151-.316a7.55 7.55 0 0 1 .407-.647l1.144-1.523a2.93 2.93 0 0 0 .229-.384.73.73 0 0 0 .091-.353.48.48 0 0 0-.49-.475h-.033c-.112.015-.219.053-.315.112a1.71 1.71 0 0 0-.336.229l-.409.341.089-.074a20.39 20.39 0 0 1-1.633 1.288l-.935.592-.727.407-.631.169a7.48 7.48 0 0 1-1.677.041h-.039a4.18 4.18 0 0 1-.718-.037c-.291-.044-.578-.114-.856-.21-.647-.216-1.272-.492-1.868-.823-.46-.225-.909-.474-1.343-.746l-.174-.117-.09-.064-.229-.178-.016-.013A8.01 8.01 0 0 1 6.2 65.355q-.184-.229-.35-.481l-.016-.021c-.2-.291-.378-.6-.555-.915l-.014-.023-.281-.512-.208-.393q-.266-.508-.508-1.027l-.434-1a9.93 9.93 0 0 1-.565-2.164 10.83 10.83 0 0 1-.094-1.1v-1.071a9.75 9.75 0 0 1 .3-2.1c0-.1.013-.2.023-.3l.057-.167c.202-.523.431-1.036.686-1.535l.364-.686.173-.343a11.32 11.32 0 0 1 .547-.869c.215-.336.449-.66.7-.97.225-.26.482-.491.766-.686l.507-.49c.251-.209.513-.405.785-.586a8 8 0 0 1 .885-.5c.295-.145.601-.265.915-.359h.07a3.99 3.99 0 0 1 .771.155 3.67 3.67 0 0 1 .37.178l.107.115c.213.258.407.526.595.8l.277.439.229.444a7.14 7.14 0 0 0 .519.881c.213.32.447.626.7.915.224.254.47.488.734.7a10.75 10.75 0 0 0 .945.652l.876.542.915.5 2.722 1.51.862.706.389.336.066.071.2.249a3.4 3.4 0 0 1 .213.343 3.74 3.74 0 0 1 .229.666 3.62 3.62 0 0 1 .023.771 1.02 1.02 0 0 1-.039.229c-.016.01-.03.024-.041.039a4.5 4.5 0 0 1-.51.592 2.56 2.56 0 0 1-.412.261 5.46 5.46 0 0 1-.794.281l-.5.213c-.212.078-.434.124-.652.185-.305.092-.621.145-.939.16-.277 0-.556 0-.833-.016l-.951-.085c-.308-.047-.613-.109-.915-.188-.725-.172-1.423-.444-2.074-.808l-.72-.457c-.277-.163-.535-.356-.771-.574l-.115-.1c-.2-.181-.377-.369-.555-.565l-.144-.167-.073-.085-.279-.343c-.128-.16-.247-.327-.357-.5-.167-.265-.319-.538-.457-.819l-.178-.359a.72.72 0 0 1-.212-.071c-.079-.041-.152-.095-.215-.158l-.13-.037-.055.066h0l-.03.039-.014.013c-.014.018-.029.035-.046.05l.121.5h0l.115.391.044.13c.029.1.064.192.1.286l.05.144.133.322c.005.025.015.05.03.071a8.08 8.08 0 0 0 .49.915l.291.412.039.05.021.03h0l.292.37.08.091h.012l.622.686.286.144.323.279c.311.269.641.514.988.734l.511.314c.153.085.311.161.473.229a5.97 5.97 0 0 0 .611.229l.517.176.565.151.581.1c.366.055.736.075 1.107.107l1.161.087c.39.011.764 0 1.144-.025l1.143-.023 1.144.013c.11 0 .229.012.327.021a3.75 3.75 0 0 1 .419.064 4.12 4.12 0 0 1 1.256.517q.165.117.323.247c.101.086.195.181.279.284a3.6 3.6 0 0 1 .4.6c.005.032.013.062.025.092a3.8 3.8 0 0 1 .043.421c.004.153-.003.305-.021.457v-.081l-.085.835c-.026.315.034.631.174.915.065.117.142.228.229.33.072.086.148.169.229.247.095.088.195.17.3.245l.137.1h0l.068.041c.063.063.142.106.229.126a.58.58 0 0 0 .178.016c.299.111.605.205.915.281a9.07 9.07 0 0 0 1.43.176 13.16 13.16 0 0 0 1.443.013c.213 0 .428-.025.64-.039h.089l.565.165a3.6 3.6 0 0 1 .457.208l.437.27a3.22 3.22 0 0 1 .286.229 1 1 0 0 0 .5.24c.106.02.216.012.318-.023a.6.6 0 0 0 .309-.281c.019-.045.036-.092.05-.139a.31.31 0 0 1 0-.037h0l-.082-.229-.1-.259a1.39 1.39 0 0 0-.091-.183h0a.5.5 0 0 0-.042-.078c-.052-.104-.11-.204-.176-.3-.073-.061-.149-.117-.229-.169h0c-.107-.082-.219-.158-.334-.229a2.72 2.72 0 0 0-.387-.183 1.55 1.55 0 0 0-.274-.06 2.61 2.61 0 0 0-.229-.135l-.249-.082c-.243-.077-.49-.141-.739-.192h-.016l-.757-.06a5.98 5.98 0 0 1-1.3-.272 6.81 6.81 0 0 1-1.306-.647c-.114-.089-.221-.186-.32-.291-.079-.106-.149-.218-.208-.336-.076-.185-.136-.376-.178-.572h0v-.094c.017-.138.021-.277.013-.416a3.7 3.7 0 0 0-.064-.387c-.014-.066-.031-.13-.051-.194h0c-.005-.076-.029-.15-.07-.215l-.089-.229a4.93 4.93 0 0 0-.307-.6c-.129-.197-.276-.383-.437-.555-.288-.311-.63-.566-1.01-.753l-.023-.023-.125-.05c-.168-.054-.333-.118-.494-.19l-.172-.09h-.012c-.027-.002-.054-.006-.08-.013h-.043c.111-.152.211-.312.3-.478a3.83 3.83 0 0 0 .482-1.363v-.07a.28.28 0 0 0 0-.032c.099-.327.156-.665.169-1.006a2.52 2.52 0 0 0-.19-1.029 2.44 2.44 0 0 0-.494-.762c-.085-.114-.186-.215-.3-.3l-.1-.149-.087-.128-.631-.281-.915-.478-1.855-.993-.965-.492-.97-.478-1.393-.707-.266-.176a9.76 9.76 0 0 1-.8-.668c-.241-.21-.47-.433-.687-.668a8.83 8.83 0 0 1-.624-.959l-.323-.533-.3-.56-.309-.588c-.097-.189-.205-.371-.324-.547a6.07 6.07 0 0 0-.483-.59c-.146-.155-.306-.297-.478-.423s-.36-.246-.555-.345a2.71 2.71 0 0 0-.636-.206c-.135-.027-.272-.041-.409-.042a.7.7 0 0 1-.1.062h-.707a3.62 3.62 0 0 0-.519.057c-.315.058-.622.153-.915.284l-.281.139-.4.16a5.96 5.96 0 0 0-.686.357c-.403.237-.786.507-1.144.808a7.09 7.09 0 0 0-.807.821l-.167-.318a13.64 13.64 0 0 1-.6-1.7l-.229-.9c-.078-.306-.115-.551-.167-.828a15.39 15.39 0 0 1-.229-2.022v-1.009l.035-1.036c0-.089.016-.181.023-.272v.091c.062-.533.167-1.06.267-1.587l.089-.442v-.027l.7-1.66a12.27 12.27 0 0 1 .844-1.489l.252-.325.286-.27.087-.117a8.38 8.38 0 0 1 .594-.714l.7-.661.851-.716a9.4 9.4 0 0 1 .785-.569c.287-.182.583-.349.887-.5h.018l.435-.208h0c.141-.083.286-.159.434-.228l.029-.017h.023l.039-.018.163-.071.117-.05.037-.016a1.79 1.79 0 0 1 .176-.068l.144-.055.06-.021.252-.073.359-.085c.13-.023.281-.078.419-.112h.03l.27-.06.126-.027h.013l.027-.018.014-.013.05-.055h0l.03-.032.018-.023h0l.039-.05.021-.023h0v-.012-.018l.021-.032h0l.037-.066v-.039h0v-.018-.023h0v-.05h0v-.1h0v-.017h0v-.027h0c.001-.019.001-.038 0-.057v-.016h0v-.043h0v-.022h0c-.005-.02-.012-.039-.021-.057h0l-.025-.042h0l-.11-.023-.745-.032-1.161.018c-.384.025-.766.074-1.144.146l-.745.16h0q-.379.076-.757.162c-.273.054-.542.124-.807.208-.166.054-.327.121-.483.2l-.1.05v-.84a1.32 1.32 0 0 1 .012-.213.95.95 0 0 0 0-.18c0-.1.013-.2.021-.3a.42.42 0 0 1 .011-.121c.005-.118.016-.236.034-.353v-.03h0v-.853a1.5 1.5 0 0 1 .018-.172l.014-.1q.032-.229.068-.474l.208-1.171.013-.068.112-.5v-.051c-.002-.024.005-.048.018-.068l.152-.555.1-.327.035-.1.114-.336c.005-.033.016-.064.03-.094l.293-.819h0l.06-.167c.142-.143.258-.309.343-.491 0-.018.016-.037.023-.051l.012-.027.229-.521.092-.2.038-.089.252-.545.011-.023.037-.078.19-.4.206-.419.19-.345.073-.124.256-.412c.4-.6.844-1.171 1.292-1.734l.073-.092a16.46 16.46 0 0 1 1.217-1.4 6.46 6.46 0 0 1 .89-.769c.279-.19.568-.364.865-.524l.192-.1.561-.323.945-.517.7-.3.364-.135a1 1 0 0 0 .357-.2 1.5 1.5 0 0 0 .172-.229l.263-.375v-.01c.06-.325.149-.641.229-.956l.066-.229h0l.09-.322.041-.071.108-.334h0l.146-.373c.087-.209.187-.412.3-.608l.228-.4.073-.11.208-.316.633-.915c.269-.376.556-.738.862-1.084l.336-.348a2.74 2.74 0 0 1 .368-.325l.108-.085.3-.229.116-.082c.12-.084.244-.16.373-.229l.039-.023.458-.259a9.57 9.57 0 0 1 .73-.334 7.27 7.27 0 0 1 1.272-.384 12.92 12.92 0 0 1 1.962-.275h.535 1.288c.688.005 1.374.081 2.047.228q.275.073.549.158l.087.018a.75.75 0 0 1 .173.066l1.144.414 1.06.4.21.094.245.119.128.066.146.08.128.071.14.082.13.078.073.043.174.105q.212.13.426.267l.151.1h0l.016.012c.208.135.408.281.6.434a8.06 8.06 0 0 1 1.484 1.585c.027.027.05.057.078.087.238.269.458.554.659.853l.524.858.126.229h0a6.3 6.3 0 0 1 .359.8 8.28 8.28 0 0 1 .288.956.1.1 0 0 1 0 .023l.114.643.03.2v.05l.021.229a1.08 1.08 0 0 1 0 .151c0 .193-.02.385-.06.574.02.287.025.575.013.862a5 5 0 0 1-.116.963 4.19 4.19 0 0 1-.353.979l-.137.256c-.023.075-.053.147-.091.215-.06.119-.148.222-.257.3a.56.56 0 0 1-.16.075c-.109-.159-.227-.312-.353-.457l-.457-.515h0l-.178-.183c-.035-.05-.063-.106-.082-.164a.73.73 0 0 1-.064-.082.59.59 0 0 1-.066-.133h0l-.16-.158c-.007-.008-.013-.016-.018-.025l-.279-.27-.039-.037-.3-.272h0l-.051-.043-.016-.016h0l-.02-.018h0l-.133-.119h0l-.172-.151h0l-.046-.042-.032-.027h0l-.018-.016-.014-.013h-.013l-.046-.042-.158-.1-.057-.034h-.012l-.407-.247-.027-.015h0l-.021-.012-.313-.173-.342-.244-.43-.229-.535-.288-.353-.124a7.51 7.51 0 0 0-.773-.194 6.06 6.06 0 0 0-.858-.094c-.252 0-.5-.012-.757 0h-.21l-.19.014c-.158.017-.314.044-.469.08l-.725.165a2.13 2.13 0 0 0-.266.087l-.057.062c-.016.027-.027.057-.042.085l-.021.068h0c.001.009.001.018 0 .027l-.064.252v.021h0l.032.013.039.012h0l.05.013h0l.133.039h.089l.252.055a2.35 2.35 0 0 1 .364-.03 4.79 4.79 0 0 1 1.3.194h0l.409.133.05.018a7.26 7.26 0 0 1 .775.334l.092.046.361.2h0l.05.034.229.152.1.064h.027l.11.08.217.164.025.018.291.229.062.05.281.252.183.169c.008.009.016.017.025.025l.2.2.085.092.13.143.332.391a6.89 6.89 0 0 1 .5.686 8.27 8.27 0 0 1 .9 1.4l.085.172.642 1.038h0l.167.3h0l.05.1.13.256.05.108c.016.037.023.043.032.064l.039.089.076.179c0 .02.016.039.022.059l.1.259.046.121.094.263.1.318v.025c.121.4.217.808.288 1.22v.043l.037.288v.11c0 .089.016.176.021.265l.014.3v.309h0c.001.015.001.029 0 .044v.3l.014.364a3.2 3.2 0 0 0 .016.391c.016.13 0 .286.012.43v.192l-.019.837h0v.012a4.3 4.3 0 0 1-.016.457v.2a2.02 2.02 0 0 1-.016.3l-.014.2a.6.6 0 0 1-.012.142c-.006.047-.006.095 0 .142l-.014.174-.039.457v.014h0v.03a10.59 10.59 0 0 1-.169 1.194.59.59 0 0 1-.027.135l-.1.393h0c-.004.07-.013.141-.026.21.002.032-.002.064-.013.094s-.021.124-.034.185h0v.025l-.071.252c.002.017-.004.034-.016.046s-.021.06-.032.089l-.046.121-.05.117c-.014.027-.025.055-.037.082l-.023.049c-.03.062-.062.121-.1.183l-.034.064h0l-.055.089-.19.275h0c-.39.449-.905.772-1.48.926-.338.114-.685.198-1.038.252a4.02 4.02 0 0 1-1.183-.018l-1-.167a5.34 5.34 0 0 1-1.05-.286 4.27 4.27 0 0 1-1.116-.741l-.066-.057-.151-.135c-.201-.181-.385-.379-.551-.592l-.021-.03-.156-.229-.112-.183a1.9 1.9 0 0 1-.126-.165l-.037-.046-.124-.2a1.75 1.75 0 0 1-.085-.176c-.008-.011-.014-.024-.019-.037l-.05-.078-.24-.414-.066-.119-.165-.3c-.03-.05-.057-.107-.085-.16l-.137-.266-.085-.18-.151-.332h0l-.032-.08-.066-.169-.02-.055v-.02c-.006-.03-.016-.058-.03-.085l-.051-.139-.013-.046h0l-.078-.265-.035-.126-.068-.277h0c-.004-.037-.013-.072-.025-.107v-.037l-.041-.2c.002-.027-.003-.054-.016-.078l-.021-.107v-.032l-.032-.176-.021-.124-.055-.444-.034-.457v-.492a2.89 2.89 0 0 1 .016-.37v-.087l.014-.165.08-.537a2.21 2.21 0 0 1 .064-.249l.013-.042.085-.245c.025-.071.054-.14.089-.206a1.3 1.3 0 0 1 .112-.19h0v-.008c.065-.105.137-.205.215-.3l.057-.062h0a.7.7 0 0 1 .016-.1c.014-.164.014-.33 0-.494h0c-.003-.022-.009-.044-.018-.064h0v-.021l-.073-.114-.046-.039-.113-.066-.126-.03c-.02-.018-.042-.035-.064-.051a.7.7 0 0 0-.412-.094c-.077.004-.153.016-.228.035a1.58 1.58 0 0 0-.318.133 1.78 1.78 0 0 0-.3.212c-.235.224-.395.515-.457.833a2.06 2.06 0 0 0-.05.229l-.071.2a4.54 4.54 0 0 0-.121 1.242 3.53 3.53 0 0 0 .043.558c-.005.09-.005.18 0 .27.002.161.015.322.039.482.058.337.134.671.229 1q.128.48.279.956l.3.915.327.947.612 1.887.341 1.228.263 1.144.115.959.027.5a3.59 3.59 0 0 1-.012.389l-.121.9-.05.249-.042.121-.256.8-.014.033-.042.11a.43.43 0 0 0 0 .087l-.285.457a6.37 6.37 0 0 0-.4.826 2.57 2.57 0 0 0-.125.162v.014l-.062.094h0l-.1.151-.105.211a3.38 3.38 0 0 0-.194.569c-.071.274-.11.555-.119.838-.009.187.018.374.078.551a.7.7 0 0 0 .483.457c.122.027.249.017.364-.03.12-.052.227-.131.314-.229.058-.072.11-.148.155-.229.029-.05.055-.102.078-.155a1.73 1.73 0 0 0 .123-.421c.039-.259.034-.521.051-.783a3.17 3.17 0 0 1 .121-.62l.11-.242.071-.129c.044-.167.107-.329.167-.491l.085-.2.025-.055.11-.21h0c.039-.069.082-.135.128-.2.015-.024.032-.047.051-.069l.11-.152.1-.126.069-.08.121-.124.073-.07h0l.026-.021.228-.2.112-.091.05-.042.155-.119.105-.076.076-.05.162-.108.078-.05.114-.069.229-.126h0l.167-.082.311-.139h.016l.256-.089.152-.046.188-.05.188-.044h.085l.229-.034h.117c.082 0 .165-.016.249-.021h.645l.2.014.272.025h.08a1.87 1.87 0 0 1 .3.039l.286.057.078.02.2.051.039.013.087.025.167.05.03.012.16.062c.038.015.076.031.112.05l.212.1h0l.062.036.2.124.151.1.06.042h.013l.151.11.212.162.051.039h0a7.54 7.54 0 0 1 .686.611 5.71 5.71 0 0 1 .417.471h0l.228.311.051.071.16.252.05.085.158.288c0 .016.016.03.023.043q.087.172.165.35c.005.021.013.042.025.06.209.493.368 1.005.474 1.53l.1.5c.006.032.016.064.03.094a33.89 33.89 0 0 1 .874 3.342l.174 1.027.169 1.185.1 1.228.062 1.226.051 2.225c.007.37-.006.741-.039 1.11 0 .13-.018.263-.03.4l-.313 1.8-.5 2.5a24.4 24.4 0 0 1-.979 3.3l.041-.11a6.99 6.99 0 0 1-.279.686c-.06.121-.127.239-.2.353l-.11.16-.016.025a1.73 1.73 0 0 1-.228 0 5.42 5.42 0 0 1-1.215-.288l-1.023-.435-1.025-.517a10.44 10.44 0 0 0-1.023-.457l-.611-.229-.512-.178c-.615-.216-1.257-.346-1.907-.387h-.1l-.117.012a1.52 1.52 0 0 0-.176.03 1.05 1.05 0 0 0-.249.1.2.2 0 0 0-.035.021h-.027c-.068.029-.132.067-.19.112v.064a1.51 1.51 0 0 0-.115.157c-.027.049-.049.101-.064.155a.47.47 0 0 0 0 .24c.003.016.008.031.013.046l.151.037h0l.068.013.062.012.218.037h0l.292.046h.087l.057.012.313.059c.309.066.613.163.915.257q.518.161 1.023.361l.025.012.4.176h0l.141.066.158.078.4.2.1.05.229.124h0l.151.078h0l.167.087.354.192.089.05.263.155.094.06.094.06.169.115.322.229.13.105.1.078.158.142.057.05q.155.145.3.306l.2.147c.196.145.381.305.555.476l.178.19.03.032.014.013.359.421.037.046.339.426.011.013.023.032.176.242.062.087.19.286h0l.112.183v.016l.041.073.073.135.039.099.069.142h0l.034.085.062.152.027.085.055.165c.103.34.17.689.2 1.043v.027l.151.618.034.176c.011.057 0 .071.018.105a.5.5 0 0 1 .018.137.47.47 0 0 1 0 .1c-.001.052.003.104.012.156v.311h0c-.002.368-.025.735-.068 1.1l-.076.478c.001.017.001.033 0 .05a6.77 6.77 0 0 1-.13 1.053c-.027.121-.06.24-.1.359v.041l-.117.33-.06.146-.073.158-.158.3-.025.041-.183.291-.011.016-.551.757-.229.27-.039.043-.242.252c-.285.284-.599.536-.938.753a8.37 8.37 0 0 1-1.817.933 5.04 5.04 0 0 1-1.514.217l-.1.018a7.01 7.01 0 0 1-1.02.128h-.35a2.98 2.98 0 0 1-.549.021c-.202-.011-.402-.038-.6-.08l-.366-.105-.686-.217-.245-.078-.023-.023q-.119-.043-.229-.1l-.336-.105c-.067.024-.128.064-.176.117-.087.099-.133.227-.128.359.008.114.046.224.11.318.072.106.157.202.252.288a3.98 3.98 0 0 0 .4.361c.185.146.38.279.583.4a3.17 3.17 0 0 0 .632.272l.572.158a3.02 3.02 0 0 0 .487.218c.075.026.151.047.229.064a6.49 6.49 0 0 0 .73.108 6.06 6.06 0 0 0 .762.03 7.15 7.15 0 0 0 .732-.064c.24-.032.481-.085.718-.137l.686-.163a10.49 10.49 0 0 0 1.144-.359l.643-.277.3-.152c.268.063.516.191.723.373a1.92 1.92 0 0 1 .33.353c.081.06.157.127.228.2l.252.293.025.034c.027.038.052.077.075.117.108.17.192.354.249.547a2.45 2.45 0 0 1 .066.757h0a3.63 3.63 0 0 1-.05.442v.018l-.057.229-.016.05-.069.215-.075.2a3.13 3.13 0 0 1-.334.686l-.151.229-.076.1-.24.318c-.142.184-.295.359-.457.526-.076.081-.157.157-.242.229l-.147.126-.034.03-.188.149-.016.012-.256.181c-.22.143-.449.271-.686.382l-.568.268h0l-.266.107-.05.021-.275.091c-.21.06-.425.106-.641.139l-.318.043h-.062l-.361.03h-.092l-.339.012h-.723l-.3-.014-.194-.012c-.144 0-.286-.018-.43-.032-.347-.03-.69-.089-1.027-.178l-.194-.057q-.656-.126-1.3-.311a13.08 13.08 0 0 1-1.2-.43 9.02 9.02 0 0 1-1-.457h-.012l-1.033-.588c-.347-.206-.652-.457-.972-.686l-1.2-.865a8.7 8.7 0 0 1-1.016-.995 7.38 7.38 0 0 1-.929-1.292l-.192-.364h0l-.162-.362v-.016a1.79 1.79 0 0 1-.066-.211l-.039-.146h-.042l-.7-.073a7.86 7.86 0 0 1-.887-.133l-.862-.242a7.18 7.18 0 0 1-.835-.316l-.151-.068-.229-.112-.156-.08-.279-.152-.076-.041-.823-.512-.839-.615-.032-.027-.35-.318h0l-.332-.35-.05-.055-.728-.865-.043-.055c-.306-.391-.569-.814-.784-1.262zm-12.33-37.42h0l-.059.206h0l.059-.206zm12.74 40.764l.05.037q.135.168.286.322a4.74 4.74 0 0 0 .458.426 1.56 1.56 0 0 0 .11.135 11.78 11.78 0 0 1-.9-.919z" fill="#696969"/><path d="M14.941 9.66c.006-.031.017-.06.032-.087h0z" fill="#fff"/></svg>