<?xml version="1.0" standalone="no"?>
<!DOCTYPE svg PUBLIC "-//W3C//DTD SVG 1.1//EN" "http://www.w3.org/Graphics/SVG/1.1/DTD/svg11.dtd" >
<svg xmlns="http://www.w3.org/2000/svg" xmlns:xlink="http://www.w3.org/1999/xlink" version="1.1">
<metadata>
Created by FontForge 20170924 at Tue Dec 15 01:46:09 2020
 By www-data
Copyright (c) 2008 by Roy Preston, Avon Wharf, BH23 1DJ, England UK. All rights reserved.
</metadata>
<defs>
<font id="PrentonRPCondBlack-Regular" horiz-adv-x="564" >
  <font-face 
    font-family="Prenton RP Cond Black"
    font-weight="900"
    font-stretch="condensed"
    units-per-em="1000"
    panose-1="2 11 10 6 5 6 2 2 2 4"
    ascent="800"
    descent="-200"
    x-height="533"
    cap-height="680"
    bbox="-193 -282 1019 976"
    underline-thickness="80"
    underline-position="-184"
    stemh="152"
    stemv="206"
    unicode-range="U+0020-FB02"
  />
<missing-glyph horiz-adv-x="0" 
 />
    <glyph glyph-name="fi" unicode="fi" horiz-adv-x="627" 
d="M377 735l-17 -140c-13 5 -36 11 -52 11c-29 0 -46 -17 -46 -48v-25h94v-153h-94v-380h-207v380h-53v142l53 11v25c0 127 87 203 208 203c45 0 88 -12 114 -26zM589 668c0 -53 -43 -99 -96 -99s-98 46 -98 99s45 94 98 94s96 -41 96 -94zM595 0h-212v533h212v-533z" />
    <glyph glyph-name="fl" unicode="fl" horiz-adv-x="626" 
d="M377 735l-17 -140c-13 5 -36 11 -52 11c-29 0 -46 -17 -46 -48v-25h94v-153h-94v-380h-207v380h-53v142l53 11v25c0 127 87 203 208 203c45 0 88 -12 114 -26zM594 0h-211v748h211v-748z" />
    <glyph glyph-name=".notdef" horiz-adv-x="0" 
 />
    <glyph glyph-name="space" unicode=" " horiz-adv-x="143" 
 />
    <glyph glyph-name="exclam" unicode="!" horiz-adv-x="332" 
d="M292 566c0 -83 -43 -245 -66 -327h-119c-25 82 -66 244 -66 327c0 70 56 125 126 125s125 -55 125 -125zM272 98c0 -63 -45 -114 -104 -114s-107 51 -107 114s48 114 107 114s104 -51 104 -114z" />
    <glyph glyph-name="quotedbl" unicode="&#x22;" horiz-adv-x="469" 
d="M222 677c0 -53 -39 -321 -39 -321h-102s-39 266 -39 321c0 49 40 90 90 90s90 -41 90 -90zM427 677c0 -53 -39 -321 -39 -321h-102s-39 266 -39 321c0 49 41 90 90 90c50 0 90 -41 90 -90z" />
    <glyph glyph-name="numbersign" unicode="#" horiz-adv-x="521" 
d="M496 448l-12 -86h-87l-18 -118h87l-13 -87h-86l-24 -157h-92l24 157h-68l-23 -157h-92l23 157h-90l12 87h90l18 118h-89l12 86h91l20 142h93l-22 -142h68l20 142h93l-22 -142h87zM306 362h-68l-18 -118h66z" />
    <glyph glyph-name="dollar" unicode="$" horiz-adv-x="518" 
d="M500 228c0 -98 -53 -176 -146 -211v-85h-192v70c-55 7 -104 24 -147 51l24 179c60 -40 120 -63 180 -63c30 0 49 10 49 31c0 70 -244 71 -244 269c0 89 48 161 138 194v82h192v-71c46 -6 91 -20 129 -36l-17 -169c-58 23 -113 42 -164 42c-27 0 -45 -9 -45 -26
c0 -59 243 -64 243 -257z" />
    <glyph glyph-name="percent" unicode="%" horiz-adv-x="699" 
d="M334 513c0 -109 -69 -180 -163 -180s-155 72 -155 179c0 112 72 180 162 180c92 0 156 -70 156 -179zM581 657l-405 -683l-61 44l405 682zM683 168c0 -109 -68 -180 -162 -180c-95 0 -156 72 -156 179c0 112 73 180 163 180c91 0 155 -70 155 -179zM214 512
c0 50 -18 77 -41 77c-20 0 -37 -25 -37 -77s20 -76 42 -76c19 0 36 24 36 76zM564 167c0 50 -18 77 -42 77c-19 0 -36 -25 -36 -77s19 -76 42 -76c19 0 36 24 36 76z" />
    <glyph glyph-name="ampersand" unicode="&#x26;" horiz-adv-x="683" 
d="M688 154l-125 -171c-41 26 -89 60 -121 88c-55 -60 -134 -83 -214 -83c-133 0 -221 81 -221 194c0 86 55 148 140 192c-27 38 -55 87 -55 140c0 108 90 180 215 180c111 0 184 -62 184 -149c0 -71 -51 -124 -100 -155c14 -13 42 -44 56 -56c12 26 29 76 35 101h181
c-11 -50 -61 -154 -91 -199c31 -26 81 -60 116 -82zM351 533c0 23 -13 42 -33 42c-19 0 -33 -18 -33 -38c0 -21 12 -41 33 -63c17 12 33 35 33 59zM320 177c-25 24 -67 69 -90 96c-11 -10 -25 -31 -25 -56c0 -37 26 -63 61 -63c22 0 43 11 54 23z" />
    <glyph glyph-name="quotesingle" unicode="'" horiz-adv-x="263" 
d="M222 677c0 -53 -39 -321 -39 -321h-102s-39 266 -39 321c0 49 40 90 90 90s90 -41 90 -90z" />
    <glyph glyph-name="parenleft" unicode="(" horiz-adv-x="304" 
d="M307 -214l-100 -33c-131 120 -202 309 -202 509c0 196 69 389 202 509l100 -32c-70 -92 -131 -283 -131 -477s60 -385 131 -476z" />
    <glyph glyph-name="parenright" unicode=")" horiz-adv-x="304" 
d="M300 262c0 -200 -71 -389 -203 -509l-99 33c71 91 131 282 131 476s-61 385 -131 477l99 32c133 -120 203 -313 203 -509z" />
    <glyph glyph-name="asterisk" unicode="*" horiz-adv-x="444" 
d="M407 497l-170 5l142 -110l-111 -98l-48 193l-53 -192l-109 96l146 112l-167 -5l40 148l134 -122l-63 191h147l-64 -191l136 121z" />
    <glyph glyph-name="plus" unicode="+" horiz-adv-x="504" 
d="M448 280h-129v-197h-133v197h-130v133h130v195h133v-195h129v-133z" />
    <glyph glyph-name="comma" unicode="," horiz-adv-x="282" 
d="M260 9c0 -151 -126 -230 -223 -255l-28 77c64 21 115 69 115 111c0 44 -33 67 -86 87c-12 5 -19 22 -19 43c0 46 43 140 95 140c51 0 146 -69 146 -203z" />
    <glyph glyph-name="hyphen" unicode="-" horiz-adv-x="281" 
d="M248 210h-215v161h215v-161z" />
    <glyph glyph-name="period" unicode="." horiz-adv-x="265" 
d="M235 98c0 -63 -46 -114 -104 -114c-59 0 -107 51 -107 114s48 114 107 114c58 0 104 -51 104 -114z" />
    <glyph glyph-name="slash" unicode="/" horiz-adv-x="315" 
d="M321 757l-200 -863h-139l202 863h137z" />
    <glyph glyph-name="zero" unicode="0" horiz-adv-x="559" 
d="M553 342c0 -211 -94 -353 -282 -353c-185 0 -264 132 -264 349c0 211 93 353 282 353c185 0 264 -132 264 -349zM339 342c0 115 -20 185 -60 185c-34 0 -59 -70 -59 -189c0 -115 20 -185 61 -185c34 0 58 70 58 189z" />
    <glyph glyph-name="one" unicode="1" horiz-adv-x="329" 
d="M293 0h-228l3 426l-65 -27v163l290 129v-691z" />
    <glyph glyph-name="two" unicode="2" horiz-adv-x="480" 
d="M471 0h-457l-13 139l163 179c43 49 66 86 66 124c0 34 -20 60 -57 60c-41 0 -92 -27 -137 -60l-15 165c55 49 133 84 224 84c138 0 214 -96 214 -195c0 -89 -42 -159 -108 -228l-88 -91h208v-177z" />
    <glyph glyph-name="three" unicode="3" horiz-adv-x="468" 
d="M463 223c0 -127 -85 -234 -271 -234c-74 0 -148 14 -199 47l23 168c44 -27 100 -45 150 -45c43 0 76 19 76 55s-44 65 -117 69v124c61 6 90 35 90 67c0 26 -21 41 -51 41c-39 0 -91 -23 -130 -48l-14 149c51 45 130 75 206 75c142 0 199 -78 199 -161
c0 -70 -44 -127 -90 -145l1 -3c70 -17 127 -78 127 -159z" />
    <glyph glyph-name="four" unicode="4" horiz-adv-x="530" 
d="M531 133h-77v-133h-195v133h-254l-15 151c70 113 176 270 264 396h200v-385h77v-162zM272 443c-26 -36 -70 -107 -93 -148h88z" />
    <glyph glyph-name="five" unicode="5" horiz-adv-x="478" 
d="M473 241c0 -146 -93 -252 -276 -252c-74 0 -153 18 -202 49l24 166c49 -29 110 -46 160 -46c45 0 75 21 75 53c0 40 -43 75 -229 75l42 394h373v-168h-212l-6 -61c163 -3 251 -84 251 -210z" />
    <glyph glyph-name="six" unicode="6" horiz-adv-x="542" 
d="M538 246c0 -141 -100 -257 -271 -257c-162 0 -260 107 -260 303c0 236 134 399 364 399c43 0 88 -6 136 -19v-165c-44 13 -81 17 -111 17c-107 0 -143 -59 -163 -108c32 24 74 38 119 38c114 0 186 -92 186 -208zM328 222c0 46 -25 82 -66 82c-15 0 -29 -3 -40 -7
c0 0 -2 -20 -2 -27c0 -76 25 -119 61 -119c27 0 47 31 47 71z" />
    <glyph glyph-name="seven" unicode="7" horiz-adv-x="432" 
d="M447 672l-191 -672h-219l165 512h-208v168h448z" />
    <glyph glyph-name="eight" unicode="8" horiz-adv-x="521" 
d="M518 207c0 -139 -108 -218 -270 -218c-163 0 -245 75 -245 182c0 83 55 135 117 166c-51 34 -93 89 -93 157c0 127 103 197 246 197c142 0 222 -71 222 -162c0 -69 -46 -120 -97 -148c76 -45 120 -107 120 -174zM318 509c0 28 -17 48 -44 48c-25 0 -43 -18 -43 -41
c0 -28 20 -46 55 -66c17 13 32 35 32 59zM300 185c0 33 -28 56 -70 81c-19 -15 -37 -38 -37 -70c0 -37 22 -62 55 -62c31 0 52 24 52 51z" />
    <glyph glyph-name="nine" unicode="9" horiz-adv-x="542" 
d="M536 388c0 -236 -135 -399 -365 -399c-42 0 -88 6 -136 19v165c44 -13 81 -17 112 -17c107 0 143 59 162 108c-32 -24 -73 -38 -118 -38c-114 0 -186 92 -186 208c0 141 100 257 270 257c163 0 261 -107 261 -303zM323 410c0 76 -25 119 -61 119c-27 0 -48 -31 -48 -71
c0 -46 25 -82 67 -82c14 0 28 3 39 7c0 0 3 20 3 27z" />
    <glyph glyph-name="colon" unicode=":" horiz-adv-x="281" 
d="M246 439c0 -63 -45 -114 -104 -114s-107 51 -107 114s48 114 107 114s104 -51 104 -114zM246 98c0 -63 -45 -114 -104 -114s-107 51 -107 114s48 114 107 114s104 -51 104 -114z" />
    <glyph glyph-name="semicolon" unicode=";" horiz-adv-x="283" 
d="M248 439c0 -63 -45 -114 -104 -114c-58 0 -107 51 -107 114s49 114 107 114c59 0 104 -51 104 -114zM272 9c0 -151 -127 -230 -224 -255l-28 77c65 21 115 69 115 111c0 44 -32 67 -85 87c-13 5 -20 22 -20 43c0 46 43 140 95 140c51 0 147 -69 147 -203z" />
    <glyph glyph-name="less" unicode="&#x3c;" horiz-adv-x="504" 
d="M444 67l-384 217v125l384 218v-152l-241 -128l241 -127v-153z" />
    <glyph glyph-name="equal" unicode="=" horiz-adv-x="504" 
d="M448 378h-392v133h392v-133zM448 178h-392v133h392v-133z" />
    <glyph glyph-name="greater" unicode="&#x3e;" horiz-adv-x="504" 
d="M444 284l-384 -217v152l241 127l-241 128v153l384 -218v-125z" />
    <glyph glyph-name="question" unicode="?" horiz-adv-x="416" 
d="M400 512c0 -171 -170 -194 -170 -262c0 -3 1 -11 1 -11h-123c-17 20 -34 53 -34 95c0 108 113 100 113 149c0 18 -14 27 -30 27c-34 0 -87 -22 -118 -43l-18 167c48 34 117 57 186 57c94 0 193 -46 193 -179zM279 98c0 -63 -46 -114 -104 -114c-59 0 -107 51 -107 114
s48 114 107 114c58 0 104 -51 104 -114z" />
    <glyph glyph-name="at" unicode="@" horiz-adv-x="919" 
d="M890 354c0 -233 -128 -364 -268 -364c-54 0 -93 25 -104 92h-5c-22 -58 -81 -89 -136 -89c-84 0 -142 78 -142 202c0 170 77 299 232 299c73 0 136 -7 194 -16v-309c0 -29 5 -46 25 -46c23 0 83 56 83 216c0 161 -122 280 -286 280c-194 0 -323 -172 -323 -384
c0 -203 120 -369 303 -369c72 0 149 18 214 66v-83c-64 -58 -150 -80 -225 -80c-239 0 -427 170 -427 457s207 507 477 507c223 0 388 -165 388 -379zM497 214v153s-17 2 -26 2c-45 0 -59 -70 -59 -141c0 -62 13 -88 40 -88c23 0 45 27 45 74z" />
    <glyph glyph-name="A" unicode="A" horiz-adv-x="619" 
d="M638 0h-244l-21 103h-143l-20 -103h-229l189 680h279zM351 250l-36 190c-6 31 -12 67 -12 67s-4 -36 -11 -67l-39 -190h98z" />
    <glyph glyph-name="B" unicode="B" horiz-adv-x="609" 
d="M604 218c0 -132 -91 -221 -315 -221c-136 0 -255 3 -255 3v680s125 6 274 6c188 0 264 -69 264 -159c0 -74 -48 -131 -104 -145c72 -17 136 -73 136 -164zM346 480c0 39 -26 64 -64 64c-16 0 -31 -2 -31 -2v-129h69c16 16 26 38 26 67zM362 215c0 44 -33 65 -70 65h-41
v-133s20 -2 37 -2c41 0 74 24 74 70z" />
    <glyph glyph-name="C" unicode="C" horiz-adv-x="503" 
d="M501 654l-18 -189c-39 19 -75 32 -119 32c-73 0 -118 -67 -118 -151c0 -96 42 -161 121 -161c49 0 89 16 129 38l-8 -190c-46 -28 -118 -44 -186 -44c-211 0 -297 141 -297 335c0 202 99 368 323 368c63 0 129 -15 173 -38z" />
    <glyph glyph-name="D" unicode="D" horiz-adv-x="633" 
d="M628 367c0 -232 -112 -372 -356 -372c-114 0 -238 5 -238 5v680s137 7 263 7c230 0 331 -122 331 -320zM391 347c0 101 -32 166 -103 166c-13 0 -28 -1 -28 -1v-338s15 -1 25 -1c69 0 106 75 106 174z" />
    <glyph glyph-name="E" unicode="E" horiz-adv-x="489" 
d="M477 0h-443v680h439v-168h-217v-88h180v-161h-180v-90h221v-173z" />
    <glyph glyph-name="F" unicode="F" horiz-adv-x="454" 
d="M459 512h-200v-108h165v-176h-165v-228h-225v680h425v-168z" />
    <glyph glyph-name="G" unicode="G" horiz-adv-x="609" 
d="M588 29c-28 -5 -68 -15 -108 -24c-45 -11 -89 -17 -153 -17c-231 0 -322 138 -322 336c0 200 101 368 354 368c81 0 169 -19 229 -49l-24 -177c-54 23 -125 43 -191 43c-88 0 -134 -77 -134 -165c0 -105 41 -180 118 -180c11 0 29 2 39 5v68h-78v144h270v-352z" />
    <glyph glyph-name="H" unicode="H" horiz-adv-x="646" 
d="M612 0h-227v249h-123v-249h-228v680h228v-244h123v244h227v-680z" />
    <glyph glyph-name="I" unicode="I" horiz-adv-x="300" 
d="M266 0h-232v680h232v-680z" />
    <glyph glyph-name="J" unicode="J" horiz-adv-x="380" 
d="M352 251c0 -159 -70 -263 -234 -263c-44 0 -94 7 -126 21l11 177c18 -9 42 -12 60 -12c42 0 57 38 57 82v424h232v-429z" />
    <glyph glyph-name="K" unicode="K" horiz-adv-x="624" 
d="M647 0h-264c-82 246 -98 275 -112 281h-11v-281h-226v680h226v-277c31 54 129 277 129 277h257l-185 -308c23 -10 46 -43 186 -372z" />
    <glyph glyph-name="L" unicode="L" horiz-adv-x="449" 
d="M452 0h-418v680h231v-491h187v-189z" />
    <glyph glyph-name="M" unicode="M" horiz-adv-x="824" 
d="M810 0h-217l-4 316c0 28 1 78 1 78s-8 -48 -15 -74l-89 -320h-167l-90 320c-7 24 -14 75 -14 75s2 -51 2 -77l-6 -318h-200l50 680h254l93 -319c7 -24 10 -68 10 -68s4 43 11 68l87 319h253z" />
    <glyph glyph-name="N" unicode="N" horiz-adv-x="642" 
d="M608 0h-214l-145 273c-12 24 -25 73 -25 73s6 -49 7 -76l8 -270h-205v680h213l143 -262c16 -29 28 -77 28 -77s-5 51 -6 85l-8 254h204v-680z" />
    <glyph glyph-name="O" unicode="O" horiz-adv-x="642" 
d="M637 351c0 -193 -89 -362 -330 -362c-221 0 -302 164 -302 341c0 193 89 361 330 361c221 0 302 -163 302 -340zM397 333c0 108 -26 182 -77 182c-47 0 -75 -74 -75 -169c0 -108 26 -181 76 -181c48 0 76 73 76 168z" />
    <glyph glyph-name="P" unicode="P" horiz-adv-x="576" 
d="M580 460c0 -157 -110 -267 -273 -267h-51v-193h-222v680s127 6 259 6c192 0 287 -91 287 -226zM354 450c0 45 -25 81 -75 81c-8 0 -23 -1 -23 -1v-175h28c46 0 70 45 70 95z" />
    <glyph glyph-name="Q" unicode="Q" horiz-adv-x="642" 
d="M679 -51c-23 -76 -93 -159 -199 -159c-115 0 -172 75 -209 201c-194 16 -266 169 -266 339c0 193 89 361 330 361c221 0 302 -160 302 -340c0 -132 -42 -252 -144 -315c23 -62 74 -94 140 -94c11 0 35 3 46 7zM397 333c0 108 -26 182 -77 182c-47 0 -75 -74 -75 -169
c0 -108 26 -181 76 -181c48 0 76 73 76 168z" />
    <glyph glyph-name="R" unicode="R" horiz-adv-x="608" 
d="M618 0h-251c-37 186 -47 226 -68 236h-44v-236h-221v680s143 6 282 6c187 0 272 -76 272 -194c0 -83 -51 -153 -110 -176c42 -16 72 -62 140 -316zM356 461c0 44 -27 75 -73 75c-11 0 -28 -1 -28 -1v-155h71c15 16 30 43 30 81z" />
    <glyph glyph-name="S" unicode="S" horiz-adv-x="495" 
d="M495 219c0 -134 -104 -230 -271 -230c-85 0 -164 17 -225 55l25 185c59 -41 129 -63 189 -63c28 0 45 10 45 30c0 76 -250 72 -250 282c0 122 97 212 257 212c74 0 156 -18 213 -43l-17 -174c-57 22 -126 41 -177 41c-25 0 -43 -9 -43 -26c0 -66 254 -65 254 -269z" />
    <glyph glyph-name="T" unicode="T" horiz-adv-x="483" 
d="M489 502h-132v-502h-231v502h-133v178h496v-178z" />
    <glyph glyph-name="U" unicode="U" horiz-adv-x="636" 
d="M608 256c0 -164 -89 -267 -299 -267c-194 0 -281 97 -281 246v445h231v-421c0 -63 27 -86 62 -86c34 0 59 22 59 86v421h228v-424z" />
    <glyph glyph-name="V" unicode="V" horiz-adv-x="572" 
d="M599 680l-189 -680h-251l-187 680h251l61 -359c7 -42 11 -112 11 -112s5 70 13 112l64 359h227z" />
    <glyph glyph-name="W" unicode="W" horiz-adv-x="868" 
d="M890 680l-167 -680h-212l-70 298c-6 22 -8 73 -8 73s-2 -51 -8 -73l-72 -298h-212l-164 680h247l42 -338c5 -34 6 -91 6 -91s5 58 11 90l65 339h200l67 -339c5 -32 9 -86 9 -86s3 54 8 87l41 338h217z" />
    <glyph glyph-name="X" unicode="X" horiz-adv-x="589" 
d="M620 0h-269l-77 182l-74 -182h-237l204 343l-194 337h264l71 -167l66 167h242l-199 -319z" />
    <glyph glyph-name="Y" unicode="Y" horiz-adv-x="560" 
d="M594 680l-199 -421v-259h-233v256l-200 424h258l72 -240l69 240h233z" />
    <glyph glyph-name="Z" unicode="Z" horiz-adv-x="507" 
d="M523 673l-238 -500h222v-173h-524l-6 8l241 501h-213v171h514z" />
    <glyph glyph-name="bracketleft" unicode="[" horiz-adv-x="304" 
d="M289 -238h-238v995h238v-77l-84 -6s-4 -326 -4 -415c0 -90 4 -415 4 -415l84 -5v-77z" />
    <glyph glyph-name="backslash" unicode="\" horiz-adv-x="325" 
d="M341 -106h-145l-201 863h145z" />
    <glyph glyph-name="bracketright" unicode="]" horiz-adv-x="304" 
d="M254 -238h-238v77l83 5s5 325 5 415c0 89 -5 415 -5 415l-83 6v77h238v-995z" />
    <glyph glyph-name="asciicircum" unicode="^" horiz-adv-x="504" 
d="M500 0h-128l-120 361l-120 -361h-128l191 547h114z" />
    <glyph glyph-name="underscore" unicode="_" 
d="M564 -255h-564v90h564v-90z" />
    <glyph glyph-name="grave" unicode="`" 
d="M369 626h-129l-161 211h188z" />
    <glyph glyph-name="a" unicode="a" horiz-adv-x="532" 
d="M533 135l-10 -134c-29 -6 -74 -10 -113 -10c-64 0 -92 25 -106 68c-29 -39 -80 -71 -155 -71c-99 0 -147 70 -147 154c0 89 61 183 289 197v17c0 24 -17 43 -51 43c-57 0 -132 -23 -196 -55l-12 134c80 42 182 68 272 68c112 0 189 -48 189 -161l-5 -191
c0 -36 15 -55 45 -59zM291 143v95c-68 -5 -88 -37 -88 -65c0 -26 17 -46 46 -46c18 0 32 7 42 16z" />
    <glyph glyph-name="b" unicode="b" horiz-adv-x="573" 
d="M565 298c0 -184 -94 -310 -298 -310c-90 0 -167 10 -234 29v731h207v-266c28 36 80 63 134 63c130 0 191 -106 191 -247zM350 265c0 71 -22 116 -68 116c-17 0 -32 -5 -42 -13v-220c10 -4 22 -5 32 -5c45 0 78 45 78 122z" />
    <glyph glyph-name="c" unicode="c" horiz-adv-x="442" 
d="M435 514l-14 -160c-26 11 -64 24 -98 24c-56 0 -97 -42 -97 -106c0 -67 37 -108 95 -108c39 0 75 12 108 25l-7 -165c-45 -24 -105 -38 -168 -38c-162 0 -246 101 -246 263c0 172 88 297 280 297c58 0 116 -16 147 -32z" />
    <glyph glyph-name="d" unicode="d" horiz-adv-x="585" 
d="M582 144l-10 -143c-27 -6 -67 -10 -106 -10c-69 0 -98 27 -113 78c-25 -44 -70 -81 -147 -81c-121 0 -198 98 -198 262c0 163 88 291 277 291c17 0 39 -3 50 -6v213h206v-543c0 -38 10 -57 41 -61zM335 171v216c-10 4 -23 7 -36 7c-48 0 -77 -52 -77 -120
c0 -73 24 -121 70 -121c16 0 33 7 43 18z" />
    <glyph glyph-name="e" unicode="e" horiz-adv-x="529" 
d="M518 309c0 -29 -3 -73 -5 -88h-296c5 -54 41 -85 111 -85c62 0 124 13 173 32l-6 -138c-66 -27 -145 -42 -232 -42c-171 0 -255 98 -255 262c0 171 92 296 277 296c183 0 233 -123 233 -237zM323 333c0 50 -14 88 -50 88c-35 0 -52 -45 -55 -88h105z" />
    <glyph glyph-name="f" unicode="f" horiz-adv-x="350" 
d="M377 735l-17 -140c-13 5 -36 11 -52 11c-29 0 -46 -17 -46 -48v-25h94v-153h-94v-380h-207v380h-53v142l53 11v25c0 127 87 203 208 203c45 0 88 -12 114 -26z" />
    <glyph glyph-name="g" unicode="g" horiz-adv-x="548" 
d="M563 413c0 0 -67 29 -76 31c13 -22 22 -53 22 -81c0 -128 -103 -203 -256 -203c-14 0 -30 2 -30 2c-6 -4 -13 -12 -13 -21c0 -15 10 -23 39 -23h140c109 0 160 -65 160 -139c0 -138 -117 -216 -328 -216c-152 0 -242 50 -242 128c0 54 51 90 92 103c-33 16 -52 43 -52 85
c0 20 36 57 102 98c-42 12 -115 58 -115 162c0 130 102 207 265 207c58 0 116 -15 150 -32l142 35v-136zM308 350c0 48 -19 80 -51 80c-29 0 -51 -33 -51 -75c0 -49 20 -82 51 -82c29 0 51 33 51 77zM354 -71c0 19 -15 37 -50 37c-51 0 -100 4 -122 7
c-13 -7 -25 -25 -25 -41c0 -32 40 -52 98 -52c61 0 99 17 99 49z" />
    <glyph glyph-name="h" unicode="h" horiz-adv-x="571" 
d="M540 0h-206v310c0 41 -18 67 -51 67c-17 0 -34 -7 -43 -16v-361h-207v748h207v-273c28 39 83 71 145 71c100 0 155 -70 155 -182v-364z" />
    <glyph glyph-name="i" unicode="i" horiz-adv-x="277" 
d="M239 668c0 -53 -43 -99 -96 -99s-98 46 -98 99s45 94 98 94s96 -41 96 -94zM245 0h-212v533h212v-533z" />
    <glyph glyph-name="j" unicode="j" horiz-adv-x="282" 
d="M244 668c0 -53 -43 -99 -96 -99s-98 46 -98 99s45 94 98 94s96 -41 96 -94zM249 41c0 -185 -91 -267 -266 -274v152c41 5 55 36 55 93v521h211v-492z" />
    <glyph glyph-name="k" unicode="k" horiz-adv-x="563" 
d="M586 0h-252l-85 240h-9v-240h-207v748h207v-418c24 41 92 203 92 203h247l-156 -223z" />
    <glyph glyph-name="l" unicode="l" horiz-adv-x="276" 
d="M244 0h-211v748h211v-748z" />
    <glyph glyph-name="m" unicode="m" horiz-adv-x="869" 
d="M839 0h-206v310c0 41 -18 67 -51 67c-17 0 -35 -7 -44 -15c0 0 1 -7 1 -18v-344h-205v310c0 41 -18 67 -51 67c-18 0 -34 -8 -43 -16v-361h-207v529l207 9l-2 -67c30 42 83 75 145 75c80 0 118 -49 133 -79c44 55 101 79 167 79c101 0 156 -70 156 -182v-364z" />
    <glyph glyph-name="n" unicode="n" horiz-adv-x="571" 
d="M540 0h-206v310c0 41 -18 67 -51 67c-17 0 -34 -7 -43 -16v-361h-207v529l207 9l-2 -67c32 43 85 75 147 75c100 0 155 -70 155 -182v-364z" />
    <glyph glyph-name="o" unicode="o" horiz-adv-x="572" 
d="M564 280c0 -179 -98 -292 -290 -292c-178 0 -266 118 -266 267c0 177 98 291 290 291c178 0 266 -119 266 -266zM347 266c0 77 -20 128 -62 128c-37 0 -61 -51 -61 -127s22 -127 64 -127c37 0 59 51 59 126z" />
    <glyph glyph-name="p" unicode="p" horiz-adv-x="573" 
d="M565 297c0 -185 -89 -303 -275 -303c-13 0 -41 3 -50 7v-224h-207v752l207 10l-2 -60c29 39 82 67 136 67c133 0 191 -119 191 -249zM350 265c0 71 -22 116 -68 116c-16 0 -32 -5 -42 -13v-218c9 -3 22 -6 32 -6c46 0 78 45 78 121z" />
    <glyph glyph-name="q" unicode="q" horiz-adv-x="574" 
d="M541 -223h-206v267c-25 -35 -67 -56 -129 -56c-126 0 -198 99 -198 262s84 296 287 296c85 0 197 -18 246 -20v-749zM335 171v216c-10 3 -23 5 -36 5c-50 0 -77 -51 -77 -118c0 -73 24 -121 70 -121c17 0 33 7 43 18z" />
    <glyph glyph-name="r" unicode="r" horiz-adv-x="400" 
d="M412 533l-24 -216c-21 12 -54 25 -88 25c-24 0 -46 -9 -60 -21v-321h-207v529l199 10l-5 -108c23 73 70 116 127 116c19 0 43 -6 58 -14z" />
    <glyph glyph-name="s" unicode="s" horiz-adv-x="430" 
d="M424 174c0 -106 -81 -186 -229 -186c-77 0 -143 14 -190 36l15 147c51 -26 106 -39 149 -39c20 0 37 9 37 25c0 49 -195 44 -195 212c0 107 87 177 222 177c67 0 130 -15 177 -35l-15 -141c-47 18 -100 33 -142 33c-18 0 -33 -7 -33 -22c0 -48 204 -43 204 -207z" />
    <glyph glyph-name="t" unicode="t" horiz-adv-x="385" 
d="M378 23c-45 -21 -98 -35 -172 -35c-100 0 -164 60 -164 166c0 0 2 139 2 192v37h-45v99l223 193h27v-142h125v-150h-125s-2 -119 -2 -152c0 -51 24 -71 57 -71c30 0 52 5 74 11v-148z" />
    <glyph glyph-name="u" unicode="u" horiz-adv-x="582" 
d="M579 144l-11 -143c-24 -6 -68 -10 -106 -10c-71 0 -97 26 -112 81c-29 -48 -91 -86 -164 -86c-100 0 -156 72 -156 185v362h207v-310c0 -43 13 -65 49 -65c21 0 35 7 44 16v359h208v-329c0 -38 10 -56 41 -60z" />
    <glyph glyph-name="v" unicode="v" horiz-adv-x="509" 
d="M531 533l-172 -533h-214l-171 533h232l48 -277c4 -29 6 -73 6 -73s4 44 10 73l49 277h212z" />
    <glyph glyph-name="w" unicode="w" horiz-adv-x="788" 
d="M807 533l-161 -533h-188l-62 226c-6 19 -7 54 -7 54s-2 -35 -8 -54l-60 -226h-187l-157 533h227l37 -242c5 -32 8 -73 8 -73s4 39 11 71l58 244h174l57 -244c7 -30 10 -71 10 -71s4 41 8 72l39 243h201z" />
    <glyph glyph-name="x" unicode="x" horiz-adv-x="521" 
d="M546 0h-240l-61 141l-60 -141h-215l171 268l-158 265h241l50 -129l51 129h216l-160 -249z" />
    <glyph glyph-name="y" unicode="y" horiz-adv-x="503" 
d="M527 533l-166 -526c-49 -152 -133 -240 -278 -240c-47 0 -92 12 -117 23l19 146c21 -8 47 -13 70 -13c40 0 76 17 98 72l-179 538h231l48 -270c4 -28 9 -75 9 -75s4 47 9 75l46 270h210z" />
    <glyph glyph-name="z" unicode="z" horiz-adv-x="470" 
d="M477 528l-211 -378h201v-150h-479l-4 6l212 381h-181v146h458z" />
    <glyph glyph-name="braceleft" unicode="{" horiz-adv-x="304" 
d="M280 -151l-21 -86c-109 0 -181 70 -181 167c0 58 4 122 4 179c0 64 -4 100 -66 128v54c62 28 66 64 66 127c0 58 -4 122 -4 180c0 97 72 167 181 167l21 -86c-36 -25 -42 -57 -42 -104c0 -52 3 -107 3 -159c0 -71 -23 -122 -118 -152c95 -31 118 -81 118 -152
c0 -52 -3 -107 -3 -159c0 -48 6 -79 42 -104z" />
    <glyph glyph-name="bar" unicode="|" horiz-adv-x="321" 
d="M211 -282h-101v1128h101v-1128z" />
    <glyph glyph-name="braceright" unicode="}" horiz-adv-x="304" 
d="M289 237c-62 -28 -66 -64 -66 -128c0 -57 4 -121 4 -179c0 -97 -73 -167 -182 -167l-20 86c36 25 43 56 43 104c0 52 -4 107 -4 159c0 71 23 121 118 152c-95 30 -118 81 -118 152c0 52 4 107 4 159c0 47 -7 79 -43 104l20 86c109 0 182 -70 182 -167
c0 -58 -4 -122 -4 -180c0 -63 4 -99 66 -127v-54z" />
    <glyph glyph-name="asciitilde" unicode="~" horiz-adv-x="504" 
d="M470 361c-36 -80 -88 -124 -154 -124c-59 0 -106 67 -143 67c-31 0 -48 -30 -69 -63l-71 70c35 79 88 124 155 124c57 0 106 -67 143 -67c30 0 48 28 68 63z" />
    <glyph glyph-name="uni00A0" unicode="&#xa0;" horiz-adv-x="143" 
 />
    <glyph glyph-name="exclamdown" unicode="&#xa1;" horiz-adv-x="332" 
d="M292 -29c0 -70 -56 -125 -126 -125s-125 55 -125 125c0 83 42 244 66 327h119c24 -83 66 -244 66 -327zM273 439c0 -63 -45 -114 -104 -114c-58 0 -107 51 -107 114s49 114 107 114c59 0 104 -51 104 -114z" />
    <glyph glyph-name="cent" unicode="&#xa2;" horiz-adv-x="470" 
d="M447 506l-15 -155c-26 11 -63 23 -98 23c-55 0 -102 -38 -102 -102c0 -67 42 -105 101 -105c38 0 74 12 107 26l-7 -161c-24 -13 -52 -23 -82 -30v-70h-191v78c-90 33 -141 116 -141 239s49 218 141 262v93h191v-71c38 -5 73 -15 96 -27z" />
    <glyph glyph-name="sterling" unicode="&#xa3;" horiz-adv-x="526" 
d="M519 204l-22 -197c-26 -13 -74 -22 -121 -22c-94 0 -148 21 -355 21l-12 98c65 38 83 78 83 152v19h-64v124h60s-2 30 -2 60c0 177 125 233 257 233c56 0 115 -17 153 -39l-21 -157c-32 17 -81 34 -113 34c-36 0 -59 -24 -59 -61c0 -35 3 -70 3 -70h125v-124h-122
c0 -42 -14 -82 -42 -106c19 -1 85 -9 116 -9c51 0 102 15 136 44z" />
    <glyph glyph-name="currency" unicode="&#xa4;" horiz-adv-x="478" 
d="M40 187l71 89c-9 24 -12 49 -12 76c0 26 4 53 13 76l-71 89l80 82l61 -78c17 8 40 15 57 15c19 0 39 -5 58 -16l60 79l81 -82l-71 -90c10 -25 12 -48 12 -75c0 -24 -4 -50 -12 -73l71 -90l-81 -83l-60 78c-18 -12 -37 -15 -58 -15c-19 0 -40 4 -58 14l-59 -80zM238 420
c-23 0 -43 -25 -43 -68c0 -42 20 -67 43 -67c25 0 45 25 45 67s-20 68 -45 68z" />
    <glyph glyph-name="yen" unicode="&#xa5;" horiz-adv-x="617" 
d="M620 680l-109 -229h88v-89h-130l-24 -46h154v-88h-174v-228h-232v228h-174v88h150l-22 46h-128v89h86l-108 229h258l68 -241l66 241h231z" />
    <glyph glyph-name="brokenbar" unicode="&#xa6;" horiz-adv-x="321" 
d="M211 355h-101v417h101v-417zM211 -209h-101v416h101v-416z" />
    <glyph glyph-name="section" unicode="&#xa7;" horiz-adv-x="494" 
d="M459 131c0 -196 -128 -348 -273 -348c-57 0 -107 25 -146 67l21 99c42 -39 79 -58 121 -58c31 0 56 27 56 65c0 39 -26 80 -62 125c-18 22 -37 44 -56 68c-52 65 -92 148 -92 251c0 198 132 315 270 315c51 0 102 -27 133 -50l-19 -102c-40 30 -84 48 -123 48
c-26 0 -42 -22 -42 -46c0 -51 58 -118 97 -162c19 -23 38 -48 54 -74c36 -57 61 -123 61 -198zM352 91c0 66 -28 122 -61 168c-18 26 -42 56 -75 97c-47 60 -67 112 -67 171c-12 -29 -17 -57 -17 -89c0 -70 28 -123 84 -199c19 -25 38 -47 55 -73c41 -59 60 -110 63 -173
c11 31 18 65 18 98z" />
    <glyph glyph-name="dieresis" unicode="&#xa8;" 
d="M490 730c0 -50 -40 -93 -90 -93c-51 0 -94 43 -94 93c0 51 43 92 94 92c50 0 90 -41 90 -92zM257 730c0 -50 -40 -93 -91 -93s-92 43 -92 93c0 51 41 92 92 92s91 -41 91 -92z" />
    <glyph glyph-name="copyright" unicode="&#xa9;" horiz-adv-x="794" 
d="M749 326c0 -185 -157 -335 -351 -335s-353 149 -353 335s159 337 353 337s351 -151 351 -337zM675 326c0 147 -124 266 -277 266s-278 -118 -278 -265s125 -266 278 -266s277 118 277 265zM554 267l-10 -97c-30 -14 -69 -29 -121 -29c-125 0 -210 69 -210 175
c0 118 85 196 230 196c40 0 85 -11 112 -26l-14 -95c-32 16 -63 26 -99 26c-48 0 -96 -35 -96 -88c0 -57 43 -91 95 -91c43 0 81 13 113 29z" />
    <glyph glyph-name="ordfeminine" unicode="&#xaa;" horiz-adv-x="360" 
d="M345 413l-8 -91c-15 -5 -40 -9 -58 -9c-39 0 -72 16 -82 48h-1c-20 -29 -52 -48 -98 -48c-51 0 -86 44 -86 93c0 62 33 124 179 138v11c0 18 -10 32 -29 32c-33 0 -88 -19 -126 -45l-7 93c51 34 104 51 171 51c72 0 117 -32 117 -111c0 -13 -2 -114 -2 -122
c0 -28 9 -36 30 -40zM191 419v59c-51 -7 -61 -26 -61 -45s12 -29 29 -29c13 0 25 7 32 15z" />
    <glyph glyph-name="guillemotleft" unicode="&#xab;" horiz-adv-x="590" 
d="M566 43h-157l-145 234l145 235h157l-149 -235zM330 43h-156l-146 234l146 235h156l-148 -235z" />
    <glyph glyph-name="logicalnot" unicode="&#xac;" horiz-adv-x="504" 
d="M448 83h-133v197h-259v133h392v-330z" />
    <glyph glyph-name="uni00AD" unicode="&#xad;" horiz-adv-x="281" 
d="M248 210h-215v161h215v-161z" />
    <glyph glyph-name="registered" unicode="&#xae;" horiz-adv-x="639" 
d="M594 438c0 -152 -121 -273 -273 -273c-151 0 -276 121 -276 273c0 151 125 274 276 274c153 0 273 -123 273 -274zM538 438c0 119 -97 216 -217 216c-119 0 -217 -96 -217 -215c0 -120 98 -217 217 -217c120 0 217 96 217 216zM480 297h-121l-42 103h-16v-103h-104v291
s65 2 137 2c81 0 118 -36 118 -84c0 -37 -27 -62 -51 -72zM344 491c0 20 -11 35 -36 35h-7v-65h35c5 8 8 18 8 30z" />
    <glyph glyph-name="macron" unicode="&#xaf;" 
d="M428 670h-292v102h292v-102z" />
    <glyph glyph-name="degree" unicode="&#xb0;" horiz-adv-x="336" 
d="M320 522c0 -117 -73 -176 -155 -176c-84 0 -149 60 -149 170c0 116 72 176 154 176c85 0 150 -59 150 -170zM218 516c0 52 -24 83 -52 83c-26 0 -48 -30 -48 -78c0 -51 22 -81 51 -81c26 0 49 28 49 76z" />
    <glyph glyph-name="plusminus" unicode="&#xb1;" horiz-adv-x="504" 
d="M448 44h-392v135h130v101h-130v133h130v182h133v-182h129v-133h-129v-101h129v-135z" />
    <glyph glyph-name="twosuperior" unicode="&#xb2;" horiz-adv-x="505" 
d="M439 216h-365l-9 104l131 108c36 31 57 56 57 85c0 25 -17 39 -42 39c-31 0 -86 -21 -125 -48l-13 121c39 36 112 66 180 66c116 0 168 -66 168 -135c0 -72 -42 -127 -88 -164l-42 -34l2 -2h146v-140z" />
    <glyph glyph-name="threesuperior" unicode="&#xb3;" horiz-adv-x="483" 
d="M432 362c0 -95 -77 -166 -227 -166c-64 0 -129 20 -162 44l24 123c39 -26 82 -40 126 -40c34 0 51 15 51 34c0 21 -26 40 -84 46v82c45 5 67 22 67 49c0 17 -16 28 -38 28c-31 0 -68 -13 -102 -38l-13 106c33 34 96 61 166 61c107 0 161 -52 161 -109
c0 -49 -33 -89 -74 -101v-2c62 -16 105 -60 105 -117z" />
    <glyph glyph-name="acute" unicode="&#xb4;" 
d="M505 837l-162 -211h-128l102 211h188z" />
    <glyph glyph-name="mu" unicode="&#xb5;" horiz-adv-x="634" 
d="M643 79c-26 -45 -79 -91 -155 -91c-74 0 -115 28 -133 84h-3c-27 -45 -79 -82 -140 -83c-9 0 -29 2 -29 2c2 -21 28 -83 28 -118c0 -105 -178 -109 -178 -109l-8 7c3 88 9 245 9 441v321h206v-310c0 -43 14 -65 50 -65c17 0 35 7 44 16v359h207v-333c0 -31 15 -39 27 -39
c13 0 27 12 34 22z" />
    <glyph glyph-name="paragraph" unicode="&#xb6;" horiz-adv-x="646" 
d="M560 -223h-131v903h131v-903zM362 -223h-131v429c-8 -3 -22 -9 -55 -9c-81 0 -142 94 -142 235c0 128 72 248 174 248h154v-903z" />
    <glyph glyph-name="periodcentered" unicode="&#xb7;" horiz-adv-x="325" 
d="M268 319c0 -63 -45 -114 -103 -114c-59 0 -107 51 -107 114s48 114 107 114c58 0 103 -51 103 -114z" />
    <glyph glyph-name="cedilla" unicode="&#xb8;" 
d="M404 -133c0 -68 -57 -112 -156 -112c-41 0 -75 10 -94 21l-3 83c29 -15 67 -25 102 -25c20 0 29 7 29 18c0 16 -34 24 -91 35l49 116h87l-14 -53c51 -10 91 -31 91 -83z" />
    <glyph glyph-name="onesuperior" unicode="&#xb9;" horiz-adv-x="386" 
d="M294 223h-179v255l-61 -26v117l240 122v-468z" />
    <glyph glyph-name="ordmasculine" unicode="&#xba;" horiz-adv-x="379" 
d="M367 506c0 -121 -70 -196 -183 -196c-106 0 -172 80 -172 180c0 120 71 196 185 196c104 0 170 -80 170 -180zM232 497c0 52 -16 86 -44 86c-25 0 -40 -34 -40 -84c0 -52 16 -87 43 -87c25 0 41 35 41 85z" />
    <glyph glyph-name="guillemotright" unicode="&#xbb;" horiz-adv-x="590" 
d="M562 277l-146 -234h-157l150 234l-150 235h157zM326 277l-146 -234h-156l150 234l-150 235h156z" />
    <glyph glyph-name="onequarter" unicode="&#xbc;" horiz-adv-x="970" 
d="M916 70h-65v-80h-165v80h-206l-11 118c61 88 146 195 206 272h176v-266h65v-124zM697 654l-439 -677l-66 43l442 679zM699 312c-26 -31 -63 -79 -87 -115h85zM294 223h-179v255l-61 -26v117l240 122v-468z" />
    <glyph glyph-name="onehalf" unicode="&#xbd;" horiz-adv-x="977" 
d="M929 0h-364l-9 104l131 108c36 30 56 55 56 85c0 24 -17 39 -42 39c-30 0 -85 -21 -125 -48l-12 120c38 36 111 67 179 67c116 0 168 -67 168 -136c0 -72 -42 -126 -88 -163l-42 -34l3 -2h145v-140zM699 654l-441 -677l-66 43l442 679zM294 223h-179v255l-61 -26v117
l240 122v-468z" />
    <glyph glyph-name="threequarters" unicode="&#xbe;" horiz-adv-x="1063" 
d="M1009 70h-64v-80h-166v80h-205l-11 118c61 88 145 195 206 272h176v-266h64v-124zM789 654l-437 -677l-67 43l442 677zM432 362c0 -95 -77 -166 -227 -166c-64 0 -129 20 -162 44l24 123c39 -26 82 -40 126 -40c34 0 51 15 51 34c0 21 -26 40 -84 46v82c45 5 67 22 67 49
c0 17 -16 28 -38 28c-31 0 -68 -13 -102 -38l-13 106c33 34 96 61 166 61c107 0 161 -52 161 -109c0 -49 -33 -89 -74 -101v-2c62 -16 105 -60 105 -117zM793 312c-26 -31 -62 -79 -87 -115h85z" />
    <glyph glyph-name="questiondown" unicode="&#xbf;" horiz-adv-x="416" 
d="M390 -97c-47 -34 -116 -57 -186 -57c-93 0 -193 46 -193 179c0 171 171 194 171 261c0 4 -2 12 -2 12h123c17 -21 34 -53 34 -95c0 -108 -113 -100 -113 -149c0 -18 15 -27 31 -27c34 0 87 21 117 43zM345 439c0 -63 -45 -114 -104 -114c-58 0 -107 51 -107 114
s49 114 107 114c59 0 104 -51 104 -114z" />
    <glyph glyph-name="Agrave" unicode="&#xc0;" horiz-adv-x="619" 
d="M638 0h-244l-21 103h-143l-20 -103h-229l189 680h279zM351 250l-36 190c-6 31 -12 67 -12 67s-4 -36 -11 -67l-39 -190h98zM382 730h-143l-114 155h189z" />
    <glyph glyph-name="Aacute" unicode="&#xc1;" horiz-adv-x="619" 
d="M638 0h-244l-21 103h-143l-20 -103h-229l189 680h279zM351 250l-36 190c-6 31 -12 67 -12 67s-4 -36 -11 -67l-39 -190h98zM493 885l-114 -155h-143l68 155h189z" />
    <glyph glyph-name="Acircumflex" unicode="&#xc2;" horiz-adv-x="619" 
d="M638 0h-244l-21 103h-143l-20 -103h-229l189 680h279zM351 250l-36 190c-6 31 -12 67 -12 67s-4 -36 -11 -67l-39 -190h98zM474 730h-132l-33 61l-35 -61h-129l73 155h182z" />
    <glyph glyph-name="Atilde" unicode="&#xc3;" horiz-adv-x="619" 
d="M638 0h-244l-21 103h-143l-20 -103h-229l189 680h279zM351 250l-36 190c-6 31 -12 67 -12 67s-4 -36 -11 -67l-39 -190h98zM513 868c-26 -67 -75 -127 -148 -127c-51 0 -101 51 -125 51c-20 0 -39 -27 -48 -50l-81 39c26 66 75 128 148 128c50 0 106 -50 128 -50
c20 0 38 27 48 49z" />
    <glyph glyph-name="Adieresis" unicode="&#xc4;" horiz-adv-x="619" 
d="M638 0h-244l-21 103h-143l-20 -103h-229l189 680h279zM351 250l-36 190c-6 31 -12 67 -12 67s-4 -36 -11 -67l-39 -190h98zM518 834c0 -50 -40 -93 -90 -93c-51 0 -94 43 -94 93c0 51 43 92 94 92c50 0 90 -41 90 -92zM285 834c0 -50 -40 -93 -91 -93s-92 43 -92 93
c0 51 41 92 92 92s91 -41 91 -92z" />
    <glyph glyph-name="Aring" unicode="&#xc5;" horiz-adv-x="619" 
d="M638 0h-244l-21 103h-143l-20 -103h-229l189 680h279zM351 250l-36 190c-6 31 -12 67 -12 67s-4 -36 -11 -67l-39 -190h98zM447 835c0 -74 -61 -129 -132 -129c-75 0 -133 55 -133 129c0 75 61 127 133 127c75 0 132 -52 132 -127zM362 835c0 31 -18 53 -47 53
s-47 -23 -47 -53c0 -29 18 -55 47 -55c30 0 47 26 47 55z" />
    <glyph glyph-name="AE" unicode="&#xc6;" horiz-adv-x="855" 
d="M842 0h-443v132h-134l-55 -132h-240l333 680h535v-168h-217v-88h181v-161h-181v-90h221v-173zM399 273v203l-84 -203h84z" />
    <glyph glyph-name="Ccedilla" unicode="&#xc7;" horiz-adv-x="503" 
d="M501 654l-18 -189c-39 19 -75 32 -119 32c-73 0 -118 -67 -118 -151c0 -96 42 -161 121 -161c49 0 89 16 129 38l-8 -190c-40 -25 -102 -40 -162 -43l-10 -40c51 -10 90 -31 90 -83c0 -68 -56 -112 -156 -112c-40 0 -75 10 -93 21l-4 83c30 -15 67 -25 102 -25
c20 0 29 7 29 18c0 16 -34 24 -91 35l45 106c-165 26 -233 157 -233 331c0 202 99 368 323 368c63 0 129 -15 173 -38z" />
    <glyph glyph-name="Egrave" unicode="&#xc8;" horiz-adv-x="489" 
d="M477 0h-443v680h439v-168h-217v-88h180v-161h-180v-90h221v-173zM326 730h-143l-114 155h189z" />
    <glyph glyph-name="Eacute" unicode="&#xc9;" horiz-adv-x="489" 
d="M477 0h-443v680h439v-168h-217v-88h180v-161h-180v-90h221v-173zM437 885l-114 -155h-143l68 155h189z" />
    <glyph glyph-name="Ecircumflex" unicode="&#xca;" horiz-adv-x="489" 
d="M477 0h-443v680h439v-168h-217v-88h180v-161h-180v-90h221v-173zM418 730h-132l-33 61l-35 -61h-129l73 155h182z" />
    <glyph glyph-name="Edieresis" unicode="&#xcb;" horiz-adv-x="489" 
d="M477 0h-443v680h439v-168h-217v-88h180v-161h-180v-90h221v-173zM462 834c0 -50 -40 -93 -90 -93c-51 0 -94 43 -94 93c0 51 43 92 94 92c50 0 90 -41 90 -92zM229 834c0 -50 -40 -93 -91 -93s-92 43 -92 93c0 51 41 92 92 92s91 -41 91 -92z" />
    <glyph glyph-name="Igrave" unicode="&#xcc;" horiz-adv-x="300" 
d="M266 0h-232v680h232v-680zM226 730h-143l-114 155h189z" />
    <glyph glyph-name="Iacute" unicode="&#xcd;" horiz-adv-x="300" 
d="M266 0h-232v680h232v-680zM337 885l-114 -155h-143l68 155h189z" />
    <glyph glyph-name="Icircumflex" unicode="&#xce;" horiz-adv-x="300" 
d="M266 0h-232v680h232v-680zM318 730h-132l-33 61l-35 -61h-129l73 155h182z" />
    <glyph glyph-name="Idieresis" unicode="&#xcf;" horiz-adv-x="300" 
d="M266 0h-232v680h232v-680zM362 834c0 -50 -40 -93 -90 -93c-51 0 -94 43 -94 93c0 51 43 92 94 92c50 0 90 -41 90 -92zM129 834c0 -50 -40 -93 -91 -93s-92 43 -92 93c0 51 41 92 92 92s91 -41 91 -92z" />
    <glyph glyph-name="Eth" unicode="&#xd0;" horiz-adv-x="650" 
d="M645 367c0 -232 -112 -372 -356 -372c-114 0 -238 5 -238 5v291h-39v124h39v265s137 7 262 7c231 0 332 -122 332 -320zM408 347c0 101 -32 166 -104 166c-12 0 -27 -1 -27 -1v-97h71v-124h-71v-117s15 -1 25 -1c69 0 106 75 106 174z" />
    <glyph glyph-name="Ntilde" unicode="&#xd1;" horiz-adv-x="642" 
d="M608 0h-214l-145 273c-12 24 -25 73 -25 73s6 -49 7 -76l8 -270h-205v680h213l143 -262c16 -29 28 -77 28 -77s-5 51 -6 85l-8 254h204v-680zM525 868c-26 -67 -75 -127 -148 -127c-51 0 -101 51 -125 51c-20 0 -39 -27 -48 -50l-81 39c26 66 75 128 148 128
c50 0 106 -50 128 -50c20 0 38 27 48 49z" />
    <glyph glyph-name="Ograve" unicode="&#xd2;" horiz-adv-x="642" 
d="M637 351c0 -193 -89 -362 -330 -362c-221 0 -302 164 -302 341c0 193 89 361 330 361c221 0 302 -163 302 -340zM397 333c0 108 -26 182 -77 182c-47 0 -75 -74 -75 -169c0 -108 26 -181 76 -181c48 0 76 73 76 168zM407 730h-143l-114 155h189z" />
    <glyph glyph-name="Oacute" unicode="&#xd3;" horiz-adv-x="642" 
d="M637 351c0 -193 -89 -362 -330 -362c-221 0 -302 164 -302 341c0 193 89 361 330 361c221 0 302 -163 302 -340zM397 333c0 108 -26 182 -77 182c-47 0 -75 -74 -75 -169c0 -108 26 -181 76 -181c48 0 76 73 76 168zM518 885l-114 -155h-143l68 155h189z" />
    <glyph glyph-name="Ocircumflex" unicode="&#xd4;" horiz-adv-x="642" 
d="M637 351c0 -193 -89 -362 -330 -362c-221 0 -302 164 -302 341c0 193 89 361 330 361c221 0 302 -163 302 -340zM397 333c0 108 -26 182 -77 182c-47 0 -75 -74 -75 -169c0 -108 26 -181 76 -181c48 0 76 73 76 168zM499 730h-132l-33 61l-35 -61h-129l73 155h182z" />
    <glyph glyph-name="Otilde" unicode="&#xd5;" horiz-adv-x="642" 
d="M637 351c0 -193 -89 -362 -330 -362c-221 0 -302 164 -302 341c0 193 89 361 330 361c221 0 302 -163 302 -340zM397 333c0 108 -26 182 -77 182c-47 0 -75 -74 -75 -169c0 -108 26 -181 76 -181c48 0 76 73 76 168zM538 868c-26 -67 -75 -127 -148 -127
c-51 0 -101 51 -125 51c-20 0 -39 -27 -48 -50l-81 39c26 66 75 128 148 128c50 0 106 -50 128 -50c20 0 38 27 48 49z" />
    <glyph glyph-name="Odieresis" unicode="&#xd6;" horiz-adv-x="642" 
d="M637 351c0 -193 -89 -362 -330 -362c-221 0 -302 164 -302 341c0 193 89 361 330 361c221 0 302 -163 302 -340zM397 333c0 108 -26 182 -77 182c-47 0 -75 -74 -75 -169c0 -108 26 -181 76 -181c48 0 76 73 76 168zM543 834c0 -50 -40 -93 -90 -93c-51 0 -94 43 -94 93
c0 51 43 92 94 92c50 0 90 -41 90 -92zM310 834c0 -50 -40 -93 -91 -93s-92 43 -92 93c0 51 41 92 92 92s91 -41 91 -92z" />
    <glyph glyph-name="multiply" unicode="&#xd7;" horiz-adv-x="504" 
d="M443 180l-93 -93l-101 157l-99 -157l-89 93l117 168l-117 168l93 94l101 -158l100 158l88 -94l-117 -168z" />
    <glyph glyph-name="Oslash" unicode="&#xd8;" horiz-adv-x="642" 
d="M637 351c0 -193 -89 -362 -330 -362c-23 0 -43 2 -62 4l-22 -57l-101 36l21 57c-99 60 -138 177 -138 301c0 193 89 361 330 361c22 0 44 -2 63 -5l25 63l101 -36l-24 -63c98 -60 137 -176 137 -299zM408 333c0 24 -1 49 -3 71l-102 -260c6 -2 12 -2 18 -2
c59 0 87 85 87 191zM339 535c-5 2 -12 3 -19 3c-58 0 -87 -86 -87 -192c0 -27 2 -53 4 -75z" />
    <glyph glyph-name="Ugrave" unicode="&#xd9;" horiz-adv-x="636" 
d="M608 256c0 -164 -89 -267 -299 -267c-194 0 -281 97 -281 246v445h231v-421c0 -63 27 -86 62 -86c34 0 59 22 59 86v421h228v-424zM392 730h-143l-114 155h189z" />
    <glyph glyph-name="Uacute" unicode="&#xda;" horiz-adv-x="636" 
d="M608 256c0 -164 -89 -267 -299 -267c-194 0 -281 97 -281 246v445h231v-421c0 -63 27 -86 62 -86c34 0 59 22 59 86v421h228v-424zM503 885l-114 -155h-143l68 155h189z" />
    <glyph glyph-name="Ucircumflex" unicode="&#xdb;" horiz-adv-x="636" 
d="M608 256c0 -164 -89 -267 -299 -267c-194 0 -281 97 -281 246v445h231v-421c0 -63 27 -86 62 -86c34 0 59 22 59 86v421h228v-424zM484 730h-132l-33 61l-35 -61h-129l73 155h182z" />
    <glyph glyph-name="Udieresis" unicode="&#xdc;" horiz-adv-x="636" 
d="M608 256c0 -164 -89 -267 -299 -267c-194 0 -281 97 -281 246v445h231v-421c0 -63 27 -86 62 -86c34 0 59 22 59 86v421h228v-424zM528 834c0 -50 -40 -93 -90 -93c-51 0 -94 43 -94 93c0 51 43 92 94 92c50 0 90 -41 90 -92zM295 834c0 -50 -40 -93 -91 -93
s-92 43 -92 93c0 51 41 92 92 92s91 -41 91 -92z" />
    <glyph glyph-name="Yacute" unicode="&#xdd;" horiz-adv-x="560" 
d="M594 680l-199 -421v-259h-233v256l-200 424h258l72 -240l69 240h233zM471 885l-114 -155h-143l68 155h189z" />
    <glyph glyph-name="Thorn" unicode="&#xde;" horiz-adv-x="579" 
d="M580 380c0 -157 -110 -267 -273 -267h-51v-113h-220v680h220v-74h37c192 0 287 -91 287 -226zM354 370c0 45 -25 81 -75 81c-8 0 -23 -1 -23 -1v-175h28c46 0 70 45 70 95z" />
    <glyph glyph-name="germandbls" unicode="&#xdf;" horiz-adv-x="733" 
d="M728 174c0 -106 -81 -186 -228 -186c-77 0 -144 14 -191 36l16 147c51 -26 106 -39 149 -39c20 0 37 9 37 25c0 49 -195 44 -195 212c0 92 76 116 76 180c0 34 -28 59 -65 59c-34 0 -64 -27 -64 -63v-545h-208v380h-53v142l53 11v12c0 161 141 218 284 218
c171 0 272 -81 272 -189c0 -113 -87 -134 -87 -182c0 -62 204 -54 204 -218z" />
    <glyph glyph-name="agrave" unicode="&#xe0;" horiz-adv-x="532" 
d="M533 135l-10 -134c-29 -6 -74 -10 -113 -10c-64 0 -92 25 -106 68c-29 -39 -80 -71 -155 -71c-99 0 -147 70 -147 154c0 89 61 183 289 197v17c0 24 -17 43 -51 43c-57 0 -132 -23 -196 -55l-12 134c80 42 182 68 272 68c112 0 189 -48 189 -161l-5 -191
c0 -36 15 -55 45 -59zM291 143v95c-68 -5 -88 -37 -88 -65c0 -26 17 -46 46 -46c18 0 32 7 42 16zM335 626h-129l-161 211h188z" />
    <glyph glyph-name="aacute" unicode="&#xe1;" horiz-adv-x="532" 
d="M533 135l-10 -134c-29 -6 -74 -10 -113 -10c-64 0 -92 25 -106 68c-29 -39 -80 -71 -155 -71c-99 0 -147 70 -147 154c0 89 61 183 289 197v17c0 24 -17 43 -51 43c-57 0 -132 -23 -196 -55l-12 134c80 42 182 68 272 68c112 0 189 -48 189 -161l-5 -191
c0 -36 15 -55 45 -59zM291 143v95c-68 -5 -88 -37 -88 -65c0 -26 17 -46 46 -46c18 0 32 7 42 16zM492 837l-162 -211h-128l102 211h188z" />
    <glyph glyph-name="acircumflex" unicode="&#xe2;" horiz-adv-x="532" 
d="M533 135l-10 -134c-29 -6 -74 -10 -113 -10c-64 0 -92 25 -106 68c-29 -39 -80 -71 -155 -71c-99 0 -147 70 -147 154c0 89 61 183 289 197v17c0 24 -17 43 -51 43c-57 0 -132 -23 -196 -55l-12 134c80 42 182 68 272 68c112 0 189 -48 189 -161l-5 -191
c0 -36 15 -55 45 -59zM291 143v95c-68 -5 -88 -37 -88 -65c0 -26 17 -46 46 -46c18 0 32 7 42 16zM455 626h-121l-65 109l-68 -109h-118l96 211h181z" />
    <glyph glyph-name="atilde" unicode="&#xe3;" horiz-adv-x="532" 
d="M533 135l-10 -134c-29 -6 -74 -10 -113 -10c-64 0 -92 25 -106 68c-29 -39 -80 -71 -155 -71c-99 0 -147 70 -147 154c0 89 61 183 289 197v17c0 24 -17 43 -51 43c-57 0 -132 -23 -196 -55l-12 134c80 42 182 68 272 68c112 0 189 -48 189 -161l-5 -191
c0 -36 15 -55 45 -59zM291 143v95c-68 -5 -88 -37 -88 -65c0 -26 17 -46 46 -46c18 0 32 7 42 16zM472 764c-26 -67 -75 -127 -148 -127c-51 0 -101 51 -125 51c-20 0 -39 -27 -48 -50l-81 39c26 66 75 128 148 128c50 0 106 -50 128 -50c20 0 38 27 48 49z" />
    <glyph glyph-name="adieresis" unicode="&#xe4;" horiz-adv-x="532" 
d="M533 135l-10 -134c-29 -6 -74 -10 -113 -10c-64 0 -92 25 -106 68c-29 -39 -80 -71 -155 -71c-99 0 -147 70 -147 154c0 89 61 183 289 197v17c0 24 -17 43 -51 43c-57 0 -132 -23 -196 -55l-12 134c80 42 182 68 272 68c112 0 189 -48 189 -161l-5 -191
c0 -36 15 -55 45 -59zM291 143v95c-68 -5 -88 -37 -88 -65c0 -26 17 -46 46 -46c18 0 32 7 42 16zM477 730c0 -50 -40 -93 -90 -93c-51 0 -94 43 -94 93c0 51 43 92 94 92c50 0 90 -41 90 -92zM244 730c0 -50 -40 -93 -91 -93s-92 43 -92 93c0 51 41 92 92 92s91 -41 91 -92
z" />
    <glyph glyph-name="aring" unicode="&#xe5;" horiz-adv-x="532" 
d="M533 135l-10 -134c-29 -6 -74 -10 -113 -10c-64 0 -92 25 -106 68c-29 -39 -80 -71 -155 -71c-99 0 -147 70 -147 154c0 89 61 183 289 197v17c0 24 -17 43 -51 43c-57 0 -132 -23 -196 -55l-12 134c80 42 182 68 272 68c112 0 189 -48 189 -161l-5 -191
c0 -36 15 -55 45 -59zM291 143v95c-68 -5 -88 -37 -88 -65c0 -26 17 -46 46 -46c18 0 32 7 42 16zM401 745c0 -74 -61 -129 -132 -129c-75 0 -133 55 -133 129c0 75 61 127 133 127c75 0 132 -52 132 -127zM316 745c0 31 -18 53 -47 53s-47 -23 -47 -53c0 -29 18 -55 47 -55
c30 0 47 26 47 55z" />
    <glyph glyph-name="ae" unicode="&#xe6;" horiz-adv-x="796" 
d="M785 316c0 -37 -2 -76 -5 -90h-297c5 -58 47 -90 114 -90c62 0 124 13 172 33l-7 -140c-59 -26 -141 -41 -232 -41c-92 0 -153 27 -193 89c-49 -61 -114 -91 -188 -91c-101 0 -147 73 -147 156c0 89 58 183 289 196v18c0 24 -18 43 -51 43c-57 0 -132 -23 -196 -55
l-12 134c81 41 181 68 272 68c48 0 93 -10 121 -30c37 19 81 30 128 30c178 0 232 -116 232 -230zM591 333c0 50 -15 88 -50 88s-53 -45 -56 -88h106zM301 157c-6 23 -10 50 -10 79c-67 -5 -88 -35 -88 -63c0 -26 17 -46 43 -46c19 0 42 12 55 30z" />
    <glyph glyph-name="ccedilla" unicode="&#xe7;" horiz-adv-x="442" 
d="M435 514l-14 -160c-26 11 -64 24 -98 24c-56 0 -97 -42 -97 -106c0 -67 37 -108 95 -108c39 0 75 12 108 25l-7 -165c-36 -19 -83 -32 -132 -35l-9 -39c51 -10 90 -31 90 -83c0 -68 -56 -112 -156 -112c-40 0 -75 10 -93 21l-4 83c30 -15 67 -25 102 -25c20 0 29 7 29 18
c0 16 -34 24 -91 35l44 103c-126 19 -194 115 -194 259c0 172 88 297 280 297c58 0 116 -16 147 -32z" />
    <glyph glyph-name="egrave" unicode="&#xe8;" horiz-adv-x="529" 
d="M518 309c0 -29 -3 -73 -5 -88h-296c5 -54 41 -85 111 -85c62 0 124 13 173 32l-6 -138c-66 -27 -145 -42 -232 -42c-171 0 -255 98 -255 262c0 171 92 296 277 296c183 0 233 -123 233 -237zM323 333c0 50 -14 88 -50 88c-35 0 -52 -45 -55 -88h105zM340 626h-129
l-161 211h188z" />
    <glyph glyph-name="eacute" unicode="&#xe9;" horiz-adv-x="529" 
d="M518 309c0 -29 -3 -73 -5 -88h-296c5 -54 41 -85 111 -85c62 0 124 13 173 32l-6 -138c-66 -27 -145 -42 -232 -42c-171 0 -255 98 -255 262c0 171 92 296 277 296c183 0 233 -123 233 -237zM323 333c0 50 -14 88 -50 88c-35 0 -52 -45 -55 -88h105zM497 837l-162 -211
h-128l102 211h188z" />
    <glyph glyph-name="ecircumflex" unicode="&#xea;" horiz-adv-x="529" 
d="M518 309c0 -29 -3 -73 -5 -88h-296c5 -54 41 -85 111 -85c62 0 124 13 173 32l-6 -138c-66 -27 -145 -42 -232 -42c-171 0 -255 98 -255 262c0 171 92 296 277 296c183 0 233 -123 233 -237zM323 333c0 50 -14 88 -50 88c-35 0 -52 -45 -55 -88h105zM460 626h-121
l-65 109l-68 -109h-118l96 211h181z" />
    <glyph glyph-name="edieresis" unicode="&#xeb;" horiz-adv-x="529" 
d="M518 309c0 -29 -3 -73 -5 -88h-296c5 -54 41 -85 111 -85c62 0 124 13 173 32l-6 -138c-66 -27 -145 -42 -232 -42c-171 0 -255 98 -255 262c0 171 92 296 277 296c183 0 233 -123 233 -237zM323 333c0 50 -14 88 -50 88c-35 0 -52 -45 -55 -88h105zM482 730
c0 -50 -40 -93 -90 -93c-51 0 -94 43 -94 93c0 51 43 92 94 92c50 0 90 -41 90 -92zM249 730c0 -50 -40 -93 -91 -93s-92 43 -92 93c0 51 41 92 92 92s91 -41 91 -92z" />
    <glyph glyph-name="igrave" unicode="&#xec;" horiz-adv-x="277" 
d="M245 0h-212v533h212v-533zM207 626h-129l-161 211h188z" />
    <glyph glyph-name="iacute" unicode="&#xed;" horiz-adv-x="277" 
d="M245 0h-212v533h212v-533zM364 837l-162 -211h-128l102 211h188z" />
    <glyph glyph-name="icircumflex" unicode="&#xee;" horiz-adv-x="277" 
d="M245 0h-212v533h212v-533zM327 626h-121l-65 109l-68 -109h-118l96 211h181z" />
    <glyph glyph-name="idieresis" unicode="&#xef;" horiz-adv-x="277" 
d="M245 0h-212v533h212v-533zM349 730c0 -50 -40 -93 -90 -93c-51 0 -94 43 -94 93c0 51 43 92 94 92c50 0 90 -41 90 -92zM116 730c0 -50 -40 -93 -91 -93s-92 43 -92 93c0 51 41 92 92 92s91 -41 91 -92z" />
    <glyph glyph-name="eth" unicode="&#xf0;" horiz-adv-x="572" 
d="M564 281c0 -184 -102 -293 -291 -293c-176 0 -265 118 -265 266c0 166 82 267 245 288c-13 17 -35 40 -53 53l-75 -63l-54 68l54 46c-19 13 -36 22 -48 27l53 110c31 -11 68 -25 108 -42l83 71l56 -67l-53 -45c150 -83 240 -247 240 -419zM347 266c0 84 -22 128 -63 128
c-35 0 -60 -44 -60 -127c0 -80 22 -127 62 -127c35 0 61 44 61 126z" />
    <glyph glyph-name="ntilde" unicode="&#xf1;" horiz-adv-x="571" 
d="M540 0h-206v310c0 41 -18 67 -51 67c-17 0 -34 -7 -43 -16v-361h-207v529l207 9l-2 -67c32 43 85 75 147 75c100 0 155 -70 155 -182v-364zM486 764c-26 -67 -75 -127 -148 -127c-51 0 -101 51 -125 51c-20 0 -39 -27 -48 -50l-81 39c26 66 75 128 148 128
c50 0 106 -50 128 -50c20 0 38 27 48 49z" />
    <glyph glyph-name="ograve" unicode="&#xf2;" horiz-adv-x="572" 
d="M564 280c0 -179 -98 -292 -290 -292c-178 0 -266 118 -266 267c0 177 98 291 290 291c178 0 266 -119 266 -266zM347 266c0 77 -20 128 -62 128c-37 0 -61 -51 -61 -127s22 -127 64 -127c37 0 59 51 59 126zM363 626h-129l-161 211h188z" />
    <glyph glyph-name="oacute" unicode="&#xf3;" horiz-adv-x="572" 
d="M564 280c0 -179 -98 -292 -290 -292c-178 0 -266 118 -266 267c0 177 98 291 290 291c178 0 266 -119 266 -266zM347 266c0 77 -20 128 -62 128c-37 0 -61 -51 -61 -127s22 -127 64 -127c37 0 59 51 59 126zM520 837l-162 -211h-128l102 211h188z" />
    <glyph glyph-name="ocircumflex" unicode="&#xf4;" horiz-adv-x="572" 
d="M564 280c0 -179 -98 -292 -290 -292c-178 0 -266 118 -266 267c0 177 98 291 290 291c178 0 266 -119 266 -266zM347 266c0 77 -20 128 -62 128c-37 0 -61 -51 -61 -127s22 -127 64 -127c37 0 59 51 59 126zM483 626h-121l-65 109l-68 -109h-118l96 211h181z" />
    <glyph glyph-name="otilde" unicode="&#xf5;" horiz-adv-x="572" 
d="M564 280c0 -179 -98 -292 -290 -292c-178 0 -266 118 -266 267c0 177 98 291 290 291c178 0 266 -119 266 -266zM347 266c0 77 -20 128 -62 128c-37 0 -61 -51 -61 -127s22 -127 64 -127c37 0 59 51 59 126zM500 764c-26 -67 -75 -127 -148 -127c-51 0 -101 51 -125 51
c-20 0 -39 -27 -48 -50l-81 39c26 66 75 128 148 128c50 0 106 -50 128 -50c20 0 38 27 48 49z" />
    <glyph glyph-name="odieresis" unicode="&#xf6;" horiz-adv-x="572" 
d="M564 280c0 -179 -98 -292 -290 -292c-178 0 -266 118 -266 267c0 177 98 291 290 291c178 0 266 -119 266 -266zM347 266c0 77 -20 128 -62 128c-37 0 -61 -51 -61 -127s22 -127 64 -127c37 0 59 51 59 126zM505 730c0 -50 -40 -93 -90 -93c-51 0 -94 43 -94 93
c0 51 43 92 94 92c50 0 90 -41 90 -92zM272 730c0 -50 -40 -93 -91 -93s-92 43 -92 93c0 51 41 92 92 92s91 -41 91 -92z" />
    <glyph glyph-name="divide" unicode="&#xf7;" horiz-adv-x="504" 
d="M326 544c0 -47 -30 -91 -74 -91c-42 0 -73 42 -73 91c0 52 32 92 75 92c40 0 72 -42 72 -92zM448 280h-392v133h392v-133zM326 151c0 -48 -30 -91 -74 -91c-42 0 -73 41 -73 91c0 51 32 90 75 90c40 0 72 -41 72 -90z" />
    <glyph glyph-name="oslash" unicode="&#xf8;" horiz-adv-x="572" 
d="M564 280c0 -179 -98 -292 -290 -292c-15 0 -29 1 -41 2l-18 -49l-89 31l16 43c-90 43 -134 134 -134 240c0 177 98 291 290 291c14 0 29 -1 43 -2l19 50l89 -30l-18 -46c89 -44 133 -135 133 -238zM361 266c0 19 -1 37 -4 54l-77 -206s4 -1 8 -1c48 0 73 66 73 153z
M294 420c0 0 -4 1 -9 1c-48 0 -74 -67 -74 -154c0 -21 1 -41 3 -60z" />
    <glyph glyph-name="ugrave" unicode="&#xf9;" horiz-adv-x="582" 
d="M579 144l-11 -143c-24 -6 -68 -10 -106 -10c-71 0 -97 26 -112 81c-29 -48 -91 -86 -164 -86c-100 0 -156 72 -156 185v362h207v-310c0 -43 13 -65 49 -65c21 0 35 7 44 16v359h208v-329c0 -38 10 -56 41 -60zM349 626h-129l-161 211h188z" />
    <glyph glyph-name="uacute" unicode="&#xfa;" horiz-adv-x="582" 
d="M579 144l-11 -143c-24 -6 -68 -10 -106 -10c-71 0 -97 26 -112 81c-29 -48 -91 -86 -164 -86c-100 0 -156 72 -156 185v362h207v-310c0 -43 13 -65 49 -65c21 0 35 7 44 16v359h208v-329c0 -38 10 -56 41 -60zM506 837l-162 -211h-128l102 211h188z" />
    <glyph glyph-name="ucircumflex" unicode="&#xfb;" horiz-adv-x="582" 
d="M579 144l-11 -143c-24 -6 -68 -10 -106 -10c-71 0 -97 26 -112 81c-29 -48 -91 -86 -164 -86c-100 0 -156 72 -156 185v362h207v-310c0 -43 13 -65 49 -65c21 0 35 7 44 16v359h208v-329c0 -38 10 -56 41 -60zM469 626h-121l-65 109l-68 -109h-118l96 211h181z" />
    <glyph glyph-name="udieresis" unicode="&#xfc;" horiz-adv-x="582" 
d="M579 144l-11 -143c-24 -6 -68 -10 -106 -10c-71 0 -97 26 -112 81c-29 -48 -91 -86 -164 -86c-100 0 -156 72 -156 185v362h207v-310c0 -43 13 -65 49 -65c21 0 35 7 44 16v359h208v-329c0 -38 10 -56 41 -60zM491 730c0 -50 -40 -93 -90 -93c-51 0 -94 43 -94 93
c0 51 43 92 94 92c50 0 90 -41 90 -92zM258 730c0 -50 -40 -93 -91 -93s-92 43 -92 93c0 51 41 92 92 92s91 -41 91 -92z" />
    <glyph glyph-name="yacute" unicode="&#xfd;" horiz-adv-x="503" 
d="M527 533l-166 -526c-49 -152 -133 -240 -278 -240c-47 0 -92 12 -117 23l19 146c21 -8 47 -13 70 -13c40 0 76 17 98 72l-179 538h231l48 -270c4 -28 9 -75 9 -75s4 47 9 75l46 270h210zM484 837l-162 -211h-128l102 211h188z" />
    <glyph glyph-name="thorn" unicode="&#xfe;" horiz-adv-x="573" 
d="M565 297c0 -185 -89 -303 -275 -303c-13 0 -41 3 -50 7v-224h-207v971h207v-266c30 37 80 64 134 64c133 0 191 -119 191 -249zM350 265c0 71 -22 116 -68 116c-16 0 -32 -5 -42 -13v-218c9 -3 22 -6 32 -6c46 0 78 45 78 121z" />
    <glyph glyph-name="ydieresis" unicode="&#xff;" horiz-adv-x="503" 
d="M527 533l-166 -526c-49 -152 -133 -240 -278 -240c-47 0 -92 12 -117 23l19 146c21 -8 47 -13 70 -13c40 0 76 17 98 72l-179 538h231l48 -270c4 -28 9 -75 9 -75s4 47 9 75l46 270h210zM469 730c0 -50 -40 -93 -90 -93c-51 0 -94 43 -94 93c0 51 43 92 94 92
c50 0 90 -41 90 -92zM236 730c0 -50 -40 -93 -91 -93s-92 43 -92 93c0 51 41 92 92 92s91 -41 91 -92z" />
    <glyph glyph-name="Amacron" unicode="&#x100;" horiz-adv-x="619" 
d="M638 0h-244l-21 103h-143l-20 -103h-229l189 680h279zM351 250l-36 190c-6 31 -12 67 -12 67s-4 -36 -11 -67l-39 -190h98zM456 774h-292v102h292v-102z" />
    <glyph glyph-name="amacron" unicode="&#x101;" horiz-adv-x="532" 
d="M533 135l-10 -134c-29 -6 -74 -10 -113 -10c-64 0 -92 25 -106 68c-29 -39 -80 -71 -155 -71c-99 0 -147 70 -147 154c0 89 61 183 289 197v17c0 24 -17 43 -51 43c-57 0 -132 -23 -196 -55l-12 134c80 42 182 68 272 68c112 0 189 -48 189 -161l-5 -191
c0 -36 15 -55 45 -59zM291 143v95c-68 -5 -88 -37 -88 -65c0 -26 17 -46 46 -46c18 0 32 7 42 16zM415 670h-292v102h292v-102z" />
    <glyph glyph-name="Abreve" unicode="&#x102;" horiz-adv-x="619" 
d="M638 0h-244l-21 103h-143l-20 -103h-229l189 680h279zM351 250l-36 190c-6 31 -12 67 -12 67s-4 -36 -11 -67l-39 -190h98zM478 900c0 -39 -31 -159 -168 -159c-138 0 -169 120 -169 159h99c4 -20 13 -61 70 -61c56 0 66 40 72 61h96z" />
    <glyph glyph-name="abreve" unicode="&#x103;" horiz-adv-x="532" 
d="M533 135l-10 -134c-29 -6 -74 -10 -113 -10c-64 0 -92 25 -106 68c-29 -39 -80 -71 -155 -71c-99 0 -147 70 -147 154c0 89 61 183 289 197v17c0 24 -17 43 -51 43c-57 0 -132 -23 -196 -55l-12 134c80 42 182 68 272 68c112 0 189 -48 189 -161l-5 -191
c0 -36 15 -55 45 -59zM291 143v95c-68 -5 -88 -37 -88 -65c0 -26 17 -46 46 -46c18 0 32 7 42 16zM437 796c0 -39 -31 -159 -168 -159c-138 0 -169 120 -169 159h99c4 -20 13 -61 70 -61c56 0 66 40 72 61h96z" />
    <glyph glyph-name="Aogonek" unicode="&#x104;" horiz-adv-x="619" 
d="M688 -117c-10 -75 -77 -124 -161 -124c-74 0 -126 36 -126 108c0 57 49 102 110 133h-117l-21 103h-143l-20 -103h-229l189 680h279l189 -680c-67 -17 -107 -68 -107 -107c0 -23 15 -40 53 -40c35 0 70 13 104 30zM351 250l-36 190c-6 28 -11 60 -12 66
c-1 -5 -5 -37 -11 -66l-39 -190h98z" />
    <glyph glyph-name="aogonek" unicode="&#x105;" horiz-adv-x="532" 
d="M583 -117c-10 -75 -77 -124 -161 -124c-74 0 -126 36 -126 108c0 53 45 99 95 125c-50 5 -75 30 -87 67c-29 -39 -80 -71 -155 -71c-99 0 -147 70 -147 154c0 89 61 183 289 197v17c0 24 -17 43 -51 43c-57 0 -132 -23 -196 -55l-12 134c80 42 182 68 272 68
c112 0 189 -48 189 -161l-5 -191c0 -36 15 -55 45 -59l-10 -134c-48 -10 -97 -60 -97 -108c0 -23 15 -40 53 -40c35 0 70 13 104 30zM291 143v95c-68 -5 -88 -37 -88 -65c0 -26 17 -46 46 -46c18 0 32 7 42 16z" />
    <glyph glyph-name="Cacute" unicode="&#x106;" horiz-adv-x="503" 
d="M501 654l-18 -189c-39 19 -75 32 -119 32c-73 0 -118 -67 -118 -151c0 -96 42 -161 121 -161c49 0 89 16 129 38l-8 -190c-46 -28 -118 -44 -186 -44c-211 0 -297 141 -297 335c0 202 99 368 323 368c63 0 129 -15 173 -38zM498 885l-114 -155h-143l68 155h189z" />
    <glyph glyph-name="cacute" unicode="&#x107;" horiz-adv-x="442" 
d="M435 514l-14 -160c-26 11 -64 24 -98 24c-56 0 -97 -42 -97 -106c0 -67 37 -108 95 -108c39 0 75 12 108 25l-7 -165c-45 -24 -105 -38 -168 -38c-162 0 -246 101 -246 263c0 172 88 297 280 297c58 0 116 -16 147 -32zM477 837l-162 -211h-128l102 211h188z" />
    <glyph glyph-name="Ccircumflex" unicode="&#x108;" horiz-adv-x="503" 
d="M501 654l-18 -189c-39 19 -75 32 -119 32c-73 0 -118 -67 -118 -151c0 -96 42 -161 121 -161c49 0 89 16 129 38l-8 -190c-46 -28 -118 -44 -186 -44c-211 0 -297 141 -297 335c0 202 99 368 323 368c63 0 129 -15 173 -38zM479 730h-132l-33 61l-35 -61h-129l73 155h182
z" />
    <glyph glyph-name="ccircumflex" unicode="&#x109;" horiz-adv-x="442" 
d="M435 514l-14 -160c-26 11 -64 24 -98 24c-56 0 -97 -42 -97 -106c0 -67 37 -108 95 -108c39 0 75 12 108 25l-7 -165c-45 -24 -105 -38 -168 -38c-162 0 -246 101 -246 263c0 172 88 297 280 297c58 0 116 -16 147 -32zM440 626h-121l-65 109l-68 -109h-118l96 211h181z
" />
    <glyph glyph-name="Cdotaccent" unicode="&#x10a;" horiz-adv-x="503" 
d="M501 654l-18 -189c-39 19 -75 32 -119 32c-73 0 -118 -67 -118 -151c0 -96 42 -161 121 -161c49 0 89 16 129 38l-8 -190c-46 -28 -118 -44 -186 -44c-211 0 -297 141 -297 335c0 202 99 368 323 368c63 0 129 -15 173 -38zM407 840c0 -51 -40 -95 -92 -95s-95 44 -95 95
s44 92 95 92c52 0 92 -41 92 -92z" />
    <glyph glyph-name="cdotaccent" unicode="&#x10b;" horiz-adv-x="442" 
d="M435 514l-14 -160c-26 11 -64 24 -98 24c-56 0 -97 -42 -97 -106c0 -67 37 -108 95 -108c39 0 75 12 108 25l-7 -165c-45 -24 -105 -38 -168 -38c-162 0 -246 101 -246 263c0 172 88 297 280 297c58 0 116 -16 147 -32zM346 736c0 -51 -40 -95 -92 -95s-95 44 -95 95
s44 92 95 92c52 0 92 -41 92 -92z" />
    <glyph glyph-name="Ccaron" unicode="&#x10c;" horiz-adv-x="503" 
d="M501 654l-18 -189c-39 19 -75 32 -119 32c-73 0 -118 -67 -118 -151c0 -96 42 -161 121 -161c49 0 89 16 129 38l-8 -190c-46 -28 -118 -44 -186 -44c-211 0 -297 141 -297 335c0 202 99 368 323 368c63 0 129 -15 173 -38zM480 885l-75 -155h-180l-75 155h131l34 -61
l35 61h130z" />
    <glyph glyph-name="ccaron" unicode="&#x10d;" horiz-adv-x="442" 
d="M435 514l-14 -160c-26 11 -64 24 -98 24c-56 0 -97 -42 -97 -106c0 -67 37 -108 95 -108c39 0 75 12 108 25l-7 -165c-45 -24 -105 -38 -168 -38c-162 0 -246 101 -246 263c0 172 88 297 280 297c58 0 116 -16 147 -32zM440 837l-96 -211h-182l-94 211h120l66 -110
l67 110h119z" />
    <glyph glyph-name="Dcaron" unicode="&#x10e;" horiz-adv-x="633" 
d="M628 367c0 -232 -112 -372 -356 -372c-114 0 -238 5 -238 5v680s137 7 263 7c230 0 331 -122 331 -320zM391 347c0 101 -32 166 -103 166c-13 0 -28 -1 -28 -1v-338s15 -1 25 -1c69 0 106 75 106 174zM445 885l-75 -155h-180l-75 155h131l34 -61l35 61h130z" />
    <glyph glyph-name="dcaron" unicode="&#x10f;" horiz-adv-x="733" 
d="M582 144l-10 -143c-27 -6 -67 -10 -106 -10c-69 0 -98 27 -113 78c-25 -44 -70 -81 -147 -81c-121 0 -198 98 -198 262c0 163 88 291 277 291c17 0 39 -3 50 -6v213h206v-543c0 -38 10 -57 41 -61zM335 171v216c-10 4 -23 7 -36 7c-48 0 -77 -52 -77 -120
c0 -73 24 -121 70 -121c16 0 33 7 43 18zM733 626c0 -99 -77 -144 -136 -159l-20 55c32 12 53 40 53 62c0 24 -15 44 -48 57c-6 2 -8 9 -8 18c0 43 26 95 63 95c42 0 96 -47 96 -128z" />
    <glyph glyph-name="Dcroat" unicode="&#x110;" horiz-adv-x="650" 
d="M645 367c0 -232 -112 -372 -356 -372c-114 0 -238 5 -238 5v291h-39v124h39v265s137 7 262 7c231 0 332 -122 332 -320zM408 347c0 101 -32 166 -104 166c-12 0 -27 -1 -27 -1v-97h71v-124h-71v-117s15 -1 25 -1c69 0 106 75 106 174z" />
    <glyph glyph-name="dcroat" unicode="&#x111;" horiz-adv-x="585" 
d="M593 567h-52v-362c0 -38 10 -57 41 -61l-10 -143c-27 -6 -67 -10 -106 -10c-69 0 -98 27 -113 78c-25 -44 -70 -81 -147 -81c-121 0 -198 99 -198 258c0 158 88 287 277 287c17 0 39 -3 50 -6v40h-123v125h123v56h206v-56h52v-125zM335 171v208c-10 4 -23 7 -36 7
c-48 0 -77 -53 -77 -116c0 -68 24 -117 70 -117c16 0 33 7 43 18z" />
    <glyph glyph-name="Emacron" unicode="&#x112;" horiz-adv-x="489" 
d="M477 0h-443v680h439v-168h-217v-88h180v-161h-180v-90h221v-173zM400 774h-292v102h292v-102z" />
    <glyph glyph-name="emacron" unicode="&#x113;" horiz-adv-x="529" 
d="M518 309c0 -29 -3 -73 -5 -88h-296c5 -54 41 -85 111 -85c62 0 124 13 173 32l-6 -138c-66 -27 -145 -42 -232 -42c-171 0 -255 98 -255 262c0 171 92 296 277 296c183 0 233 -123 233 -237zM323 333c0 50 -14 88 -50 88c-35 0 -52 -45 -55 -88h105zM420 670h-292v102
h292v-102z" />
    <glyph glyph-name="Ebreve" unicode="&#x114;" horiz-adv-x="489" 
d="M477 0h-443v680h439v-168h-217v-88h180v-161h-180v-90h221v-173zM422 900c0 -39 -31 -159 -168 -159c-138 0 -169 120 -169 159h99c4 -20 13 -61 70 -61c56 0 66 40 72 61h96z" />
    <glyph glyph-name="ebreve" unicode="&#x115;" horiz-adv-x="529" 
d="M518 309c0 -29 -3 -73 -5 -88h-296c5 -54 41 -85 111 -85c62 0 124 13 173 32l-6 -138c-66 -27 -145 -42 -232 -42c-171 0 -255 98 -255 262c0 171 92 296 277 296c183 0 233 -123 233 -237zM323 333c0 50 -14 88 -50 88c-35 0 -52 -45 -55 -88h105zM442 796
c0 -39 -31 -159 -168 -159c-138 0 -169 120 -169 159h99c4 -20 13 -61 70 -61c56 0 66 40 72 61h96z" />
    <glyph glyph-name="Edotaccent" unicode="&#x116;" horiz-adv-x="489" 
d="M477 0h-443v680h439v-168h-217v-88h180v-161h-180v-90h221v-173zM346 840c0 -51 -40 -95 -92 -95s-95 44 -95 95s44 92 95 92c52 0 92 -41 92 -92z" />
    <glyph glyph-name="edotaccent" unicode="&#x117;" horiz-adv-x="529" 
d="M518 309c0 -29 -3 -73 -5 -88h-296c5 -54 41 -85 111 -85c62 0 124 13 173 32l-6 -138c-66 -27 -145 -42 -232 -42c-171 0 -255 98 -255 262c0 171 92 296 277 296c183 0 233 -123 233 -237zM323 333c0 50 -14 88 -50 88c-35 0 -52 -45 -55 -88h105zM366 736
c0 -51 -40 -95 -92 -95s-95 44 -95 95s44 92 95 92c52 0 92 -41 92 -92z" />
    <glyph glyph-name="Eogonek" unicode="&#x118;" horiz-adv-x="489" 
d="M527 -117c-10 -75 -77 -124 -161 -124c-74 0 -126 36 -126 108c0 65 56 107 110 133h-316v680h439v-168h-217v-88h180v-161h-180v-90h221v-173c-57 -11 -107 -62 -107 -107c0 -23 15 -40 53 -40c35 0 70 13 104 30z" />
    <glyph glyph-name="eogonek" unicode="&#x119;" horiz-adv-x="529" 
d="M517 -117c-10 -75 -77 -124 -161 -124c-74 0 -126 36 -126 108c0 51 37 89 84 123c-17 -1 -34 -2 -51 -2c-171 0 -255 98 -255 262c0 171 92 296 277 296c183 0 233 -123 233 -237c0 -29 -3 -73 -5 -88h-296c5 -54 41 -85 111 -85c62 0 124 13 173 32l-6 -138
c-60 -14 -135 -80 -135 -137c0 -23 15 -40 53 -40c35 0 70 13 104 30zM323 333c0 50 -14 88 -50 88c-35 0 -52 -45 -55 -88h105z" />
    <glyph glyph-name="Ecaron" unicode="&#x11a;" horiz-adv-x="489" 
d="M477 0h-443v680h439v-168h-217v-88h180v-161h-180v-90h221v-173zM419 885l-75 -155h-180l-75 155h131l34 -61l35 61h130z" />
    <glyph glyph-name="ecaron" unicode="&#x11b;" horiz-adv-x="529" 
d="M518 309c0 -29 -3 -73 -5 -88h-296c5 -54 41 -85 111 -85c62 0 124 13 173 32l-6 -138c-66 -27 -145 -42 -232 -42c-171 0 -255 98 -255 262c0 171 92 296 277 296c183 0 233 -123 233 -237zM323 333c0 50 -14 88 -50 88c-35 0 -52 -45 -55 -88h105zM460 837l-96 -211
h-182l-94 211h120l66 -110l67 110h119z" />
    <glyph glyph-name="Gcircumflex" unicode="&#x11c;" horiz-adv-x="609" 
d="M588 29c-28 -5 -68 -15 -108 -24c-45 -11 -89 -17 -153 -17c-231 0 -322 138 -322 336c0 200 101 368 354 368c81 0 169 -19 229 -49l-24 -177c-54 23 -125 43 -191 43c-88 0 -134 -77 -134 -165c0 -105 41 -180 118 -180c11 0 29 2 39 5v68h-78v144h270v-352zM517 730
h-132l-33 61l-35 -61h-129l73 155h182z" />
    <glyph glyph-name="gcircumflex" unicode="&#x11d;" horiz-adv-x="548" 
d="M563 413c0 0 -67 29 -76 31c13 -22 22 -53 22 -81c0 -128 -103 -203 -256 -203c-14 0 -30 2 -30 2c-6 -4 -13 -12 -13 -21c0 -15 10 -23 39 -23h140c109 0 160 -65 160 -139c0 -138 -117 -216 -328 -216c-152 0 -242 50 -242 128c0 54 51 90 92 103c-33 16 -52 43 -52 85
c0 20 36 57 102 98c-42 12 -115 58 -115 162c0 130 102 207 265 207c58 0 116 -15 150 -32l142 35v-136zM308 350c0 48 -19 80 -51 80c-29 0 -51 -33 -51 -75c0 -49 20 -82 51 -82c29 0 51 33 51 77zM354 -71c0 19 -15 37 -50 37c-51 0 -100 4 -122 7
c-13 -7 -25 -25 -25 -41c0 -32 40 -52 98 -52c61 0 99 17 99 49zM459 626h-121l-65 109l-68 -109h-118l96 211h181z" />
    <glyph glyph-name="Gbreve" unicode="&#x11e;" horiz-adv-x="609" 
d="M588 29c-28 -5 -68 -15 -108 -24c-45 -11 -89 -17 -153 -17c-231 0 -322 138 -322 336c0 200 101 368 354 368c81 0 169 -19 229 -49l-24 -177c-54 23 -125 43 -191 43c-88 0 -134 -77 -134 -165c0 -105 41 -180 118 -180c11 0 29 2 39 5v68h-78v144h270v-352zM521 900
c0 -39 -31 -159 -168 -159c-138 0 -169 120 -169 159h99c4 -20 13 -61 70 -61c56 0 66 40 72 61h96z" />
    <glyph glyph-name="gbreve" unicode="&#x11f;" horiz-adv-x="548" 
d="M563 413c0 0 -67 29 -76 31c13 -22 22 -53 22 -81c0 -128 -103 -203 -256 -203c-14 0 -30 2 -30 2c-6 -4 -13 -12 -13 -21c0 -15 10 -23 39 -23h140c109 0 160 -65 160 -139c0 -138 -117 -216 -328 -216c-152 0 -242 50 -242 128c0 54 51 90 92 103c-33 16 -52 43 -52 85
c0 20 36 57 102 98c-42 12 -115 58 -115 162c0 130 102 207 265 207c58 0 116 -15 150 -32l142 35v-136zM308 350c0 48 -19 80 -51 80c-29 0 -51 -33 -51 -75c0 -49 20 -82 51 -82c29 0 51 33 51 77zM354 -71c0 19 -15 37 -50 37c-51 0 -100 4 -122 7
c-13 -7 -25 -25 -25 -41c0 -32 40 -52 98 -52c61 0 99 17 99 49zM441 796c0 -39 -31 -159 -168 -159c-138 0 -169 120 -169 159h99c4 -20 13 -61 70 -61c56 0 66 40 72 61h96z" />
    <glyph glyph-name="Gdotaccent" unicode="&#x120;" horiz-adv-x="609" 
d="M588 29c-28 -5 -68 -15 -108 -24c-45 -11 -89 -17 -153 -17c-231 0 -322 138 -322 336c0 200 101 368 354 368c81 0 169 -19 229 -49l-24 -177c-54 23 -125 43 -191 43c-88 0 -134 -77 -134 -165c0 -105 41 -180 118 -180c11 0 29 2 39 5v68h-78v144h270v-352zM445 840
c0 -51 -40 -95 -92 -95s-95 44 -95 95s44 92 95 92c52 0 92 -41 92 -92z" />
    <glyph glyph-name="gdotaccent" unicode="&#x121;" horiz-adv-x="548" 
d="M563 413c0 0 -67 29 -76 31c13 -22 22 -53 22 -81c0 -128 -103 -203 -256 -203c-14 0 -30 2 -30 2c-6 -4 -13 -12 -13 -21c0 -15 10 -23 39 -23h140c109 0 160 -65 160 -139c0 -138 -117 -216 -328 -216c-152 0 -242 50 -242 128c0 54 51 90 92 103c-33 16 -52 43 -52 85
c0 20 36 57 102 98c-42 12 -115 58 -115 162c0 130 102 207 265 207c58 0 116 -15 150 -32l142 35v-136zM308 350c0 48 -19 80 -51 80c-29 0 -51 -33 -51 -75c0 -49 20 -82 51 -82c29 0 51 33 51 77zM354 -71c0 19 -15 37 -50 37c-51 0 -100 4 -122 7
c-13 -7 -25 -25 -25 -41c0 -32 40 -52 98 -52c61 0 99 17 99 49zM365 736c0 -51 -40 -95 -92 -95s-95 44 -95 95s44 92 95 92c52 0 92 -41 92 -92z" />
    <glyph glyph-name="Gcommaaccent" unicode="&#x122;" horiz-adv-x="609" 
d="M588 29c-28 -5 -68 -15 -108 -24c-45 -11 -89 -17 -153 -17c-231 0 -322 138 -322 336c0 200 101 368 354 368c81 0 169 -19 229 -49l-24 -177c-54 23 -125 43 -191 43c-88 0 -134 -77 -134 -165c0 -105 41 -180 118 -180c11 0 29 2 39 5v68h-78v144h270v-352zM446 -62
l-92 -187h-132l35 187h189z" />
    <glyph glyph-name="gcommaaccent" unicode="&#x123;" horiz-adv-x="548" 
d="M563 413c0 0 -67 29 -76 31c13 -22 22 -53 22 -81c0 -128 -103 -203 -256 -203c-14 0 -30 2 -30 2c-6 -4 -13 -12 -13 -21c0 -15 10 -23 39 -23h140c109 0 160 -65 160 -139c0 -138 -117 -216 -328 -216c-152 0 -242 50 -242 128c0 54 51 90 92 103c-33 16 -52 43 -52 85
c0 20 36 57 102 98c-42 12 -115 58 -115 162c0 130 102 207 265 207c58 0 116 -15 150 -32l142 35v-136zM308 350c0 48 -19 80 -51 80c-29 0 -51 -33 -51 -75c0 -49 20 -82 51 -82c29 0 51 33 51 77zM354 -71c0 19 -15 37 -50 37c-51 0 -100 4 -122 7
c-13 -7 -25 -25 -25 -41c0 -32 40 -52 98 -52c61 0 99 17 99 49zM345 721c0 -30 -33 -96 -70 -96c-36 0 -103 45 -103 128c0 101 84 146 148 161l20 -51c-40 -12 -67 -37 -67 -66c0 -28 28 -46 63 -58c7 -3 9 -9 9 -18z" />
    <glyph glyph-name="Hcircumflex" unicode="&#x124;" horiz-adv-x="646" 
d="M612 0h-227v249h-123v-249h-228v680h228v-244h123v244h227v-680zM489 730h-132l-33 61l-35 -61h-129l73 155h182z" />
    <glyph glyph-name="hcircumflex" unicode="&#x125;" horiz-adv-x="571" 
d="M540 0h-206v310c0 41 -18 67 -51 67c-17 0 -34 -7 -43 -16v-361h-207v748h207v-273c28 39 83 71 145 71c100 0 155 -70 155 -182v-364zM303 798h-132l-33 61l-35 -61h-129l73 155h182z" />
    <glyph glyph-name="Itilde" unicode="&#x128;" horiz-adv-x="300" 
d="M266 0h-232v680h232v-680zM357 868c-26 -67 -75 -127 -148 -127c-51 0 -101 51 -125 51c-20 0 -39 -27 -48 -50l-81 39c26 66 75 128 148 128c50 0 106 -50 128 -50c20 0 38 27 48 49z" />
    <glyph glyph-name="itilde" unicode="&#x129;" horiz-adv-x="277" 
d="M245 0h-212v533h212v-533zM344 764c-26 -67 -75 -127 -148 -127c-51 0 -101 51 -125 51c-20 0 -39 -27 -48 -50l-81 39c26 66 75 128 148 128c50 0 106 -50 128 -50c20 0 38 27 48 49z" />
    <glyph glyph-name="Imacron" unicode="&#x12a;" horiz-adv-x="300" 
d="M266 0h-232v680h232v-680zM294 774h-292v102h292v-102z" />
    <glyph glyph-name="imacron" unicode="&#x12b;" horiz-adv-x="277" 
d="M245 0h-212v533h212v-533zM284 670h-292v102h292v-102z" />
    <glyph glyph-name="Ibreve" unicode="&#x12c;" horiz-adv-x="300" 
d="M266 0h-232v680h232v-680zM322 900c0 -39 -31 -159 -168 -159c-138 0 -169 120 -169 159h99c4 -20 13 -61 70 -61c56 0 66 40 72 61h96z" />
    <glyph glyph-name="ibreve" unicode="&#x12d;" horiz-adv-x="277" 
d="M245 0h-212v533h212v-533zM309 796c0 -39 -31 -159 -168 -159c-138 0 -169 120 -169 159h99c4 -20 13 -61 70 -61c56 0 66 40 72 61h96z" />
    <glyph glyph-name="Iogonek" unicode="&#x12e;" horiz-adv-x="300" 
d="M304 -117c-10 -75 -77 -124 -161 -124c-74 0 -126 36 -126 108c0 57 45 97 100 133h-83v680h232v-680h-49c-37 -31 -70 -68 -70 -107c0 -23 15 -40 53 -40c35 0 70 13 104 30z" />
    <glyph glyph-name="iogonek" unicode="&#x12f;" horiz-adv-x="277" 
d="M291 -117c-10 -75 -77 -124 -161 -124c-74 0 -126 36 -126 108c0 57 45 97 100 133h-71v533h212v-533h-41c-37 -31 -70 -68 -70 -107c0 -23 15 -40 53 -40c35 0 70 13 104 30zM239 668c0 -53 -43 -99 -96 -99s-98 46 -98 99s45 94 98 94s96 -41 96 -94z" />
    <glyph glyph-name="Idotaccent" unicode="&#x130;" horiz-adv-x="300" 
d="M266 0h-232v680h232v-680zM246 840c0 -51 -40 -95 -92 -95s-95 44 -95 95s44 92 95 92c52 0 92 -41 92 -92z" />
    <glyph glyph-name="dotlessi" unicode="&#x131;" horiz-adv-x="277" 
d="M245 0h-212v533h212v-533z" />
    <glyph glyph-name="IJ" unicode="&#x132;" horiz-adv-x="680" 
d="M266 0h-232v680h232v-680zM652 251c0 -159 -70 -263 -234 -263c-44 0 -94 7 -126 21l11 177c18 -9 42 -12 60 -12c42 0 57 38 57 82v424h232v-429z" />
    <glyph glyph-name="ij" unicode="&#x133;" horiz-adv-x="559" 
d="M239 668c0 -53 -43 -99 -96 -99s-98 46 -98 99s45 94 98 94s96 -41 96 -94zM245 0h-212v533h212v-533zM521 668c0 -53 -43 -99 -96 -99s-98 46 -98 99s45 94 98 94s96 -41 96 -94zM526 41c0 -185 -91 -267 -266 -274v152c41 5 55 36 55 93v521h211v-492z" />
    <glyph glyph-name="Jcircumflex" unicode="&#x134;" horiz-adv-x="380" 
d="M352 251c0 -159 -70 -263 -234 -263c-44 0 -94 7 -126 21l11 177c18 -9 42 -12 60 -12c42 0 57 38 57 82v424h232v-429zM404 730h-132l-33 61l-35 -61h-129l73 155h182z" />
    <glyph glyph-name="jcircumflex" unicode="&#x135;" horiz-adv-x="282" 
d="M249 41c0 -185 -91 -267 -266 -274v152c41 5 55 36 55 93v521h211v-492zM330 626h-121l-65 109l-68 -109h-118l96 211h181z" />
    <glyph glyph-name="Kcommaaccent" unicode="&#x136;" horiz-adv-x="624" 
d="M647 0h-264c-82 246 -98 275 -112 281h-11v-281h-226v680h226v-277c31 54 129 277 129 277h257l-185 -308c23 -10 46 -43 186 -372zM424 -52l-92 -187h-132l35 187h189z" />
    <glyph glyph-name="kcommaaccent" unicode="&#x137;" horiz-adv-x="563" 
d="M586 0h-252l-85 240h-9v-240h-207v748h207v-418c24 41 92 203 92 203h247l-156 -223zM393 -52l-92 -187h-132l35 187h189z" />
    <glyph glyph-name="Lacute" unicode="&#x139;" horiz-adv-x="449" 
d="M452 0h-418v680h231v-491h187v-189zM334 885l-114 -155h-143l68 155h189z" />
    <glyph glyph-name="lacute" unicode="&#x13a;" horiz-adv-x="276" 
d="M244 0h-211v748h211v-748zM323 953l-114 -155h-143l68 155h189z" />
    <glyph glyph-name="Lcommaaccent" unicode="&#x13b;" horiz-adv-x="449" 
d="M452 0h-418v680h231v-491h187v-189zM337 -52l-92 -187h-132l35 187h189z" />
    <glyph glyph-name="lcommaaccent" unicode="&#x13c;" horiz-adv-x="276" 
d="M244 0h-211v748h211v-748zM233 -52l-92 -187h-132l35 187h189z" />
    <glyph glyph-name="Lcaron" unicode="&#x13d;" horiz-adv-x="478" 
d="M452 0h-418v680h231v-491h187v-189zM468 564c0 -99 -77 -144 -136 -159l-20 55c32 12 53 40 53 62c0 24 -15 44 -48 57c-6 2 -8 9 -8 18c0 43 26 95 63 95c42 0 96 -47 96 -128z" />
    <glyph glyph-name="lcaron" unicode="&#x13e;" horiz-adv-x="436" 
d="M244 0h-211v748h211v-748zM436 625c0 -99 -77 -144 -136 -159l-20 55c32 12 53 40 53 62c0 24 -15 44 -48 57c-6 2 -8 9 -8 18c0 43 26 95 63 95c42 0 96 -47 96 -128z" />
    <glyph glyph-name="Ldot" unicode="&#x13f;" horiz-adv-x="510" 
d="M452 0h-418v680h231v-491h187v-189zM510 359c0 -63 -45 -114 -103 -114c-59 0 -107 51 -107 114s48 114 107 114c58 0 103 -51 103 -114z" />
    <glyph glyph-name="ldotaccent" unicode="&#x140;" horiz-adv-x="488" 
d="M244 0h-211v748h211v-748zM488 346c0 -63 -45 -114 -103 -114c-59 0 -107 51 -107 114s48 114 107 114c58 0 103 -51 103 -114z" />
    <glyph glyph-name="Lslash" unicode="&#x141;" horiz-adv-x="470" 
d="M474 0h-419v140l-62 -64v141l62 63v400h231v-158l84 85v-141l-84 -85v-192h188v-189z" />
    <glyph glyph-name="lslash" unicode="&#x142;" horiz-adv-x="309" 
d="M312 447l-56 -59v-388h-208v161l-51 -53v133l51 53v454h208v-227l56 59v-133z" />
    <glyph glyph-name="Nacute" unicode="&#x143;" horiz-adv-x="642" 
d="M608 0h-214l-145 273c-12 24 -25 73 -25 73s6 -49 7 -76l8 -270h-205v680h213l143 -262c16 -29 28 -77 28 -77s-5 51 -6 85l-8 254h204v-680zM505 885l-114 -155h-143l68 155h189z" />
    <glyph glyph-name="nacute" unicode="&#x144;" horiz-adv-x="571" 
d="M540 0h-206v310c0 41 -18 67 -51 67c-17 0 -34 -7 -43 -16v-361h-207v529l207 9l-2 -67c32 43 85 75 147 75c100 0 155 -70 155 -182v-364zM506 837l-162 -211h-128l102 211h188z" />
    <glyph glyph-name="Ncommaaccent" unicode="&#x145;" horiz-adv-x="642" 
d="M608 0h-214l-145 273c-12 24 -25 73 -25 73s6 -49 7 -76l8 -270h-205v680h213l143 -262c16 -29 28 -77 28 -77s-5 51 -6 85l-8 254h204v-680zM433 -52l-92 -187h-132l35 187h189z" />
    <glyph glyph-name="ncommaaccent" unicode="&#x146;" horiz-adv-x="571" 
d="M540 0h-206v310c0 41 -18 67 -51 67c-17 0 -34 -7 -43 -16v-361h-207v529l207 9l-2 -67c32 43 85 75 147 75c100 0 155 -70 155 -182v-364zM392 -52l-92 -187h-132l35 187h189z" />
    <glyph glyph-name="Ncaron" unicode="&#x147;" horiz-adv-x="642" 
d="M608 0h-214l-145 273c-12 24 -25 73 -25 73s6 -49 7 -76l8 -270h-205v680h213l143 -262c16 -29 28 -77 28 -77s-5 51 -6 85l-8 254h204v-680zM487 885l-75 -155h-180l-75 155h131l34 -61l35 61h130z" />
    <glyph glyph-name="ncaron" unicode="&#x148;" horiz-adv-x="571" 
d="M540 0h-206v310c0 41 -18 67 -51 67c-17 0 -34 -7 -43 -16v-361h-207v529l207 9l-2 -67c32 43 85 75 147 75c100 0 155 -70 155 -182v-364zM469 837l-96 -211h-182l-94 211h120l66 -110l67 110h119z" />
    <glyph glyph-name="napostrophe" unicode="&#x149;" horiz-adv-x="711" 
d="M159 625c0 -99 -77 -144 -136 -159l-20 55c32 12 53 40 53 62c0 24 -15 44 -48 57c-6 2 -8 9 -8 18c0 43 26 95 63 95c42 0 96 -47 96 -128zM680 0h-206v310c0 41 -18 67 -51 67c-17 0 -34 -7 -43 -16v-361h-207v529l207 9l-2 -67c32 43 85 75 147 75
c100 0 155 -70 155 -182v-364z" />
    <glyph glyph-name="Omacron" unicode="&#x14c;" horiz-adv-x="642" 
d="M637 351c0 -193 -89 -362 -330 -362c-221 0 -302 164 -302 341c0 193 89 361 330 361c221 0 302 -163 302 -340zM397 333c0 108 -26 182 -77 182c-47 0 -75 -74 -75 -169c0 -108 26 -181 76 -181c48 0 76 73 76 168zM481 774h-292v102h292v-102z" />
    <glyph glyph-name="omacron" unicode="&#x14d;" horiz-adv-x="572" 
d="M564 280c0 -179 -98 -292 -290 -292c-178 0 -266 118 -266 267c0 177 98 291 290 291c178 0 266 -119 266 -266zM347 266c0 77 -20 128 -62 128c-37 0 -61 -51 -61 -127s22 -127 64 -127c37 0 59 51 59 126zM443 670h-292v102h292v-102z" />
    <glyph glyph-name="Obreve" unicode="&#x14e;" horiz-adv-x="642" 
d="M637 351c0 -193 -89 -362 -330 -362c-221 0 -302 164 -302 341c0 193 89 361 330 361c221 0 302 -163 302 -340zM397 333c0 108 -26 182 -77 182c-47 0 -75 -74 -75 -169c0 -108 26 -181 76 -181c48 0 76 73 76 168zM503 900c0 -39 -31 -159 -168 -159
c-138 0 -169 120 -169 159h99c4 -20 13 -61 70 -61c56 0 66 40 72 61h96z" />
    <glyph glyph-name="obreve" unicode="&#x14f;" horiz-adv-x="572" 
d="M564 280c0 -179 -98 -292 -290 -292c-178 0 -266 118 -266 267c0 177 98 291 290 291c178 0 266 -119 266 -266zM347 266c0 77 -20 128 -62 128c-37 0 -61 -51 -61 -127s22 -127 64 -127c37 0 59 51 59 126zM465 796c0 -39 -31 -159 -168 -159c-138 0 -169 120 -169 159
h99c4 -20 13 -61 70 -61c56 0 66 40 72 61h96z" />
    <glyph glyph-name="Ohungarumlaut" unicode="&#x150;" horiz-adv-x="642" 
d="M637 351c0 -193 -89 -362 -330 -362c-221 0 -302 164 -302 341c0 193 89 361 330 361c221 0 302 -163 302 -340zM397 333c0 108 -26 182 -77 182c-47 0 -75 -74 -75 -169c0 -108 26 -181 76 -181c48 0 76 73 76 168zM376 885l-114 -155h-131l68 155h177zM608 885
l-114 -155h-131l68 155h177z" />
    <glyph glyph-name="ohungarumlaut" unicode="&#x151;" horiz-adv-x="572" 
d="M564 280c0 -179 -98 -292 -290 -292c-178 0 -266 118 -266 267c0 177 98 291 290 291c178 0 266 -119 266 -266zM347 266c0 77 -20 128 -62 128c-37 0 -61 -51 -61 -127s22 -127 64 -127c37 0 59 51 59 126zM608 837l-157 -211h-121l95 211h183zM377 837l-157 -211h-122
l96 211h183z" />
    <glyph glyph-name="OE" unicode="&#x152;" horiz-adv-x="831" 
d="M819 0h-357c-44 0 -90 -8 -152 -8c-230 0 -305 164 -305 340c0 195 85 355 331 355c60 0 103 -7 144 -7h334v-168h-216v-88h180v-161h-180v-90h221v-173zM376 167v346s-23 5 -47 5c-59 0 -84 -91 -84 -174c0 -93 22 -182 85 -182c23 0 46 5 46 5z" />
    <glyph glyph-name="oe" unicode="&#x153;" horiz-adv-x="859" 
d="M848 316c0 -37 -2 -80 -4 -95h-296c6 -55 41 -85 111 -85c62 0 124 13 173 34l-7 -140c-60 -27 -140 -42 -232 -42c-66 0 -115 20 -151 46c-38 -29 -96 -46 -168 -46c-178 0 -266 119 -266 266c0 178 98 292 290 292c69 0 120 -20 160 -50c39 28 91 50 158 50
c179 0 232 -119 232 -230zM654 333c0 50 -15 88 -51 88c-35 0 -52 -45 -55 -88h106zM347 266c0 77 -20 128 -62 128c-37 0 -61 -51 -61 -127s22 -127 64 -127c37 0 59 51 59 126z" />
    <glyph glyph-name="Racute" unicode="&#x154;" horiz-adv-x="608" 
d="M618 0h-251c-37 186 -47 226 -68 236h-44v-236h-221v680s143 6 282 6c187 0 272 -76 272 -194c0 -83 -51 -153 -110 -176c42 -16 72 -62 140 -316zM356 461c0 44 -27 75 -73 75c-11 0 -28 -1 -28 -1v-155h71c15 16 30 43 30 81zM467 885l-114 -155h-143l68 155h189z" />
    <glyph glyph-name="racute" unicode="&#x155;" horiz-adv-x="400" 
d="M412 533l-24 -216c-21 12 -54 25 -88 25c-24 0 -46 -9 -60 -21v-321h-207v529l199 10l-5 -108c23 73 70 116 127 116c19 0 43 -6 58 -14zM437 837l-162 -211h-128l102 211h188z" />
    <glyph glyph-name="Rcommaaccent" unicode="&#x156;" horiz-adv-x="608" 
d="M618 0h-251c-37 186 -47 226 -68 236h-44v-236h-221v680s143 6 282 6c187 0 272 -76 272 -194c0 -83 -51 -153 -110 -176c42 -16 72 -62 140 -316zM356 461c0 44 -27 75 -73 75c-11 0 -28 -1 -28 -1v-155h71c15 16 30 43 30 81zM416 -52l-92 -187h-132l35 187h189z" />
    <glyph glyph-name="rcommaaccent" unicode="&#x157;" horiz-adv-x="400" 
d="M412 533l-24 -216c-21 12 -54 25 -88 25c-24 0 -46 -9 -60 -21v-321h-207v529l199 10l-5 -108c23 73 70 116 127 116c19 0 43 -6 58 -14zM232 -52l-92 -187h-132l35 187h189z" />
    <glyph glyph-name="Rcaron" unicode="&#x158;" horiz-adv-x="608" 
d="M618 0h-251c-37 186 -47 226 -68 236h-44v-236h-221v680s143 6 282 6c187 0 272 -76 272 -194c0 -83 -51 -153 -110 -176c42 -16 72 -62 140 -316zM356 461c0 44 -27 75 -73 75c-11 0 -28 -1 -28 -1v-155h71c15 16 30 43 30 81zM449 885l-75 -155h-180l-75 155h131
l34 -61l35 61h130z" />
    <glyph glyph-name="rcaron" unicode="&#x159;" horiz-adv-x="400" 
d="M412 533l-24 -216c-21 12 -54 25 -88 25c-24 0 -46 -9 -60 -21v-321h-207v529l199 10l-5 -108c23 73 70 116 127 116c19 0 43 -6 58 -14zM400 837l-96 -211h-182l-94 211h120l66 -110l67 110h119z" />
    <glyph glyph-name="Sacute" unicode="&#x15a;" horiz-adv-x="495" 
d="M495 219c0 -134 -104 -230 -271 -230c-85 0 -164 17 -225 55l25 185c59 -41 129 -63 189 -63c28 0 45 10 45 30c0 76 -250 72 -250 282c0 122 97 212 257 212c74 0 156 -18 213 -43l-17 -174c-57 22 -126 41 -177 41c-25 0 -43 -9 -43 -26c0 -66 254 -65 254 -269z
M441 885l-114 -155h-143l68 155h189z" />
    <glyph glyph-name="sacute" unicode="&#x15b;" horiz-adv-x="430" 
d="M424 174c0 -106 -81 -186 -229 -186c-77 0 -143 14 -190 36l15 147c51 -26 106 -39 149 -39c20 0 37 9 37 25c0 49 -195 44 -195 212c0 107 87 177 222 177c67 0 130 -15 177 -35l-15 -141c-47 18 -100 33 -142 33c-18 0 -33 -7 -33 -22c0 -48 204 -43 204 -207zM442 837
l-162 -211h-128l102 211h188z" />
    <glyph glyph-name="Scircumflex" unicode="&#x15c;" horiz-adv-x="495" 
d="M495 219c0 -134 -104 -230 -271 -230c-85 0 -164 17 -225 55l25 185c59 -41 129 -63 189 -63c28 0 45 10 45 30c0 76 -250 72 -250 282c0 122 97 212 257 212c74 0 156 -18 213 -43l-17 -174c-57 22 -126 41 -177 41c-25 0 -43 -9 -43 -26c0 -66 254 -65 254 -269z
M422 730h-132l-33 61l-35 -61h-129l73 155h182z" />
    <glyph glyph-name="scircumflex" unicode="&#x15d;" horiz-adv-x="430" 
d="M424 174c0 -106 -81 -186 -229 -186c-77 0 -143 14 -190 36l15 147c51 -26 106 -39 149 -39c20 0 37 9 37 25c0 49 -195 44 -195 212c0 107 87 177 222 177c67 0 130 -15 177 -35l-15 -141c-47 18 -100 33 -142 33c-18 0 -33 -7 -33 -22c0 -48 204 -43 204 -207zM405 626
h-121l-65 109l-68 -109h-118l96 211h181z" />
    <glyph glyph-name="Scedilla" unicode="&#x15e;" horiz-adv-x="495" 
d="M374 -133c0 -68 -57 -112 -156 -112c-41 0 -75 10 -94 21l-3 83c29 -15 67 -25 102 -25c20 0 29 7 29 18c0 16 -34 24 -91 35l43 103c-78 2 -149 19 -205 54l25 185c59 -41 129 -63 189 -63c28 0 45 10 45 30c0 76 -250 72 -250 282c0 122 97 212 257 212
c74 0 156 -18 213 -43l-17 -174c-57 22 -126 41 -177 41c-25 0 -43 -9 -43 -26c0 -66 254 -65 254 -269c0 -114 -75 -200 -200 -223l-12 -46c51 -10 91 -31 91 -83z" />
    <glyph glyph-name="scedilla" unicode="&#x15f;" horiz-adv-x="430" 
d="M339 -133c0 -68 -57 -112 -156 -112c-41 0 -75 10 -94 21l-3 83c29 -15 67 -25 102 -25c20 0 29 7 29 18c0 16 -34 24 -91 35l43 102c-66 3 -123 15 -164 35l15 147c51 -26 106 -39 149 -39c20 0 37 9 37 25c0 49 -195 44 -195 212c0 107 87 177 222 177
c67 0 130 -15 177 -35l-15 -141c-47 18 -100 33 -142 33c-18 0 -33 -7 -33 -22c0 -48 204 -43 204 -207c0 -90 -58 -161 -165 -180l-11 -44c51 -10 91 -31 91 -83z" />
    <glyph glyph-name="Scaron" unicode="&#x160;" horiz-adv-x="495" 
d="M495 219c0 -134 -104 -230 -271 -230c-85 0 -164 17 -225 55l25 185c59 -41 129 -63 189 -63c28 0 45 10 45 30c0 76 -250 72 -250 282c0 122 97 212 257 212c74 0 156 -18 213 -43l-17 -174c-57 22 -126 41 -177 41c-25 0 -43 -9 -43 -26c0 -66 254 -65 254 -269z
M423 885l-75 -155h-180l-75 155h131l34 -61l35 61h130z" />
    <glyph glyph-name="scaron" unicode="&#x161;" horiz-adv-x="430" 
d="M424 174c0 -106 -81 -186 -229 -186c-77 0 -143 14 -190 36l15 147c51 -26 106 -39 149 -39c20 0 37 9 37 25c0 49 -195 44 -195 212c0 107 87 177 222 177c67 0 130 -15 177 -35l-15 -141c-47 18 -100 33 -142 33c-18 0 -33 -7 -33 -22c0 -48 204 -43 204 -207zM405 837
l-96 -211h-182l-94 211h120l66 -110l67 110h119z" />
    <glyph glyph-name="Tcommaaccent" unicode="&#x162;" horiz-adv-x="483" 
d="M489 502h-132v-502h-231v502h-133v178h496v-178zM337 -52l-92 -187h-132l35 187h189z" />
    <glyph glyph-name="tcommaaccent" unicode="&#x163;" horiz-adv-x="385" 
d="M378 23c-45 -21 -98 -35 -172 -35c-100 0 -164 60 -164 166c0 0 2 139 2 192v37h-45v99l223 193h27v-142h125v-150h-125s-2 -119 -2 -152c0 -51 24 -71 57 -71c30 0 52 5 74 11v-148zM317 -62l-92 -187h-132l35 187h189z" />
    <glyph glyph-name="Tcaron" unicode="&#x164;" horiz-adv-x="483" 
d="M489 502h-132v-502h-231v502h-133v178h496v-178zM408 885l-75 -155h-180l-75 155h131l34 -61l35 61h130z" />
    <glyph glyph-name="tcaron" unicode="&#x165;" horiz-adv-x="431" 
d="M378 23c-45 -21 -98 -35 -172 -35c-100 0 -164 60 -164 166c0 0 2 139 2 192v37h-45v99l223 193h27v-142h125v-150h-125s-2 -119 -2 -152c0 -51 24 -71 57 -71c30 0 52 5 74 11v-148zM431 691c0 -80 -71 -116 -125 -128l-18 44c29 10 48 32 48 50c0 19 -13 36 -44 46
c-5 2 -7 7 -7 15c0 34 24 76 58 76c38 0 88 -38 88 -103z" />
    <glyph glyph-name="Utilde" unicode="&#x168;" horiz-adv-x="636" 
d="M608 256c0 -164 -89 -267 -299 -267c-194 0 -281 97 -281 246v445h231v-421c0 -63 27 -86 62 -86c34 0 59 22 59 86v421h228v-424zM523 868c-26 -67 -75 -127 -148 -127c-51 0 -101 51 -125 51c-20 0 -39 -27 -48 -50l-81 39c26 66 75 128 148 128c50 0 106 -50 128 -50
c20 0 38 27 48 49z" />
    <glyph glyph-name="utilde" unicode="&#x169;" horiz-adv-x="582" 
d="M579 144l-11 -143c-24 -6 -68 -10 -106 -10c-71 0 -97 26 -112 81c-29 -48 -91 -86 -164 -86c-100 0 -156 72 -156 185v362h207v-310c0 -43 13 -65 49 -65c21 0 35 7 44 16v359h208v-329c0 -38 10 -56 41 -60zM486 764c-26 -67 -75 -127 -148 -127c-51 0 -101 51 -125 51
c-20 0 -39 -27 -48 -50l-81 39c26 66 75 128 148 128c50 0 106 -50 128 -50c20 0 38 27 48 49z" />
    <glyph glyph-name="Umacron" unicode="&#x16a;" horiz-adv-x="636" 
d="M608 256c0 -164 -89 -267 -299 -267c-194 0 -281 97 -281 246v445h231v-421c0 -63 27 -86 62 -86c34 0 59 22 59 86v421h228v-424zM466 774h-292v102h292v-102z" />
    <glyph glyph-name="umacron" unicode="&#x16b;" horiz-adv-x="582" 
d="M579 144l-11 -143c-24 -6 -68 -10 -106 -10c-71 0 -97 26 -112 81c-29 -48 -91 -86 -164 -86c-100 0 -156 72 -156 185v362h207v-310c0 -43 13 -65 49 -65c21 0 35 7 44 16v359h208v-329c0 -38 10 -56 41 -60zM429 670h-292v102h292v-102z" />
    <glyph glyph-name="Ubreve" unicode="&#x16c;" horiz-adv-x="636" 
d="M608 256c0 -164 -89 -267 -299 -267c-194 0 -281 97 -281 246v445h231v-421c0 -63 27 -86 62 -86c34 0 59 22 59 86v421h228v-424zM488 900c0 -39 -31 -159 -168 -159c-138 0 -169 120 -169 159h99c4 -20 13 -61 70 -61c56 0 66 40 72 61h96z" />
    <glyph glyph-name="ubreve" unicode="&#x16d;" horiz-adv-x="582" 
d="M579 144l-11 -143c-24 -6 -68 -10 -106 -10c-71 0 -97 26 -112 81c-29 -48 -91 -86 -164 -86c-100 0 -156 72 -156 185v362h207v-310c0 -43 13 -65 49 -65c21 0 35 7 44 16v359h208v-329c0 -38 10 -56 41 -60zM451 796c0 -39 -31 -159 -168 -159
c-138 0 -169 120 -169 159h99c4 -20 13 -61 70 -61c56 0 66 40 72 61h96z" />
    <glyph glyph-name="Uring" unicode="&#x16e;" horiz-adv-x="636" 
d="M608 256c0 -164 -89 -267 -299 -267c-194 0 -281 97 -281 246v445h231v-421c0 -63 27 -86 62 -86c34 0 59 22 59 86v421h228v-424zM452 849c0 -74 -61 -129 -132 -129c-75 0 -133 55 -133 129c0 75 61 127 133 127c75 0 132 -52 132 -127zM367 849c0 31 -18 53 -47 53
s-47 -23 -47 -53c0 -29 18 -55 47 -55c30 0 47 26 47 55z" />
    <glyph glyph-name="uring" unicode="&#x16f;" horiz-adv-x="582" 
d="M579 144l-11 -143c-24 -6 -68 -10 -106 -10c-71 0 -97 26 -112 81c-29 -48 -91 -86 -164 -86c-100 0 -156 72 -156 185v362h207v-310c0 -43 13 -65 49 -65c21 0 35 7 44 16v359h208v-329c0 -38 10 -56 41 -60zM415 745c0 -74 -61 -129 -132 -129c-75 0 -133 55 -133 129
c0 75 61 127 133 127c75 0 132 -52 132 -127zM330 745c0 31 -18 53 -47 53s-47 -23 -47 -53c0 -29 18 -55 47 -55c30 0 47 26 47 55z" />
    <glyph glyph-name="Uhungarumlaut" unicode="&#x170;" horiz-adv-x="636" 
d="M608 256c0 -164 -89 -267 -299 -267c-194 0 -281 97 -281 246v445h231v-421c0 -63 27 -86 62 -86c34 0 59 22 59 86v421h228v-424zM361 885l-114 -155h-131l68 155h177zM593 885l-114 -155h-131l68 155h177z" />
    <glyph glyph-name="uhungarumlaut" unicode="&#x171;" horiz-adv-x="582" 
d="M579 144l-11 -143c-24 -6 -68 -10 -106 -10c-71 0 -97 26 -112 81c-29 -48 -91 -86 -164 -86c-100 0 -156 72 -156 185v362h207v-310c0 -43 13 -65 49 -65c21 0 35 7 44 16v359h208v-329c0 -38 10 -56 41 -60zM594 837l-157 -211h-121l95 211h183zM363 837l-157 -211
h-122l96 211h183z" />
    <glyph glyph-name="Uogonek" unicode="&#x172;" horiz-adv-x="636" 
d="M468 -117c-10 -75 -77 -124 -161 -124c-74 0 -126 36 -126 108c0 52 37 90 86 124c-165 12 -239 106 -239 244v445h231v-421c0 -63 27 -86 62 -86c34 0 59 22 59 86v421h228v-424c0 -146 -71 -244 -235 -263c-34 -30 -62 -64 -62 -100c0 -23 15 -40 53 -40
c35 0 70 13 104 30z" />
    <glyph glyph-name="uogonek" unicode="&#x173;" horiz-adv-x="582" 
d="M623 -117c-10 -75 -77 -124 -161 -124c-74 0 -126 36 -126 108c0 53 43 97 99 126c-56 8 -73 34 -85 79c-29 -48 -91 -86 -164 -86c-100 0 -156 72 -156 185v362h207v-310c0 -43 13 -65 49 -65c21 0 35 7 44 16v359h208v-329c0 -38 10 -56 41 -60l-11 -143
c-57 -6 -102 -68 -102 -108c0 -23 15 -40 53 -40c35 0 70 13 104 30z" />
    <glyph glyph-name="Wcircumflex" unicode="&#x174;" horiz-adv-x="868" 
d="M890 680l-167 -680h-212l-70 298c-6 22 -8 73 -8 73s-2 -51 -8 -73l-72 -298h-212l-164 680h247l42 -338c5 -34 6 -91 6 -91s5 58 11 90l65 339h200l67 -339c5 -32 9 -86 9 -86s3 54 8 87l41 338h217zM612 730h-132l-33 61l-35 -61h-129l73 155h182z" />
    <glyph glyph-name="wcircumflex" unicode="&#x175;" horiz-adv-x="788" 
d="M807 533l-161 -533h-188l-62 226c-6 19 -7 54 -7 54s-2 -35 -8 -54l-60 -226h-187l-157 533h227l37 -242c5 -32 8 -73 8 -73s4 39 11 71l58 244h174l57 -244c7 -30 10 -71 10 -71s4 41 8 72l39 243h201zM591 626h-121l-65 109l-68 -109h-118l96 211h181z" />
    <glyph glyph-name="Ycircumflex" unicode="&#x176;" horiz-adv-x="560" 
d="M594 680l-199 -421v-259h-233v256l-200 424h258l72 -240l69 240h233zM452 730h-132l-33 61l-35 -61h-129l73 155h182z" />
    <glyph glyph-name="ycircumflex" unicode="&#x177;" horiz-adv-x="503" 
d="M527 533l-166 -526c-49 -152 -133 -240 -278 -240c-47 0 -92 12 -117 23l19 146c21 -8 47 -13 70 -13c40 0 76 17 98 72l-179 538h231l48 -270c4 -28 9 -75 9 -75s4 47 9 75l46 270h210zM447 626h-121l-65 109l-68 -109h-118l96 211h181z" />
    <glyph glyph-name="Ydieresis" unicode="&#x178;" horiz-adv-x="560" 
d="M594 680l-199 -421v-259h-233v256l-200 424h258l72 -240l69 240h233zM496 834c0 -50 -40 -93 -90 -93c-51 0 -94 43 -94 93c0 51 43 92 94 92c50 0 90 -41 90 -92zM263 834c0 -50 -40 -93 -91 -93s-92 43 -92 93c0 51 41 92 92 92s91 -41 91 -92z" />
    <glyph glyph-name="Zacute" unicode="&#x179;" horiz-adv-x="507" 
d="M523 673l-238 -500h222v-173h-524l-6 8l241 501h-213v171h514zM438 885l-114 -155h-143l68 155h189z" />
    <glyph glyph-name="zacute" unicode="&#x17a;" horiz-adv-x="470" 
d="M477 528l-211 -378h201v-150h-479l-4 6l212 381h-181v146h458zM467 837l-162 -211h-128l102 211h188z" />
    <glyph glyph-name="Zdotaccent" unicode="&#x17b;" horiz-adv-x="507" 
d="M523 673l-238 -500h222v-173h-524l-6 8l241 501h-213v171h514zM357 840c0 -51 -40 -95 -92 -95s-95 44 -95 95s44 92 95 92c52 0 92 -41 92 -92z" />
    <glyph glyph-name="zdotaccent" unicode="&#x17c;" horiz-adv-x="470" 
d="M477 528l-211 -378h201v-150h-479l-4 6l212 381h-181v146h458zM336 736c0 -51 -40 -95 -92 -95s-95 44 -95 95s44 92 95 92c52 0 92 -41 92 -92z" />
    <glyph glyph-name="Zcaron" unicode="&#x17d;" horiz-adv-x="507" 
d="M523 673l-238 -500h222v-173h-524l-6 8l241 501h-213v171h514zM420 885l-75 -155h-180l-75 155h131l34 -61l35 61h130z" />
    <glyph glyph-name="zcaron" unicode="&#x17e;" horiz-adv-x="470" 
d="M477 528l-211 -378h201v-150h-479l-4 6l212 381h-181v146h458zM430 837l-96 -211h-182l-94 211h120l66 -110l67 110h119z" />
    <glyph glyph-name="florin" unicode="&#x192;" horiz-adv-x="443" 
d="M444 665l-24 -141c-17 8 -43 15 -65 15c-31 0 -47 -25 -49 -62l-5 -78h100l-10 -125h-98l-14 -260c-9 -168 -106 -247 -243 -247c-39 0 -81 10 -108 26l24 149c10 -7 33 -16 53 -16c45 0 64 31 67 80l16 268h-76l9 125h75l4 70c9 142 94 225 226 225c45 0 89 -13 118 -29
z" />
    <glyph glyph-name="AEacute" unicode="&#x1fc;" horiz-adv-x="855" 
d="M842 0h-443v132h-134l-55 -132h-240l333 680h535v-168h-217v-88h181v-161h-181v-90h221v-173zM399 273v203l-84 -203h84zM710 885l-114 -155h-143l68 155h189z" />
    <glyph glyph-name="aeacute" unicode="&#x1fd;" horiz-adv-x="796" 
d="M785 316c0 -37 -2 -76 -5 -90h-297c5 -58 47 -90 114 -90c62 0 124 13 172 33l-7 -140c-59 -26 -141 -41 -232 -41c-92 0 -153 27 -193 89c-49 -61 -114 -91 -188 -91c-101 0 -147 73 -147 156c0 89 58 183 289 196v18c0 24 -18 43 -51 43c-57 0 -132 -23 -196 -55
l-12 134c81 41 181 68 272 68c48 0 93 -10 121 -30c37 19 81 30 128 30c178 0 232 -116 232 -230zM591 333c0 50 -15 88 -50 88s-53 -45 -56 -88h106zM301 157c-6 23 -10 50 -10 79c-67 -5 -88 -35 -88 -63c0 -26 17 -46 43 -46c19 0 42 12 55 30zM643 837l-162 -211h-128
l102 211h188z" />
    <glyph glyph-name="Oslashacute" unicode="&#x1fe;" horiz-adv-x="642" 
d="M637 351c0 -193 -89 -362 -330 -362c-23 0 -43 2 -62 4l-22 -57l-101 36l21 57c-99 60 -138 177 -138 301c0 193 89 361 330 361c22 0 44 -2 63 -5l25 63l101 -36l-24 -63c98 -60 137 -176 137 -299zM408 333c0 24 -1 49 -3 71l-102 -260c6 -2 12 -2 18 -2
c59 0 87 85 87 191zM339 535c-5 2 -12 3 -19 3c-58 0 -87 -86 -87 -192c0 -27 2 -53 4 -75zM480 885l-114 -155h-143l68 155h189z" />
    <glyph glyph-name="oslashacute" unicode="&#x1ff;" horiz-adv-x="572" 
d="M564 280c0 -179 -98 -292 -290 -292c-15 0 -29 1 -41 2l-18 -49l-89 31l16 43c-90 43 -134 134 -134 240c0 177 98 291 290 291c14 0 29 -1 43 -2l19 50l89 -30l-18 -46c89 -44 133 -135 133 -238zM361 266c0 19 -1 37 -4 54l-77 -206s4 -1 8 -1c48 0 73 66 73 153z
M294 420c0 0 -4 1 -9 1c-48 0 -74 -67 -74 -154c0 -21 1 -41 3 -60zM501 837l-162 -211h-128l102 211h188z" />
    <glyph glyph-name="dotlessj" unicode="&#x237;" horiz-adv-x="282" 
d="M249 41c0 -185 -91 -267 -266 -274v152c41 5 55 36 55 93v521h211v-492z" />
    <glyph glyph-name="circumflex" unicode="&#x2c6;" 
d="M468 626h-121l-65 109l-68 -109h-118l96 211h181z" />
    <glyph glyph-name="caron" unicode="&#x2c7;" 
d="M468 837l-96 -211h-182l-94 211h120l66 -110l67 110h119z" />
    <glyph glyph-name="breve" unicode="&#x2d8;" 
d="M450 796c0 -39 -31 -159 -168 -159c-138 0 -169 120 -169 159h99c4 -20 13 -61 70 -61c56 0 66 40 72 61h96z" />
    <glyph glyph-name="dotaccent" unicode="&#x2d9;" 
d="M375 736c0 -51 -40 -95 -92 -95s-95 44 -95 95s44 92 95 92c52 0 92 -41 92 -92z" />
    <glyph glyph-name="ring" unicode="&#x2da;" 
d="M414 745c0 -74 -61 -129 -132 -129c-75 0 -133 55 -133 129c0 75 61 127 133 127c75 0 132 -52 132 -127zM329 745c0 31 -18 53 -47 53s-47 -23 -47 -53c0 -29 18 -55 47 -55c30 0 47 26 47 55z" />
    <glyph glyph-name="ogonek" unicode="&#x2db;" 
d="M432 -117c-10 -75 -77 -124 -161 -124c-74 0 -126 36 -126 108c0 62 55 105 117 144h97c-42 -34 -84 -75 -84 -118c0 -23 15 -40 53 -40c35 0 70 13 104 30z" />
    <glyph glyph-name="tilde" unicode="&#x2dc;" 
d="M485 764c-26 -67 -75 -127 -148 -127c-51 0 -101 51 -125 51c-20 0 -39 -27 -48 -50l-81 39c26 66 75 128 148 128c50 0 106 -50 128 -50c20 0 38 27 48 49z" />
    <glyph glyph-name="hungarumlaut" unicode="&#x2dd;" 
d="M575 837l-157 -211h-121l95 211h183zM344 837l-157 -211h-122l96 211h183z" />
    <glyph glyph-name="uni0312" unicode="&#x312;" horiz-adv-x="159" 
d="M159 564c0 -99 -77 -144 -136 -159l-20 55c32 12 53 40 53 62c0 24 -15 44 -48 57c-6 2 -8 9 -8 18c0 43 26 95 63 95c42 0 96 -47 96 -128z" />
    <glyph glyph-name="Wgrave" unicode="&#x1e80;" horiz-adv-x="868" 
d="M890 680l-167 -680h-212l-70 298c-6 22 -8 73 -8 73s-2 -51 -8 -73l-72 -298h-212l-164 680h247l42 -338c5 -34 6 -91 6 -91s5 58 11 90l65 339h200l67 -339c5 -32 9 -86 9 -86s3 54 8 87l41 338h217zM520 730h-143l-114 155h189z" />
    <glyph glyph-name="wgrave" unicode="&#x1e81;" horiz-adv-x="788" 
d="M807 533l-161 -533h-188l-62 226c-6 19 -7 54 -7 54s-2 -35 -8 -54l-60 -226h-187l-157 533h227l37 -242c5 -32 8 -73 8 -73s4 39 11 71l58 244h174l57 -244c7 -30 10 -71 10 -71s4 41 8 72l39 243h201zM471 626h-129l-161 211h188z" />
    <glyph glyph-name="Wacute" unicode="&#x1e82;" horiz-adv-x="868" 
d="M890 680l-167 -680h-212l-70 298c-6 22 -8 73 -8 73s-2 -51 -8 -73l-72 -298h-212l-164 680h247l42 -338c5 -34 6 -91 6 -91s5 58 11 90l65 339h200l67 -339c5 -32 9 -86 9 -86s3 54 8 87l41 338h217zM631 885l-114 -155h-143l68 155h189z" />
    <glyph glyph-name="wacute" unicode="&#x1e83;" horiz-adv-x="788" 
d="M807 533l-161 -533h-188l-62 226c-6 19 -7 54 -7 54s-2 -35 -8 -54l-60 -226h-187l-157 533h227l37 -242c5 -32 8 -73 8 -73s4 39 11 71l58 244h174l57 -244c7 -30 10 -71 10 -71s4 41 8 72l39 243h201zM628 837l-162 -211h-128l102 211h188z" />
    <glyph glyph-name="Wdieresis" unicode="&#x1e84;" horiz-adv-x="868" 
d="M890 680l-167 -680h-212l-70 298c-6 22 -8 73 -8 73s-2 -51 -8 -73l-72 -298h-212l-164 680h247l42 -338c5 -34 6 -91 6 -91s5 58 11 90l65 339h200l67 -339c5 -32 9 -86 9 -86s3 54 8 87l41 338h217zM656 834c0 -50 -40 -93 -90 -93c-51 0 -94 43 -94 93
c0 51 43 92 94 92c50 0 90 -41 90 -92zM423 834c0 -50 -40 -93 -91 -93s-92 43 -92 93c0 51 41 92 92 92s91 -41 91 -92z" />
    <glyph glyph-name="wdieresis" unicode="&#x1e85;" horiz-adv-x="788" 
d="M807 533l-161 -533h-188l-62 226c-6 19 -7 54 -7 54s-2 -35 -8 -54l-60 -226h-187l-157 533h227l37 -242c5 -32 8 -73 8 -73s4 39 11 71l58 244h174l57 -244c7 -30 10 -71 10 -71s4 41 8 72l39 243h201zM613 730c0 -50 -40 -93 -90 -93c-51 0 -94 43 -94 93
c0 51 43 92 94 92c50 0 90 -41 90 -92zM380 730c0 -50 -40 -93 -91 -93s-92 43 -92 93c0 51 41 92 92 92s91 -41 91 -92z" />
    <glyph glyph-name="Ygrave" unicode="&#x1ef2;" horiz-adv-x="560" 
d="M594 680l-199 -421v-259h-233v256l-200 424h258l72 -240l69 240h233zM360 730h-143l-114 155h189z" />
    <glyph glyph-name="ygrave" unicode="&#x1ef3;" horiz-adv-x="503" 
d="M527 533l-166 -526c-49 -152 -133 -240 -278 -240c-47 0 -92 12 -117 23l19 146c21 -8 47 -13 70 -13c40 0 76 17 98 72l-179 538h231l48 -270c4 -28 9 -75 9 -75s4 47 9 75l46 270h210zM327 626h-129l-161 211h188z" />
    <glyph glyph-name="endash" unicode="&#x2013;" horiz-adv-x="468" 
d="M447 232h-426v116h426v-116z" />
    <glyph glyph-name="emdash" unicode="&#x2014;" horiz-adv-x="815" 
d="M795 232h-774v116h774v-116z" />
    <glyph glyph-name="quoteleft" unicode="&#x2018;" horiz-adv-x="286" 
d="M257 492c0 -45 -45 -141 -95 -141c-48 0 -139 65 -139 188c0 147 113 213 200 236l27 -75c-54 -18 -90 -55 -90 -97c0 -41 37 -67 85 -85c9 -4 12 -14 12 -26z" />
    <glyph glyph-name="quoteright" unicode="&#x2019;" horiz-adv-x="286" 
d="M262 577c0 -146 -114 -213 -201 -235l-27 74c54 18 90 55 90 97s-37 68 -85 86c-9 3 -12 13 -12 26c0 45 45 141 95 141c48 0 140 -66 140 -189z" />
    <glyph glyph-name="quotesinglbase" unicode="&#x201a;" horiz-adv-x="299" 
d="M263 24c0 -147 -114 -213 -201 -236l-27 74c54 18 90 56 90 97c0 42 -37 68 -84 86c-9 3 -13 14 -13 26c0 45 45 141 95 141c48 0 140 -65 140 -188z" />
    <glyph glyph-name="quotedblleft" unicode="&#x201c;" horiz-adv-x="540" 
d="M257 492c0 -45 -45 -141 -95 -141c-48 0 -139 65 -139 188c0 147 113 213 200 236l27 -75c-54 -18 -90 -55 -90 -97c0 -41 37 -67 85 -85c9 -4 12 -14 12 -26zM511 492c0 -45 -45 -141 -95 -141c-48 0 -140 65 -140 188c0 147 114 213 201 236l27 -75
c-54 -18 -90 -55 -90 -97c0 -41 37 -67 84 -85c9 -4 13 -14 13 -26z" />
    <glyph glyph-name="quotedblright" unicode="&#x201d;" horiz-adv-x="540" 
d="M262 577c0 -146 -114 -213 -201 -235l-27 74c54 18 90 55 90 97s-37 68 -85 86c-9 3 -12 13 -12 26c0 45 45 141 95 141c48 0 140 -66 140 -189zM515 577c0 -146 -114 -213 -200 -235l-27 74c54 18 90 55 90 97s-37 68 -85 86c-9 3 -12 13 -12 26c0 45 45 141 95 141
c48 0 139 -66 139 -189z" />
    <glyph glyph-name="quotedblbase" unicode="&#x201e;" horiz-adv-x="553" 
d="M263 24c0 -147 -114 -213 -201 -236l-27 74c54 18 90 56 90 97c0 42 -37 68 -84 86c-9 3 -13 14 -13 26c0 45 45 141 95 141c48 0 140 -65 140 -188zM516 24c0 -147 -113 -213 -200 -236l-27 74c54 18 90 56 90 97c0 42 -37 68 -85 86c-9 3 -12 14 -12 26
c0 45 45 141 95 141c48 0 139 -65 139 -188z" />
    <glyph glyph-name="dagger" unicode="&#x2020;" horiz-adv-x="454" 
d="M417 397l-161 60c7 -69 61 -175 63 -180c0 0 -63 -177 -63 -459h-58c0 282 -62 459 -62 459c3 5 57 111 64 180l-163 -60v182l158 -59l-62 215h188l-62 -215l158 59v-182z" />
    <glyph glyph-name="daggerdbl" unicode="&#x2021;" horiz-adv-x="454" 
d="M417 -24l-158 59l62 -215h-188l62 215l-158 -59v182l163 -60c-7 70 -61 173 -65 178c4 6 58 112 65 181l-163 -60v182l158 -59l-62 215h188l-62 -215l158 59v-182l-161 60c7 -69 60 -174 63 -180c-3 -5 -56 -109 -63 -179l161 60v-182z" />
    <glyph glyph-name="bullet" unicode="&#x2022;" horiz-adv-x="352" 
d="M318 335c0 -79 -65 -142 -141 -142c-78 0 -143 63 -143 142c0 78 65 143 143 143c76 0 141 -65 141 -143z" />
    <glyph glyph-name="ellipsis" unicode="&#x2026;" horiz-adv-x="956" 
d="M922 98c0 -63 -45 -114 -103 -114c-59 0 -107 51 -107 114s48 114 107 114c58 0 103 -51 103 -114zM584 98c0 -63 -45 -114 -104 -114c-58 0 -107 51 -107 114s49 114 107 114c59 0 104 -51 104 -114zM246 98c0 -63 -45 -114 -104 -114s-107 51 -107 114s48 114 107 114
s104 -51 104 -114z" />
    <glyph glyph-name="perthousand" unicode="&#x2030;" horiz-adv-x="1035" 
d="M1019 168c0 -109 -68 -180 -162 -180c-95 0 -156 72 -156 179c0 112 73 180 163 180c91 0 155 -70 155 -179zM334 513c0 -109 -69 -180 -163 -180s-155 72 -155 179c0 112 72 180 162 180c92 0 156 -70 156 -179zM581 657l-405 -683l-61 44l405 682zM683 168
c0 -109 -68 -180 -162 -180c-95 0 -156 72 -156 179c0 112 73 180 163 180c91 0 155 -70 155 -179zM899 167c0 51 -18 77 -42 77c-19 0 -36 -25 -36 -77s19 -76 42 -76c19 0 36 24 36 76zM214 512c0 50 -18 77 -41 77c-20 0 -37 -25 -37 -77s20 -76 42 -76c19 0 36 24 36 76
zM564 167c0 50 -18 77 -42 77c-19 0 -36 -25 -36 -77s19 -76 42 -76c19 0 36 24 36 76z" />
    <glyph glyph-name="guilsinglleft" unicode="&#x2039;" horiz-adv-x="354" 
d="M330 43h-156l-146 234l146 235h156l-148 -235z" />
    <glyph glyph-name="guilsinglright" unicode="&#x203a;" horiz-adv-x="354" 
d="M326 277l-146 -234h-156l150 234l-150 235h156z" />
    <glyph glyph-name="fraction" unicode="&#x2044;" horiz-adv-x="120" 
d="M312 654l-438 -677l-67 43l442 679z" />
    <glyph glyph-name="Euro" unicode="&#x20ac;" horiz-adv-x="562" 
d="M539 204l-10 -180c-36 -21 -102 -35 -165 -35c-171 0 -261 97 -290 239h-79l25 88h47v20c0 12 1 26 1 26h-73l26 89h59c37 146 139 241 315 241c56 0 114 -15 143 -32l-17 -171c-28 12 -70 22 -108 22c-44 0 -79 -24 -96 -60h165l-28 -89h-157v-19c0 -14 1 -27 1 -27h143
l-25 -88h-98c19 -34 50 -55 96 -55c44 0 93 13 125 31z" />
    <glyph glyph-name="trademark" unicode="&#x2122;" horiz-adv-x="963" 
d="M881 290h-143l-13 184l-60 -184h-93l-60 183l-9 -183h-130l33 393h154l69 -188l67 188h152zM370 577h-85v-287h-144v287h-85v106h314v-106z" />
    <glyph glyph-name="minus" unicode="&#x2212;" horiz-adv-x="504" 
d="M448 280h-392v133h392v-133z" />
    <glyph glyph-name="approxequal" unicode="&#x2248;" horiz-adv-x="504" 
d="M470 472c-36 -80 -88 -124 -154 -124c-59 0 -106 67 -143 67c-31 0 -48 -30 -69 -63l-71 70c35 79 88 124 155 124c57 0 106 -67 143 -67c30 0 48 28 68 63zM470 266c-36 -80 -88 -124 -154 -124c-59 0 -106 67 -143 67c-31 0 -48 -30 -69 -63l-71 70
c35 79 88 124 155 124c57 0 106 -67 143 -67c30 0 48 28 68 63z" />
    <glyph glyph-name="notequal" unicode="&#x2260;" horiz-adv-x="504" 
d="M155 64l-88 57l33 57h-44v133h121l38 67h-159v133h236l57 98l87 -54l-25 -44h37v-133h-114l-38 -67h152v-133h-228z" />
    <glyph glyph-name="lessequal" unicode="&#x2264;" horiz-adv-x="504" 
d="M60 179h186l-186 105v125l384 218v-152l-241 -128l241 -127v-176h-384v135z" />
    <glyph glyph-name="greaterequal" unicode="&#x2265;" horiz-adv-x="504" 
d="M60 219l241 127l-241 128v153l384 -218v-125l-186 -105h186v-135h-384v175z" />
    <glyph glyph-name="circumflex.alt" unicode="&#xe285;" 
d="M446 626h-132l-33 61l-35 -61h-129l73 155h182z" />
    <glyph glyph-name="acute.alt" unicode="&#xe286;" 
d="M456 781l-114 -155h-143l68 155h189z" />
    <glyph glyph-name="grave.alt" unicode="&#xe287;" 
d="M365 626h-143l-114 155h189z" />
    <glyph glyph-name="caron.alt" unicode="&#xe288;" 
d="M447 781l-75 -155h-180l-75 155h131l34 -61l35 61h130z" />
    <glyph glyph-name="hungarumlaut.alt" unicode="&#xe289;" 
d="M306 781l-114 -155h-131l68 155h177zM538 781l-114 -155h-131l68 155h177z" />
    <glyph glyph-name="commaaccent" unicode="&#xf6c3;" 
d="M386 -52l-92 -187h-132l35 187h189z" />
    </font>
</defs>
</svg>
