<?xml version="1.0" encoding="UTF-8"?><svg id="Layer_1" xmlns="http://www.w3.org/2000/svg" viewBox="0 0 946.53 1002.61"><path d="M473.94,87.39c56.58-141.42,262.28-96.85,288.89,41.34,87.05,17.53,137.78,108.8,114.11,193.34,78.85,53.7,92.88,171.62,30.84,243.67,48.17,78.56,15.71,184.16-66.45,223.77,1.38,70.2-39.58,130.39-103.09,158.18-7.67,3.36-23.11,6.71-28.35,9.75-2.57,1.49-7.86,9.96-11.92,13.48-71.57,61.95-187.67,27.48-224.92-56.15-42.11,86.51-148.65,116.62-226.74,56.15-5.07-3.93-9.54-11.07-14.83-14.2-9.87-5.84-26.72-9.25-38.78-15.65-54.02-28.67-90.46-90.03-89.79-151.52C30.22,751.74-1.93,670.93,23.94,592.63c1.9-5.75,11.26-23.01,10.67-26.75-55.1-74.26-44.75-189.7,33.54-243.08-21.62-87.55,27.22-173.02,115.09-194.11C204.34,16.42,356.2-45.01,441.37,39.24c14.26,14.11,21.56,32.41,32.56,48.15ZM322.97,40.73c-41.22,4.95-79.79,37.59-95.33,75.22-3.88,9.38-9.33,37.25-13.9,42.34-5.39,6.01-19.55,6.22-27.41,8.88-61.69,20.9-93.58,71.24-82.24,136.78,2.18,12.62,9.7,22.94,4.26,35.64-3.93,9.17-17.41,13.61-25.35,20-52.86,42.51-58.44,122.35-20.57,176.52,5.23,7.49,17.34,17.69,17.92,25.76.93,12.95-7.79,17.88-12.5,27.5-27.79,56.9-12.97,130.14,44.48,161.72,8.38,4.61,22.42,7.05,27.5,14.23,6.89,9.75,1.37,23.8,2.03,36.08,2.38,44.7,33.68,90.26,73.77,109.47,11.46,5.49,27.08,8.07,37.58,15.04,24.78,16.46,29.76,32.92,66.13,37.29,81.42,9.79,133.04-57,134.75-132.76-2.82-229.58,5.3-459.95-4.21-689.05-12.77-67.17-55.32-109.27-126.91-100.68ZM532.65,68.07c-26.73,26.44-37.72,65.21-40.63,101.8l.09,667.74c4.09,82.09,72.6,149.33,156.96,117.09,23.93-9.15,27.09-22.4,42.73-31.65,6.1-3.61,15.38-4.19,22.11-6.92,47.28-19.22,82.41-54.02,86.59-107.55,1.1-14.03-4.23-31.49,3.92-43.25,5-7.21,16.7-9.07,24.53-13.57,53.58-30.77,77.08-92.14,54.09-150.86-3.44-8.79-19.17-30.89-18.68-36.77.86-10.12,16.26-23.52,22.17-32.38,35.48-53.15,27.02-128.22-22.49-169.5-7.1-5.92-25.9-15.06-28.23-22.56-3.34-10.75,4.08-28.04,5.91-39.64,8.6-54.53-18.88-109.23-71.57-128.76-9.37-3.47-33.59-6.52-38.63-12.17-4.37-4.89-8.54-30.71-12.31-40.3-28.1-71.47-128.12-108.57-186.57-50.75Z" fill="currentColor"/><path d="M322.97,40.73c71.59-8.59,114.14,33.51,126.91,100.68,9.51,229.09,1.38,459.47,4.21,689.05-1.71,75.76-53.33,142.55-134.75,132.76-36.37-4.37-41.35-20.83-66.13-37.29-10.49-6.97-26.12-9.55-37.58-15.04-40.09-19.22-71.39-64.77-73.77-109.47-.65-12.28,4.86-26.33-2.03-36.08-5.08-7.18-19.12-9.63-27.5-14.23-57.45-31.58-72.27-104.82-44.48-161.72,4.7-9.63,13.43-14.55,12.5-27.5-.58-8.07-12.69-18.28-17.92-25.76-37.87-54.17-32.29-134.01,20.57-176.52,7.94-6.38,21.42-10.82,25.35-20,5.44-12.7-2.07-23.02-4.26-35.64-11.34-65.54,20.55-115.88,82.24-136.78,7.86-2.66,22.02-2.87,27.41-8.88,4.57-5.1,10.02-32.96,13.9-42.34,15.54-37.63,54.11-70.27,95.33-75.22ZM337.88,450.26v-39.01c0-2.6-5.78-21.67-7.18-25.48-13.08-35.52-48.96-64.73-88.05-62.49-5.58.32-12.08,5.21-15.44.87v-27.22c0-29.53,24.21-52.19,48.34-64.15,4.35-2.16,34.06-15.76,36.02-15.82,9.14-.28,27.78,15.43,32.13,23.36,2.4,4.38,4.87,13.39,5.17,18.46.94,16.24-13.18,33.53,9.05,41.74,27.05,10,30.53-27.04,29.03-45.38-2.64-32.3-21.39-54.43-49.04-68.98,11.99-17.71,33.85-75.78-6.16-71.43-17.05,1.85-13.43,16.65-17.15,28.27-19.69,61.46-64.91,44.87-100.03,88.66-42.42,52.9-18.94,111.61-23.56,170.57-1.95,24.81-14.76,58.69-42.86,62.38-13.12,1.72-43.47-5.04-46.08,15.74-4.1,32.58,48.68,24.51,67.06,17.94,52.45-18.74,62.37-83.1,60.8-131.52,22.19-14.02,48.59,2.58,60.45,23.05,23.8,41.07-2.44,81.43-5.17,122.95-3.01,45.76,14.44,88.02,60.35,103.09,17.13,5.63,48.73,10.17,44.88-17.6-2.36-17.01-16.08-13.16-27.22-16.39-43.47-12.62-48.21-55.64-34.13-93.27,19.43,3.21,79.24-10.04,56.03-39.3-12.56-15.83-31.66,3.17-47.21.95ZM303.4,764.18c1.38,2.1-15.88,19.05-18.88,23.71-18.36,28.54-18.42,70.58,4.42,96.87,17.53,20.17,46.45,6.72,36.38-16.43-2.31-5.32-9.01-9.32-12.04-15.17-14.65-28.34,6.14-55.95,30.19-69.82,17.11-9.86,84.59-26.99,59.77-58.24-16.16-20.34-40.07,13.58-60.84,13.29-42.5-.58-44.33-67.02-52.59-95.81-16.82-58.6-60.21-87.31-121.32-81.41-17.76,1.71-47.76,10.98-35.38,34.92,8.59,16.62,32.78,4.21,46.26,3.19,30.64-2.32,54.78,8.44,68.15,36.62,3.72,7.84,15.56,43.68,7.34,48.4-15.07,8.65-36.68,9.64-52.46,2.16-13.32-6.31-16.7-21.52-33.72-18.05-13.34,2.71-18.01,18.55-10.41,29.52,22.44,32.39,75.97,41.12,109.81,22.9,10.09,15.52,16.64,35.84,35.33,43.35Z" fill="currentColor"/><path d="M532.65,68.07c58.45-57.83,158.47-20.72,186.57,50.75,3.77,9.59,7.94,35.42,12.31,40.3,5.05,5.65,29.26,8.69,38.63,12.17,52.69,19.53,80.17,74.23,71.57,128.76-1.83,11.6-9.25,28.89-5.91,39.64,2.33,7.5,21.13,16.64,28.23,22.56,49.51,41.28,57.97,116.35,22.49,169.5-5.91,8.85-21.31,22.26-22.17,32.38-.5,5.87,15.23,27.97,18.68,36.77,22.98,58.73-.51,120.09-54.09,150.86-7.83,4.5-19.53,6.36-24.53,13.57-8.16,11.76-2.83,29.22-3.92,43.25-4.18,53.53-39.31,88.33-86.59,107.55-6.73,2.73-16,3.31-22.11,6.92-15.65,9.25-18.81,22.51-42.73,31.65-84.36,32.25-152.87-35-156.96-117.09l-.09-667.74c2.91-36.59,13.9-75.36,40.63-101.8ZM662.14,138.72c-12.62-10.52-37.31.47-48.5,9.43-33.51,26.84-37.28,73.96-11.61,107.82,11.39,15.03,35.45,29.71,34.58,51.61-.68,17.25-18.89,40.22-37.54,36.69-20.5-3.88-25.27-31.18-47.63-26.06-6.66,1.52-13.03,10.55-13.41,17.1-.55,9.58,9.79,21.73,16.72,27.81,61.59,54.04,156.56-23.3,103.2-99.57-12.07-17.24-33.5-28.79-35.28-51.79-1.22-15.73,4.53-31.86,19.59-38.62,11.92-5.35,28.83-2.98,25.78-23.02-.37-2.45-4.22-9.99-5.9-11.39ZM715.31,484.75c-12.87-26.51-14.53-52.02,1.01-77.88,12.07-20.09,33.22-32.77,45.8-52.18,17.95-27.71,23.25-67.91,10.26-98.53-5.72-13.49-19.02-28.81-33.6-15.53-13.72,12.49,2.18,30.58,3.68,45.46,4.91,48.63-34.11,64.99-56.96,99.03-22.55,33.59-23.15,77.38-5.19,113.26-20.63,19.19-36.38,41.62-42.13,69.85l-1.82,1.75c-8.78-5.48-19.72-7.7-29.94-7.23,6.91-27.3-3.09-61.24-26.32-78-19.81-14.28-41.53-1.88-32.18,21.3,2.42,5.99,10.19,8.86,14.12,13.1,13.28,14.34,13.89,34.84-.09,49.03-11.3,11.47-43.11,18.01-31.49,40.61,14.29,27.81,46.42-9.84,67.8-9.88,52.5-.09,72.32,59.76,31.6,93.42-33.28,27.51-65.6,35.69-75.55,85.92-20.11,101.5,105.29,137.65,136.99,48.08,4.64-13.12,6.51-32.01-11.5-34.88-22.3-3.54-21.17,16.66-28.84,30.82-19.75,36.44-63.82,14.42-60.91-26.45,3.26-45.83,44.48-57.74,73.9-84.01,51.47,15.27,106.23-5.81,131.52-53.47,7.7-14.51,19.84-45.82-.8-54.3-23.84-9.8-25.3,17.89-30.79,31.78-13.19,33.38-44.49,48.25-79.44,41.22,2.52-12.14,4.62-24.48,3.42-36.96-3.21-33.49-24.39-42.03-7.92-80.93,30.55-72.16,100.81-13.81,139.7-61.69,10.89-13.41,27.1-52.37,1.38-57.65-30.11-6.19-18.35,34.38-40.9,41.72-18.24,5.93-45.63-6.96-64.78,3.22Z" fill="currentColor"/><path d="M337.88,450.26c15.55,2.22,34.66-16.78,47.21-.95,23.21,29.27-36.6,42.51-56.03,39.3-14.08,37.63-9.34,80.65,34.13,93.27,11.14,3.23,24.86-.62,27.22,16.39,3.85,27.76-27.75,23.22-44.88,17.6-45.91-15.08-63.35-57.33-60.35-103.09,2.73-41.52,28.96-81.88,5.17-122.95-11.86-20.47-38.26-37.07-60.45-23.05,1.57,48.42-8.35,112.78-60.8,131.52-18.38,6.57-71.16,14.64-67.06-17.94,2.61-20.78,32.96-14.02,46.08-15.74,28.1-3.69,40.91-37.57,42.86-62.38,4.62-58.96-18.86-117.67,23.56-170.57,35.12-43.79,80.34-27.21,100.03-88.66,3.73-11.63.11-26.42,17.15-28.27,40.01-4.35,18.15,53.73,6.16,71.43,27.65,14.55,46.4,36.68,49.04,68.98,1.5,18.34-1.97,55.38-29.03,45.38-22.22-8.21-8.1-25.5-9.05-41.74-.3-5.08-2.77-14.08-5.17-18.46-4.35-7.93-22.99-23.64-32.13-23.36-1.97.06-31.67,13.67-36.02,15.82-24.13,11.96-48.34,34.62-48.34,64.15v27.22c3.36,4.33,9.86-.56,15.44-.87,39.09-2.24,74.98,26.97,88.05,62.49,1.4,3.81,7.18,22.87,7.18,25.48v39.01Z" fill="currentColor"/><path d="M303.4,764.18c-18.69-7.51-25.24-27.84-35.33-43.35-33.83,18.22-87.37,9.48-109.81-22.9-7.6-10.97-2.94-26.81,10.41-29.52,17.02-3.46,20.41,11.74,33.72,18.05,15.78,7.48,37.38,6.5,52.46-2.16,8.22-4.72-3.62-40.55-7.34-48.4-13.36-28.18-37.51-38.93-68.15-36.62-13.49,1.02-37.67,13.42-46.26-3.19-12.37-23.94,17.62-33.2,35.38-34.92,61.12-5.89,104.5,22.82,121.32,81.41,8.27,28.79,10.09,95.23,52.59,95.81,20.78.28,44.69-33.64,60.84-13.29,24.82,31.26-42.66,48.38-59.77,58.24-24.05,13.86-44.84,41.48-30.19,69.82,3.02,5.85,9.73,9.85,12.04,15.17,10.07,23.15-18.85,36.6-36.38,16.43-22.84-26.29-22.78-68.33-4.42-96.87,3-4.66,20.26-21.61,18.88-23.71Z" fill="currentColor"/><path d="M715.31,484.75c19.15-10.18,46.55,2.71,64.78-3.22,22.55-7.34,10.79-47.91,40.9-41.72,25.72,5.29,9.51,44.24-1.38,57.65-38.89,47.88-109.15-10.46-139.7,61.69-16.47,38.9,4.71,47.44,7.92,80.93,1.2,12.48-.89,24.82-3.42,36.96,34.94,7.03,66.24-7.84,79.44-41.22,5.49-13.89,6.95-41.58,30.79-31.78,20.64,8.48,8.49,39.79.8,54.3-25.29,47.66-80.05,68.74-131.52,53.47-29.42,26.27-70.63,38.18-73.9,84.01-2.91,40.87,41.17,62.9,60.91,26.45,7.67-14.16,6.54-34.37,28.84-30.82,18.01,2.86,16.14,21.76,11.5,34.88-31.7,89.57-157.1,53.42-136.99-48.08,9.95-50.23,42.27-58.41,75.55-85.92,40.72-33.66,20.9-93.51-31.6-93.42-21.38.04-53.51,37.69-67.8,9.88-11.62-22.61,20.2-29.14,31.49-40.61,13.98-14.2,13.37-34.7.09-49.03-3.92-4.24-11.7-7.11-14.12-13.1-9.35-23.17,12.37-35.58,32.18-21.3,23.24,16.75,33.24,50.69,26.32,78,10.22-.48,21.16,1.75,29.94,7.23l1.82-1.75c5.75-28.23,21.5-50.66,42.13-69.85-17.96-35.87-17.36-79.67,5.19-113.26,22.85-34.04,61.87-50.4,56.96-99.03-1.5-14.87-17.4-32.97-3.68-45.46,14.59-13.27,27.88,2.04,33.6,15.53,12.99,30.62,7.69,70.82-10.26,98.53-12.58,19.41-33.72,32.09-45.8,52.18-15.54,25.86-13.89,51.37-1.01,77.88Z" fill="currentColor"/><path d="M662.14,138.72c1.68,1.4,5.53,8.94,5.9,11.39,3.05,20.05-13.86,17.68-25.78,23.02-15.06,6.76-20.81,22.89-19.59,38.62,1.78,23,23.22,34.55,35.28,51.79,53.37,76.27-41.61,153.61-103.2,99.57-6.93-6.08-17.27-18.23-16.72-27.81.38-6.55,6.75-15.57,13.41-17.1,22.36-5.12,27.12,22.19,47.63,26.06,18.65,3.53,36.85-19.44,37.54-36.69.87-21.9-23.19-36.58-34.58-51.61-25.66-33.85-21.9-80.98,11.61-107.82,11.18-8.96,35.88-19.95,48.5-9.43Z" fill="currentColor"/></svg>