<?xml version="1.0" encoding="UTF-8"?>
<svg id="Layer_1" xmlns="http://www.w3.org/2000/svg" version="1.1" viewBox="0 0 300 300">
  <!-- Generator: Adobe Illustrator 29.4.0, SVG Export Plug-In . SVG Version: 2.1.0 Build 152)  -->
  <defs>
    <style>
      .st0 {
        fill: #444;
      }

      .st1 {
        fill: #474747;
      }

      .st2 {
        fill: #828282;
      }

      .st3 {
        fill: #6c6c6c;
      }

      .st4 {
        fill: #7c7c7c;
      }

      .st5 {
        fill: #595959;
      }

      .st6 {
        fill: #0a0a0a;
      }

      .st7 {
        fill: #777;
      }

      .st8 {
        fill: #9a9a9a;
      }

      .st9 {
        fill: #5c5c5c;
      }

      .st10 {
        fill: #c9c9c9;
      }

      .st11 {
        fill: #797979;
      }

      .st12 {
        fill: #c7c7c7;
      }

      .st13 {
        fill: #a0a0a0;
      }

      .st14 {
        fill: #0b0b0b;
      }

      .st15 {
        fill: #fff;
      }

      .st16 {
        fill: #a3a3a3;
      }

      .st17 {
        fill: #959595;
      }

      .st18 {
        fill: #080808;
      }

      .st19 {
        fill: #8b8b8b;
      }

      .st20 {
        fill: #818181;
      }

      .st21 {
        fill: #0c0c0c;
      }

      .st22 {
        fill: #838383;
      }

      .st23 {
        fill: #555;
      }

      .st24 {
        fill: #090909;
      }
    </style>
  </defs>
  <path class="st5" d="M62.44,33.48c-.03.23.05.51,0,.72h-1.07c.02-.66.83-.55,1.07-.72Z"/>
  <path class="st3" d="M264.63,126.88c0-.52.2-.92.72-1.07-.24.38-.49.72-.72,1.07Z"/>
  <g>
    <g>
      <path class="st21" d="M33.09,83.94c.13,1.53-1.26,6.25-1.43,8.41-.72,9.24.51,19.61,2.88,28.54.08.3.69.25.69.48.04,2.29.54,1.12.73,1.83,1.77,6.78,4.08,11.48,7.88,17.44.72,1.13,3.03,3.57,3.39,4.5.32.81-.95,2.54.9,3.38,1.58.71,3.3-.51,4.64-1.24.25.88.48,1.79.43,2.71-.96,17.26-1.42,31.31,2.11,48.49,7.65,37.18,33.62,76.62,73.59,82.48,20.77,3.05,35.18-3.74,51.67-14.96.85-.14,1.56-.77,2.12-1.89,11.04-8.2,19.01-20.37,25.27-32.47.98-1.09,1.29-1.66,1.7-2.97,3.54-7.66,6.31-16.39,8.72-24.83.83-.72,1.87-1.06,3.11-1.02.11-.28.34-.85.6-.98,1.98-1.02,3.86-1.87,6.01-2.49.09-.81.65-1.32,1.28-1.77,10.6-5.58,17.91-13.39,19.16-25.88s-8.7-26-21.48-25.04l-7.18.87-1.08-.6c3.93-2.17,10.37-2.02,14.75-.97,6.35,1.53,6.75,4.1,11.01,7.95.57.52,3.02,2.71,3.58,2.32.19-.13,1.04-3.73,1.25-4.48,2.16-7.59,5.15-11.06,9.85-16.99.16.84-.3,1.09-.71,1.62-1.34,1.76-3.28,3.79-4.4,5.63-1.72,2.82-2.84,6.13-4.44,9.02,6.26,8.82,7.74,18.51,4.79,28.89-3.7,13.03-14.34,22.82-25.91,29.2-.7.39-3.58,1.34-3.69,1.51-.09.13.34,2.03.11,3.11-.34,1.55-1.21,2.15-1.44,2.67-.08.19.23.69.11,1.01-.94,2.4-1.65,3.44-2.12,5.83-.4,2.05-1.47,1.5-1.66,1.68-.11.1.3.83.26,1.2-.07.6-.65,1.09-.81,1.65-.28.97.54,2.1-1.59,2.51l.71.35c.31.94-.51.54-.7.97-2.5,5.59-5.56,11.18-8.86,16.45-.56.89-1.12,1.27-1.89,1.9-.67,1.09-1.27,2.17-1.79,3.22-.08.12-.25.21-.36.36-1.76,2.58-3.79,4.73-6.08,6.44-2.21,3.29-4.03,5-7.04,7.64-.68.59-3.91,2.87-4.06,3.1-.94,1.4-2.26,2.47-3.94,3.22-1.05,1.43-8,6.07-9.43,6.07-.38,0-.85-.42-1.3-.34.85,1.34-1.47,2.1-2.62,2.57-5,2.03-10.44,4.16-15.85,5.27-1.18.24-2.38.74-2.52.77-.67.12-1.31-.42-1.71-.39-.22.01-.17.73-.4.74-8.12.43-15.83,1.16-24.2-.47-22.37-4.37-42.53-19.78-55.38-38.1-1.68-2.4-3.13-5.1-4.66-7.6l-.72-1.43c-.27-.46-1.33-2.39-1.43-2.5-.35-.17-.59-.53-.72-1.07-11.39-22.57-16.24-43.84-17.19-69.23-.15-4.03.49-8,.01-12-1.11.55-1.62-.24-2.35-.35-1.59-.24-3.93-.19-5.61.08-5.66.91-9.09,3.79-11.07,8.97-3.61,9.43-1.76,18.62,3.71,26.86.45.67,1.99,3.25,2.15,3.38.21.18,1.01,0,1.57.39s2.28,2.77,3.29,3.6c.65.53,2.12,1.62,2.83,2.1,1.3.88,2.64.42,2.96,2.41.44,2.71-.2,3.27-3.02,3.04-6.87-.58-18.43-15.41-20.08-21.85-.15-.59.2-1.3.16-1.38-.06-.11-.71-.09-.95-.64-.35-.82-1.05-4.84-.98-5.69.05-.53,1.48-1.47-.17-1.06.43-1.06-.03-2.08-.03-3.22.04-6.29,3.04-14.77,7.55-18.95.79-.74,4-2.97,5-3.27.63-.18,1.32.22,1.39.17.15-.1.15-.89.6-.98.3-.06.81.33,1.32.24.8-.15,3.05-1.24,4.06-1.35,2.9-.31,5.55.73,8.37,1.07,1.57-4.57-1.35-6.12-3.37-9.34s-4.01-6.95-5.58-10.35l-.72-1.43c-3.14-7.69-5.41-18-5.74-26.65-.23-5.95.14-11.22,1.26-17.04.12-.6.03-1.25.9-1.05Z"/>
      <path class="st0" d="M187.69,270.74c-.07.12.21.61-.24,1.09-.67.72-2.64,2.11-3.7,2.13.14-.19.55-.2.7-.64.12-.34-.07-1.04.02-1.15.1-.13,2.6,1.08,1.79-1.43h1.43Z"/>
      <path class="st9" d="M204.86,253.56c-.96,1.33-2.12,3.3-3.39,4.66-.71.76-1.52,1.9-2.69,1.78.3-.45,1.03-.63,1.25-1.08s.09-1.25.22-1.38c.14-.14.93.03,1.38-.22,1.09-.62,1.46-3.55,3.24-3.75Z"/>
      <path class="st20" d="M205.22,253.2c-.87-.99.69-.83.74-1.32.04-.35-.4-.87-.22-1.21s.98-.46,1.27-.69c-.06,1.48-1.04,2.18-1.79,3.22Z"/>
      <path class="st2" d="M63.51,238.53c-.06-.07-.56.12-.69-.03-.17-.19.06-.87-.03-1.04.51.15.69.56.72,1.07Z"/>
      <path class="st19" d="M65.66,242.47c-.4-.66-.53-1.13-.72-1.43l.72,1.43Z"/>
      <g>
        <path class="st15" d="M71.74,136.54c5.05-1.98,10.1-4.06,15.37-5.38.25-4.21-.33-8.46.02-12.68.46-5.54,2.38-14.85,6.24-18.81,2.73-2.79,1,2.11.92,2.71-.39,2.94-.62,6.15-.94,9-.41,3.67-.75,11.11,1.27,14.25,1.46,2.27,5.07.84,7.41.66,10.55-.81,21.05-1.9,31.8-1.94,6.22-.02,12.35.58,18.59,1.1,1.11.09,4.01,1.39,4.05-.1-.31-1.89-.48-4.27-.45-6.17.12-6.17,1.97-16.48,6.25-21.1,1.52-1.64,1.76-.71,1.77,1.07.03,2.79-.64,6-.62,8.68.03,4.02,1.73,11.19,2.88,15.19.2.71,1.9,5.38,2.13,5.57.22.18,3.44.91,4.21,1.15,2.16.44,2.5.78,1.04,1.02l-.33.41c-8.78.81-19.9,3.24-26.5,9.47-1.7,1.6-8.12,9.84-3.66,10.85,2.44.56,2.33-1.17,3.67-2.62,8.32-8.93,17.6-9.12,29.17-10.19,4.9-.45,10.1-.9,14.7-1.43,1.55-.18,2.8.87,3.73,1.97-1.51.38-.25,1.52-.34,2.46-.03.26-.61.25-.74.47-.45.76-.23,5.03-.44,6.29s-1.7,2.86-.28,4.56h-1.08c-.2.68.45,1.14.52,1.63.08.59-.23,1.74-.14,2.08.13.49,1.07,2.71,1.23,3.4.23,1.02.15,2.68.34,3.63.09.44,1.46,3.03,1.8,3.57.51.83,4.46,6.4,4.84,6.6.47.25.92.22,1.43.2l-.74.55c.06.17-.02.37.02.52,1.03.77,1.98,1.49,2.86,2.15.4.13,3.1.83,3.22.71-.25-1.05-.28-2.31-.45-3.3-.66-3.98-.62-4.26,0-8.07.93-5.71,1.28-9.3,5.1-14.23.24-.31.74-.39.95-.65,2.37-2.81,2.85-3.03,6.21-4.89,1.49-.18,3.08-.25,4.56-.47,4.18-.61,6.2-1.14,10.47.29,3.1,1.04,6.14,3.09,8.38,5.58,3.67,4.07,6.48,9.16,7.14,14.69.44,3.68-.8,10.54-2.25,14.1-1.36,3.36-6.04,9.24-9,11.75-2.1,1.78-7.75,4.52-9.04,5.91-.34.37-.16.94-.27,1.04-.24.22-4.66,1.5-6.04,2.4-.47.31-.57.99-.82,1.14-.62.41-2.37.13-2.95.81-.97,3.72-2.22,7.33-3.3,11.02-1.39,4.74-3.62,9-5.13,13.77-.1.32-.7.26-.71.47,0,.34.51.94.35,1.18-.07.1-.81.17-1.22.77-1.37,2.03-2.6,4.98-3.92,7.19-4.4,7.31-9.37,14.54-15.37,20.6-1.94,1.97-5.05,3.89-7.05,6.01-.3.32-.23,1.04-.41,1.19-.24.2-.95.03-1.33.27-7.91,4.95-13.46,9.25-22.41,12.31-28.52,9.75-57.54-2.32-76.96-24.45-12.88-14.68-21.86-34.07-26.34-53.28-4.14-17.72-4.44-35.88-2.42-53.95,4.05-2.21,8.02-5.52,12.2-7.66,1.18-.61,4.58-1.42,5.34-2.36.33-.34.81-.58,1.43-.72Z"/>
        <g>
          <g>
            <path class="st18" d="M109.69,172.34c.16-.16,1.67.07,2.13-.02,1.24,11.27-11.89,27.42-23.27,18.44-14.32-11.31-2.81-44,14.67-36.86.71.29,2.63,1.27,2.18,2.15-.71,1.38-1.8,2.25-2.45,4.01-1.43,3.83-1.87,9.14-.7,13.06.89,2.96,3.18,5.48,5.98,2.61,1.14-1.17,1.31-3.25,1.45-3.38Z"/>
            <path class="st18" d="M159.42,155.15c3.41-2.17,6.7-3.16,10.73-1.97,4.72,1.4,2.66,2,1.52,5.09-1.61,4.36-2.49,8.86-1.87,13.51.26,2,1.38,6.41,4.03,5.84,2.96-.63,2.52-7.08,5.38-5.24.97.62.52,3.26.23,4.39-2.63,10.18-15.53,21.24-25.04,11.47-8.24-8.46-4.85-25.51,3.93-32.38l1.07-.72Z"/>
            <path class="st18" d="M125.06,132.96c.39-.41.68-.39,1.07,0,.26.35,1.6,1.96,1.62,2.09.02.15-.23,2.57-.28,2.97-.27,2.09-1.18,5.16-2.57,6.77-.77.9-1.65.23-.92,1.76-2.4.79-4.64,2.45-7.32,2.13-1.71-.21-3.91-1.4-5.93-1.76-.64-.46-1.4-.42-2.15-.36-7.96-2.03-16.15-3.53-24.56-4.25-2.4-.2-8.52.86-9.53-1.94-1.11-3.07,3.78-3.04,5.62-3.12,8.43-.37,17.9.09,26.05,1.53,2.68.47,7.72,2.22,10.11,2.06,3.83-.26,4.5-4.74,6.34-7.28,1.36-1.87.94-.96,2.44-.6Z"/>
            <path class="st18" d="M127.44,212.53c.9.92,1.07,1.37,2.38,2.09,2.3,1.25,7.47,1.73,5.53,5.4-1.18,2.25-6.02.39-7.81-.62-1.9-1.06-3.63-3.11-4.64-5.02-5.42-10.25-1.41-35.44.28-46.97.34-2.35,1.16-11.65,2.42-12.97.37-.39,1.62-.78,2.15-.74,1.45.13,1.01,2.83.9,3.78-1.02,8.61-3.06,17.3-3.84,26.13-.57,6.48-1.51,21.77,1.07,27.45.44.97,1.04.93,1.57,1.47Z"/>
            <path class="st18" d="M141.34,242.66c1.95-.05,4.85-.39,6.59.37.49.21,1.07.99,1.66,1.22.22.34-.98,2.99-1.32,3.37-.17.19-2.2,1.53-2.36,1.57-1.71.5-7.86.73-9.93.81-3.23.13-8.37.31-11.44-.02-.83-.09-3.12-.49-3.37-1.31-.46-1.5-.57-4.12,1.27-4.7,6.3-.2,12.6-1.14,18.89-1.31Z"/>
            <path class="st24" d="M104.66,265.72c-2.3.64-3.52-.58-5.39-1.66-1-3.48-3.4-7.18-3.72-10.81-.24-2.67,3.38-4.58,4.9-1.73.8,1.49,4.01,10.39,4.18,11.92.09.76.06,1.53.03,2.28Z"/>
            <path class="st24" d="M121.11,273.95c-2.09.42-3.88.45-5.51-1.09s-4.96-8.22-4.87-10.52c.1-2.65,1.71-1.41,2.09-1.67.28-.19.25-1.21.96-1.02,2.34,1.47,2.56,4.12,3.62,6.05,1.42,2.58,3.83,5.08,3.71,8.25Z"/>
            <path class="st24" d="M85.49,238.02c1.42,1.46,1.02,3.21,1.52,5.11s3.22,9.05,1.58,10.27c-.06.05-1.4,0-1.61-.05-2.49-.5-3.72-4-4.33-6.21-.77-2.76-1.4-6.2-.72-8.98.39-.1,2.73-1.03,2.89-1.02.21.02.45.64.68.88Z"/>
            <path class="st24" d="M196.23,231.07c.12.07,1.32,2.06,1.37,2.32.39,2.42-.45,8.46-1.69,10.6-.27.46-2.55,2.53-3.01,2.41-1.06-.28-1.93-3.8-2-4.84-.11-1.88.7-2.93.89-4.29.12-.92-.34-2.81-.12-3.51.14-.45.78-.49,1.06-.84.24-.3.24-1.1.35-1.17.24-.17.92.27,1.24.22.49-.08,1.06-1.38,1.91-.89Z"/>
            <path class="st24" d="M154.74,263.23c.16.11.79,2.87.74,3.36-.15,1.46-3.1,8.4-4.27,9.36s-3.11,1.5-3.52-.46c-.76-3.63.3-4.55,1.53-7.62.72-1.78.73-1.58,1.43-2.85.18-.32-.27-.88-.16-1.04.32-.48,3.96-.95,4.25-.75Z"/>
            <path class="st6" d="M132.15,138.03c.09.05,1.16,1.38,1.21,1.52,1.82,4.64-2.59,12.75-7.74,13.12-1.59.11-2.45.06-3.42-1.27s.26-.65.69-.92c.04-.03-.31-.59,0-.87.53-.48,2.07-.62,2.92-1.05.9-.46,3.12-2.81,3.47-3.69.52-1.32.93-5.38,1.49-6.29.19-.31,1.07-.71,1.39-.54Z"/>
            <path class="st24" d="M184.41,246.79c2.05,1.56-.85,11.19-2.56,12.74-1.22,1.1-2.88,1.32-3.37-.52-.26-.97-.79-3.33.24-3.56l1.44-7.38c.95-.06,1.31-1.15,1.67-1.27.12-.04,2.47-.08,2.57,0Z"/>
            <path class="st24" d="M170.1,257.18c.33.21.69,2.76.64,3.41-.14,1.65-1.62,5.91-2.58,7.25-.86,1.2-3.02,3.16-3.9,1.09-.09-.22-.93-3.19-.91-3.36.03-.35,1.99-6.16,2.25-6.73.69-1.5,3.31-2.44,4.51-1.66Z"/>
            <path class="st6" d="M217.72,182.02c.1.09.98,2.18,1.03,2.37.62,2.34,1.13,7.3-.13,9.38-1.77,2.91-4.39-1.41-4.97-3.23-.08-.24-.44-4.8-.43-5.09.01-.45.81-2.92,1.02-3.04.15-.09,3.35-.5,3.49-.39Z"/>
            <path class="st24" d="M203.51,216.07c.18-.1,2.59-.38,2.78-.28,2.05,1.01,1.35,5.97,1.03,7.85-.35,2.07-.8,4.37-2.69,5.56-.96.17-2.9-3.72-2.95-4.43-.07-1.09.75-6.35,1.15-7.42.1-.26.54-1.21.68-1.28Z"/>
            <path class="st24" d="M75.29,237.08c-1.47.17-3.33-.91-4.06-2.16s-1.4-8.3-.58-9.48,1.85-.52,2.65-.62c.35-.05.74-.67,1.11-.6.47.08,1.11,1.93,1.19,2.41.28,1.7.51,5.32.4,7.03-.03.49-.56,3.33-.7,3.43Z"/>
            <path class="st14" d="M160.43,233.11c-.69.78-3.69.54-4.69.32-.69-.15-5.34-1.82-5.77-2.1-1.03-.67-1.13-3.76-.75-4.27,1.37-1.83,7.88.54,9.46,1.65.79.55,2.37,3.7,1.75,4.4Z"/>
            <path class="st6" d="M210.3,198.14c.33-.2.96.24,1.41.14,1.02-.23.97-1.65,2.05.05,1.28,2.02,1.57,8.23.66,10.57-.61,1.57-1.45,2.27-2.91.98-.2-.18-1.88-2.91-1.92-3.1-.15-.73-.41-5.96-.33-6.68.02-.18.95-1.91,1.04-1.96Z"/>
            <path class="st24" d="M133.89,268.34c.24.3,3.33,5.92,3.48,6.36s.65,2.42.23,2.66c-3.41,1.25-5.42-.54-6.96-3.44-.7-1.31-1.87-4.45-.75-5.69.09-.1,2.32-1.05,2.45-1.03.09.02,1.46,1.02,1.55,1.14Z"/>
            <path class="st6" d="M128.54,233.06c-2.41.58-6.58,4.64-8.74,2.51-.13-.13-1.17-2.09-1.17-2.23,0-2.02,6.68-4.82,8.4-4.84,3.74-.04,2.92,2.18,1.51,4.55Z"/>
            <path class="st6" d="M114.23,229.31c.83-.14,3.81-.32,4.24.26.47.64-1.02,3.57-1.63,4.13-1.2,1.11-6.94,3.38-8.23,2.13-3.29-3.2,3-6.08,5.62-6.52Z"/>
            <path class="st14" d="M139.39,228.88c.09-.09,2.11-.24,2.5-.21,1.66.13,7.92,2.34,7.77,4.31-.07.87-2.72,2.25-3.67,2.34-1.15.1-5.52-1.18-6.21-2.03s-.88-3.92-.39-4.41Z"/>
            <path class="st21" d="M65.21,211.76c1.72-.36,2.42.73,2.58,2.31.09.86.03,3.65-.08,4.51-.63,4.93-4.3,2.91-4.42-1.4-.04-1.5.17-5.06,1.92-5.42Z"/>
            <path class="st16" d="M110.75,146.92c-.81-.15-1.23-.12-2.15-.36.81-.31,1.61-.48,2.15.36Z"/>
            <path class="st4" d="M159.42,155.15c-.16.51-.55.71-1.07.72.52-.4.61-.42,1.07-.72Z"/>
            <path class="st12" d="M126.14,132.96c-.34-.05-.77.07-1.07,0,.57-1.08.55-.7,1.07,0Z"/>
            <path class="st10" d="M200.93,175.19c2.21-.23,1.71,1.33,1.83,1.4.36.22,1.3-.39,1.04.74-.43-.14-.94-.09-1.27-.34-.1-.07-1.57-1.69-1.6-1.81Z"/>
          </g>
          <g>
            <path class="st17" d="M172.66,129.74l3.22.72-2.5.71c-.31-1.27,1.12-.28,1.07-1.07-.8.26-1.25-.19-1.79-.36Z"/>
            <path class="st22" d="M71.74,136.54c-.18.66-.82.75-1.43.72.2-.25-.5-1.03,1.43-.72Z"/>
          </g>
        </g>
      </g>
    </g>
    <g>
      <path class="st18" d="M78.9,23.82c2.73-1.03,5.37-2.05,8-3.08,1.85-.73,2.69-.33,3.61-.53.41-.09.43-.82.61-.95.09-.06,1.88-.03,2.2-.14.86-.27,2.13-.76,3.19-1.11.54-.18.86-.86,1.22-.93.62-.13,1.19.85,1.92.66l-.36-1.07c1.08-.46,2.76.01,3.61-.15.74-.14.7-.96,1.29-1.2.54-.23,6.82-1.46,7.48-1.48,1.21-.04,3.79,1.34,3.37-.74,1.15.46,1.98-.18,2.98-.25,4.02-.3,8.89-1.46,14.04-1,1.23.11,2.69.61,3.91.9.56-2.59.94-.28,1.3-.05.13.08,2.38-.7,2.96-.59s1.01,1.52,2.02.82c.4-.27.53-2.23,1.06.53,1.86-2.05,2.25-.53,3.91-.15,3.64.82,7.1,1.21,10.76,1.94,1.38.18,2.7.53,3.94,1.07.92.22,5.35,1.35,5.67,1.84.1.15-.81.62.59,1.02.14.04.14-.73.35-.73.84.28,1.52.87,2.33,1.21,7.1,2.93,13.54,6.6,19.91,11.27.84.61,2.32,1.17,2.86,1.61,2.17,1.76,1.11,3.15,5.31,3.25,3.25.08,7.15-.54,10.38-.54,15.94.04,30.22,4.69,42.48,14.34,4.54,3.57,8.07,8.36,11.7,12.37,1.72,1.91,2.62,4.77,3.82,6.92.21.39.88.43,1.11.91.13.27-.31,1.13-.24,1.38.08.32.72.3.98.85,8.54,17.47,6.36,37.61-3.85,53.78-.36.26-.6.64-.72,1.07-1.68,2.62-3.45,5.45-5.37,7.87-4.05,4.82-7.21,10.16-9.48,16,.08,10.21-4.17,5.24-8.25.45-5.7-6.48-14.85-6.55-22.71-4.28l-.13.89c-10.8,5.37-13.1,19.12-11.04,29.99-.38,1.51-3.68.89-3.86-.46-.8-.66-1.76-1.37-2.86-2.15-3.97-3.54-8.43-9.21-8.39-14.92-.96-1.81-1.32-3.63-1.09-5.43-.71-1.03-.7-1.83.02-2.41-.11-1.39.16-2.76.81-4.11l.3-5.86c.71-.78.87-1.65.47-2.59.93-1.08-1.11-1.98-2.05-1.91-7.25.56-14.66,1.24-21.85,2.09-9.94,1.18-17.88,3.5-23.93,12.01-6.47.9-4.14-4.58-2.04-7.89,6.07-9.54,18.41-12.34,29.07-13.6l1.14.61c1.48-.66,1.24-1.14-.72-1.43-.44.97-4.05-.14-4.64-.62-1.39-1.14-3.83-11.3-4.21-13.32-1.19-6.32-1.09-11.23-.51-17.61-6.18,7.12-7.09,18.33-6.14,27.42-.17.75-.76,1.14-1.49,1.17-18.87-3.09-38.87-1.34-57.71.83-5.88.48-5.72-7.9-5.59-12.07.16-5.12.78-10.61,1.79-15.6-6.66,8.15-6.62,19.87-6.27,29.98l-.3,1.66c-4.98,1.72-9.93,3.42-14.87,5.1l-.97-.13c-.55.21-1.03.45-1.43.72.23.24.3.51.18.81-5.79,2.24-11.05,5.63-16.3,9.23-.47.14-.94.13-1.42-.02-.43,1.97-4.32,2.9-5.59,1.49-.1-3.16-1.41-5.99-3.95-8.49-10.15-16.31-15.22-37.86-10.14-56.34-.2-2.33-.37-3.71-.25-6.18.03-.57,1.37-2.76,1.6-3.74.19-.83-.08-1.72.07-2.35.09-.37.87-.34,1.03-.83.24-.7-.06-1.72.21-2.66s1.43-1.78,1.78-2.51c.47-.99.6-1.94,1.28-3.2.44-.29.68-.65.72-1.07-.62-1.23.84-1.51,1.26-2.53,1.09-2.62,2.09-3.87,3.39-6.41.57-.75,1.17-1.47,1.79-2.15,1.52-1.37.81-1.72,1.26-2.5s2.02-1.32,2.22-1.52,1.26-3.03,1.98-3.42c.38-.21,1.07.07,1.3-.13.96-.83,2.97-3.76,4.7-5.31.87-.28,1.41-.54,1.79-1.43.13-.11.24-.24.36-.36.81-.37,1.64-.61,2.5-.72.24-.31.26-.27.36-.72-.64-.18-.6-.44,0-.72.49-.33.7-1.63,1.25,0,.33-.34.53-.76.9-1.07.74-.82,1.58-1.54,2.5-2.15,2.15-1.36,5.36-3.51,7.63-4.39.5-.19.97-.05,1.68-.26-.05-.34.19-.46.72-.36.12,0,.24.01.36,0,.29-.55.77-1.03,1.43-1.43Z"/>
      <path class="st5" d="M62.08,34.91c-.48.62-1.36.94-1.98,1.42l-.53-.7c.81-.78.94-1.66,2.5-.72Z"/>
      <path class="st1" d="M45.98,50.3v1.06c-1.03-.58-.98.7-1.79,1.09.99-1.93.54-1.02,1.79-2.15Z"/>
      <path class="st7" d="M161.92,16.3c-.54-.13-1.5-.56-1.62-.57-.42-.02-1.24.82-2.31-.51,1.25.25,2.88-.34,3.94,1.07Z"/>
      <path class="st5" d="M59.22,35.98v1.43s-1.79,0-1.79,0c.6-.53,1.18-.9,1.79-1.43Z"/>
      <path class="st11" d="M78.9,23.82c.09.71-.83,1.36-1.43,1.43-.28-1.41.5-1.08,1.43-1.43Z"/>
      <path class="st5" d="M67.09,30.26v1.08c-1.44-.65-1.11.3-1.81.87-.23.19-.62.13-.7.2.32-1.49,1.58-1.56,2.5-2.15Z"/>
      <path class="st23" d="M38.82,62.46c.16-.29,0-.85.72-1.07.05.1.5.05.36.53-.1.33-.7.58-1.07.54Z"/>
      <path class="st8" d="M37.39,130.1c-.19-.41-.41-.67-.72-1.43l.72,1.43Z"/>
      <path class="st13" d="M77.11,25.25c-.17.29-.44.28-.72.36-.92-1.47.44-.37.72-.36Z"/>
    </g>
  </g>
</svg>