<?xml version="1.0" encoding="UTF-8"?>
<svg id="Layer_1" xmlns="http://www.w3.org/2000/svg" version="1.1" viewBox="0 0 300 300">
  <!-- Generator: Adobe Illustrator 29.4.0, SVG Export Plug-In . SVG Version: 2.1.0 Build 152)  -->
  <defs>
    <style>
      .st0 {
        fill: #040404;
      }

      .st1 {
        fill: gray;
      }

      .st2 {
        fill: #8f8f8f;
      }

      .st3 {
        fill: #2b2b2b;
      }

      .st4 {
        fill: #1b1b1b;
      }

      .st5 {
        fill: #adadad;
      }

      .st6 {
        fill: #bdbdbd;
      }

      .st7 {
        fill: #292929;
      }

      .st8 {
        fill: #010101;
      }

      .st9 {
        fill: #a2a2a2;
      }

      .st10 {
        fill: #030303;
      }

      .st11 {
        fill: #e4e4e4;
      }

      .st12 {
        fill: #1c1c1c;
      }

      .st13 {
        fill: #171717;
      }

      .st14 {
        fill: #111;
      }

      .st15 {
        fill: #e6e6e6;
      }

      .st16 {
        fill: #2c2c2c;
      }

      .st17 {
        fill: #8a8a8a;
      }

      .st18 {
        fill: #c1c1c1;
      }

      .st19 {
        fill: #a5a5a5;
      }

      .st20 {
        fill: #1e1e1e;
      }

      .st21 {
        fill: #3e3e3e;
      }

      .st22 {
        fill: #696969;
      }

      .st23 {
        fill: #9b9b9b;
      }

      .st24 {
        fill: #b1b1b1;
      }

      .st25 {
        fill: #373737;
      }

      .st26 {
        fill: #5d5d5d;
      }

      .st27 {
        fill: #656565;
      }

      .st28 {
        fill: #797979;
      }

      .st29 {
        fill: #a6a6a6;
      }

      .st30 {
        fill: #0d0d0d;
      }

      .st31 {
        fill: #141414;
      }

      .st32 {
        fill: #464646;
      }

      .st33 {
        fill: #1d1d1d;
      }

      .st34 {
        fill: #505050;
      }

      .st35 {
        fill: #212121;
      }

      .st36 {
        fill: #020202;
      }

      .st37 {
        fill: #7d7d7d;
      }

      .st38 {
        fill: #0b0b0b;
      }

      .st39 {
        fill: #242424;
      }

      .st40 {
        fill: #353535;
      }

      .st41 {
        fill: #121212;
      }

      .st42 {
        fill: #bcbcbc;
      }

      .st43 {
        fill: #272727;
      }

      .st44 {
        fill: #fafafa;
      }

      .st45 {
        fill: #151515;
      }

      .st46 {
        fill: #181818;
      }

      .st47 {
        fill: #c5c5c5;
      }

      .st48 {
        fill: #fefefe;
      }

      .st49 {
        fill: #1f1f1f;
      }

      .st50 {
        fill: #2a2a2a;
      }

      .st51 {
        fill: #818181;
      }

      .st52 {
        fill: #222;
      }

      .st53 {
        fill: #e2e2e2;
      }

      .st54 {
        fill: #202020;
      }

      .st55 {
        fill: #b9b9b9;
      }

      .st56 {
        fill: #9e9e9e;
      }

      .st57 {
        fill: #191919;
      }

      .st58 {
        fill: #232323;
      }

      .st59 {
        fill: #6e6e6e;
      }

      .st60 {
        fill: #888;
      }

      .st61 {
        fill: #a4a4a4;
      }

      .st62 {
        fill: #2f2f2f;
      }

      .st63 {
        fill: #dcdcdc;
      }

      .st64 {
        fill: #313131;
      }

      .st65 {
        fill: #4b4b4b;
      }

      .st66 {
        fill: #d3d3d3;
      }

      .st67 {
        fill: #1a1a1a;
      }

      .st68 {
        fill: #2e2e2e;
      }

      .st69 {
        fill: #555;
      }

      .st70 {
        fill: #161616;
      }

      .st71 {
        fill: #e8e8e8;
      }
    </style>
  </defs>
  <path class="st48" d="M3.69,251.08l91.14-8.34s20.54,37.35,62.38,34.37,60.14-46.69,60.14-46.69l75.39-3.17s-13.01-160.81-73.52-188.08-79.94-2.24-79.94-2.24c0,0,.71,2.73-6.74,3.42s-51.91,1.06-80.67,72.04S3.69,251.08,3.69,251.08Z"/>
  <g>
    <path class="st15" d="M4.52,244.69c.48.9-1.22,5.51-1.01,5.7,2.11.13,3.92-.63,6.04-.14l1.68-5.23c-.09.53.08,1.21-.02,1.82-.1.57-1.22,3.35-.99,3.55l18.03-1.6.42.6-24.99,1.7c-.49-.07-.81-.24-.79-.78.05-1.02,1.15-4.64,1.62-5.61Z"/>
    <path class="st71" d="M236.03,230.94c.53.4,0,.61-.49.67-1.79.21-3.9.17-5.71.33s-4.63,1.15-6.21.16l12.41-1.17Z"/>
    <path class="st53" d="M54.17,246.71c.06.49-.88.6-1.2.64-2.43.25-5.09.03-7.52.7-.17-1.01.25-.54.81-.68,2.38-.6,5.41-.36,7.91-.66Z"/>
    <path class="st19" d="M195.77,264.49c-.24.25-.37.78-.89,1.29-.69.68-2.13,1.71-3.14,1.73.55-.47,1.75-1.12,2.03-1.5.33-.45.27-1.15.32-1.19.07-.06.56.33.8.34.22,0,.25-.86.87-.67Z"/>
    <g>
      <path class="st8" d="M245.97,210.25c.52.53.88,1.21.45,1.89.95-.55,1.59,1.71,1.69,2.5.25,1.96.13,4.04-.69,5.72-.13.27.62-.09.7.64.35,3.02-.73,6.34-.36,9.42l-.32.68c-.29.23-2.08-.23-2.52-.16-.56.09-.92.65-1.36.65-.37,0-.66-.44-1.01-.5-.27-.05-.65.21-.92.16-1.47-.24-.32-2.67-.28-3.55.25-4.51-.58-12.19,1.24-16.2.87-1.93,1.58-3.07,3.37-1.26Z"/>
      <path class="st8" d="M38.07,228.25c.46-1.14.36-2.96,2.18-3.05,2.39-.12,2.85.64,2.88,2.88.04,2.75-2.13,8.41-2.8,11.31l-1.42,7.97c-1.77,1.35-4.36.24-6.53,1.02.68-5.67,2.56-11.06,4.36-16.44.78-1.1,1.22-2.35,1.34-3.69Z"/>
      <path class="st8" d="M66.85,225.65c.6.59,1.03,4.15,1.97,5.12-.16.34-.76,2.52-.74,2.68.16,1.29.31,3.29-.04,4.81-.14.61-.79,1.08-.79,1.57,0,.21.68.14.7.36.02.27-.38,1.35-.47,1.88-.07.41.17,1.24.12,1.28-.18.15-1.62-.39-.89.93.05.09.77,0,.55.58-.44,1.13-1.9.45-2.75.61-1.35.25-2.55.93-3.95.9.49-3.47.57-7.03,1.05-10.52.28-2.02.74-5.48,1.37-7.33.15-.43,1.83-3.13,2-3.22.39-.22,1.56.05,1.87.35Z"/>
      <path class="st8" d="M267.81,207.21c.54.52.95,2.2,1.29,2.9.25.5.89.7,1.08,1.27.15.46.68,4.63.71,5.33.03.74-.49,1.51-.32,2.26.06.25.65.2.69.45.2,1.2-.27,4.12-.25,5.24.01,1.23,1.09,2.78.27,4.05-.55.85-4.29.26-5.39.89l-1.3-17.91c.11-1.31,1.38-6.25,3.23-4.47Z"/>
      <path class="st11" d="M253.47,229.6c.03.49-1.2.59-1.55.63-1.05.11-2.1.02-3.15.04-.03-.49,1.2-.59,1.55-.63,1.05-.11,2.1-.02,3.15-.04Z"/>
      <polygon class="st63" points="82.69 244.36 78.83 245.02 76.32 245.02 79.85 244.36 82.69 244.36"/>
      <path class="st17" d="M36.73,231.94c.49-1.47.82-2.39,1.34-3.69.23,1.64-.13,2.62-1.34,3.69Z"/>
      <path class="st69" d="M207.84,252.74h-.34c.45-1.48,1.69-2.57,2.68-3.69-.14,1.21-1.51,2.69-2.35,3.69Z"/>
      <g>
        <path d="M103.5,45.73c3.61-1.62,10.71-4.88,14.29-4.72.16,0,1.85-1.01,2.49-1.15,2.43-.53,6.12-.8,8.56-.83,1.47-.02,3.15-.43,3.7,1.32,1.16,3.68-2.37,2.8-4.37,3.04-34.42,4.09-54.65,32.36-69.56,60.62-19.88,37.68-32.03,78.13-42.28,119.44-1.78,7.16-3.84,14.29-5.09,21.58-.41,1.8-.8,3.56-1.17,5.31-2.24.19-4.48.3-6.73.32.23-1.97.62-3.96,1.19-5.96.29-.61,1.01-1.13,1.01-1.21-.01-2.08.27-1.28.33-1.68s-.31-1.23-.13-1.96c.35-1.44,1.33-3.66,1.8-5.07.39-1.17-.09-2.01,0-2.6.07-.42,1.26-.24,1.04-1.4-.03-.14-1.14-.13-.67-.83.02-.03.48.08.65-.25.81-1.59.09-2.27.17-2.94.14-1.19,1.08-2.67,1.33-3.83.29-1.36.81-6.02,1.28-6.69.81-1.14.08-.47.31-1.5.12-.53,1.37-1.24,1.31-2.08-.01-.16-.7-.17-.71-.36-.04-.65,1.15-2.78,1.43-3.64.34-1.02.28-2.97.56-3.73.75-2.01.38-1.43.77-3.27.51-2.44,2.72-6.65,3.23-9.23.15-.78-.37-1.34-.14-2.09.32-1.02,1.44-2.5,1.55-3.01-.32-1.11.11-2.36.67-3.36.07-.11,0-.44.19-.67.27-.32,1.29-.33.78-.99-.06-.07-.5.03-.57-.07-.09-.11.71-2.53.79-2.65.17-.26.71-.27.78-.37.05-.07-.34-.96-.22-1.71.23-1.45,1.02-2.53,1.43-3.79.65-1.98,1.12-4.56,1.79-6.43.42-1.17.26-1.24,1.41-.79.18-.65-.67-.88-.62-1.45.06-.69,1.05-1.22,1.22-1.81.52-1.75.2-5.06,2.42-5.63-1.97-.97.22-1.69.32-2.05.12-.46-.33-.94-.33-1.29,0-.22.52-.15.6-.35,1.44-3.69,2.32-7.71,4.22-10.94.58-.98,1.66-4.26,2.14-5.6.32-.89-.45-1.68,1.1-1.41-.87-1.38.52-1.94.57-2.08.09-.26.15-2.07.39-2.42.28-.4.97-.12,1.05-.2.13-.13-.25-.98-.16-1.38s.67-.91.85-1.46c1.78-5.29,4.52-10.71,6.86-15.62.25-.52.94-2.21,1.16-2.47.29-.34.85-.11,1.06-.41.37-.53.31-2.07.71-2.92.55-1.14,3.62-7.36,4.13-7.96.32-.36.96-.22,1.2-.56.27-.37.05-1.23.34-1.89.66-1.51,2.57-4.26,3.54-5.87,2.85-4.72,6.48-9.86,9.99-14.53,3.33-4.42,6.29-8.1,10.83-12.15.59-.53.74-2.52,2.45-2.26-.75-1.06.23-.52.79-.97.33-.27.23-.9.53-1.21,2.54-2.64,7.06-5.97,10.08-8.22.98-.4,1.88-.96,2.68-1.68,1.34-.76,2.48-1.49,3.69-2.35l3.02-1.68Z"/>
        <path class="st65" d="M19.62,187.32c-1.01-.03-.08-2.45.18-3,.12-.24.44-.28.49-.35-.19,1.12-.43,2.25-.67,3.36Z"/>
        <path class="st23" d="M96.79,49.76c-.69.75-1.62,1.74-2.68,1.68,1.2-.89,1.54-1.03,2.68-1.68Z"/>
        <path class="st60" d="M103.5,45.73c-.83.8-1.88,1.45-3.02,1.68,1.39-.98,1.55-1.02,3.02-1.68Z"/>
        <g>
          <path d="M238.38,60.16c-.92-1.09-2.02-2.15-3.04-3.16-7.63-7.59-16.23-14.28-26.17-18.79-17.48-7.92-43.82-10.34-61.02-2.03-1.3.63-1,2.28-3.58,1.19-.26-.11-2.06-1.79-2.11-1.92-.42-1.22,1.61-3.14,2.53-3.75,13.72-9.19,41.43-7.55,56.81-3.22,1.02.29,2.83,1.35,3.28,1.47.86.25,3.23.08,3.81.92.2.28.25,1.08.31,1.12.12.09,1.01-.34,1.48-.32,1.32.07,1.74.97,2.65,1.38,3.02,1.36,6.19,2.96,9.13,4.63,1.99,1.13,3.86,2.56,5.45,3.47.19.11,1.05,1.42,1.18,1.47.42.18,1.17.03,1.24.1.14.14-.18,1.04.06,1.3.08.08.53,0,.8.17.13.08.13.37.43.51.94.45,2.27,1.29,3.37,2.26,3.5,3.06,8.17,8.2,10.93,11.88.53.7,1.23,2.51,1.58,2.94.05.06.52-.28.96.19.76.82,1.38,2.69,2.03,3.64,25.64,37.55,35.96,79.14,40.3,124.18.94,9.78,2.11,19.94,2.23,29.56.03,2.64.07,5.26-.27,7.9-.94.03-1.9-.07-2.84.02-.42.04-.79.52-1.03.54-.12,0-2.05-.85-2.12-.94-.08-.1-.3-2.09-.33-2.47-.12-1.75-.48-3.13-.72-5.05-.31-2.5.07-4.44-.35-7.2-.02-1.19-.18-2.4-.46-3.62-.05-2.66-.23-5.26-.55-7.79.08-.27.77-1.6.67-1.67-1.73.34-1.07-1.42-.35-2.34-1.46.07.33-1.51-1-2.19,1.82-.6-.22-.94-.35-1.4-.35-1.28.76-.98.7-1.59-.08-.75-.82-1.98-.98-3.09-.25-1.68-.55-4.33-.68-6.04-.09-1.22-.72-4.55-.67-5.35.03-.46.56-.74.49-1.17-.09-.62-.88-1.75-1.05-2.99-.24-1.77-.2-3.38-.57-5.47-.23-1.32-1.7-6.32-1.61-7.11.02-.21,1.19-.13.67-.85-.03-.04-.55.11-.66-.24-.5-1.7-.72-5.3-1.05-7.3-.07-.42-.5-.82-.52-1.05-.03-.41.56-.87.55-1-.02-.29-.86-.39-.97-.55-.07-.1.11-1.7-.12-2.46-.06-.19-.57-.15-.6-.38-.09-.64.48-1.53.69-2.14-1.67.48-1.02-2.25-1.01-3.36l-.67.34c.27-.99-.09-2.1-.37-3.1-1.59-5.76-3.31-12.3-5.24-18.37-.27-.85-1.28-2.47-1.39-2.94-.39-1.76-.39-.84-.68-1.64-.47-1.29-.3-1.56-1.06-3.14-.12-1.54-.57-2.99-1.34-4.36-.65-1.06-.59-2.2-1.03-3.43-1.27-3.5-4.57-8.44-6.01-12.34-.32-1-.77-1.9-1.34-2.68-.82-2.14-1.88-4.38-3.15-6.58-3.84-6.66-7.21-12.04-12.18-18.02-1.09-1.31-.54-2.11-2.45-3.25-.53-.41-.76-.86-.67-1.34Z"/>
          <path d="M136.71,30.3c.73.9,1.66,1.54,2.29,2.58,1.11,1.84,3.21,8.39-.46,8.13-.82-.06-1.21-1.08-1.85-1.46-3.68-2.19-3.65-3.08-6.52-5.89-8.41-8.24-22.03-13.11-33.57-9.07-.73.25-1.5,1.07-2.16,1.21-1.02.22-1.52-.92-1.35.82-1.37-.65-1.09.39-1.69.82-.53.38-1.07.32-1.4.52-.45.27-.32.85-1.09,1-.9.18-2.22-.27-2.88-.9-.78-.75-.23-1.94-2.34-1.45.68-.67.59-1.59.91-2.27.17-.37.58-.37.66-.51.23-.41.04-1.13.43-1.44.3-.23.98.25,1.01.2.07-.1-.13-.67.07-.92.08-.1,1.91-.91,2.33-1.14,5.28-3.02,17.88-5.81,23.69-3.41.56.23.38.75.42.77.2.11.48-.49.82-.53.32-.04,2.38.53,2.88.69,2.13.68,4.44,1.88,6.72,3.01.98.48,1.49.42,2.12.56.66.14.14.94.19.97.16.1.61-.29,1.01-.14.1.04,1.62.98,1.85,1.14,1.8,1.28,4.3,2.99,5.82,4.59.18.18,1.02,1.06,1.05,1.13.34.3.68.64,1.01,1.01Z"/>
          <path class="st66" d="M284.34,200.74l1.01.67c.21.85-.77,1.36-.68,2.15.05.52.65.91.71,1.7s-.44,2.66-.37,3.34c.03.37.69.02.68.36s-.53.06-.64.19c-.1.12.66,2.79,1.31,2.83l-1.01.17c-.38-2.45-1.59-9.39-1.01-11.41Z"/>
          <path class="st24" d="M256.83,89.35c1.47-.08,1.1,2.04,1.34,2.68-1.2-.84-.95-1.66-1.34-2.68Z"/>
          <path class="st56" d="M266.56,112.16c-.54-1.12-.33-2.05-.43-2.28-.08-.18-1.84-1.01-.91-2.08.06.1.51.21.67.49.45.79,1.02,2.93.67,3.87Z"/>
          <path class="st51" d="M239.05,61.5c-.79-.47-1.46-.09-.67-1.34.3.36.89.42.67,1.34Z"/>
          <path class="st28" d="M136.71,30.3c-1.62.25-.75-.5-1.01-1.01,1-.11.81.77,1.01,1.01Z"/>
        </g>
      </g>
      <path class="st29" d="M121.95,272.2c-.67-.37-1.08-.65-1.68-1.01.8-.09,1.37.28,1.68,1.01Z"/>
      <path class="st61" d="M118.6,270.19c-.35-.23-.66-.44-1.01-.67.49,0,.86.19,1.01.67Z"/>
      <g>
        <path class="st38" d="M221.26,150.41l.43-.19c.96,1.09,2.84,3.02,2.06.04.76-1.87,2.82-.96,3.19.78l1.25-.13c.7-2.67,3.27-2.4,3.38.4l3.33.75c1.71-.68,3.46-1.1,3.53,1.36,1.4.18,4.01,1.52,3.97,3.02.51.1.92.5,1.01,1.01.49.39.93.49,1.3.3.49,1.02,1.18,2.04,2.06,3.05.84-.21,1.38.03.92.82l1.09,1.52c.89-.08,1.6.69,2.11,2.32,1.22.24,1.81,1.11,1.76,2.63l.58-.57c.38-1.32,2.15-3.62,2.26-1.35.34,1.18-.35,2.42-1.43,3.05-1.79,1.04-2.48.11-.9.24.12.01.22.18.32.4-1.74,1.08-.57,1.13-.42,1.93,1.38,7.5.25,15.04-3.27,21.89l-.67,1.01c-3.34,5.76-10.35,11.85-15.99,15.38-.92.58-5.81,2.77-6,3.05-.12.17.2,2.82-.55,4.17-.27.49-.84.51-.9.6-.07.11.33.71.29,1.11-.16,1.45-1.84,3.26-1.94,3.79-.09.48.29.95.1,1.42-.26.65-1.4.92-1.49,1.06-.12.19.32.88.25,1.39-.02.12-.6,2.21-.64,2.33-.18.45-1.11,1.12-1.64.94-.15.59.57.22.66.34.07.09-.65,1.86-.8,2.23-1.78,4.39-5.46,10.17-8.26,14.21-.81.45-1.08,1.17-1.34,2.01-.13.14-.55.2-.67.34-.8,1.32-1.7,2.55-2.68,3.69-.67.56-1.23,1.23-1.68,2.01-1.46,1.61-3.48,4.18-5.37,5.37l-2.35,2.35c-.98.77-1.48,1.1-2.35,2.01-1.13,1.31-2.47,2.32-4.03,3.02-.97.82-2.01,1.78-3.06,2.48-.68.45-4.16,2.57-4.66,2.72-.59.17-1.22-.64-1.34-.5-.04.45.21,1.05-.21,1.38-.39.31-3.37,1.49-4.15,1.81-18.84,7.75-38.28,6.71-56.37-3.19-.44-.51-1.01-.87-1.68-1.01-.56-.33-1.13-.65-1.68-1.01-.25-.34-.6-.56-1.01-.67-10.97-7.33-18.73-16.01-26.17-27.18l-3.69-6.37c-1.53-3.08-2.82-6.35-4.36-9.39-.37-.54-.59-1.09-.67-1.68-.88-2.07-1.62-4.24-2.35-6.37-.75-1.71-1.31-3.5-1.68-5.37-4.39-14.72-5.2-29.83-5.64-45.13-.01-.47.35-.99.27-1.51-3.33-.52-6.35-.89-9.63.27-3.46,1.23-4.84,3.12-6.48,6.1l-1.34,3.02c-2.57,12.12,3.02,22.7,12.84,29.26.96.64,2.41.38,2.45,2.11.09,3.77-4.95,1.48-6.68.45-5.09-3.04-11.75-10.93-13.18-16.72-.14-.55.19-1.22.15-1.29s-.63-.14-.89-.6c-1.14-2.01-.37-3.89-.44-5.67-.02-.67-.64-1.28-.66-2.33-.07-2.73,1.99-11.46,3.7-13.38.81-.91.39-.17,1.35-1.74.69-1.13,2.07-1.43,2.62-1.91.32-.28.21-.92.5-1.18.43-.37,5.94-2.2,6.57-2.33,3.63-.73,6.2-.24,9.78.22.37-1.39.18-3.04.49-4.37.06-.26,1.26-2.87,1.36-3,.39-.46,4.19-.91,4.53-.66-3.67,20.42-2.68,41.83,3.59,61.66,9.3,29.39,32.42,58.23,65.68,60.14,26.29,1.51,48.71-16.95,61.04-37.95.84-1.43,3.43-6.23,3.75-7.16,1.85-5.47,4.09-10.23,5.85-15.97l.67-1.34c.31-1.02.58-4.3,1.34-4.88.2-.15.76.06,1.19-.13.95-.43,6.84-3.19,7.14-3.45.12-.1-.03-.64.27-.95.35-.35,1.59-.71,2.17-1.11,7.29-5.03,11.71-9.22,14.42-17.48,1.25-3.8.67-10.18-.71-13.93-.59-1.18-1.26-2.3-2.01-3.36-5.29-9.27-14.4-11.37-24.16-7.83-1.11.4-1.08,1.19-3.12.71s-1.4-2.96-2.26-3.77c-.79-.75-4.56-2.27-5.8-2.93-.49-.26-1.39-.54-1.24-1.27.09-.25.25-.59.45-.57.98.09,6.04,3,7.17,3.71.56,1.06,2.2,2.13,3.38,2.25.32.03,5.9-2.24,4.38-3.44-1.86.55-3.93-2.42-2.29-3.3Z"/>
        <path d="M117.25,100.75c1.56-1.03,1.35-.24,2.38-.16,1.51.12,2.09-.67,2.24,2.09.06,1.08-.96,3.99-1.36,5.19-3.88,11.76-13.72,25.34-21.71,34.82-.5.23-.83.68-1.01,1.34-1.93,2.26-7.79,8.87-10.21,9.75-.46.17-3.41.77-3.54.65-.07-.06-.29-1.5-.27-1.77.28-2.89,2.8-5.36,4.64-7.46,3.6-4.11,7.2-8.19,10.6-12.36.42-.52.81-1.85,1.45-2.41.49-.43,1.26-.47,1.31-.53.17-.21-.05-.99.15-1.54.24-.66,2.05-2.29,2.46-2.89,4.59-6.81,8.94-14.38,11.53-22.36.25-.9.7-1.69,1.34-2.35Z"/>
        <path d="M129.33,127.93c3.91-8.62,7.57-17,9.93-26.41.42-1.68.2-6.1,2.69-6.38.21-.02,2.41.23,2.6.29.42.14,1.15,1.95,1.17,2.45.08,1.69-1.33,8.88-1.8,10.92-2.31,10.04-10.62,27.52-17.28,35.39-.76.9-4.78,4.13-5.66,3.51-.13-.09-.71-1.47-.72-1.8-.03-.87.75-2.4.7-3.02-.02-.2-.69-.19-.71-.36-.08-1.31,3.34-4.45,3.68-5.98l1.04-.22-.67-.5c1.19-1.78,2.35-3.65,3.35-5.54.47-.92,1.03-1.7,1.68-2.35Z"/>
        <path class="st8" d="M157.74,244.24c-1.16,1.25-4.26,3.29-5.9,3.66-6.05,1.35-10.2-1.86-14.37-5.63-.31-1.39-.19-1.98.77-2.94,2.84-2.87,5.4,2.33,7.64,3.42,3.3,1.61,6.82.09,9.14-2.41,1.02-1.1,2.01-3.84,3.67-3.71.86.07,2.19,2.04,2.12,2.81-.06.69-2.46,4.16-3.06,4.8Z"/>
        <path class="st8" d="M144.01,196.63c-.39.38-1.78,1.05-2.44,1.74-4.48,4.67-4.15,10.58.69,14.78.94.81,3.95,2.42,4.27,3.11.75,1.6.02,2.46-1.66,2.52-1.77.06-6.71-4.01-7.83-5.45-2.87-3.73-3.62-9.67-1.51-13.93,1.21-2.44,6.38-7.63,9.35-6.66,1.22.4-.41,3.43-.87,3.89Z"/>
        <path class="st10" d="M148.23,156.01c-.64-.47-.83-2.18-.24-2.61s3.11-.34,3.99-.29c1.93.1,8.76,1.28,9.93,2.82,1.29,1.7-1.52,3.52-3.21,3.24-2.54-1.4-8.38-1.61-10.46-3.15Z"/>
        <path class="st36" d="M195.5,161.05c-.14-.21.01-.76-.1-.86-.2-.18-1.15.13-1.84-.36-.48-.34-1.97-2.61-2.61-3.26-.88-.9-4.05-3.27-3.92-4.6.04-.43,1.17-.92,1.76-.82,3.32.56,11.25,5.66,9.95,9.78-.22.7-2.94.54-3.24.12Z"/>
        <path class="st10" d="M102.73,157.56c.88.7.53,1.8-.08,2.58s-1.44-.74-1.82.83c-3.43.27-6.96-.93-10.44-1.04-2.71-.74-1.59-2.88.89-3.12.44-.04.92.27,1.31.24,2.31-.16,8.37-.9,10.14.51Z"/>
        <path class="st0" d="M185.36,113.84c-.3-.28.62-2.14.65-2.54,0-.14-.58-.11-.64-.37-.5-2.14.45-2.7,1.34-4.3.71-.73,1.47-.1,2-.34,1-.44.57-1.65,1.83.54.18.32.12.82.3,1.21.08.17.57.06.57.09v5.2s-.47.5-.5.5h-5.54Z"/>
        <path class="st18" d="M91.42,242.34c-1.6-2.39-2.42-3.82-3.69-6.37,1.4,2,2.82,4.09,3.69,6.37Z"/>
        <path class="st5" d="M246.76,170.21c-1.02-.61-1.38-2.25-2.01-3.36,1.24.59,1.56,2.12,2.01,3.36Z"/>
        <path class="st34" d="M200.46,260.13c-.48,1.42-1.52,1.69-2.35,2.35.17-1.03,1.53-1.84,2.35-2.35Z"/>
        <path class="st9" d="M80.35,218.52c-1.19-.53-.68-1.85-.85-2.5-.25-.9-1.06-1.72-.82-2.86.48,1.62,1.14,3.79,1.68,5.37Z"/>
        <path class="st34" d="M129.33,127.93c-.36.79-.92,1.97-1.68,2.35.42-.78.39-2.34,1.68-2.35Z"/>
        <path class="st51" d="M207.84,252.74c-.7.83-1.4,1.34-2.01,2.01.04-1.19.76-1.5,1.68-2.01h.34Z"/>
        <path class="st26" d="M55.85,175.91c.37-1.76.66-1.78,1.34-3.02-.46.95-.45,2.52-1.34,3.02Z"/>
        <path class="st6" d="M212.21,246.71c-.52.76-.65,1.26-1.34,2.01-.14-1.03.2-1.93,1.34-2.01Z"/>
        <path class="st22" d="M115.91,103.1c.39-1.19,0-1.47,1.34-2.35l-1.34,2.35Z"/>
        <path class="st1" d="M83.37,226.57c-.15-.29-1.07-.65-.67-1.68.21.51.71.98.67,1.68Z"/>
        <path class="st59" d="M98.8,142.69c-.31.37-.56.83-1.01,1.34.18-.69.13-1.55,1.01-1.34Z"/>
        <path class="st37" d="M220.26,213.49c.27-.88.65-1.26.67-1.34l-.67,1.34Z"/>
        <path class="st42" d="M249.11,194.7c0-.49.19-.86.67-1.01-.3.59-.52.75-.67,1.01Z"/>
        <g>
          <path d="M183.89,152.56c1.89,1.17,4.37,3.35,4.43,5.73,0,.22-.21,1.79-.27,1.85-.24.23-1.47.14-.67-.67-.49.3-1.75-.11-1.97.03-.39.26-2.76,7.92-2.98,8.95-1.02,4.89-1.66,17.99,3.41,20.9,2.59,1.48,4.09-1.52,6.66-.95,1.59.35,1.81,1.6,1.5,3.04-.23,1.06-2.63,5.61-3.33,6.73-10.76,17.19-32.22,15.07-36.7-5.47-2.86-13.13,2.62-28.6,13.93-36.08-1.25-2.01-6.97-2.88-7.57-4.85-.72-2.34,2.63-2.69,4.32-2.29.47.11,4.35,1.72,5.02,2.02,1.81.82,4.06,3.22,6.1,2.28.93-.63-2.3-2.02-2.8-2.56-1.29-1.39-.56-2.94,1.47-2.83s7.47,2.95,9.44,4.17Z"/>
          <path class="st44" d="M174.74,159.59c3.92-3.5,5.97-.07,5.6,4.09-.27,2.99-3.11,12-7.51,8.49-3.35-2.68-.81-10.16,1.91-12.58Z"/>
        </g>
        <g>
          <g>
            <path class="st48" d="M195.77,130.28c.16-.63.27-1.93.34-2.01.08-.11,1.88.84,2.34-.51.24-1.12-1.93-.75-2.01-.83-.28-.27.54-2.72.34-3.35.44.42,1.91.26,2,.35.29.29-.38,4.38,2.02,2,.3-.43,2.26.26,1.91.78-.99-.08-2.36.42-1.91,1.57.45-.82.84-.56.67.34,1.95,0,2.47.27,1.57.81.18.78.41,1.43,1.12,1.87,1.3,0,1.61-2.26,2.68-3.02,2.47-.5,4.83,1.08,6.57,2.64l.81.05c.29.06.69-.04,1.01,0,.15.15-1.07,1.76.67,2.22.99.26,1.06-.89,1.78-.82.22.02,4.05,1.52,4.19,1.7.22.27-.04,1.42.58,1.6.89.26.94-.52,1.17-.67,1.97-.01,4.37,1.46,6.04,2.68,2,1.13,1.87,2.58,2.02,2.68.7.48,1.44-.93,2.03-.87.75.08,2.6,1.32,3.58,1.48.44.07,1.05-.33,1.09-.28.1.16-.21.78.34,1.35,1.25.03,2.32.3,3.2.82-.97,1.67-.78,1.93.31.14,1.81.74,3.59,1.51,5.33,2.32-.18,1.43.23,2.01,1.22,1.75.39-.21,1.1-.99,1.17-.99.09,0,.66.75,1.08.92.96.4,2.64.71,3.37,1.51.53.58-.69.47,1.08.91.84-.54,1.93.09,1.34,1.01.07.41-.05.91,0,1.34,1.66.32,1.58-.28,2.51-1.29,1.71,1.4,3.29.47,2.87,3.15-.18,1.12-.26,1.9-.39,2.97-.32,2.66-1.43,3.58-2.79,5.6-.29.43-.38,1.45-.59,1.59-.27.18-.96-.03-1.29.21-.59.42.05,2.01-1.67,2.2-.04,0-.33-.51-.67-.2-.61.54-.81,2.93-2.68,2.89-.29-.61-.2-1.94-.5-2.37-.23-.33-.89-.18-1.2-.55-.43-.5-.87-1.86-1.65-2.79l-1.36-1.94c1.77-.38,1.74-2.93.14-.62l-.79-.12c-1.84-1.51-2.01-2.12-.52-1.81l.52-.21c-.89-.28-.84-.64,0-1.01-.88-.65-2.03-.56-1.72.73-.13.31-1.17-.3-1.3-.73-.39-.2-.89-.63-.67-1.01q.57-.94,0,0c-.05.3-.28.3-.67,0-.63-.53-2.22-1.68-3.05-2.15-.4-.23-1.06-.16-1.32-.36-.51-.38-.11-1.23-.53-1.55-.82-.64-1.69.37-2.61.35-1.26-.02-3.03-1.12-4.57-.66,2.03-2.27-2.18-3.75-1.01-.33-.65-.44-2.76.15-2.99-.02-.47-.33.32-2.35-2.04-1.66l.67,2.01c-2.88.97-2.4-.28-3.69-1.67-1.54-1.67-1.46.31-1.84.33-.3.02-4.5-2.45-5.23-2.81-.45-.22-1.92-.46-1.98-.54-.25-.37.84-1.23-.43-1.76-1.04-.44-1.12.49-2,.39-.67-.08-1.2-.81-1.59-.96q.75-.64,0,0c-.6-.24-1.38-.21-1.99-.53-1.03-.55-1.58-1.98-3.38-1.49-.38-.31,1.46-1.55.11-1.96-2.05-.62-1.31.99-1.62.95-1.82-.67-3.35-1.34-5-2.4-.4-.25-.51-.89-.96-1.07-.51-.19-1.11.14-1.59.11-.68-.19-1.5-.61-.67-1.01.59-1.07.23-.43.34-1.01-.33-.44.3-1.87.69-2.01,1.05.65,1.15.39.3-.78l1.36-3.59Z"/>
            <g>
              <path class="st64" d="M246.76,160.48l1.51-1.69c1.71.07,1.36,2.96-.51,2.7l1.01,1.67c-.63-.75-1.36-1.63-2.01-2.35v-.34Z"/>
              <path class="st45" d="M246.76,157.46c-.35.31-.28.65,0,1.01-.2.52-.86.3-1.34.34l1.34,1.67v.34c-.82-.91-2.44-2.52-3.36-3.36.1-.2.21-.19.34,0,1.16.96,1.18-.63,1.55-.7.41-.07,1.31.29,1.47.7Z"/>
              <path class="st32" d="M243.07,156.45c.11.32.52.67.67,1.01h-.34c-.36-.33-.75-.79-1.01-1.01.22,0,.45,0,.67,0-.17-.49-.49-.85-.31-1.46.57-1.87,3.79,1.32.31,1.46Z"/>
              <path class="st53" d="M200.8,125.92c.09-.08-.17-.65.15-.65,1.86,1.09,4.81.81,4.89,3.33l-2.69.68,1.01,2.01c-1.57,0-1.14-2.08-1.38-2.31-.05-.05-.77-.11-1.3-.38,1.81-1.54.73-1.16-.67-.34-.06-.06-.25-.04-.33-.17-.43-1.54,2.01-1.49,2.01-1.68l-1.68-.5Z"/>
              <path class="st14" d="M248.78,147.06c-2.02,1.11-1.26-1.54-1.35-1.66-.06-.09-1.55-.3-1.98-.54-.8-.43-.96-1.2-2.28-1.42-1.4-.24-.44,1.9-2.44,1.61.09-.82-.46-2.18.67-2.02v-.33c-.75-.21-2.14-.12-2.68-.67,2.01-.46,4.22.64,6.01,1.54.42.21.67.8,1.04.97.54.25,1.31.09,1.69.33.62.39-.16,2.31,1.32,2.2Z"/>
              <path class="st31" d="M214.22,130.95c-.85,1.08-2.05-.98-2.46-1.23s-1.5-.35-2.07-.79c-.45.14.32.51.35.83.15,1.43-.7,1.28-1.87,1.19-.21-1.95,1.84-2.84-1.34-2.68.88-.62,2.75-.17,3.69.23,1.22.52,2.63,2.23,3.69,2.46Z"/>
              <path class="st13" d="M223.61,134.98c1.78-1.15,1.82.57,2.25.68.52.12,1.05-.11,1.76.17.44.17,1.71,1.34,2.02,1.83-1.02-.58-2.36-.94-3.35-1.68.69,2.21-2.6,2.05-2.35.84.14-.67,1.69-.59,1.34-1.51-1.34.73-.64-.32-1.68-.34Z"/>
              <path class="st54" d="M195.77,130.28c-.31,1.19-.52,2.38-1.01,3.52.03.48,1.48-.49.87,1.2-.68,1.87-1.37-.06-1.86.32-.06.46-.25.88-.34,1.34-.72-.34-.13-1.02.06-1.45.76-1.64,1.42-3.35,2.28-4.93Z"/>
              <path class="st34" d="M256.83,150.41c-.22-1.26-.48-.79-1.34-1.01.77-1.4,2.74.6,1.34,1.01Z"/>
              <circle class="st45" cx="253.01" cy="160.19" r="1.25"/>
              <path class="st57" d="M218.14,142.73c1.06-.27,1.87.9.96,2-1.57,1.89-2.73-1.55-.96-2Z"/>
              <path class="st12" d="M254.7,161.51c.71-.22,1.66.26,2.13.81-.46.29-.76,1.35-1.2,1.49-1.15.36-2.07-1.94-.93-2.3Z"/>
              <circle class="st67" cx="199.79" cy="134.79" r="1.17"/>
              <circle class="st13" cx="211.38" cy="136.99" r="1.17"/>
              <path class="st52" d="M208.23,135.6c-1.02-.64.26-3.62,1.65-1.48.95,1.47-.9,1.95-1.65,1.48Z"/>
              <circle class="st4" cx="250.69" cy="157.89" r="1.15"/>
              <circle class="st33" cx="206.64" cy="132.38" r="1.16"/>
              <path class="st45" d="M228.28,142.73c.74.46.21,2.94-1.3,2.16s.2-2.85,1.3-2.16Z"/>
              <circle class="st70" cx="213.63" cy="143.88" r="1.15"/>
              <path class="st33" d="M215.4,140.35c1.29-.4,2.15,2.15.63,2.66-1.22.03-1.58-2.37-.63-2.66Z"/>
              <path class="st45" d="M210.74,140.72c.87-.29,1.62.1,2.13.8-1.84,2.69-3.84-.23-2.13-.8Z"/>
              <path class="st70" d="M199.32,128.97c1.99-.67,1.84,2.33.3,2.33-1.11,0-1.16-2.04-.3-2.33Z"/>
              <circle class="st67" cx="253.06" cy="155.54" r="1.14"/>
              <path class="st57" d="M251.43,154.42c-.54.39-1.94-.19-1.65-1.47.37-1.64,2.28-.39,2.3-.02,0,.08-.59,1.45-.66,1.49Z"/>
              <path class="st12" d="M204,133.64c1.26-.37,2.17,1.92.96,2.31-1.83.6-1.84-2.06-.96-2.31Z"/>
              <path class="st30" d="M220.43,145.16c1.92.01,1,3.66-.68,1.9-.85-.89-.41-1.91.68-1.9Z"/>
              <path class="st46" d="M231.33,147.39c.56-.48,3.05,1.37,1.34,2.18-2.11,1-1.7-1.87-1.34-2.18Z"/>
              <circle class="st57" cx="255.31" cy="157.93" r="1.13"/>
              <path class="st70" d="M223.91,138.37c.11.32.29.66.21,1-.6,2.66-5.14-1.45-.21-1Z"/>
              <path class="st7" d="M240.05,145.04c.22,1.95,0,2.63-2.01,2.01.17-1.7.1-2.33,2.01-2.01Z"/>
              <path class="st46" d="M244.37,149.79c.63.4.69,2.77-1.08,2.28-1.15-.32-.42-3.22,1.08-2.28Z"/>
              <path class="st45" d="M228.28,149.7c-1.54.96-2.32-1.97-1.13-2.31,1.38-.4,1.84,1.87,1.13,2.31Z"/>
              <path class="st12" d="M252.17,165.81c-.17-.59-.16-2.52.8-2.31,1.85,1.19,1.36,3.01-.8,2.31Z"/>
              <path class="st41" d="M226.63,138.33c1.13-.15,2.2,0,2.2,1.35-1.49,1.49-2.52.47-2.2-1.35Z"/>
              <path class="st67" d="M212.9,140.33c-.06-.05-.3-1.3-.27-1.45.38-2.09,3.68.6,1.36,1.4-.25.09-.96.16-1.09.05Z"/>
              <path class="st67" d="M215.78,145.1c1.15-.21,2.15,1.53.8,2.13s-2.5-1.82-.8-2.13Z"/>
              <path class="st46" d="M230.97,147.04c-.06.07-1.55.49-1.84.04s-.29-1.56.17-1.88c1.09-.77,2.15,1.29,1.67,1.84Z"/>
              <path class="st67" d="M196.97,136.01c.55-.18,1.16-.07,1.45.5-.9,4.19-3.15.06-1.45-.5Z"/>
              <path class="st12" d="M206.35,135.99c1.44-.42,1.92,1.92.63,2.32-1.43.44-1.48-2.07-.63-2.32Z"/>
              <path class="st50" d="M202.43,133.59c-2.4-.06-1.8-1.87.2-2.3,1.07.74.12,1.47-.2,2.3Z"/>
              <path class="st39" d="M219.22,139.98c-.78,1.11-3.33-.74-1.94-1.6,1.04-.64,2.64.61,1.94,1.6Z"/>
              <path class="st50" d="M211.8,131.36c.9.51.88,2.42-.63,2.12-1.59-.32-.89-2.97.63-2.12Z"/>
              <path class="st67" d="M254.48,154.1c.01-.53-.16-1.54.31-1.87,1.72-1.23,2.94,2.52-.31,1.87Z"/>
              <path class="st46" d="M232.98,143.06c.18.12.5,1.85.37,1.98h-2.02c-.41-1.1.54-2.72,1.65-1.98Z"/>
              <path class="st20" d="M226.26,141.05c.34,2.58-2.55,2.14-1.98-.37l1.98.37Z"/>
              <path class="st57" d="M212.91,135.61c-.71-.63-.18-2.87,1.32-1.82s-.37,2.67-1.32,1.82Z"/>
              <circle class="st3" cx="248.32" cy="151.04" r="1.07"/>
              <path class="st20" d="M238.38,152.09c-.07-.59-.49-1.19-.31-1.8.52-1.77,3.96,1.21.31,1.8Z"/>
              <path class="st50" d="M235.01,149.74c1.94,2.75-1.91,2.77-1.64,1.22.22-.36,1.21-1.52,1.64-1.22Z"/>
              <path class="st43" d="M205.84,142.68c-.46-1.03.03-1.65.83-2.33,1.78,1.23,1.28,2.43-.83,2.33Z"/>
              <path class="st49" d="M246.76,149.74l-1.65-.36.32-1.99c1.59.2,1.97.89,1.33,2.35Z"/>
              <path class="st46" d="M244.75,145.38c.86.87-2.19,4.08-2.01,0,.42.06,1.91-.11,2.01,0Z"/>
              <path class="st50" d="M225.91,147.34c-.34.2-1.17-.02-1.63.05.07-.42-.1-1.91,0-2.02.74-.75,2.86,1.22,1.62,1.97Z"/>
              <path class="st35" d="M251.8,150.08c.57-.03,1.13-.07,1.67.17,2.02.92-1.7,3.47-1.67-.17Z"/>
              <path class="st57" d="M219.59,135.98c.09-.09,1.4-.03,1.69.16.99.66-.42,2.39-1.37,1.7-.39-.27-.43-1.76-.32-1.86Z"/>
              <path class="st67" d="M230.61,142.65c-.34.2-1.17-.02-1.63.05.07-.42-.1-1.91,0-2.02.74-.75,2.86,1.22,1.62,1.97Z"/>
              <circle class="st70" cx="220.58" cy="141.69" r="1.07"/>
              <path class="st58" d="M215.77,135.67c1.11-.18,1.56,2.22.63,2.31-1.53.14-2.04-2.08-.63-2.31Z"/>
              <path class="st58" d="M251.8,149.4c-.42.02-1.37.54-1.66.33-1.22-.87,1.07-4.46,1.66-.33Z"/>
              <path class="st49" d="M203.48,140.01c-.72-.72.74-3.15,1.86-1.35.86,1.39-1.58,1.63-1.86,1.35Z"/>
              <path class="st46" d="M208.18,145.04c-.27-.27-.04-2.72,1.35-1.86,1.8,1.11-.63,2.58-1.35,1.86Z"/>
              <path class="st35" d="M210.14,138.72c.18.3,0,.9.05,1.29h-2.35c-.46-1.44,1.78-2.14,2.29-1.29Z"/>
              <path class="st35" d="M233.34,141.02c.85-.37,2.69-.69,2.3.78-.43,1.59-2.23.54-2.3-.78Z"/>
              <path class="st64" d="M258.84,159.47c.49.65-2.58,3.35-2.34,0,.86-.35,1.47-.32,2.34,0Z"/>
              <path class="st70" d="M247.47,156.42c-.16-.18-.06-1.36.13-1.66.99-1.48,2.62,1.65,1.02,1.88-.12.02-1.11-.19-1.15-.23Z"/>
              <path class="st58" d="M238.04,147.73c-.1,1.23-.75,1.9-2.01,1.67l.32-1.87,1.69.2Z"/>
              <path class="st46" d="M223.95,143.36v1.68c-1.5.15-2.25-.03-2.02-1.68h2.02Z"/>
              <path class="st57" d="M260.76,157.21c1.19,1.19-.34,1.9-1.58,1.58-.31-1.25.4-2.77,1.58-1.58Z"/>
              <path class="st54" d="M200.8,128.27c.3-1.9,2.68-1.89,2.35.17-.06.37-1.28.09-1.68.17-.14-.07-.64-.31-.67-.34Z"/>
              <path class="st52" d="M218.14,133.67c1.22-.33,2.05,1.77.21,1.92-1.06.09-1.54-1.56-.21-1.92Z"/>
              <path class="st54" d="M242.03,154.39c-.14.12-1.15.19-1.33-.16-1.04-1.35,1.41-2.54,1.67-1.28.02.09-.28,1.39-.34,1.44Z"/>
              <path class="st62" d="M201.47,138.33c-.07-.05-.44-1.56-.34-1.67.06-.06,1.44-.33,1.68-.18,1.1.68-.62,2.35-1.34,1.85Z"/>
              <path class="st16" d="M260.81,152.48c.81,1.33-.74,2.37-1.48,1.31-.92-1.32.94-2.19,1.48-1.31Z"/>
              <path class="st25" d="M233.34,146.71c.15-.33.28-1.62.34-1.67,1.01-.85,3.19,2.99-.34,1.67Z"/>
              <path class="st54" d="M245.09,154.1c-1.02-1.02,1.74-2.62,2.01-1.17.16.85-1.67,1.5-2.01,1.17Z"/>
              <path class="st12" d="M242.39,149.06c-.13.19-1.49.23-1.64-.03-.1-.17-.09-1.59-.03-1.64.57-.58,2.36.62,1.67,1.67Z"/>
              <path class="st35" d="M196.78,133.3c-.86-1.88.02-2.31,1.67-1.17.13.66-1.04,1.38-1.67,1.17Z"/>
              <path class="st13" d="M222.47,147.76c1.58-.49,1.93,1.22.58,1.59-1.22.33-1.54-1.29-.58-1.59Z"/>
              <path class="st33" d="M217.58,149.41v-1.68c2.33-.28,2.28,1.98,0,1.68Z"/>
              <path class="st54" d="M251.46,161.82c-.03,1.35-.23,1.95-1.67,1.68v-1.68s1.67,0,1.67,0Z"/>
              <path class="st68" d="M256.83,156.45v-1.68c2.4-.26,1.98,1.68,0,1.68Z"/>
              <path class="st13" d="M199.12,140.35v-1.68c1.98,0,2.39,1.94,0,1.68Z"/>
              <path class="st21" d="M237.7,144.71l-1.67-.34c-.12-2.1,1.76-1.43,1.67.34Z"/>
              <path class="st38" d="M246.76,157.46c.04.11.04.9,0,1.01-2.56.51-2.23-1.74,0-1.01Z"/>
            </g>
          </g>
          <g>
            <path d="M159.19,120.21c1.5-3.33,2.66-6.55,3.34-10.18l1.02-.22-1-.49c.74-.94.43-2.36.68-3.3.08-.29.63-.22.62-.38-.08-1.88-.13-3.57.04-5.38.15-1.62,0-4.99,1.77-5.64.11-.04,2.28-.21,2.39-.19.39.08.67.79.83,1.15.72,1.57.75,7.69.62,9.6-.23,3.3-1.3,6.51-1.69,9.77-.37,1.13-1.28.68-2,.96-1.26.48-1.09,3.3-.41,3.28,1.25-1.21,1.87-1.9,3.71-2.01,3.02-.19,5.89-.43,9.05-.66,3.4-.25,12.15-1.25,14.93-.87,3.33.45,11.34,4.77,14.92,6.25,18.95,7.82,38.32,15.74,57.52,23.67,1,.45.96,1.54,1.41,2.29.23.38.82.45.9.6.27.46-.35,1.6.06,2.35.22.41.97.53.99.76.01.13-.49.57-.52,1-.03.53.43,1.19.42,1.74-.07,2.77-1.64,6.08-2.29,8.8-1.5-.01-.58.26-.87.94-.89,2.02-4.26,5.96-6.16,6.94-1.05.55-2.45,1.27-3.66,1.08-2.35-.38-1.06-1.94-1.66-2.37-.36-.27-.44.14-.67.17-.63.07-1.45.55-1.68-.33.84-.23,2.34-.96,2.81-1.71.34-.54.1-1.42.88-1.65.49-1.83,1.32-2.83,2.49-2.99.67-1.56,1.54-3.07,2.59-4.53.81-1.94,2.27-7.29-1.11-7.29-1.22,2.13-4.69.91-2.63-.96.35-.6-.07-1.59-1.34-1.01l-.66.52c-1.05-1.37-2.31-1.8-4.08-2.34-.53-.38-1.19-.56-1.98-.54-.79.28-1.29-.38-1.48-1.98l-1.72-.4c-.93-1.09-1.93-1.56-3.02-1.39-1.31-.79-2.14-1.16-3.85-1.26-1.63-.38-3.31-1-5.04-1.87-1.59,1.52-2.48,1.1-3.14-.86-.73-.51-1.02-1.05-.88-1.63-.96-.75-1.97-1.51-3.19-1.77-.4.9-1.28.47-1.04-.54-.58-.22-1.19-.35-1.82-.38.86,2-2.44,1.84-2.37-.51l-3.6-1.47c-1.96,1.95-3.57.36-3.42-2.05l-.32.1c-1.64-1.43-3.36-2.22-5.17-2.37-.28-.63-.91-.77-1.88-.42.32,1.13-1.62,4.47-2.68,3.02-1.73-1.51-1.57-2.97.92-3.19.35-.3-3.69-2.71-4.27-2.18.33.63-.78,1.53-1.51,1.33-.32,1.56-1.13,2.04-2.65,1.91.04.77-.25,1.15-.87,1.12-.64,1.59-1.13,3.18-1.47,4.76-.82.04-1.12.94-.88,1.62,1.06.35.7,1.21-.34,1.01-1.22-.28-.05.76.67,1.01.66-1.35,1.84-1.09,3.55.78l3.53,1.68c1.09-1.63,3.49-.86,3.26,1.2.13.17,3.06,2.04,3.67,1.91l.41.81c.41-.44.51-.39.29.17l1.49.15c1.44-1.05,3.31-.37,3.05,1.54,2.14.75,4.19,1.75,6.15,2.99.71-1.26,2.52-.99,2.11.51-.18.69.49,2.21,1.01,2.53.63.39,1.5-.34,1.67-.19.08.08.62,2.08.6,2.2-.04.26-.94.7-1.28,1-.22.19-.26.73-.37.8-.19.13-.72-.28-1.07-.22-.58.1-1.83,1.36-2.78,1.25-.6-.35-2.32-.85-2.72-1.1-.25-.16-.39-.92-.92-1.26-1.03-.66-6.27-3.48-7.22-3.68-3.15-.66-2.71-1.05-5.3-2.32-3.95-1.94-7.85-3.33-11.8-5.31-2.39-1.2-4.72-2.7-7.08-3.94-.34-.18-.82.16-.93.1-.54-.32-3.75-4.49-4.57-5.31-3.96-3.98-8.43-7.87-12.11-12.05-.25-.29-.5-.62-.49-1.02-.52-.36-1.77,4.18-1.95,4.59-1.67,3.84-4.92,10.01-7.22,13.25-.84,1.19-4.12,4.59-5.62,3.49-1.23-.9-.05-6.41.7-7.74.32-.57,1.18-1.15,1.31-1.44.25-.55.11-1.41.54-2.08.7-1.07.46-.55,1.03-1.69,1.15-2.32,2.3-4.75,3.49-7.04.42-1,.76-2.01,1.01-3.02Z"/>
            <path class="st2" d="M159.19,120.21l1,.84c-1.33.52-1.38.96-2.01,2.18-.02-1.14.56-2.04,1.01-3.02Z"/>
            <path class="st48" d="M190.7,121.26c.15.13.72,3.36.71,3.81-.04,2.96-1.34,5.79-3.03,7.72-.31.35-.51.99-.81,1.21-2.24,1.64-4.26-3.63-6.23-4.06-.24-.36,1.45-2.06,1.82-2.7,1.04-1.78,1.74-3.66.86-5.68,1.31-.63,2.53-.02,3.56-.03.71-.01,2.67-.64,3.12-.27Z"/>
            <path class="st40" d="M193.08,137.66c-.18.32.35.88.67,1.01-.8-.05-1.18-.13-1.67-.84-.14-.81.43-.54,1-.16Z"/>
          </g>
        </g>
        <g>
          <path class="st36" d="M125.98,153.43c.09-1.28,1.6-1.89,2.7-1.52s6.99,4.54,7.67,5.49c1.15,1.6,1.97,3.23-.33,4.25-1.08.48-1.17-.16-1.94-.4-1.47-.46-1.3-.17-2.53-1.49-.92-.99-1.88-2.23-2.89-3.3-1.09-.41-2.34-1.71-2.68-3.02Z"/>
          <g>
            <path d="M114.9,150.08c1.75.31,3.27,1.85,4.29,2.33,1.92.91,4.56,1.54,6.44,2.36.94-.23,2.69,1.09,2.35,2.01.07.39.34,3.33.29,3.5-.05.2-1.88.96-2.6,2.41-2.99,6.04-3.77,21.71,2.66,25.78,2.56,1.62,3.83-1.53,6.46-.75,3.95,1.17-.89,10.12-2.16,12.12-7.02,11.01-21.03,16.19-30.65,4.92-9.64-11.3-7.79-33.06,1.85-43.69.93-1.02,3.06-1.86,2.68-3.29-.66-.51-1.44-.85-2.35-1.01-1.03-.32-6.18-1.94-6.53-2.36-.34-.39-.56-2.85-.47-2.97.63-.85,4.34-.47,5.41-.3,3.23.53,6.46,2.29,9.64,2.94,1.11.21,1.54.03,1.28-.54-3.85-1.7-2.52-4.65,1.4-3.49Z"/>
            <path class="st47" d="M114.9,150.08c-.59-.1-2.9-.13-3.21.31-1.2,1.7,1.72,2.57,2.53,3.55-.73,1.07-1.42.29-2.01.17l1.34-.33c-4.15-1.08-3.01-5.54,1.34-3.69Z"/>
            <path class="st55" d="M125.98,153.43c.7,1.19,1.73,2.02,2.68,3.02l-.67.34c-.15-.91-1.54-1.66-2.35-2.01,1.21.16.27-.4.34-1.34Z"/>
            <path class="st27" d="M106.52,157.79l-2.35-1.01c.57.18,2.11.1,2.35,1.01Z"/>
            <path class="st44" d="M118.5,158.19c1.91-.58,3.51,1.44,3.76,3.15.39,2.69-1.63,13.55-5.81,10.84-3.41-2.22-1.45-12.92,2.05-13.99Z"/>
          </g>
        </g>
      </g>
    </g>
  </g>
</svg>