<?xml version="1.0" encoding="UTF-8"?><svg id="Layer_1" xmlns="http://www.w3.org/2000/svg" viewBox="0 0 300 300"><path d="M52.28,190.11l.7-.44c1.17,1.02,2.42,1.42,3.74,1.22.57.31,1.61,1.78,1.64,2.44.59.44,1,.43,1.24-.05,3,1.07,3.82,2.92,3.15,5.93,6.78,15.56,15.42,31.94,27.55,44.41,5.16,5.3,9.65,7.61,16.08,10.4.87.43,1.34,1.11,1.59,2,2.72-.33,4.22,2.32,2.14,3.84-2.97,4.05-6.63,7.81-10.95,10.41-16.23,12.03-44.38,15.98-63.78,10.99-1.28-.33-4.02-1.05-5.07-1.66-.39-.23-.17-.7-.22-.74-1.22-1.94-1.06-4.2.49-6.78,12.14-24.03,19.62-51.87,17.9-79.07-1.4-2.91,1.42-5.98,3.8-2.89Z" fill="#080808"/><path d="M218.32,140.72c.59-.54,5.21-2.54,5.82-2.45.72.11,2.31,1.21,3.03,1.65.96.59,6.26,4.49,6.71,5.1,2.31,3.08,5.12,13.16,4.85,16.98-.47,6.59-8.86,22.35-14.44,26.02-2.46,1.62-12.51,4.83-13.46,6.24-.53.79.09,2.59-.06,3.86-.26,2.17-3.43,9.49-4.45,12.01-.73,1.81-3.96,9.95-4.81,10.84-.81.84-2.45.44-3.24,1.51-2.93,4.25-5.68,8.93-8.8,13.03-1.03,1.36-3.3,3.1-4.04,4.55-.44.86-.32,2.2-.4,2.28-.09.09-1.8-.07-2.52.16-1.12.35-1.16,1.35-1.67,1.66-1.05.65-3.02-1.26-2.99,2.29.02,2.6,1.2,2.73,1.79,4.04.41.91.69,2.3,1.1,3.3l-1.97-3.57c-1.97,1.43-4.12,3.3-6.15,4.58-.91.58-4.01,2.49-4.79,2.75-.58.19-1.31-.29-1.41-.18-.07.08.2.72-.22,1.11-.23.21-3.73,1.65-4.43,1.94-9.08,3.7-19,5.6-28.83,5.19-7.79-.32-15.38-2.65-22.52-5.63-3.27,3.84-6.49,8.2-11.26,10.28,2.83-2.1,9.73-7.95,10.9-11.11s-1.91-2.11-2.62-2.54c-.14-.08-.29-1-.59-1.37-.98-1.18-8.54-3.79-11.24-5.94-10.78-8.62-18.19-19.6-24.55-31.63-1.79-3.38-8.36-15.1-8.96-17.91-.36-1.66,1.03-3.28-.89-4.8-.77-.61-1.72-.77-2.84-1.63.3-1.42.07-3.97-1.46-4.57-.22-1.3-.21-2.7.03-4.19-2.01-10.88-2.64-22.24-3.14-32.87-1.07-.39-1.57-.95-1.52-1.68.71.29,1.49-.08,2.48.92,4.13,4.18,8.33,9.09,11.12,14.11-.96.19-1.79-.35-2.5-1.63l-2.56-3.57c-.32.21-.2,6.61.73,7.51-1.18,1.99-1.02,3.08.48,3.28l.32.77c-1.5,1.89-1.65,2.52.16,4.03-.38.86-.58,1.73-.59,2.59,1.74.72,2.24,2.05.34,2.95.4.86.94,1.65,1.64,2.36-.95,1.19-.94,2.51.04,3.98-.15,1.89.27,3.16,1.26,3.81,7.45,39.66,45.86,79.16,89.04,64.37l1.82.09c.14-.99.3-.88.72,0v-.78s3.49-1.76,3.49-1.76c.75-1.95,1.8-2.49,3.16-1.62,8.77-5,17-11.77,23.03-20.11l1.46-.79c.64-1.31,1.21-2.75,1.7-4.3,1.36.06,4.66-5.3,4.76-6.03-.49-1.27-.65-2.52,1.04-2.58.8-.75,3.07-3.81,2.56-4.9,3.19-5.62,5.11-11.95,7-18.27.29-.48.69-.86,1.19-1.13.7-1.49.58-2.21-.36-2.15-2.64-.65-.07-2.43,1.9-1.14,1.06-.58,1.98-.79,2.75-.65,1.01-.23,2.47-1.14,2.93-2.02.64-.19,1.33-.23,2.08-.13-.76-.08-.87-1.13-.29-1.62,3.95-1.88,7.71-4.74,10.62-8.21l1.12-.19c-.46-.58-.1-.94,1.07-1.07l-.3-.81c1.9-2.89,3.96-6.02,4.39-9.49-1.18-2.15-.99-3.45.59-3.91l-.3-1.76c-1.68-.49-1.62-2.04-.1-2.85-.34-3.41-1.86-6.13-3.79-8.84l.22-.97c-.6-.08-.81-.49-.72-1.07-.54.41-.85.09-.92-.96l-.51-.47c-.91.42-1.8-.08-2.66-1.5-.9-.14-1.57-.48-1.99-1.01.03-.32-.21-.32-.72,0-.72.35-.85-.02-1.03-.71-.97-.1-1.58-.46-1.84-1.08Z" fill="#0d0d0d"/><path d="M43.33,138.22c.65-.21,3.91-1.84,4.29-1.43.17,2.2-1.08,4.07-.33,6.24-2.04.78-5.23.91-5.69,3.68-.57,3.39,4.05,1.76,4.76,1.92.53.13.44,1.58,1.24,1,.05-.03-.06-.6.26-.68,2.21-.59,3.07.53,4.42,1.08l-.73.49c-2.06-.8-2.83-.67-4.56.48-.88-1.4-2.49-.62-3.73.25-2.99,2.09-4.82,5.03-5.47,8.62,2.03.62,1.32,2.37-.48,2.78-1.17,9.06,4.37,18.72,11.51,24.03,1.55.08,2.36.6,2.45,1.58,1.11.28,2.36,1.15,1.02,1.86-.78-.38-1.42-1.21-2.51-.55-1.97,1.21-.69,8.08-.68,10.03.12,20.41-4.61,41.45-12.3,60.37-1.45,3.57-7.5,14.03-7.38,16.9.03.67.46,1.37.69,1.99-.14-.14-.83.43-1.04-1.28-.33-2.7.93-4.86,2.01-7.22,10.86-23.77,17.29-43.72,17.29-70.4,0-2.37.03-4.75-.07-7.11-5.93-3.81-11.67-8.87-14.67-15.39-3.92-8.5-4.13-18.58.68-26.65.18-.3,1.3-2.08,1.38-2.19,2.71-3.49,5.65-3.73,8.8-5.15.42-.19,1.58-.59,1.74-.86.34-.59,1.01-4.79.71-5.11l-3.58.71Z" fill="#0d0d0d"/><path d="M43.33,138.22c-6.17,2.05-18.63,3.7-25.22,3.2-8.07-.61-2.92-5.12-.9-8.75,10.89-19.5,16.47-43.88,26.93-64.33C59.57,38.17,93.39,3.38,128.31,31.23c1.31,1.05,5.34,5.74,6.45,5.7.4-.01,2.23-1.27,2.65-1.63,1.69-1.42,4.07-6.76,4.94-9.02.68-1.77,1.22-5.4,1.96-6.63.66-1.1,2.44-1.62,3.33-.61,1.45,1.65-1.71,9.42-2.68,11.45,6.27-2.02,12.97-4.19,19.55-4.96,16.71-1.97,34.97,3.26,48.7,12.76,35.85,24.8,41.8,68.92,48.13,108.96,4.22,26.68,7.38,53.67,11.25,80.29,2.14,14.7,4.46,28.46,8.08,43.16.88,3.58,3.5,9.68,2.69,13.26-.47,2.08-4,2.93-5.83,3.05-6.45.42-15.77-1.21-22.55-1.71-24.56-1.81-63.49-4.72-74.25-31.49l-1.65-3.64c-2.81-1.09-3-7.7,1.39-6.6.78-1.71,2.17-1.97,3.9-1.96l.2-1.31c4.56-5.75,9.26-11.74,13.13-18.25,1.01-.72,2.12-1.26,3.34-1.63,3.39-7.24,6.62-14.72,9.01-22.37-.43-3.95-.35-4.2,2.9-5.9l10.28-4.34c6.06-3.79,14.17-18.77,14.78-25.85.31-3.6-2.46-13.66-4.69-16.48-.82-1.04-8.19-6.31-9.2-6.47-1.9.78-3.83,1.35-5.81,1.72,1.67,1.08-1.24,2.74-1.43.72l-1.07.72c.18.31.19.61,0,.91-2.14,1.21-3.76,2.29-4.38,4.85-.79,2.98-3.01,11.01-6.78,11.25-1.26.08-2.08-.27-1.02-1.27-.94.12-1.06-.48-.36-1.79-.14-.1-.29-.18-.45-.22-.29-.07-3.29,3.94-3,4.86-1.32.08-2.19.72-2.61,1.92-4.45,4.69-9.26,9.15-14.37,13.14-2.48,1.93-4.5,3.27-7.31,4.32-.29,1.36-1.26,1.72-2.91,1.07-.6.38-1.02.61-1.56-.05-.1,1.05-1.34,1.28-1.79.36l-.33.83c-1.51.65-5.8,1.57-6.82.24-1.38-.35-2.36-.26-2.95.29-2.05-.69-4.29-1.26-6.71-1.72-1.98,1.01-5.43-1.18-7.02-2.59l-.14-.99-1.8-1.25c-.88.24-1.47-.3-1.78-1.61-1.91.19-4.5.36-3.33-2.48-1.55-1.2-2.11-2.4-1.68-3.6l-1.01-1.91c-.32.1-.58-.46-.78-1.67-.74.71-1.39.1-1.96-1.84l-1.66-4.82c-.89-3.13-4.23-4.29-6.21-1.43,2.04.7,1.17,2.55-.82,2.22-2.54,5.1-5.33,10.32-9.32,14.39l-.78-.29c.38,1.07-.09,1.67-1.43,1.79-.25,2.6-4.29,4.59-6.66,5.59-4.3,1.82-8.89,2.2-13.51,2.04-.35,2.19-2.65,1.56-2.43-.66-3.52-.39-6.95-1.16-10.3-2.3l-2.49-2.29c-1.11.64-2.16,0-3.13-1.94-2.03-1.41-3.83-3-5.37-4.79-1.98-.17-3.08-.37-1.66-2.5-1.72-1.26-2.16-2.32-1.33-3.19l-4.8-6.67c-.35-.02-.66-.07-.81-.25-1.51-1.77-3.02-3.5-4.59-5.22-.78-1.8-1.66-2.46-3.39-2.89-2.2-1.35-3.91-1.34-5.11.04l-.95-1.05c-4.71,1.97-7.89-2.17-3.11-4.77l3.11-1.23c.58-.97,1.62-5.29.5-5.81l-3.38,1.01Z" fill="#080808"/><path d="M134.22,70.58c-.41.44-1.84-1.29-1.43-1.79.86-.27,1.65,1.55,1.43,1.79Z" fill="#626262"/><path d="M157.49,132.85c.95.11.91.44,0,.72-5.34.71-12.06,2.98-16.82,5.37-.5.34-.74.11-.72-.72-.01-.07-.57-.3-.21-.72,1.08-1.27,3.31-.22,3.43-.35.09-.1-.19-1.08.35-1.63,1.43-1.46,11.62-2.78,13.97-2.67Z" fill="#f4f4f4"/><path d="M137.09,74.16c.43.53,1.33.86,1.6,1.44.32.69-.03,1.62.73,2.14.57.11,1.02-.88,1.24-.72.04.03.03.52.39.86.73.68,4.59,3.32,4.61,3.61.08,1.16-3.01,1.48-3.91,1.07-.78-.35-4.33-4.97-4.66-5.9-.29-.22-.41-.53-.49-.88-.19-.84-.45-2.32.49-1.63Z" fill="#f8f8f8"/><path d="M109.18,134.28c.78.39,1.3.65,2.15.72.42.19,1.32.78,1.79,1.07-1.8.03-1.58-1.04-2.14.9-.09.3,2.03-.13,1.78,1.25-4.54-2.11-9.35-3.57-14.32-4.3-.11-.94.03-.56.53-.72,2.17-.7,7.82.45,10.21,1.08Z" fill="#efefef"/><path d="M135.66,141.08c1.02-.42,1.07-.31.72.72-.33.31-.45,1.09-1.19,1.02-.3-.03-3.53-2.08-4.53-2.46.71.19.76-.46,1.07-.72.66.42.78.3.36-.36,1.14-1.11,1.29-1.6,2.15-2.5.15.95-.87,2.15-.67,2.97s1.38.91,2.1,1.32Z" fill="#e7e7e7"/><path d="M172.87,139.29c-1.67.33-2.91-.54-3.93-1.78,1.5-.13,3.66-.26,3.93,1.78Z" fill="#d8d8d8"/><path d="M137.09,76.67c-1.21-.38-.45-2.01-.76-2.46-.18-.27-2.15-.36-1.75-2.37,1.02-.43,2.1,1.81,2.51,2.32-.71.47-.24,1.82,0,2.5Z" fill="#d2d2d2"/><path d="M139.24,138.93c.74,0,.49.27,0,.72-1,.61-2,1.33-2.86,2.15-.24-.19-.47-.58-.72-.72,1.02.1,1.16-1.49,2.17-1.96.58-.27.94-.11,1.41-.19Z" fill="#dadada"/><path d="M111.32,135c-1.4-.39.27,1.78-.89,1.78-1.23,0-.1-2.32-1.25-2.5.98.26,1.19.29,2.15.72Z" fill="#252525"/><path d="M149.26,85.97c.04.22-.06.53,0,.72.01.8-.11,1.84-1.07,1.43-.36-.29-.81-.48-1.07-.9v-.53c.06-.09,1.81-.54,2.14-.72Z" fill="#bcbcbc"/><path d="M97.36,133.21s-.02.49,0,.71h-2.14c-.22-.55,1.96-.88,2.14-.71Z" fill="#a0a0a0"/><path d="M140.67,138.93c-.38.19-1.19.57-1.43.72v-.72c.61-.1.87.27.72-.72l.72.72Z" fill="#434343"/><path d="M157.49,132.85c.47.02.96-.02,1.43,0,.24,1.14-.65.61-1.43.71v-.72Z" fill="#898989"/><path d="M149.26,85.97c.63-.35,1.19-1.32,1.81-1.28,1.67.11,1.27,1.48,1.43,1.63.11.1,1.93-.46,2.95.09.64.35.77,1.2,1.18,1.3.6.14,2.02-.71,3.45.06,1.99,1.08.66,3.08.7,4.48.03.96,1.57,4.4.66,5.01-.2.14-3.93-.24-4.84-.19-2.01.1-3.98.61-5.91,1.07-1.05-.16-1.42-.06-2.15.72-.83.25-1.6.4-2.5.72-.63.14-1.22.38-1.79.72-4.85,1.65-6.99,3.61-12.6,2.41-3.98-.85-7.09-3.08-10.56-4.47-1.55-.62-4.25.13-3.98-2.7,1.16-.74,4.47-6.75,5.13-7.05.28-.12.19.89.69.98.22.04.78-.31,1.36-.21,2.05.36,3.88,1.94,6.83,1.95,1.69,0,2.98-.8,4.02-.94.75-.1,1.6.48,2.08.34.6-.17.4-1.15.8-1.45.23-.17,3.93-1.04,4.27-1.01.25.02,1.81,1.03,1.86,1.13.24.41-.02,1.24.08,1.35s1.41-.1,1.9,0c.29.06.28.58.51.7,1.4.73,4.42,1.8,4.03,3.59,1.04.4,1.03-.64,1.31-.71,1.23-.29,2.44.01,3.16,1.06l.89-.89c-1.19-.62-.92-2-1.4-2.8-.18-.3-.76-.35-.89-.59-.19-.33.5-1.75-1.1-1.46-.14.03-.19.74-.36.75-.24,0-2.6-1.19-3.04-1.45-.44-.52-.44-1.24,0-2.15-.96-.08-.78-.26,0-.72Z" fill="#fff"/><path d="M144.25,100.28c1.58-.85.02-.6-.02-.9-.11-.42.18-1.17.56-1.25,1.42-.31-.01,1.86,1.25,1.43-.47.16-1.07.47-1.79.72Z" fill="#424242"/><path d="M148.54,98.85l.18-2.14,1.97,1.42c-.53.13-1.49.51-2.15.72Z" fill="#1f1f1f"/><path d="M149.26,88.83c-.43-.26-.66-.38-1.07-.72l1.07-1.43c.26.84.51,1.1,0,2.15Z" fill="#3f3f3f"/><circle cx="131.56" cy="101.01" r=".8" fill="#3e3e3e"/><path d="M141.39,97.06c-.32-.23-.53-2.02.53-1.78,1.12.25.27,2.36-.53,1.78Z" fill="#474747"/><circle cx="120.64" cy="94.4" r=".8" fill="#4c4c4c"/><path d="M135.48,100.64c1.29-.29.75,1.77,0,1.78-.56,0-.81-1.6,0-1.78Z" fill="#4c4c4c"/><path d="M124.75,95.63c1.12-.26,1.18,1.83-.36,1.43-.86-.22-.14-1.31.36-1.43Z" fill="#292929"/><path d="M138.16,93.49c.59.59-.91,2.27-1.43.89-.46-1.23,1.27-1.04,1.43-.89Z" fill="#333"/><circle cx="157.57" cy="91.06" r=".75" fill="#2e2e2e"/><circle cx="124.29" cy="92.49" r=".75" fill="#171717"/><circle cx="128.42" cy="92.85" r=".75" fill="#404040"/><circle cx="145.76" cy="94.48" r=".75" fill="#272727"/><circle cx="159" cy="95.72" r=".75" fill="#555"/><circle cx="130.21" cy="96.26" r=".75" fill="#323232"/><circle cx="127.87" cy="99.29" r=".75" fill="#202020"/><circle cx="133.51" cy="93.12" r=".69" fill="#414141"/><path d="M141.74,92.77h-1.07s0-1.43,0-1.43h.53c.56.38.62.77.54,1.43Z" fill="#545454"/><path d="M134.58,96.71v1.43s-.53,0-.53,0c-.56-.38-.62-.77-.54-1.43h1.07Z" fill="#0e0e0e"/><path d="M141.74,99.93c.51.65-1.18,1.64-1.43.53-.21-.94,1.19-.83,1.43-.53Z" fill="#2c2c2c"/><path d="M138.52,97.42c.47.47-.62,2.12-1.07.89-.38-1.06.8-1.16,1.07-.89Z" fill="#353535"/><path d="M137.8,84.53c-1.03.23-7.25,2.51-7.51,2.15-.14-.18.22-1.46-.55-1.79-1.57.08.03,1.51-1.07,1.44-1.97-.13-4.77-1.46-3.05-3.68.34-.44,1.06-.55,1.28-.98.13-.25,0-2.67.59-3.16.2-.16,1.74-.05,1.72-.6,0-.08-.68-.41-.65-1.33.05-1.31,1.34-3.13,1.38-4.58,1.79.48.42,2.34.86,2.88.27.33,1.08.27,1.46.71.32.36.52,1.58.97,2.26,1.29,1.97,2.78,3.91,4.41,5.61l.18,1.07Z" fill="#fefefe"/><circle cx="134.5" cy="82.67" r=".75" fill="#3e3e3e"/><path d="M131,82.39c-.27.27-1.45.17-1.07-.89.44-1.23,1.54.42,1.07.89Z" fill="#323232"/><path d="M132.79,77.74v1.43c-1.45-.33-1.7-1.73,0-1.43Z" fill="#2e2e2e"/><path d="M61.94,135c1.05-2.7,5.19-5.48,7.34-7.87.9-1,2.85-4.18,3.56-4.7.83-.61,2.72,1.07,1.27-1.75,1.05-.47,2.07,0,2.96-.07.42-.03.83-.57,1.44-.56.97.02,1.56.92,2.31,1.24,2.25.98,1.82-.27,3.47-1.33,1.76-1.13,4.25-1.11,4.5-1.25.18-.1.22-.69.79-1.01,1.49-.83,7.98-1.99,9.75-2.03,2.37-.06,4.87.68,7.33.36.15.13-.59,1.57-.35,1.78.95.89,1.13-1.06,1.26-1.09,1.03-.3,2.68.51,3.75.74l1.02.35c-.16.81-.17,1.63.77,1.08.08-.16-.09-.64,0-.72.22-.18,4.41,1.59,5.08,1.89,2.95,1.32,4.47,2.58,7.8,3.12.68.2.68.51,0,.72,0,.36,0,.72,0,1.07,1.01.32,1.36-.77,2.02-.97.39-.12,3.63.3,4.78.26,1.55.14,3.1.02,4.65-.36.75-.18,1.44-.11,1.82-.21.93-.26,3.17-1.47,3.79-1.52.5-.04,2.39,1.75,1.54-.77,2.65-.72,5.09-2.06,7.72-2.85.95-.28,5.82-1.56,6.37-1.48.42.07.37,1.29,1.12,1.1.37-.09.19-1.22,2.33-1.43,2-.15,3.9.09,5.73.72.76.85,2.15,4.52,2.92,5.85.9,1.54,2.04,2.98,3.04,4.3,1.29,1.7,2.68,3.26,4.06,4.88-1.12.16-5.46-1.49-6.22-2.1-.5-.41-.08-1.32-.22-1.47-.3-.32-1.41.65-2.15.59-.88-.08-1.6-.78-2.35-.92-2.35-.44-5.49-.57-7.77-1.09-.15-.03-1.9-2.73-1.33.35-1.31-.85-2.28.38-3.02.38-.35,0-.3-1.27-1.08-1.09-.11.03-.83.85-1.43,1.1-1.14.49-2.14-.18-2.78.04-.46.16-.74.69-1.26.9-2.66,1.12-1.81-.81-2.76-.62-.73.15-.13,1.37-.51,1.61s-1.18.21-1.71.46c-3.25,1.52-6.58,3.53-9.05,6.16l-1.35,2.73c-.25-.23-.51-.33-.79-.22.1.34-.01.46-.36.36.36,1.01,0,1.24-1.07.72-.29-.11-.93.14-1.46-.17-.3-.18-.06-.76-.18-.91-.96-1.15-1.55-.13-.86,1.07-2.56.13-5,1.18-6.97,2.78-2.76-1.71-5.4-3.52-8.41-4.92l-.45-.54c-1.83-.53-2.27-.91-1.34-1.13-.18-1.18.54-1.34,2.15-.47.11.07.49-.03.71.18.4.37.64,2.14,1.41,1.57.41-.3-.34-1.2,1.82.04.99.34,1.96.73,2.9,1.14l.24-.73c.89.05,1.51-.2,1.87-.77.42-.08.97.06,1.43,0-.38-.63-.21-2.52-.4-2.81-.14-.21-3.65-1.54-4.39-2.23-.52-.48-.8-1.69-1.12-1.76-.45-.09-.84.73-1.35.66-.82-.12-3.39-1.48-4.63-1.83-1.37-.39-3.51-1.01-4.84-1.25-1.02-.18-2.4.12-3.1-.06-.41-.11-.13-1.58-1.11-1.45-.56.22-.39,1.41-.76,1.46-1.24.16-3.5-.17-4.97-.03-1.3.13-3.43.9-4.45.91-.58,0-.99-.72-1.59-.54-.4.12-.59.99-1.18,1.35-.88.52-4.31,1.93-5.48,2.4-.55.22-1.4.06-1.8.34-.45.32-.11,1.16-1.2,1.66-.45.21-3.87.79-4.27.69-.45-.11-.38-1.44-1.5-1.09-.86,2.29-1.43,1.56-3.04,1.93-1.72.4-1.82,1.12-3.94.21.43,1.6-1.69,1.13-2.95,1.54-.51.16-.95.49-1.35.61-2.29.88-3.01-.19-2.15-3.22Z" fill="#fff"/><path d="M122.06,137.5c.23,1.46-.34,1.07-1.43,1.07.76,2.89-2.44.09-3.58-.71,1.59.55,3.4-.06,5.01-.36Z" fill="#0f0f0f"/><path d="M64.09,138.22c-1.39.42-2.75,1.3-4.29,1.07-.29-1.14.83-.49,1.25-1.06.28-.38.54-2.33.89-3.23-.15,1.85-.13,3.48,2.15,3.22Z" fill="#202020"/><path d="M167.86,117.46c-1.88-.58-.07,1.62-1.61,1.43-1.26-.16.25-1.74.17-1.78l-4.29-.36c1.41-.14,4.8-.31,5.73.72Z" fill="#212121"/><path d="M137.45,123.9s.05.22-.54.35c-1.55.34-1.8-.82-1.61,1.8-1.63.2-.86-.25-1.05-1.2-.1-.52-1.28,0-1.46-.59,1.58-.06,3.07-.42,4.65-.36Z" fill="#303030"/><path d="M111.32,117.46c.41.09.98-.06,1.43,0-.09.92-.91,1.61.36,1.43-.26.54-.45.36-1.07.36.07-.85.12-1.43-.72-1.79Z" fill="#494949"/><path d="M125.99,123.19c.44.07.97-.05,1.43,0-.13.66-.85.74-1.43.71,0-.24,0-.48,0-.72Z" fill="#737373"/><path d="M95.58,124.26c-.33.33-1.87.31-1.39-1.21.52-1.64,2.02.57,1.39,1.21Z" fill="#404040"/><path d="M112.75,122.47c.96.7-.77,2.38-1.43,1.43-.49-.71.75-1.92,1.43-1.43Z" fill="#333"/><circle cx="78.94" cy="131.34" r=".84" fill="#515151"/><circle cx="136.73" cy="129.8" r=".81" fill="#595959"/><path d="M123.85,126.05c.13.64.67,1.46-.18,1.78-1.73.66-.71-2.45.18-1.78Z" fill="#474747"/><circle cx="161.42" cy="124.43" r=".81" fill="#3d3d3d"/><path d="M90.92,124.26c.46.35.02,1.77-.54,1.78-1.31.02-.74-2.75.54-1.78Z" fill="#363636"/><path d="M151.76,123.9c.2.2,0,1.61-.53,1.78-1.84-.97-.06-2.38.53-1.78Z" fill="#3c3c3c"/><rect x="106" y="124.25" width="1.52" height="1.28" transform="translate(-57.09 112.68) rotate(-45.22)" fill="#3e3e3e"/><path d="M124.92,138.58c.59.59-.91,2.27-1.43.89-.46-1.23,1.27-1.04,1.43-.89Z" fill="#474747"/><path d="M72.31,132.85c.15.15.34,1.88-.89,1.43-1.38-.51.3-2.02.89-1.43Z" fill="#4e4e4e"/><path d="M129.4,131.42c.66-.15,1.02.73.89,1.25-.36,1.37-2.29-.94-.89-1.25Z" fill="#4e4e4e"/><path d="M67.49,131.42c.66-.15,1.02.73.89,1.25-.36,1.37-2.29-.94-.89-1.25Z" fill="#4b4b4b"/><path d="M141.74,129.27c.15.15.34,1.88-.89,1.43-1.38-.51.3-2.02.89-1.43Z" fill="#373737"/><path d="M127.25,127.84c1.27-.33,1.6,1.23.71,1.43-.63.14-1.71-1.17-.71-1.43Z" fill="#434343"/><path d="M119.91,128.19c-.16.23-2.14.37-1.78-.53.47-1.18,2.28-.18,1.78.53Z" fill="#3a3a3a"/><path d="M170.01,124.62c.15.15.34,1.88-.89,1.43-1.38-.51.3-2.02.89-1.43Z" fill="#4a4a4a"/><path d="M154.81,123.19c1.27-.33,1.6,1.23.71,1.43-.63.14-1.71-1.17-.71-1.43Z" fill="#282828"/><path d="M101.66,124.26c-.15-.15-.34-1.88.89-1.43,1.38.51-.3,2.02-.89,1.43Z" fill="#292929"/><path d="M162.14,121.04c-.15-.15-.34-1.88.89-1.43,1.38.51-.3,2.02-.89,1.43Z" fill="#4a4a4a"/><path d="M102.73,118.18c.37.37-.04,2.16-1.07,1.43-.83-.59.42-2.08,1.07-1.43Z" fill="#3a3a3a"/><circle cx="109.26" cy="120.77" r=".75" fill="#4c4c4c"/><circle cx="116.06" cy="121.12" r=".75" fill="#404040"/><circle cx="78.13" cy="122.55" r=".75" fill="#464646"/><circle cx="115.53" cy="125.25" r=".75" fill="#2c2c2c"/><path d="M138.16,127.12c-.85-.68.73-2.55,1.07-1.25.2.77-.64,1.59-1.07,1.25Z" fill="#404040"/><path d="M110.96,126.05c.23.16.39,1.22-.18,1.43-1.59.57-1.05-2.3.18-1.43Z" fill="#3e3e3e"/><circle cx="82.78" cy="128.83" r=".75" fill="#171717"/><circle cx="121.43" cy="131.14" r=".75" fill="#292929"/><circle cx="134.14" cy="132.93" r=".75" fill="#515151"/><circle cx="131.45" cy="136.15" r=".75" fill="#282828"/><circle cx="94.86" cy="118.89" r=".69" fill="#242424"/><circle cx="152.12" cy="120.68" r=".69" fill="#0c0c0c"/><path d="M147.47,121.75c-.8-1.13,1.2-1.54,1.43-.53s-1.24.79-1.43.53Z" fill="#323232"/><path d="M87.7,122.47c-.41.41-1.88-.5-1.43-1.07.66-.83,2.05.45,1.43,1.07Z" fill="#454545"/><circle cx="166.43" cy="122.11" r=".69" fill="#282828"/><circle cx="84.84" cy="124.97" r=".69" fill="#383838"/><path d="M73.39,126.76c-.75-.76,1.18-1.97,1.43-.89.17.75-1.17,1.15-1.43.89Z" fill="#2a2a2a"/><circle cx="142.81" cy="126.05" r=".69" fill="#303030"/><path d="M64.98,134.65c.88.01.88,1.76,0,1.77-.67,0-.67-1.78,0-1.77Z" fill="#474747"/><circle cx="114.18" cy="128.91" r=".69" fill="#363636"/><circle cx="125.28" cy="131.77" r=".69" fill="#515151"/><path d="M75.54,129.99c.64.8-2.04,1.92-1.43.18.21-.58,1.25-.4,1.43-.18Z" fill="#323232"/><rect x="131.72" y="128.55" width="1.43" height="1.07" fill="#383838"/><path d="M95.58,126.77v.53c-.38.56-.77.62-1.43.54v-1.07s1.43,0,1.43,0Z" fill="#3a3a3a"/><path d="M99.51,126.05h-1.43s0-1.07,0-1.07c.66-.08,1.05-.02,1.43.54v.53Z" fill="#373737"/><path d="M147.46,124.62v1.43s-1.07,0-1.07,0c-.08-.66-.02-1.05.54-1.43h.53Z" fill="#414141"/><path d="M80.55,125.69c-.22-.22.16-1.42.53-1.42,1.39,0,.39,2.35-.53,1.42Z" fill="#373737"/><path d="M159.63,122.47h-1.43s0-1.07,0-1.07c.66-.08,1.05-.02,1.43.54v.53Z" fill="#464646"/><path d="M99.15,120.68v1.43s-.53,0-.53,0c-.56-.38-.62-.77-.54-1.43h1.07Z" fill="#2f2f2f"/><path d="M92,120.33c.22.22-.16,1.42-.53,1.42-1.39,0-.39-2.35.53-1.42Z" fill="#1f1f1f"/><path d="M156.41,119.96c-.27.27-1.45.17-1.07-.89.44-1.23,1.54.42,1.07.89Z" fill="#242424"/><path d="M120.27,123.19c.27.27.17,1.45-.89,1.07-1.23-.44.42-1.54.89-1.07Z" fill="#1f1f1f"/><path d="M165.71,126.41c-.27.27-1.45.17-1.07-.89.44-1.23,1.54.42,1.07.89Z" fill="#323232"/><path d="M127.42,135c.47.47-.62,2.12-1.07.89-.38-1.06.8-1.16,1.07-.89Z" fill="#333"/><path d="M77.33,127.84c-.27-.27-.17-1.45.89-1.07,1.23.44-.42,1.54-.89,1.07Z" fill="#282828"/><path d="M87.7,127.48c.47.47-.62,2.12-1.07.89-.38-1.06.8-1.16,1.07-.89Z" fill="#2a2a2a"/><rect x="129.93" y="124.98" width="1.07" height="1.07" transform="translate(-.45 .47) rotate(-.2)" fill="#333"/><path d="M99.15,117.82c-.63.68-1.6-1.43-.53-1.42.37,0,.76,1.18.53,1.42Z" fill="#1c1c1c"/><rect x="70.17" y="128.55" width="1.07" height="1.07" transform="translate(-58.64 199.34) rotate(-89.8)" fill="#232323"/><path d="M104.88,121.75c-.22-.24.17-1.42.53-1.42,1.07-.01.1,2.1-.53,1.42Z" fill="#5d5d5d"/><path d="M132.08,139.29c2.01.07-.28,2.36-.36.36.13-.11.24-.24.36-.36Z" fill="#272727"/><path d="M122.42,104.22c.56.78,1.27,1.02,2.15.72,2.31,1,4.58,2.32,7.14,2.7,1.79.27,4.11-.15,5.5.17.32.07.11,1,1.13.72.17-.05.86-1.9,2.86-1.81,0,.77.65,1.65,1.26,1.08.16-.15-.29-1-.25-1.27.11-.71,10.11-4.45,11.45-4.11.39.1.41.86.79,1.08.97-3.13,5.43-1.24,8.05-2.14-.41,1.59,3.38,10.59,2.86,11.09-1.22,0-2.52-.39-3.73-.35-1.06.03-9.45,1.16-9.87,1.43-.52-.26-.99-.02-1.43.72-5.43,1.42-11.82,5.46-17.35,5.4-2.1-.02-10.09-2.45-11.77-3.65-.51-.37-.7-1.21-1.17-1.35-.4-.12-1.01.28-1.57.16-.36-.08-3.08-.99-3.21-1.1-.45-.34-.27-1.16-.36-1.25-.16-.16-1.71.38-2.29.36-1.06-.02-7.67-1.15-8.89-1.44-.4-.09-.58-1.64-1.63-1.02-.39.23-.6,1.67-2.56,1.01l6.81-5.17c2.59-.11,1.3-.53,2.11-1.83.16-.26,4.34-3.85,4.64-3.92.33-.07,5.4,1.74,5.87,2.05.52.34.96,1.32,1.14,1.33.2.01.68-.6,1.07-.58.44.02.95.84,1.26.96Z" fill="#fff"/><path d="M124.56,104.94c-1.5,1.91-1.71,1.33-2.15-.72.63.25,1.28.34,2.15.72Z" fill="#5b5b5b"/><path d="M151.76,113.52c-.59.39.56.2-1.43.72-.46-2.01.89-2.73,1.43-.72Z" fill="#313131"/><path d="M146.22,105.65c1.18-.26,1.26,2.22-.36,1.78-.99-.27-.23-1.65.36-1.78Z" fill="#494949"/><circle cx="131.18" cy="113.53" r=".81" fill="#434343"/><path d="M163.93,109.95c.2.2-.05,1.77-.53,1.78-1.87.04-.38-2.69.53-1.78Z" fill="#303030"/><path d="M115.62,106.01c-.32-.23-.53-2.02.53-1.78,1.12.25.27,2.36-.53,1.78Z" fill="#535353"/><path d="M110.96,109.59c.32.23.53,2.02-.53,1.78-1.12-.25-.27-2.36.53-1.78Z" fill="#4b4b4b"/><path d="M154.62,106.01c.2-.2,1.61,0,1.78.53-.97,1.84-2.38.06-1.78-.53Z" fill="#464646"/><path d="M142.81,114.24c.59.59-.91,2.27-1.43.89-.46-1.23,1.27-1.04,1.43-.89Z" fill="#3d3d3d"/><path d="M147.11,114.6c-.15.15-1.88.34-1.43-.89.51-1.38,2.02.3,1.43.89Z" fill="#3c3c3c"/><path d="M136.01,113.17c.15.15.34,1.88-.89,1.43-1.38-.51.3-2.02.89-1.43Z" fill="#555"/><path d="M139.95,112.45c-.15.15-1.88.34-1.43-.89.51-1.38,2.02.3,1.43.89Z" fill="#2d2d2d"/><path d="M119.19,110.66c.15.15.34,1.88-.89,1.43-1.38-.51.3-2.02.89-1.43Z" fill="#4e4e4e"/><path d="M147.65,109.23c.63-.14,1.71,1.17.71,1.43-1.27.33-1.6-1.23-.71-1.43Z" fill="#4d4d4d"/><path d="M152.47,109.59c-.15.15-1.88.34-1.43-.89.51-1.38,2.02.3,1.43.89Z" fill="#434343"/><path d="M127.42,106.73c.15.15.34,1.88-.89,1.43-1.38-.51.3-2.02.89-1.43Z" fill="#434343"/><path d="M112.04,105.65c.15.15.34,1.88-.89,1.43-1.38-.51.3-2.02.89-1.43Z" fill="#2b2b2b"/><path d="M151.4,104.58c.21.21-.06,1.25-.54,1.43-1.9.69-.42-2.37.54-1.43Z" fill="#3f3f3f"/><path d="M159.27,102.79c.15.15.34,1.88-.89,1.43-1.38-.51.3-2.02.89-1.43Z" fill="#282828"/><circle cx="161.15" cy="106.64" r=".75" fill="#505050"/><path d="M118.48,107.8c-.34-.43.48-1.27,1.25-1.07,1.3.34-.57,1.91-1.25,1.07Z" fill="#383838"/><circle cx="130.56" cy="109.31" r=".75" fill="#272727"/><circle cx="122.86" cy="109.51" r=".75" fill="#2d2d2d"/><circle cx="127.15" cy="111.46" r=".75" fill="#484848"/><circle cx="106.31" cy="109.23" r=".69" fill="#333"/><rect x="114.19" y="108.51" width="1.43" height="1.07" fill="#2e2e2e"/><rect x="157.84" y="108.87" width="1.43" height="1.07" fill="#393939"/><path d="M144.24,111.74c-1.9-.25-1.03-2.82-.17-1.43.27.44.17.96.17,1.43Z" fill="#363636"/><rect x="137.8" y="116.03" width="1.07" height="1.43" fill="#3c3c3c"/><circle cx="134.22" cy="117.81" r=".69" fill="#353535"/><path d="M113.47,101.72v1.43s-1.07,0-1.07,0c-.08-.66-.02-1.05.54-1.43h.53Z" fill="#3f3f3f"/><path d="M127.42,114.96v1.43c-1.42,0-1.41-1.43,0-1.43Z" fill="#0e0e0e"/><path d="M123.85,112.81c.47.47-.62,2.12-1.07.89-.38-1.06.8-1.16,1.07-.89Z" fill="#191919"/><path d="M155.69,111.02c0,1.41-1.42,1.42-1.43,0h1.43Z" fill="#0e0e0e"/><path d="M134.94,109.23v1.43c-1.42,0-1.41-1.43,0-1.43Z" fill="#353535"/><path d="M129.58,118.18c-.68-.63,1.43-1.6,1.42-.53,0,.37-1.18.76-1.42.53Z" fill="#333"/><path d="M180.75,138.57c-.23-.46-.9-1.46.19-1.44,3.18.05,6.48.07,9.65.37,5.75.56,11.19,2.14,17.09.98.66-.13,5.74-2.32,5.28-.45-.07.26-3.73,2.41-4.48,3.04-12.78,10.65-23.31,31.27-40.97,35.79-.75,0-1.47.11-2.15.36-.33.05-.72-.02-1.07,0-.59-.09-.47-.32.36-.72,5.95-1.73,6.27-4.72,9.69-8.38,1.29-1.38,3.7-2.37,5.21-3.56s2.55-2.86,3.61-3.82c2.29-2.09,4.74-4.03,7.07-6.08.87-4.41-1.83-2.76-4.19-2.95-5.31-.42-9.78-4.65-2.57-5.96,3.57-.65,7.23.92,10.81.11,2-.46,3.93-1.88,3.22-4.18-.55-1.8-2.84-1.05-3.92-1.17-4.06-.46-8.04-.91-12.12-1.22-.54-.14-.78-.38-.72-.72Z" fill="#fff"/><path d="M76.22,139.33c.15.09.51,1.62.4,1.75-2.12,1.07-8.37,1.29-9.86,2.49-2.64,2.14-.17,5.43,1.14,7.49,3.79,5.98,9.24,13.72,15.4,17.51,2.21,1.36,5.15,1.97,7.24,3.13s4.16,4,7.18,4.09c.57.56-2.38.75-2.68.74-16.21-.55-21.44-10.28-29.95-21.61-3.93-5.24-8.28-12.54-15.68-12.06.16-.48,1.45-.98,1.9-1.14,3.83-1.32,4.04,0,7.26.39s7.74-.49,10.95-1.14c1.01-.21,6.32-1.88,6.69-1.65Z" fill="#fff"/><path d="M139.24,162.91c-3.56-5.54-3.85-14.51-12.69-12.87-.91.17-4.47,2.57-5.09,3.31-1.11,1.32-1.66,3.93-3.33,4.9-.13-3.23-2.43-5.79-4.66-7.87.95-.32,4.39.72,4.79.65.67-.13,1.58-1.73,1.13-2.44-.23-.36-5.89-3.73-6.67-4.08l-5.33-2,4.69-.17c2.41.53,7.1,4.55,9.11,4.81,2.24.29,4.95-2.13,7.48-2.14s5.58,2.25,7.14,2.14,4.99-2.99,6.56-3.83c1.96-1.05,4.31-1.97,6.52-2.24l-4.48,3.93c-2.33,1.95-6.49,2.09-4.8,6.18.13.3.72.17.71.79-.03,2.58-.79,5.33-.74,8.43l.36,2.15c0,.24,0,.48,0,.72-.18.41-.42.29-.72-.36Z" fill="#fefefe"/><path d="M102.02,138.58c.56.48-.15.63-.46.8-3.72,2.05-6.03.59-9.75.37s-7.28.2-10.9.25c.42-.64,1.76-1.45,2.43-1.68,2.38-.81,8.11-.82,10.69-.69.99.05,7.69.68,7.99.94Z" fill="#f7f7f7"/><path d="M113.83,160.76c-1.7,5.87-5.04,9.9-11.38,10.98-.6.1-3.02.14-3.29-.6,1.05-.3,2.39-.66,3.35-1.12,3.4-1.62,6.51-4.14,9.17-6.75l.72-1.07c.22-.33.51-.75.72-1.07.29-.55.52-.67.72-.36Z" fill="#f3f3f3"/><path d="M146.75,164.7c2.01,2.45,1.95,2.88,4.73,4.39,3.35,1.82,6.69,2.95,10.51,3.11,1.1.05,2.08-1.43,2.65,0-3.85,1.38-7.87,1.15-11.64-.34-3.17-1.25-5.73-3.72-7.32-6.45-.68-1.61-.19-1.71,1.07-.72Z" fill="#f3f3f3"/><path d="M111.56,154.09c.26.24,1.38,1.72,1.19,2.02-1.55.32-7.96-1.41-7.51-3.39.36-1.59,5.34.46,6.32,1.37Z" fill="#efefef"/><path d="M146.75,164.7c-.85-.01-1.24-.24-1.07.72-.63-1.09-1.54-2.22-1.43-3.58.92.84,1.71,1.9,2.5,2.86Z" fill="#c2c2c2"/><path d="M164.64,176.51l-.36.72c-.56.04-2.75,1.19-2.51-.36.9-.02,2.01-.11,2.86-.36Z" fill="#939393"/><path d="M139.95,163.27c.44.43,1.07,1.22.54,1.79-.67-.57-1.16-1.25-1.25-2.15.2.14.57.21.72.36Z" fill="#969696"/><path d="M180.75,138.57c.35.06.6.39.72.72-.82-.06-1.68.05-2.5,0v-.71c.48.37,1.7-.02,1.79,0Z" fill="#a3a3a3"/><path d="M113.83,160.76l-.72.36c.25-.39.19-1.43.9-1.79.53.28-.07,1.04-.18,1.43Z" fill="#bebebe"/><path d="M167.51,176.87c-.93.24-1.26.22-2.15.36.4-.63,1.47-.31,2.15-.36Z" fill="#939393"/><path d="M139.95,162.55c-.6-.39-.35-1.47-.36-2.15.59.38.37,1.48.36,2.15Z" fill="#969696"/><path d="M111.68,163.27c-.13-.69.56-.84.72-1.07.09.73-.41.78-.72,1.07Z" fill="#bebebe"/><path d="M52.28,190.11c.12-1.19-1.2-.9-1.6-1.45-.19-.27-.1-.86-.24-.99-.19-.17-1.15,0-1.72-.25-4.89-2.21-11.26-13.16-12.05-18.3-.16-1.02-.31-6.45.03-6.93.27-.39,1.31-.33,1.62-.88,0-1.53-1.6,0-1.41-1.04.79-4.23,3.21-8.56,7.26-10.28,3.34-1.42,2.27.33,2.92.41.44.05.88-1.04,1.42-1.1,1.09-.12,2.76.34,3.77.75.33.14,2,1.08,2.15,1.25.77.91.24,6.86.34,8.6.48,8.22,1.67,16.23,2.85,24.35.21,1.45-.37,3.69-.33,3.89.07.34.93.55,1.21.91.14.18.88,3.68.92,4.14.08,1.03-.62.04-1.06.16-.39-.3-1.02-.43-1.24-.74-.25-.34-.13-.97-.2-1.05-.06-.06-1,.28-1.69.13-.98-.21-1.95-1.08-2.95-1.56Z" fill="#fff"/><path d="M46.73,181.88c1.73-.47,1.16,1.78.35,1.78-.42,0-1.42-1.49-.35-1.78Z" fill="#2b2b2b"/><circle cx="43.33" cy="175.6" r=".81" fill="#575757"/><circle cx="47.99" cy="164.14" r=".8" fill="#565656"/><circle cx="46.39" cy="168.29" r=".8" fill="#4c4c4c"/><path d="M47.62,177.58c.74.74-.67,2.17-1.43,1.43-.58-.57.85-2.01,1.43-1.43Z" fill="#181818"/><circle cx="54.23" cy="177.93" r=".8" fill="#313131"/><path d="M50.49,152.17c.15.15.34,1.88-.89,1.43-1.38-.51.3-2.02.89-1.43Z" fill="#434343"/><path d="M46.37,159.7c.73,0,.73,2.02-.35,1.78s-.07-1.78.35-1.78Z" fill="#505050"/><path d="M47.62,173.29c.47.41-.01,1.78-.53,1.78-.06,0-.89-.82-.89-.89,0-.14,1.08-1.18,1.42-.89Z" fill="#474747"/><path d="M53.35,187.24c-.34-.43.48-1.27,1.25-1.07,1.3.34-.57,1.91-1.25,1.07Z" fill="#4a4a4a"/><path d="M53.7,168.28c-.1.43.42.91.36,1.23-.23,1.26-2.74-.03-.36-1.23Z" fill="#5f5f5f"/><path d="M47.63,157.54c-.37-.47,1.13-2.04,1.43-.89.32,1.23-1.07,1.34-1.43.89Z" fill="#373737"/><circle cx="50.57" cy="161.04" r=".75" fill="#4f4f4f"/><circle cx="50.4" cy="166.93" r=".75" fill="#484848"/><circle cx="50.49" cy="176.14" r=".69" fill="#2d2d2d"/><path d="M43.15,179.02c.24,0,1.35,1.16.35,1.42-1.65.43-1.05-1.42-.35-1.42Z" fill="#272727"/><circle cx="53.35" cy="163.98" r=".69" fill="#363636"/><path d="M38.32,167.56c.22.18.4,1.22-.18,1.43-1.74.62-.62-2.06.18-1.43Z" fill="#373737"/><path d="M51.92,158.25c-.05-.93-.25-1.83.89-1.43,1.2.43-.56,1.78-.89,1.43Z" fill="#444"/><rect x="49.06" y="170.42" width="1.07" height="1.43" fill="#414141"/><path d="M55.14,181.52v1.43s-1.07,0-1.07,0c-.08-.66-.02-1.05.54-1.43h.53Z" fill="#3b3b3b"/><path d="M39.93,171.5c.68,0,.68,1.77,0,1.77s-.68-1.77,0-1.77Z" fill="#282828"/><path d="M54.06,174c-.22.22-1.42-.16-1.42-.53,0-1.39,2.35-.39,1.42.53Z" fill="#2c2c2c"/><path d="M46.55,153.96c-.24.3-1.63.41-1.43-.53.24-1.11,1.94-.12,1.43.53Z" fill="#5c5c5c"/><path d="M52.99,154.32c-.21-2.27,2.5-1.43.53,0h-.53Z" fill="#434343"/><path d="M41.19,153.25c.22-.22,1.42.16,1.42.53,0,1.39-2.35.39-1.42-.53Z" fill="#3b3b3b"/><path d="M40.47,156.83c.21,2.27-2.5,1.43-.53,0h.53Z" fill="#585858"/><path d="M50.13,180.8c-.27-.27-.17-1.45.89-1.07,1.23.44-.42,1.54-.89,1.07Z" fill="#313131"/><path d="M42.25,167.56v1.43c-1.42,0-1.41-1.43,0-1.43Z" fill="#0d0d0d"/><path d="M51.2,183.67v1.43c-1.42,0-1.41-1.43,0-1.43Z" fill="#0d0d0d"/><path d="M41.54,161.83v-1.43c1.42,0,1.41,1.43,0,1.43Z" fill="#4a4a4a"/><rect x="39.03" y="164.1" width="1.27" height="1.02" transform="translate(-104.78 76.26) rotate(-45)" fill="#0f0f0f"/><path d="M43.69,172.21v-1.43c1.42,0,1.41,1.43,0,1.43Z" fill="#3a3a3a"/><path d="M44.4,165.41c-.63.68-1.6-1.43-.53-1.42.37,0,.76,1.18.53,1.42Z" fill="#1f1f1f"/><path d="M43.69,157.9c-.22-.24.17-1.42.53-1.42,1.07-.01.1,2.1-.53,1.42Z" fill="#2c2c2c"/><path d="M218.32,140.72c.51-.18,2.7.56,2.82.75.08.12-.45.49.04,1.04.26-.05.5-.05.72,0,.42-.33,2.16.22,2.42.45.79.68.45.95,2.23,2.06.86.38.93,1.43.59,2.24l.49.27c.19-.57.54-.57,1.07,0,.86,1.29,2.75,4.15,3.19,5.29.29.74,1.44,4.99,1.06,5.43-.14.17-1.53-.39-1.03.91.24.64,1.01.16,1.04.21.07.11.44,2.39.41,2.65-.14,1.18-1.33.78-1.45.91-.29.3,1.01,2.24.88,3.27-.34,2.94-3.05,7.59-4.82,9.97-1,.4-1.36.75-1.07,1.07-2.19,2.54-4.72,5.29-7.9,6.97-1.68.89-.6.38-1.65,1.29-.36.31-1.63.47-1.85.76s.01.8-.06,1c-1.68.18-3.01.87-3.99,2.08l-1.02.07c-.92.55-1.55,1.35-2.79,1.36-.69,0-3.39-1.57-1.86.43.9-.03,1.02.68.36,2.15-1.88,4.78-2.95,9.96-4.87,14.63-.53,1.29-2.34,3.64-2.58,4.61-.14.56.24,1.11.09,1.53-.36,1.03-2.52,2.82-2.72,4.22l-1.38.06c-.09.67.41,1.31.35,1.95-.03.37-3.2,5.44-3.55,5.77-.49.47-1.3.45-1.39.57-.12.15-.44,2.4-1.33,3.52-.27.34-.85.31-.88.36-.22.2-.84-.44-.81-.6.04-.31.87,0,.81.6-5.77,8.03-11.52,13.4-19.7,18.76-.87.57-4.33,3.05-5.02,2.9-.34-.07-.8-.64-1.21-.55-.38.08-.64,1.41-1.28,1.96-.29.26-3.34,1.73-3.93,1.98-.31-.2-.55-.2-.72,0-13.86,5.38-30.28,4.82-43.84-1.07-22.49-9.77-39.51-33.36-46.44-56.62-.62-2.08-.67-4.98-1-6.15-.13-.45-.86-.37-1.04-.85-.39-1.07-.32-2.58-.49-3.42-.15-.72-.89-1.64-.86-2.66.02-.79.99-1.16.98-1.35s-1.96-1.03-1.79-2.83c.03-.33.92-.37,1.08-.75.53-1.25-.79-.66-1.11-1.1-1.13-1.56.39-3.02.38-3.19,0-.27-1.08-.52-1.33-1.11-.04-.09-.13-1.93-.11-2.03.07-.38,1.61-.67,1.09-1.33-.27-.34-1.9.29-1.42-2.3.11-.59.71-1.02.71-1.47s-.54-.8-.61-1.18c-.38-2.06-.26-4.93-.11-7.06.04-.53-.28-1.04.53-.89,1.73,2.24,3.01,5,5.19,6.8.14.25.15.76.4,1.19.36.62,1.65,1.51,1.71,1.9.08.47-.97,1.17-.68,1.92,2.26-.79,2.26.78,3.4,1.79,2.01,1.78,4.53,2.69,5.37,5.37.77.28.31-.99,1.06-.71,1.14.44,3.06,2.71,3.27,2.77,1.23.36,2.92.79,4.27,1.14,1.1.29,6.02.87,6.25,1.09.13.13-.08,1.38,0,1.79h1.07s-.36-1.43-.36-1.43c2.15.08,4.47.22,6.62,0,5.46-.58,11-2.61,14.5-6.8.73-.52,1.21-.89,1.43-1.79.21-.25.71-.46,1.06-.9,3.27-4.07,6.4-8.98,8.42-13.8.3-.37,2,.29,1.96-.51-.03-.63-1.72-.2-1.42-1.07.2-.57,1.79-2.13,2.42-2.27.14-.03,2.8.05,2.94.11.22.09,1.23,1.16,1.44,1.44,1.43,1.92,2.09,5.86,3.3,8.17.21.4.61.53.64.6.55,1.21,1.15,2.4,1.79,3.58.31.47.44,1.09.76,1.56.95,1.38,2.5,1.35,1.03,3.81,1.87-.02,1.54-.26,3.22.72.71.53.92,1.03.63,1.52.87-.1,1.85.35,2.95,1.34,2.26,1.67,4.29,3.12,7.16,3.58.31.1.31.22,0,.36q-.53,1.03,0,0c3.17.44,6.39.8,9.66,1.07,3.35-.01,4.07-.23,7.16-1.07.97.64,1.33.65,1.07.03l.72-.39c.61-.16,1.16-.66,1.59-.68.49-.02,1.63.59,1.96.29.06-.06,0-.78.6-1.36.87-.84,1.96-.54,2.64-.94,4.98-2.94,14.69-11.71,18.81-16.25.47-.52.85-1.71.93-1.76.43-.26,1.53.11,1.73-.07.07-.07.02-1.31.35-1.89.16-.28.75-.44,1.03-.83.85-1.18,1.36-2.53,2.92-3,.12.52-.33.99-.35,1.43-.37,1.02-.25,1.62.36,1.79-.16,1.68,2.73-.37,3.38-1.1,3.18-3.54,2.98-10.78,6.09-12.88,1.05-.71,1.4-.68,2.7-1.77l1.07-.72c.29-.02.79.42,1.1.2s.26-.85.34-.92Z" fill="#fff"/><path d="M162.14,182.59c-.54,0-2.75-.09-2.86,0-.08.07.82,1.77-.89,1.43-1.11-.22.29-1.34.18-1.42-1.88.18-4.41-1.15-6.08-1.08v-.36l9.66,1.43Z" fill="#242424"/><path d="M145.32,177.58c-.89,0-1.16-.95-1.97-1.09-.72-.13-.35,1.13-1.43.73-1.2-.45.5-1.59-.18-2.5,1.55.9,2.41,2,3.58,2.86Z" fill="#404040"/><path d="M136.73,168.63c-.35-.52-.95-1.12-1.25-1.79-.25,2.81-3.36-.68-.36-.36l-.18-1.43c.63,1.14,1.72,2.14,1.79,3.58Z" fill="#2c2c2c"/><path d="M171.08,181.16c.04,2.94-.94,3.65-1.79.36.71-.19,1.27-.22,1.79-.36Z" fill="#282828"/><path d="M114.19,173.29c-.06.59,1.39,1.45.71,2.15-.42.44-1.54-1-2.15-.36.44-.52.88-1.14,1.43-1.79Z" fill="#2d2d2d"/><path d="M203.65,157.9c-.08-.08-1.37,1.15-1.79.71-.62-.64,1.38-1.77,1.43-2.5-.03.63.01,1.24.36,1.79Z" fill="#313131"/><path d="M216.89,141.44c-.16.51-.55.71-1.07.72.35-.29.17-.66,1.07-.72Z" fill="#828282"/><path d="M210.45,189.39c.53-.32,2.54-1.46,2.68-1.77.27-.6-1-1.96,1.08-1.47.37.09-.28,1.55,1.25,1.09-.14.37-3.06,1.07-3.51,1.53-.42.43.66,1.52-1.5.62Z" fill="#292929"/><path d="M226.55,145.02c.08.05.41-.08.62.09.23.2.56.97.81,1.34.33.71.21,1.07-.36,1.07-.19.05-.51.59-1.07.36-.12-1.01.68-1.97,0-2.86Z" fill="#333"/><path d="M227.98,176.15c-.59.8-.67.6-1.07,1.07-.84.04-1.53-.73-.72-1.25.66-.48,1.11.86,1.79.18Z" fill="#4e4e4e"/><path d="M156.05,255.59l.18-2.15.53,2.15c-.17.07-.54-.07-.72,0Z" fill="#333"/><path d="M228.7,147.52c-.34.05-.77-.07-1.07,0l.36-1.07c.24.36.48.72.72,1.07Z" fill="#848484"/><path d="M221.9,142.51c-.33.84-.48.26-.72,0,.43-.84.85-1.09.72,0Z" fill="#080808"/><path d="M205.8,191.18c1.87-.34.81.99.36,2.15-.21-.48.38-1.57.32-1.76-.01-.04-.52-.18-.67-.39Z" fill="#313131"/><path d="M124.21,237.34c-3.23-.75-7.33-2.38-9.84-4.65-.63-.57-1.03-1.7-1.79-2.18-.59-.37-1.22.07-1.64-.48-.36-.47.13-1.04-.14-1.62s-1.66-1.74-2.12-2.57c-1.7-3.04-2.94-6.23-3.82-9.6-4.07.58-8.65.57-10.35-3.95.95.21,1.95-1.33,2.38-1.4.47-.08.96.67,1.52.84.26.08,1.25.02,1.64,0,3.67-.19,5.18-.18,8.71-1.55,1.31-.51,3.92-1.95,5-2.12.43-.07,2.85.55,2.95.66.59.68-1.97,2.54-2.54,3-1.67,1.36-3.98,3-6.05,3.44.19,1.32.58,2.51,1.08,3.75,2.81,7.02,10.84,13.71,18.44,14.14,2.31.13,2.31-.94,2.9-1.04.4-.07.77.66,1.64.63,4-.13,11.66-6.41,14.23-9.44.66-.78,4.65-6.28,4.68-6.78,0-.09-1.21-1.16-1.3-1.18-.3-.07-.73.26-1.01.22-.68-.11-.41-1.06-.61-1.43-.17-.3-.5-.31-.63-.59-.51-1.09-1.72-3.45-.15-3.93,1.82-.55,2.95,1.13,4.51,1.79,3.24,1.38,7.64,2.33,11.16,2.44,1.34.04,2.92-.76,4.58-.28.28.08,2.49,1.47,2.4,1.89-.22,1.01-1.81-.03-2.12.2-.09.07-.27,1.32-.91,1.8-.51.39-1.04.21-1.27.33-.99.53-1.98.94-2.96,1.23-.72-.46-1.65-.51-2.77-.15-.19.13-.63,1.07-.9,1.07-.2,0-2.35-2.16-3.69-1.37-.28.16-2.45,4.7-3.13,5.64-2.58,3.57-9.04,9.26-12.7,11.66-.35.23-1.34-.05-2.2.26-1.06.37-1.78,1.68-1.91,1.7-.43.09-.84-.7-1.36-.66-1.69.15-2.58.74-4.89.66-.92-.09-1.62.08-2.09.53-.68-.59-1.65-.88-2.92-.88Z" fill="#080808"/><path d="M130.65,200.84c-.8.24-1.64.48-2.34.98-.93-1.06-2.2-1.24-3.3-1.96-.79-.52-2.57-2.36-3.21-2.54-.94-.25-1.88.51-2.81.63-3.37.45-5.9-1.39-6.79-4.61-.7-2.55-.64-4.19.58-6.53.42-.81,2.35-2.54,2.65-3.17.33-.7-.1-2.07,1.19-1.33,1.96,1.11-.48,4.82-.66,6.17-.11.83.02,3.16.56,3.77.35.38.95.32,1.24.56.44.36.28,1.07.4,1.19.21.2,2.73-.21,2.83-.32.11-.12-.37-.78-.2-1.07.21-.38,1.13-.48,1.27-.35.05.05-.11.8.37,1.24.19.18,4.02,2.69,4.33,2.84,4.56,2.14,4.86-1.58,7.29-3.37.72-.53,1.5-.55,1.99-.9.32-.23-.01-1.14.52-1.24.74-.14.76,1.03,1.5,1.35,1.91.82,5.04.8,6.54-.82,2.65-2.87-.49-4.27.68-5.74,1.73-2.19,5.51,3.73,4.86,5.55-.5,1.41-2.23,2-1.25,4.31-1.94-.98-2.13.3-3.37.74-1.9.68-4.08.87-6.09.67-.74-.07-1.25-.76-2.08-.64-2.24.33-.62,2.4-.98,2.8-2-.92-1.63.22-2.41.73-.58.38-1.25.48-1.89.71.26.56-.21.68-1.43.36Z" fill="#080808"/><path d="M165.72,217.66c-.06.03-.13.41-.38.53-.45.2-1.25.12-1.36.23-.19.18.14,1.44-.58,1.75-.9.2-.75-1.16-.93-1.39-.08-.1-2.05.14-2.46-.04,1.05-.74,4.27-.39,5.73-1.07Z" fill="#333"/><path d="M129.22,237.7l-1.79.36c1.06,2.58-1.91,2.27-.72-.36-1.02.28-1.74-.18-2.5-.36,1.71-.11,3.31.3,5.01.36Z" fill="#424242"/><circle cx="170.17" cy="200.32" r=".92" fill="#4b4b4b"/><circle cx="99.03" cy="208.12" r=".88" fill="#515151"/><path d="M169.48,229.11c.76-.17,1.83,1.48.71,1.78-1.39.37-1.62-1.58-.71-1.78Z" fill="#4e4e4e"/><circle cx="95.48" cy="218.84" r=".88" fill="#4b4b4b"/><path d="M179.67,221.6c.59.81-1.47,2.37-1.77.85-.25-1.31,1.35-1.42,1.77-.85Z" fill="#545454"/><circle cx="136.99" cy="213.26" r=".88" fill="#4f4f4f"/><path d="M162.14,247.01c.23.23-.01,1.98-.89,1.79-1.37-.31.07-2.6.89-1.79Z" fill="#2d2d2d"/><path d="M155.17,229.11c.93-.21,1.63,1.5.35,1.79-.97.22-1.22-1.59-.35-1.79Z" fill="#434343"/><path d="M158.92,251.3c-.82.82-2.26-1.48-.89-1.79.88-.2,1.12,1.55.89,1.79Z" fill="#353535"/><path d="M98.8,204.78c-.95.71-1.89-1.15-1.07-1.79.62-.48,1.81,1.23,1.07,1.79Z" fill="#505050"/><path d="M214.74,157.54c-.82.82-2.26-1.48-.89-1.79.88-.2,1.12,1.55.89,1.79Z" fill="#454545"/><path d="M185.04,212.65c-.7.96-2.38-.77-1.43-1.43.71-.49,1.92.75,1.43,1.43Z" fill="#3c3c3c"/><circle cx="148" cy="233.41" r=".81" fill="#505050"/><circle cx="162.32" cy="190.82" r=".81" fill="#404040"/><circle cx="153.9" cy="189.56" r=".81" fill="#434343"/><path d="M126.18,247.01c2.07-.61,1.57,1.6.4,1.4-.58-.1-1.26-1.15-.4-1.4Z" fill="#3c3c3c"/><path d="M151.76,248.79c-.92.91-2.4-1.82-.53-1.78.48.01.73,1.58.53,1.78Z" fill="#383838"/><circle cx="170.72" cy="191.35" r=".81" fill="#3c3c3c"/><path d="M203.29,179.37c-.46-.35-.02-1.77.54-1.78,1.31-.02.74,2.75-.54,1.78Z" fill="#313131"/><circle cx="70.35" cy="186.53" r=".81" fill="#575757"/><path d="M168.94,194.76c.43-.36,2.23,1.12.89,1.79-.88.15-1.42-1.34-.89-1.79Z" fill="#494949"/><circle cx="188.08" cy="213.37" r=".81" fill="#515151"/><circle cx="218.86" cy="157.18" r=".81" fill="#515151"/><circle cx="70.17" cy="202.8" r=".81" fill="#4f4f4f"/><circle cx="168.04" cy="207.64" r=".81" fill="#4d4d4d"/><path d="M132.08,161.84c.14.1.26,1.26.03,1.56-2.22,1.14-1.02-2.3-.03-1.56Z" fill="#434343"/><circle cx="151.4" cy="198.51" r=".81" fill="#454545"/><path d="M134.22,215.87c.96,1.28-1.8,1.84-1.78.54,0-.56,1.43-1,1.78-.54Z" fill="#3d3d3d"/><path d="M181.1,208.36c.91.92-1.82,2.4-1.78.53.01-.48,1.58-.73,1.78-.53Z" fill="#3a3a3a"/><circle cx="172.87" cy="207.81" r=".81" fill="#3f3f3f"/><circle cx="170.37" cy="244.31" r=".81" fill="#454545"/><circle cx="222.44" cy="146.45" r=".81" fill="#515151"/><circle cx="205.79" cy="182.76" r=".81" fill="#444"/><path d="M103.45,201.91c-.64.13-1.46.67-1.78-.18-.66-1.73,2.45-.71,1.78.18Z" fill="#373737"/><circle cx="144.07" cy="256.31" r=".81" fill="#4f4f4f"/><path d="M112.75,216.59c.06.04.42,1.02.01,1.26-2.4,1.4-1.35-2.24-.01-1.26Z" fill="#3a3a3a"/><circle cx="124.74" cy="219.81" r=".81" fill="#292929"/><circle cx="216.17" cy="160.57" r=".81" fill="#414141"/><rect x="217.25" y="144.66" width="1.43" height="1.43" fill="#333"/><circle cx="135.48" cy="175.44" r=".81" fill="#4f4f4f"/><circle cx="127.78" cy="160.93" r=".81" fill="#484848"/><path d="M146.39,216.95c.2.2-.05,1.77-.53,1.78-1.87.04-.38-2.69.53-1.78Z" fill="#434343"/><path d="M132.08,200.48c1.74,1.64-.22,2.43-.36,1.54-.16-.98.51-1.36-1.07-1.18.52-.16,1.16-.26,1.43-.36Z" fill="#353535"/><circle cx="155.18" cy="200.85" r=".8" fill="#434343"/><circle cx="143.52" cy="202.11" r=".8" fill="#2a2a2a"/><circle cx="158.91" cy="198.89" r=".8" fill="#454545"/><circle cx="156.97" cy="222.68" r=".8" fill="#4e4e4e"/><rect x="85.72" y="215.2" width="1.28" height="1.52" transform="translate(-127.41 124.32) rotate(-45)" fill="#454545"/><rect x="172.86" y="197.49" width="1.28" height="1.52" transform="translate(-89.36 180.75) rotate(-45)" fill="#4a4a4a"/><path d="M192.92,201.92c.6-.6,2.37.81.53,1.78-.53-.17-.74-1.58-.53-1.78Z" fill="#4c4c4c"/><circle cx="123.48" cy="179.53" r=".8" fill="#3d3d3d"/><rect x="198.27" y="163.13" width="1.28" height="1.52" transform="translate(-57.63 188.65) rotate(-45)" fill="#484848"/><path d="M89.14,213.01c.63-.61,2.33.94.89,1.78-.47-.24-1.24-1.44-.89-1.78Z" fill="#363636"/><circle cx="119.03" cy="213.35" r=".8" fill="#373737"/><path d="M210.45,167.56c-.32-.23-.53-2.02.53-1.78,1.12.25.27,2.36-.53,1.78Z" fill="#2f2f2f"/><path d="M99.51,190.47c.31,1.48-.89,2.68-1.43.9.45-.44.76-1.03,1.43-.9Z" fill="#575757"/><path d="M172.52,233.76c-.32-.23-.53-2.02.53-1.78,1.12.25.27,2.36-.53,1.78Z" fill="#4f4f4f"/><circle cx="83.04" cy="212.85" r=".8" fill="#454545"/><path d="M133.15,190.11c.15.15.34,1.89-.89,1.43-1.53-.57.07-2.25.89-1.43Z" fill="#3b3b3b"/><circle cx="166.44" cy="211.77" r=".8" fill="#4d4d4d"/><path d="M81.98,191.18c-.6-.6.81-2.37,1.78-.53-.17.53-1.58.74-1.78.53Z" fill="#343434"/><path d="M129.58,205.49c-.57-.79,1.53-1.65,1.78-.53s-1.55.85-1.78.53Z" fill="#515151"/><path d="M158.92,187.96c.74.74-.67,2.17-1.43,1.43-.58-.57.85-2.01,1.43-1.43Z" fill="#343434"/><circle cx="141.19" cy="211.23" r=".8" fill="#4a4a4a"/><path d="M228.34,151.45c-.57-.79,1.53-1.65,1.78-.53s-1.55.85-1.78.53Z" fill="#424242"/><path d="M110.96,187.6c.32.23.53,2.02-.53,1.78-1.12-.25-.27-2.36.53-1.78Z" fill="#515151"/><path d="M105.96,186.88c-.57-.79,1.53-1.65,1.78-.53s-1.55.85-1.78.53Z" fill="#262626"/><path d="M156.05,246.65c.6.6-.81,2.37-1.78.53.17-.53,1.58-.74,1.78-.53Z" fill="#252525"/><circle cx="218.33" cy="180.6" r=".8" fill="#444"/><path d="M140.67,254.16c-.32-.23-.53-2.02.53-1.78,1.12.25.27,2.36-.53,1.78Z" fill="#535353"/><path d="M118.12,174c-.32-.23-.53-2.02.53-1.78,1.12.25.27,2.36-.53,1.78Z" fill="#535353"/><circle cx="94.87" cy="184.93" r=".8" fill="#343434"/><path d="M123.85,246.29c-.41.37-1.79-1.03-1.43-1.43.81-.88,2.3.65,1.43,1.43Z" fill="#434343"/><circle cx="144.26" cy="245.41" r=".8" fill="#3e3e3e"/><circle cx="112.2" cy="246.63" r=".8" fill="#2a2a2a"/><path d="M138.52,256.31c.6-.6,2.37.81.53,1.78-.53-.17-.74-1.58-.53-1.78Z" fill="#464646"/><path d="M164.64,208c.15.15.34,1.88-.89,1.43-1.38-.51.3-2.02.89-1.43Z" fill="#4a4a4a"/><path d="M108.46,208.36c.15.15.34,1.88-.89,1.43-1.38-.51.3-2.02.89-1.43Z" fill="#3e3e3e"/><path d="M120.98,208.36c.15.15.34,1.88-.89,1.43-1.38-.51.3-2.02.89-1.43Z" fill="#3a3a3a"/><path d="M153.55,208.36c.15.15.34,1.88-.89,1.43-1.38-.51.3-2.02.89-1.43Z" fill="#525252"/><path d="M80.19,210.86c-.15.15-1.88.34-1.43-.89.51-1.38,2.02.3,1.43.89Z" fill="#484848"/><path d="M160.35,208.35c-.35.37-2.6-1.34-.53-1.78.68.43.57,1.05.53,1.78Z" fill="#474747"/><path d="M193.99,207.64c-.15-.15-.34-1.88.89-1.43,1.38.51-.3,2.02-.89,1.43Z" fill="#3a3a3a"/><path d="M157.48,209.79c.59.59-.91,2.27-1.43.89-.46-1.23,1.27-1.04,1.43-.89Z" fill="#464646"/><path d="M225.12,149.67c.59.59-.91,2.27-1.43.89-.46-1.23,1.27-1.04,1.43-.89Z" fill="#4b4b4b"/><path d="M87.34,211.58c-.15.15-1.88.34-1.43-.89.51-1.38,2.02.3,1.43.89Z" fill="#444"/><path d="M142.81,206.21c.59.59-.91,2.27-1.43.89-.46-1.23,1.27-1.04,1.43-.89Z" fill="#454545"/><path d="M71.96,206.21c.59.59-.91,2.27-1.43.89-.46-1.23,1.27-1.04,1.43-.89Z" fill="#434343"/><path d="M149.44,205.85c.66-.15,1.02.73.89,1.25-.36,1.37-2.29-.94-.89-1.25Z" fill="#464646"/><path d="M191.12,205.14c.15.15.34,1.88-.89,1.43-1.38-.51.3-2.02.89-1.43Z" fill="#404040"/><path d="M155.52,205.14c1.29-.29.75,1.77,0,1.78-.56,0-.81-1.6,0-1.78Z" fill="#373737"/><path d="M79.83,204.78c.59.59-.91,2.27-1.43.89-.46-1.23,1.27-1.04,1.43-.89Z" fill="#111"/><path d="M160.89,210.86c.63-.14,1.71,1.17.71,1.43-1.27.33-1.6-1.23-.71-1.43Z" fill="#464646"/><path d="M122.77,204.06c.15.15.34,1.88-.89,1.43-1.38-.51.3-2.02.89-1.43Z" fill="#2e2e2e"/><path d="M138.7,203.71c.66-.15,1.02.73.89,1.25-.36,1.37-2.29-.94-.89-1.25Z" fill="#4b4b4b"/><path d="M84.12,203.35c.15.15.34,1.88-.89,1.43-1.38-.51.3-2.02.89-1.43Z" fill="#4c4c4c"/><path d="M174.13,201.92c.42,0,1.42,1.54.35,1.78s-1.09-1.78-.35-1.78Z" fill="#333"/><path d="M140.85,214.8c1.42-.38,1.34,1.2.35,1.43-.84.19-1.23-1.19-.35-1.43Z" fill="#424242"/><path d="M184.68,215.52c.21.21-.06,1.25-.54,1.43-1.9.69-.42-2.37.54-1.43Z" fill="#3d3d3d"/><path d="M87.7,201.2c.15.15.34,1.88-.89,1.43-1.38-.51.3-2.02.89-1.43Z" fill="#404040"/><path d="M190.05,200.84c.15.15.34,1.88-.89,1.43-1.38-.51.3-2.02.89-1.43Z" fill="#424242"/><path d="M205.8,160.4c-.15-.15-.34-1.88.89-1.43,1.38.51-.3,2.02-.89,1.43Z" fill="#4e4e4e"/><path d="M75.18,217.66c-.15-.15-.34-1.88.89-1.43,1.38.51-.3,2.02-.89,1.43Z" fill="#515151"/><path d="M138.16,218.02c-.15.15-1.88.34-1.43-.89.51-1.38,2.02.3,1.43.89Z" fill="#3b3b3b"/><path d="M121.34,218.37c-.21.21-1.25-.06-1.43-.54-.69-1.9,2.37-.42,1.43.54Z" fill="#1b1b1b"/><path d="M142.45,218.74c.15.15.34,1.88-.89,1.43-1.38-.51.3-2.02.89-1.43Z" fill="#393939"/><path d="M119.74,200.13c.66-.15,1.02.73.89,1.25-.36,1.37-2.29-.94-.89-1.25Z" fill="#393939"/><path d="M76.79,199.77c.42,0,1.42,1.54.35,1.78s-1.09-1.78-.35-1.78Z" fill="#3f3f3f"/><path d="M117.4,219.45c.15.15.34,1.88-.89,1.43-1.38-.51.3-2.02.89-1.43Z" fill="#555"/><path d="M91.64,199.41c.15.15.34,1.88-.89,1.43-1.38-.51.3-2.02.89-1.43Z" fill="#3f3f3f"/><path d="M93.43,221.6c.15.15.34,1.88-.89,1.43-1.38-.51.3-2.02.89-1.43Z" fill="#3e3e3e"/><path d="M203.65,161.48c.15.15.34,1.88-.89,1.43-1.38-.51.3-2.02.89-1.43Z" fill="#292929"/><path d="M165.19,221.96c.66-.15,1.02.73.89,1.25-.36,1.37-2.29-.94-.89-1.25Z" fill="#4b4b4b"/><path d="M190.76,222.67c.15.15.34,1.88-.89,1.43-1.38-.51.3-2.02.89-1.43Z" fill="#505050"/><path d="M79.12,224.46c-.15-.15-.34-1.88.89-1.43,1.38.51-.3,2.02-.89,1.43Z" fill="#525252"/><path d="M132.08,225.17c-1.46.31-1.71-1.01-.53-1.78.67.44.58,1.03.53,1.78Z" fill="#4a4a4a"/><path d="M207.77,162.55c1.29-.29.75,1.77,0,1.78-.56,0-.81-1.6,0-1.78Z" fill="#424242"/><path d="M202.76,196.55c.66-.15,1.02.73.89,1.25-.36,1.37-2.29-.94-.89-1.25Z" fill="#373737"/><path d="M171.8,226.61c-1.46.31-1.71-1.01-.53-1.78.67.44.58,1.03.53,1.78Z" fill="#353535"/><path d="M176.64,224.82c1.29-.29.75,1.77,0,1.78-.56,0-.81-1.6,0-1.78Z" fill="#363636"/><path d="M181.82,195.83c.15.15.34,1.88-.89,1.43-1.38-.51.3-2.02.89-1.43Z" fill="#2c2c2c"/><path d="M187.19,226.25c-.15.15-1.88.34-1.43-.89.51-1.38,2.02.3,1.43.89Z" fill="#393939"/><path d="M160.7,193.69c.59.59-.91,2.27-1.43.89-.46-1.23,1.27-1.04,1.43-.89Z" fill="#3c3c3c"/><path d="M153.19,193.33c.59.59-.91,2.27-1.43.89-.46-1.23,1.27-1.04,1.43-.89Z" fill="#393939"/><path d="M130.29,194.76c-.41.34-1.69-.89-1.43-1.43.73-.04,1.35-.15,1.78.53-.37.17-.32.86-.35.89Z" fill="#515151"/><path d="M68.38,193.33c.15.15.34,1.88-.89,1.43-1.38-.51.3-2.02.89-1.43Z" fill="#111"/><path d="M79.47,192.25c.15.15.34,1.88-.89,1.43-1.38-.51.3-2.02.89-1.43Z" fill="#484848"/><path d="M109.89,193.32c-.15-.15-.34-1.88.89-1.43,1.38.51-.3,2.02-.89,1.43Z" fill="#424242"/><path d="M227.09,164.34c1.27-.33,1.6,1.23.71,1.43-.63.14-1.71-1.17-.71-1.43Z" fill="#4a4a4a"/><path d="M96.29,225.18c.59.59-.91,2.27-1.43.89-.46-1.23,1.27-1.04,1.43-.89Z" fill="#494949"/><path d="M195.42,166.84c-1.46.31-1.71-1.01-.53-1.78.67.44.58,1.03.53,1.78Z" fill="#2e2e2e"/><path d="M202.4,165.42c.63-.14,1.71,1.17.71,1.43-1.27.33-1.6-1.23-.71-1.43Z" fill="#474747"/><path d="M139.59,226.61c.15.15.34,1.88-.89,1.43-1.38-.51.3-2.02.89-1.43Z" fill="#373737"/><path d="M75.54,191.54c.59.59-.91,2.27-1.43.89-.46-1.23,1.27-1.04,1.43-.89Z" fill="#393939"/><path d="M131.36,166.13c.15.15.34,1.88-.89,1.43-1.38-.51.3-2.02.89-1.43Z" fill="#404040"/><path d="M151.04,229.47c-1.22-.32-1.56-.86-.53-1.79,1.26.18.74.9.53,1.79Z" fill="#4f4f4f"/><path d="M103.09,230.9c-.21.21-1.25-.06-1.43-.54-.69-1.9,2.37-.42,1.43.54Z" fill="#3b3b3b"/><path d="M194.7,190.11c.15.15.34,1.88-.89,1.43-1.38-.51.3-2.02.89-1.43Z" fill="#2b2b2b"/><path d="M110.96,233.05c.2.14.52,1.75-.18,1.78-1.6.08-.71-2.41.18-1.78Z" fill="#4d4d4d"/><path d="M170.55,234.84c.73,0,.73,2.02-.35,1.78s-.07-1.78.35-1.78Z" fill="#494949"/><path d="M118.66,188.68c.63-.14,1.71,1.17.71,1.43-1.27.33-1.6-1.23-.71-1.43Z" fill="#101010"/><path d="M225.3,167.92c1.27-.33,1.6,1.23.71,1.43-.63.14-1.71-1.17-.71-1.43Z" fill="#3b3b3b"/><path d="M77.33,189.75c-.15-.15-.34-1.88.89-1.43,1.38.51-.3,2.02-.89,1.43Z" fill="#454545"/><circle cx="119.38" cy="169" r=".79" fill="#2c2c2c"/><circle cx="180.76" cy="236.8" r=".78" fill="#4b4b4b"/><path d="M123.85,187.96c.15.15.34,1.88-.89,1.43-1.38-.51.3-2.02.89-1.43Z" fill="#373737"/><path d="M147.11,236.63c.15.15.34,1.88-.89,1.43-1.38-.51.3-2.02.89-1.43Z" fill="#404040"/><path d="M185.58,186.89c.63-.14,1.71,1.17.71,1.43-1.27.33-1.6-1.23-.71-1.43Z" fill="#0f0f0f"/><path d="M98.08,187.96c-.15-.15-.34-1.88.89-1.43,1.38.51-.3,2.02-.89,1.43Z" fill="#383838"/><path d="M122.6,170.43c.63-.14,1.71,1.17.71,1.43-1.27.33-1.6-1.23-.71-1.43Z" fill="#262626"/><path d="M170.01,186.17c.15.15.34,1.88-.89,1.43-1.38-.51.3-2.02.89-1.43Z" fill="#4b4b4b"/><path d="M135.3,186.17c.15.15.34,1.88-.89,1.43-1.38-.51.3-2.02.89-1.43Z" fill="#3c3c3c"/><path d="M209.91,170.43c.42,0,1.42,1.54.35,1.78s-1.09-1.78-.35-1.78Z" fill="#242424"/><path d="M222.61,171.85c-.15.15-1.88.34-1.43-.89.51-1.38,2.02.3,1.43.89Z" fill="#4c4c4c"/><path d="M90.03,186.17c1.27-.33,1.6,1.23.71,1.43-.63.14-1.71-1.17-.71-1.43Z" fill="#282828"/><path d="M194.34,185.81c.59.59-.91,2.27-1.43.89-.46-1.23,1.27-1.04,1.43-.89Z" fill="#464646"/><path d="M142.81,237.34c.15.15.34,1.88-.89,1.43-1.38-.51.3-2.02.89-1.43Z" fill="#505050"/><path d="M151.22,185.46c.73,0,.73,2.02-.35,1.78s-.07-1.78.35-1.78Z" fill="#3f3f3f"/><path d="M138.34,239.14c.73,0,.73,2.02-.35,1.78s-.07-1.78.35-1.78Z" fill="#363636"/><path d="M126.53,185.1c.42,0,1.42,1.54.35,1.78s-1.09-1.78-.35-1.78Z" fill="#4c4c4c"/><path d="M120.27,184.74c.15.15.34,1.88-.89,1.43-1.38-.51.3-2.02.89-1.43Z" fill="#3b3b3b"/><path d="M103.09,185.81c-.15.15-1.88.34-1.43-.89.51-1.38,2.02.3,1.43.89Z" fill="#404040"/><path d="M124.2,240.57c.59.59-.91,2.27-1.43.89-.46-1.23,1.27-1.04,1.43-.89Z" fill="#424242"/><path d="M66.06,184.38c1.27-.33,1.6,1.23.71,1.43-.63.14-1.71-1.17-.71-1.43Z" fill="#5a5a5a"/><path d="M174.66,241.28c.15.15.34,1.88-.89,1.43-1.38-.51.3-2.02.89-1.43Z" fill="#4c4c4c"/><path d="M78.76,183.67c.59.59-.91,2.27-1.43.89-.46-1.23,1.27-1.04,1.43-.89Z" fill="#363636"/><path d="M123.85,182.95c.46.39.33,1.75-.87,1.41-1.58-.45.41-1.81.87-1.41Z" fill="#474747"/><path d="M132.43,182.59c.59.59-.91,2.27-1.43.89-.46-1.23,1.27-1.04,1.43-.89Z" fill="#2f2f2f"/><path d="M82.16,181.88c.66-.15,1.02.73.89,1.25-.36,1.37-2.29-.94-.89-1.25Z" fill="#464646"/><path d="M120.27,246.29c.15.15.34,1.88-.89,1.43-1.38-.51.3-2.02.89-1.43Z" fill="#393939"/><path d="M186.11,179.01c.59.59-.91,2.27-1.43.89-.46-1.23,1.27-1.04,1.43-.89Z" fill="#434343"/><path d="M143.53,248.8c.59.59-.91,2.27-1.43.89-.46-1.23,1.27-1.04,1.43-.89Z" fill="#464646"/><path d="M123.85,249.51v1.79c-1.71-.21-1.71-1.57,0-1.79Z" fill="#424242"/><path d="M184.51,174.72c1.29-.29.75,1.77,0,1.78-.56,0-.81-1.6,0-1.78Z" fill="#505050"/><path d="M210.63,175.08c.66-.15,1.02.73.89,1.25-.36,1.37-2.29-.94-.89-1.25Z" fill="#313131"/><path d="M195.78,180.08c-.15-.15-.34-1.88.89-1.43,1.38.51-.3,2.02-.89,1.43Z" fill="#3f3f3f"/><path d="M138.88,179.01c-.15.15-1.88.34-1.43-.89.51-1.38,2.02.3,1.43.89Z" fill="#494949"/><path d="M200.07,175.79c.15.15.34,1.88-.89,1.43-1.38-.51.3-2.02.89-1.43Z" fill="#444"/><path d="M127.61,250.95c.53,0,1.35,1.71.36,1.77-1.22.08-1.37-1.77-.36-1.77Z" fill="#434343"/><path d="M191.84,178.65c-.15-.15-.34-1.88.89-1.43,1.38.51-.3,2.02-.89,1.43Z" fill="#383838"/><path d="M133.15,251.66c.21.21-.06,1.25-.54,1.43-1.9.69-.42-2.37.54-1.43Z" fill="#434343"/><path d="M69.81,177.22c.15.15.34,1.88-.89,1.43-1.38-.51.3-2.02.89-1.43Z" fill="#3a3a3a"/><path d="M146.39,252.02c.59.59-.91,2.27-1.43.89-.46-1.23,1.27-1.04,1.43-.89Z" fill="#3c3c3c"/><path d="M137.44,252.37c.15.15.34,1.88-.89,1.43-1.38-.51.3-2.02.89-1.43Z" fill="#3b3b3b"/><circle cx="215.11" cy="177.75" r=".79" fill="#424242"/><circle cx="127.7" cy="190.02" r=".75" fill="#3c3c3c"/><circle cx="152.39" cy="255.68" r=".75" fill="#373737"/><circle cx="129.66" cy="255.51" r=".75" fill="#313131"/><circle cx="188.54" cy="176.59" r=".75" fill="#5c5c5c"/><circle cx="221.98" cy="178.93" r=".75" fill="#4f4f4f"/><path d="M73.39,180.44c-2.38-1.2.13-2.49.36-1.23.06.32-.45.81-.36,1.23Z" fill="#2f2f2f"/><circle cx="153.82" cy="251.22" r=".75" fill="#2e2e2e"/><circle cx="208.03" cy="179.29" r=".75" fill="#535353"/><circle cx="165.08" cy="249.24" r=".75" fill="#4d4d4d"/><circle cx="106.75" cy="248.16" r=".75" fill="#434343"/><circle cx="222.7" cy="175.16" r=".75" fill="#4b4b4b"/><circle cx="77.05" cy="180.53" r=".75" fill="#3c3c3c"/><circle cx="112.67" cy="180.36" r=".75" fill="#494949"/><circle cx="206.95" cy="175.16" r=".75" fill="#3d3d3d"/><circle cx="158.83" cy="245.3" r=".75" fill="#454545"/><path d="M148.9,244.14c.65.65-.84,1.89-1.43,1.07-.73-1.03,1.06-1.43,1.43-1.07Z" fill="#353535"/><circle cx="131.8" cy="244.94" r=".75" fill="#404040"/><circle cx="116.06" cy="244.42" r=".75" fill="#4e4e4e"/><circle cx="152.03" cy="244.06" r=".75" fill="#2d2d2d"/><path d="M196.13,175.79c-1.23.88-1.77-1.99-.18-1.43.57.2.41,1.26.18,1.43Z" fill="#373737"/><path d="M131.72,174.36c.85.68-.73,2.55-1.07,1.25-.2-.77.64-1.59,1.07-1.25Z" fill="#1b1b1b"/><circle cx="162.77" cy="243.7" r=".75" fill="#4b4b4b"/><circle cx="69.89" cy="182.32" r=".75" fill="#2f2f2f"/><circle cx="109.26" cy="182.32" r=".75" fill="#464646"/><path d="M152.48,181.52c1.13,1.57-1.66,2.11-1.07.54.16-.42.66-.52,1.07-.54Z" fill="#323232"/><circle cx="134.14" cy="241.2" r=".75" fill="#535353"/><path d="M170.72,239.13v1.79c-1.47.03-1.47-1.82,0-1.79Z" fill="#1f1f1f"/><circle cx="72.23" cy="174.99" r=".75" fill="#3c3c3c"/><path d="M153.55,239.13c.37.37-.04,2.16-1.07,1.43-.83-.59.42-2.08,1.07-1.43Z" fill="#444"/><circle cx="163.29" cy="234.04" r=".75" fill="#2b2b2b"/><path d="M181.1,231.98v1.07c-.75.04-1.34.14-1.78-.53.44-.67,1.03-.58,1.78-.53Z" fill="#383838"/><path d="M151.05,232.69c-.34-.43.48-1.27,1.25-1.07,1.3.34-.57,1.91-1.25,1.07Z" fill="#333"/><circle cx="136.29" cy="183.03" r=".75" fill="#3e3e3e"/><path d="M126,230.19c.75-.04,1.34-.14,1.78.53l-.89.89c-.44-.46-1.03-.75-.89-1.42Z" fill="#3f3f3f"/><circle cx="74.02" cy="183.75" r=".75" fill="#4c4c4c"/><circle cx="183.53" cy="229.03" r=".75" fill="#434343"/><circle cx="134.67" cy="228.84" r=".75" fill="#444"/><circle cx="197.29" cy="183.75" r=".75" fill="#2d2d2d"/><path d="M211.16,182.95c.65.65-.84,1.89-1.43,1.07-.73-1.03,1.06-1.43,1.43-1.07Z" fill="#303030"/><circle cx="182.26" cy="224.9" r=".75" fill="#1d1d1d"/><circle cx="116.61" cy="224.19" r=".75" fill="#545454"/><circle cx="106.04" cy="223.11" r=".75" fill="#454545"/><circle cx="173.86" cy="222.75" r=".75" fill="#4f4f4f"/><circle cx="127.7" cy="222.59" r=".75" fill="#505050"/><circle cx="169.57" cy="222.4" r=".75" fill="#4e4e4e"/><circle cx="201.42" cy="184.3" r=".75" fill="#3d3d3d"/><circle cx="127.15" cy="173.2" r=".75" fill="#3a3a3a"/><path d="M112.75,184.02c.23.16.39,1.22-.18,1.43-1.59.57-1.05-2.3.18-1.43Z" fill="#3a3a3a"/><circle cx="144.88" cy="222.4" r=".75" fill="#3d3d3d"/><circle cx="225.92" cy="172.65" r=".75" fill="#393939"/><circle cx="189.61" cy="185.01" r=".75" fill="#0b0b0b"/><circle cx="155.26" cy="185.54" r=".75" fill="#434343"/><circle cx="187.99" cy="172.49" r=".75" fill="#555"/><circle cx="120.71" cy="221.87" r=".75" fill="#242424"/><circle cx="167.42" cy="219.01" r=".75" fill="#3e3e3e"/><circle cx="100.15" cy="218.82" r=".75" fill="#3a3a3a"/><circle cx="82.61" cy="217.22" r=".75" fill="#363636"/><path d="M81.98,187.24c-.04.06-1.36.44-1.43.36-.6-2.61,1.96-1.11,1.43-.36Z" fill="#5b5b5b"/><circle cx="128.42" cy="216.15" r=".75" fill="#2a2a2a"/><rect x="205.34" y="170.69" width="1.27" height="1.27" transform="translate(-60.69 197.09) rotate(-45.27)" fill="#212121"/><circle cx="191.76" cy="215.43" r=".75" fill="#373737"/><circle cx="177.61" cy="186.8" r=".75" fill="#474747"/><circle cx="204.45" cy="186.8" r=".75" fill="#505050"/><circle cx="176.89" cy="215.24" r=".75" fill="#515151"/><path d="M173.95,214.08c.34.43-.48,1.27-1.25,1.07-1.3-.34.57-1.91,1.25-1.07Z" fill="#3c3c3c"/><circle cx="195.14" cy="170.51" r=".75" fill="#454545"/><circle cx="131.28" cy="213.09" r=".75" fill="#414141"/><circle cx="127.15" cy="212.21" r=".75" fill="#424242"/><circle cx="74.02" cy="187.88" r=".75" fill="#2e2e2e"/><circle cx="170.64" cy="211.14" r=".75" fill="#181818"/><circle cx="191.92" cy="210.94" r=".75" fill="#2d2d2d"/><circle cx="133.95" cy="210.06" r=".75" fill="#4d4d4d"/><circle cx="124.84" cy="208.44" r=".75" fill="#464646"/><circle cx="176.73" cy="207.01" r=".75" fill="#484848"/><path d="M213.67,151.46c.37.37-.04,2.16-1.07,1.43-.83-.59.42-2.08,1.07-1.43Z" fill="#535353"/><circle cx="94.78" cy="188.95" r=".75" fill="#404040"/><path d="M87.34,205.5c.85.68-.73,2.55-1.07,1.25-.2-.77.64-1.59,1.07-1.25Z" fill="#505050"/><circle cx="221.63" cy="153.69" r=".75" fill="#2f2f2f"/><path d="M103.45,188.68c.65.65-.84,1.89-1.43,1.07-.73-1.03,1.06-1.43,1.43-1.07Z" fill="#101010"/><circle cx="113.74" cy="205.77" r=".75" fill="#4a4a4a"/><circle cx="226.28" cy="153.88" r=".75" fill="#4d4d4d"/><path d="M171.08,205.49c-1.1.1-1.16-.9-1.07-1.79,1.1-.1,1.16.9,1.07,1.79Z" fill="#363636"/><path d="M231.92,154.32c.34.43-.48,1.27-1.25,1.07-1.3-.34.57-1.91,1.25-1.07Z" fill="#2b2b2b"/><circle cx="197.84" cy="203.98" r=".75" fill="#484848"/><circle cx="166.71" cy="203.26" r=".75" fill="#434343"/><circle cx="148.46" cy="202" r=".75" fill="#515151"/><circle cx="106.59" cy="190.74" r=".75" fill="#131313"/><circle cx="130.21" cy="157.98" r=".75" fill="#484848"/><circle cx="198.56" cy="168" r=".75" fill="#141414"/><circle cx="162.77" cy="201.12" r=".75" fill="#303030"/><path d="M200.78,201.56c-.67.14-.97-.46-1.42-.89l.89-.89c.67.44.58,1.03.53,1.78Z" fill="#393939"/><circle cx="139.51" cy="200.4" r=".75" fill="#404040"/><path d="M73.75,199.05c.65.65-.84,1.89-1.43,1.07-.73-1.03,1.06-1.43,1.43-1.07Z" fill="#414141"/><circle cx="110.33" cy="197.54" r=".75" fill="#434343"/><circle cx="141.11" cy="191.62" r=".75" fill="#3e3e3e"/><circle cx="187.63" cy="191.98" r=".75" fill="#414141"/><path d="M79.12,196.55c.67-.14.97.46,1.42.89l-.89.89c-.67-.44-.58-1.03-.53-1.78Z" fill="#383838"/><circle cx="155.61" cy="196.63" r=".75" fill="#0a0a0a"/><circle cx="63.1" cy="164.07" r=".75" fill="#383838"/><path d="M195.78,194.76c.88,1.23-1.99,1.77-1.43.18.2-.57,1.26-.41,1.43-.18Z" fill="#2f2f2f"/><circle cx="214.83" cy="165.14" r=".75" fill="#3d3d3d"/><circle cx="156.5" cy="192.53" r=".75" fill="#494949"/><circle cx="71.68" cy="195.2" r=".75" fill="#222"/><circle cx="82.78" cy="194.84" r=".75" fill="#0c0c0c"/><circle cx="94.59" cy="193.05" r=".75" fill="#4a4a4a"/><circle cx="202.3" cy="193.05" r=".75" fill="#0a0a0a"/><circle cx="125.36" cy="193.41" r=".75" fill="#393939"/><circle cx="191.04" cy="193.96" r=".75" fill="#404040"/><circle cx="102.82" cy="193.6" r=".75" fill="#212121"/><circle cx="173.51" cy="194.13" r=".75" fill="#404040"/><circle cx="90.21" cy="208.71" r=".69" fill="#484848"/><rect x="78.4" y="219.09" width="1.43" height="1.07" fill="#3b3b3b"/><path d="M134.58,257.02c-.8.64-1.92-2.04-.18-1.43.58.21.4,1.25.18,1.43Z" fill="#404040"/><circle cx="86.63" cy="193.68" r=".69" fill="#0c0c0c"/><circle cx="127.07" cy="177.22" r=".69" fill="#4b4b4b"/><circle cx="119.91" cy="176.86" r=".69" fill="#414141"/><rect x="126.71" y="164.34" width="1.07" height="1.43" fill="#3b3b3b"/><circle cx="117.41" cy="254.87" r=".69" fill="#0d0d0d"/><path d="M149.44,251.66c1.65-.43,1.05,1.42.35,1.42-.24,0-1.35-1.16-.35-1.42Z" fill="#3d3d3d"/><circle cx="114.18" cy="252.37" r=".69" fill="#2e2e2e"/><circle cx="130.29" cy="179.37" r=".69" fill="#2f2f2f"/><rect x="179.32" y="191.54" width="1.07" height="1.43" fill="#393939"/><circle cx="177.17" cy="195.47" r=".69" fill="#0c0c0c"/><path d="M110.96,249.51c.26.19.45,1.65-.53,1.43s-.6-2.23.53-1.43Z" fill="#333"/><path d="M198.28,195.83c.49-.12,1.78.05,1.78.53,0,.74-2.08.77-1.78-.53Z" fill="#373737"/><circle cx="166.43" cy="245.57" r=".69" fill="#2c2c2c"/><path d="M187.91,197.98c-.05-.93-.25-1.83.89-1.43,1.2.43-.56,1.78-.89,1.43Z" fill="#404040"/><path d="M88.42,198.33c-.62.62-1.9-.77-1.07-1.43.57-.45,1.48,1.02,1.07,1.43Z" fill="#3a3a3a"/><circle cx="94.14" cy="197.62" r=".69" fill="#0a0a0a"/><path d="M184.32,191.89c-.09.09-1.08-.05-1.43,0,.28-2.4,2.14-.72,1.43,0Z" fill="#414141"/><path d="M105.6,197.26c.62.62-.77,1.9-1.43,1.07-.45-.57,1.02-1.48,1.43-1.07Z" fill="#303030"/><circle cx="189.33" cy="180.8" r=".69" fill="#202020"/><circle cx="69.09" cy="198.33" r=".69" fill="#3f3f3f"/><rect x="126.71" y="181.16" width="1.07" height="1.43" fill="#333"/><path d="M177.53,181.52c1.31-.3,1.28,1.78.53,1.78-.48,0-.66-1.29-.53-1.78Z" fill="#323232"/><circle cx="123.85" cy="162.55" r=".69" fill="#4d4d4d"/><rect x="191.84" y="197.62" width="1.07" height="1.43" fill="#393939"/><rect x="144.6" y="240.56" width="1.07" height="1.43" fill="#3d3d3d"/><path d="M212.59,162.91c-1.31.3-1.28-1.78-.53-1.78.48,0,.66,1.29.53,1.78Z" fill="#363636"/><circle cx="166.43" cy="198.69" r=".69" fill="#0c0c0c"/><path d="M177.35,198.7c.88.01.88,1.76,0,1.77-.67,0-.67-1.78,0-1.77Z" fill="#292929"/><circle cx="97.72" cy="199.76" r=".69" fill="#2b2b2b"/><circle cx="159.63" cy="240.92" r=".69" fill="#363636"/><circle cx="130.29" cy="240.92" r=".69" fill="#3e3e3e"/><path d="M163.03,238.07c.88.01.88,1.76,0,1.77-.67,0-.67-1.78,0-1.77Z" fill="#3d3d3d"/><path d="M157.13,237.7c.41.41-.5,1.88-1.07,1.43-.83-.66.45-2.05,1.07-1.43Z" fill="#4e4e4e"/><path d="M160.35,235.56c.22.18.4,1.22-.18,1.43-1.74.62-.62-2.06.18-1.43Z" fill="#3a3a3a"/><circle cx="176.81" cy="235.19" r=".69" fill="#333"/><path d="M108.1,201.91c-1.31.3-1.28-1.78-.53-1.78.48,0,.66,1.29.53,1.78Z" fill="#1e1e1e"/><circle cx="154.98" cy="234.83" r=".69" fill="#262626"/><circle cx="124.2" cy="200.84" r=".69" fill="#272727"/><circle cx="214.74" cy="182.59" r=".69" fill="#222"/><rect x="143.17" y="233.41" width="1.07" height="1.43" fill="#373737"/><rect x="166.43" y="190.11" width="1.07" height="1.43" fill="#454545"/><circle cx="98.44" cy="233.04" r=".69" fill="#535353"/><circle cx="86.63" cy="233.04" r=".69" fill="#0b0b0b"/><path d="M210.8,159.33c-1.31.3-1.28-1.78-.53-1.78.48,0,.66,1.29.53,1.78Z" fill="#3a3a3a"/><rect x="110.96" y="201.2" width="1.43" height="1.07" fill="#3b3b3b"/><circle cx="227.98" cy="157.54" r=".69" fill="#232323"/><path d="M91.64,191.54c-.41.41-1.88-.5-1.43-1.07.66-.83,2.05.45,1.43,1.07Z" fill="#393939"/><rect x="105.6" y="231.97" width="1.43" height="1.07" fill="#414141"/><circle cx="90.57" cy="231.25" r=".69" fill="#494949"/><circle cx="148.18" cy="182.94" r=".69" fill="#2f2f2f"/><rect x="158.2" y="202.63" width="1.43" height="1.07" fill="#181818"/><rect x="70.17" y="190.11" width="1.07" height="1.43" fill="#3f3f3f"/><circle cx="83.41" cy="229.11" r=".69" fill="#404040"/><path d="M131.36,228.04c.62.62-.77,1.9-1.43,1.07-.45-.57,1.02-1.48,1.43-1.07Z" fill="#2e2e2e"/><path d="M180.39,227.68c.41.41-.5,1.88-1.07,1.43-.83-.66.45-2.05,1.07-1.43Z" fill="#4c4c4c"/><circle cx="74.46" cy="204.06" r=".69" fill="#393939"/><path d="M159.27,227.32c-.09.09-1.08-.05-1.43,0,.28-2.4,2.14-.72,1.43,0Z" fill="#252525"/><rect x="126.71" y="225.89" width="1.07" height="1.43" fill="#383838"/><path d="M91.28,205.49c-1.31.3-1.28-1.78-.53-1.78.48,0,.66,1.29.53,1.78Z" fill="#383838"/><circle cx="104.16" cy="226.6" r=".69" fill="#0d0d0d"/><circle cx="186.47" cy="204.42" r=".69" fill="#0c0c0c"/><rect x="105.24" y="204.06" width="1.07" height="1.43" fill="#212121"/><circle cx="209.73" cy="154.32" r=".69" fill="#212121"/><circle cx="182.18" cy="204.77" r=".69" fill="#252525"/><path d="M163.03,225.54c.88.01.88,1.76,0,1.77-.67,0-.67-1.78,0-1.77Z" fill="#363636"/><circle cx="64.08" cy="168.27" r=".69" fill="#4d4d4d"/><path d="M163.57,204.42c.62.62-.77,1.9-1.43,1.07-.45-.57,1.02-1.48,1.43-1.07Z" fill="#333"/><path d="M120.09,225.54c.67,0,.67,1.78,0,1.77-.88-.01-.88-1.76,0-1.77Z" fill="#212121"/><path d="M154.98,225.18c.12.49-.05,1.78-.53,1.78-.74,0-.77-2.08.53-1.78Z" fill="#313131"/><path d="M100.58,226.6c-.8.64-1.92-2.04-.18-1.43.58.21.4,1.25.18,1.43Z" fill="#535353"/><rect x="145.32" y="204.78" width="1.43" height="1.07" fill="#454545"/><rect x="83.77" y="224.46" width="1.43" height="1.07" fill="#2e2e2e"/><path d="M134.4,205.14c.88.01.88,1.76,0,1.77-.67,0-.67-1.78,0-1.77Z" fill="#424242"/><rect x="200.79" y="188.32" width="1.07" height="1.43" fill="#383838"/><circle cx="135.66" cy="224.81" r=".69" fill="#0b0b0b"/><rect x="189.69" y="188.32" width="1.07" height="1.43" fill="#3f3f3f"/><path d="M124.56,224.82c-.41.41-1.88-.5-1.43-1.07.66-.83,2.05.45,1.43,1.07Z" fill="#303030"/><path d="M182.53,183.31c.41.41-.5,1.88-1.07,1.43-.83-.66.45-2.05,1.07-1.43Z" fill="#383838"/><circle cx="66.95" cy="189.03" r=".69" fill="#3d3d3d"/><circle cx="141.02" cy="223.74" r=".69" fill="#313131"/><path d="M220.29,148.96c.67,0,.67,1.78,0,1.77-.88-.01-.88-1.76,0-1.77Z" fill="#464646"/><rect x="94.15" y="206.57" width="1.07" height="1.43" fill="#313131"/><circle cx="88.78" cy="223.74" r=".69" fill="#0c0c0c"/><path d="M160.35,223.38c-.8-1.13,1.2-1.54,1.43-.53s-1.24.79-1.43.53Z" fill="#313131"/><circle cx="68.38" cy="173.64" r=".69" fill="#353535"/><path d="M198.64,208.71c-.09-.09.05-1.08,0-1.43,2.4.28.72,2.14,0,1.43Z" fill="#414141"/><rect x="173.59" y="183.66" width="1.07" height="1.43" fill="#3a3a3a"/><circle cx="97.72" cy="222.31" r=".69" fill="#444"/><path d="M191.84,168.64c.05.93.25,1.83-.89,1.43-1.2-.43.56-1.78.89-1.43Z" fill="#4a4a4a"/><path d="M192.2,220.16c-.18.22-1.22.4-1.43-.18-.62-1.74,2.06-.62,1.43.18Z" fill="#474747"/><rect x="129.57" y="219.09" width="1.43" height="1.07" fill="#323232"/><rect x="137.45" y="208" width="1.07" height="1.43" fill="#353535"/><path d="M104.7,218.38c.88.01.88,1.76,0,1.77-.67,0-.67-1.78,0-1.77Z" fill="#404040"/><rect x="103.09" y="208.36" width="1.43" height="1.07" fill="#303030"/><circle cx="171.8" cy="218.73" r=".69" fill="#0d0d0d"/><path d="M162.14,186.88c-.62.62-1.9-.77-1.07-1.43.57-.45,1.48,1.02,1.07,1.43Z" fill="#424242"/><rect x="128.86" y="208.36" width="1.43" height="1.07" fill="#232323"/><rect x="90.21" y="217.66" width="1.07" height="1.43" fill="#282828"/><rect x="179.32" y="217.3" width="1.43" height="1.07" fill="#353535"/><path d="M117.05,216.94c-.33.3-2.12.1-1.38-1.02s1.71.72,1.38,1.02Z" fill="#515151"/><circle cx="124.2" cy="215.87" r=".69" fill="#282828"/><path d="M73.03,209.79c.22.18.4,1.22-.18,1.43-1.74.62-.62-2.06.18-1.43Z" fill="#454545"/><rect x="129.93" y="170.42" width="1.43" height="1.07" fill="#373737"/><path d="M176.45,211.93c-1.31.3-1.28-1.78-.53-1.78.48,0,.66,1.29.53,1.78Z" fill="#3b3b3b"/><path d="M197.92,188.67c-.8.64-1.92-2.04-.18-1.43.58.21.4,1.25.18,1.43Z" fill="#3d3d3d"/><circle cx="93.07" cy="211.21" r=".69" fill="#373737"/><circle cx="180.39" cy="213.36" r=".69" fill="#3e3e3e"/><path d="M139.23,188.67c-.76.75-1.97-1.18-.89-1.43.75-.17,1.15,1.17.89,1.43Z" fill="#3d3d3d"/><circle cx="202.22" cy="170.06" r=".69" fill="#373737"/><path d="M144.78,212.66c.88.01.88,1.76,0,1.77-.67,0-.67-1.78,0-1.77Z" fill="#2d2d2d"/><path d="M142.1,188.31c-.75-.76,1.18-1.97,1.43-.89.17.75-1.17,1.15-1.43.89Z" fill="#0b0b0b"/><path d="M76.61,213.36c-.8.64-1.92-2.04-.18-1.43.58.21.4,1.25.18,1.43Z" fill="#373737"/><path d="M113.83,212.29c1.03.17,2.11.37.89,1.43-.84-.03-1-.72-.89-1.43Z" fill="#424242"/><path d="M87.7,189.03c.08.66.02,1.05-.54,1.43h-.53s0-1.43,0-1.43h1.07Z" fill="#3d3d3d"/><path d="M120.27,242v1.43s-1.07,0-1.07,0c-.08-.66-.02-1.05.54-1.43h.53Z" fill="#404040"/><path d="M122.42,211.58c.22-.22,1.42.16,1.42.53,0,1.39-2.35.39-1.42-.53Z" fill="#535353"/><path d="M181.82,187.24v1.43s-1.07,0-1.07,0c-.08-.66-.02-1.05.54-1.43h.53Z" fill="#202020"/><path d="M156.41,242c.08.66.02,1.05-.54,1.43h-.53s0-1.43,0-1.43h1.07Z" fill="#515151"/><path d="M148.9,255.59v1.43s-1.07,0-1.07,0c-.08-.66-.02-1.05.54-1.43h.53Z" fill="#0b0b0b"/><path d="M147.11,197.62v1.43s-1.07,0-1.07,0c-.08-.66-.02-1.05.54-1.43h.53Z" fill="#0b0b0b"/><path d="M167.15,240.92v1.07s-1.43,0-1.43,0v-.53c.38-.56.77-.62,1.43-.54Z" fill="#262626"/><path d="M195.06,215.15c-.22-.22.16-1.42.53-1.42,1.39,0,.39,2.35-.53,1.42Z" fill="#2e2e2e"/><path d="M78.76,215.51c-.22-.22.16-1.42.53-1.42,1.39,0,.39,2.35-.53,1.42Z" fill="#0f0f0f"/><path d="M83.95,197.99c.68,0,.68,1.77,0,1.77s-.68-1.77,0-1.77Z" fill="#212121"/><path d="M230.13,161.83c-.24.3-1.63.41-1.43-.53.24-1.11,1.94-.12,1.43.53Z" fill="#0e0e0e"/><path d="M107.38,241.28h-1.07s0-1.43,0-1.43h.53c.56.38.62.77.54,1.43Z" fill="#545454"/><path d="M214.38,170.06c-.22.22-1.42-.16-1.42-.53,0-1.39,2.35-.39,1.42.53Z" fill="#323232"/><path d="M178.24,240.2h-1.43s0-1.07,0-1.07c.66-.08,1.05-.02,1.43.54v.53Z" fill="#363636"/><path d="M123.85,174.36v1.43s-1.07,0-1.07,0c-.08-.66-.02-1.05.54-1.43h.53Z" fill="#3c3c3c"/><path d="M142.28,197.62c1.07-.28,1.56.84.71,1.07-1.07.28-1.56-.84-.71-1.07Z" fill="#232323"/><path d="M145.67,208.72v1.43s-.53,0-.53,0c-.56-.38-.62-.77-.54-1.43h1.07Z" fill="#434343"/><path d="M92.35,238.78c.22.22-.16,1.42-.53,1.42-1.39,0-.39-2.35.53-1.42Z" fill="#343434"/><path d="M135.3,171.14c.51.65-1.18,1.64-1.43.53-.21-.94,1.19-.83,1.43-.53Z" fill="#333"/><path d="M187.55,209.79c-.22-.22.16-1.42.53-1.42,1.39,0,.39,2.35-.53,1.42Z" fill="#2e2e2e"/><path d="M120.27,180.44v1.43s-.53,0-.53,0c-.56-.38-.62-.77-.54-1.43h1.07Z" fill="#181818"/><path d="M136.73,243.79v1.43s-1.07,0-1.07,0c-.08-.66-.02-1.05.54-1.43h.53Z" fill="#262626"/><path d="M165.71,193.69v1.43s-.53,0-.53,0c-.56-.38-.62-.77-.54-1.43h1.07Z" fill="#3e3e3e"/><path d="M185.75,199.41v1.43s-.53,0-.53,0c-.56-.38-.62-.77-.54-1.43h1.07Z" fill="#333"/><path d="M107.74,195.47h-1.07s0-1.43,0-1.43h.53c.56.38.62.77.54,1.43Z" fill="#4e4e4e"/><path d="M122.06,253.81c.08.66.02,1.05-.54,1.43h-.53s0-1.43,0-1.43h1.07Z" fill="#2c2c2c"/><path d="M116.69,177.58v1.43s-1.07,0-1.07,0c-.08-.66-.02-1.05.54-1.43h.53Z" fill="#434343"/><path d="M65.87,177.22c-.22.22-1.42-.16-1.42-.53,0-1.39,2.35-.39,1.42.53Z" fill="#171717"/><path d="M218.32,171.5v1.43s-.53,0-.53,0c-.56-.38-.62-.77-.54-1.43h1.07Z" fill="#363636"/><path d="M176.45,219.81h-1.07s0-1.43,0-1.43h.53c.56.38.62.77.54,1.43Z" fill="#414141"/><path d="M111.32,239.13c-.22.22-1.42-.16-1.42-.53,0-1.39,2.35-.39,1.42.53Z" fill="#373737"/><path d="M231.2,166.49v1.43s-1.07,0-1.07,0c-.08-.66-.02-1.05.54-1.43h.53Z" fill="#3b3b3b"/><path d="M91.28,194.4v1.43s-.53,0-.53,0c-.56-.38-.62-.77-.54-1.43h1.07Z" fill="#2e2e2e"/><path d="M203.29,173.65c.3.24.41,1.63-.53,1.43-1.11-.24-.12-1.94.53-1.43Z" fill="#292929"/><path d="M198.64,191.54v1.43s-.53,0-.53,0c-.56-.38-.62-.77-.54-1.43h1.07Z" fill="#2a2a2a"/><path d="M182.18,221.24c-.22-.22.16-1.42.53-1.42,1.39,0,.39,2.35-.53,1.42Z" fill="#131313"/><path d="M95.93,237.34v1.07c-.66.08-1.05.02-1.43-.54v-.53s1.43,0,1.43,0Z" fill="#343434"/><path d="M173.23,238.41c-.22-.22.16-1.42.53-1.42,1.39,0,.39,2.35-.53,1.42Z" fill="#343434"/><path d="M167.15,236.63c.08.66.02,1.05-.54,1.43h-.53s0-1.43,0-1.43h1.07Z" fill="#505050"/><path d="M99.15,244.14c.22.22-.16,1.42-.53,1.42-1.39,0-.39-2.35.53-1.42Z" fill="#363636"/><path d="M119.55,251.65c-.22.22-1.42-.16-1.42-.53,0-1.39,2.35-.39,1.42.53Z" fill="#121212"/><path d="M65.16,171.86c.22.22-.16,1.42-.53,1.42-1.39,0-.39-2.35.53-1.42Z" fill="#414141"/><path d="M101.66,196.91c.22.22-.16,1.42-.53,1.42-1.39,0-.39-2.35.53-1.42Z" fill="#363636"/><path d="M199.35,171.86c.54.54-.73,2.52-1.43,0,.35.05,1.34-.09,1.43,0Z" fill="#2e2e2e"/><path d="M83.37,208.68c-1.25,1.33-1.26-.81-1.03-1.03s2.36-.22,1.03,1.03q-.42-.38,0,0Z" fill="#717171"/><path d="M151.4,235.56v1.43s-1.07,0-1.07,0c-.08-.66-.02-1.05.54-1.43h.53Z" fill="#404040"/><path d="M181.82,180.44c-.72-.34-1.41-.3-1.07-1.25.42-1.16,1.44.11,1.07,1.25Z" fill="#121212"/><path d="M225.83,160.05c.3.24.41,1.63-.53,1.43-1.11-.24-.12-1.94.53-1.43Z" fill="#424242"/><path d="M75.36,195.83c1.07-.28,1.56.84.71,1.07-1.07.28-1.56-.84-.71-1.07Z" fill="#292929"/><path d="M140.67,180.09c.22-.22,1.42.16,1.42.53,0,1.39-2.35.39-1.42-.53Z" fill="#3d3d3d"/><path d="M184.68,233.76c-.22.22-1.42-.16-1.42-.53,0-1.39,2.35-.39,1.42.53Z" fill="#4b4b4b"/><path d="M212.96,146.45c.22-.22,1.42.16,1.42.53,0,1.39-2.35.39-1.42-.53Z" fill="#333"/><path d="M139.23,250.22c-.22.22-1.42-.16-1.42-.53,0-1.39,2.35-.39,1.42.53Z" fill="#3d3d3d"/><path d="M216.35,148.6c.68,0,.68,1.77,0,1.77s-.68-1.77,0-1.77Z" fill="#3f3f3f"/><path d="M127.43,168.64v1.07c-.66.08-1.05.02-1.43-.54v-.53s1.43,0,1.43,0Z" fill="#313131"/><path d="M217.6,154.32c-.65.51-1.64-1.18-.53-1.43.94-.21.83,1.19.53,1.43Z" fill="#393939"/><path d="M167.15,183.31v1.07c-.66.08-1.05.02-1.43-.54v-.53s1.43,0,1.43,0Z" fill="#444"/><path d="M217.25,168.99c-.3-.24-.41-1.63.53-1.43,1.11.24.12,1.94-.53,1.43Z" fill="#434343"/><path d="M144.96,184.38h-1.43s0-1.07,0-1.07c.66-.08,1.05-.02,1.43.54v.53Z" fill="#101010"/><path d="M123.85,166.13v1.43s-1.07,0-1.07,0c-.08-.66-.02-1.05.54-1.43h.53Z" fill="#3f3f3f"/><path d="M118.84,204.78v1.43s-1.07,0-1.07,0c-.08-.66-.02-1.05.54-1.43h.53Z" fill="#3a3a3a"/><path d="M109.36,204.78c1.07-.28,1.56.84.71,1.07-1.07.28-1.56-.84-.71-1.07Z" fill="#292929"/><path d="M147.46,248.08v1.43s-.53,0-.53,0c-.56-.38-.62-.77-.54-1.43h1.07Z" fill="#474747"/><path d="M131,248.08v1.43s-1.07,0-1.07,0c-.08-.66-.02-1.05.54-1.43h.53Z" fill="#3b3b3b"/><path d="M167.33,225.54c.68,0,.68,1.77,0,1.77s-.68-1.77,0-1.77Z" fill="#242424"/><path d="M159.27,232.33v.53c-.38.56-.77.62-1.43.54v-1.07s1.43,0,1.43,0Z" fill="#0c0c0c"/><path d="M135.3,249.15h-1.07s0-1.43,0-1.43h.53c.56.38.62.77.54,1.43Z" fill="#262626"/><path d="M81.26,200.84c.22.22-.16,1.42-.53,1.42-1.39,0-.39-2.35.53-1.42Z" fill="#2e2e2e"/><path d="M92.35,227.32h-1.43s0-1.07,0-1.07c.66-.08,1.05-.02,1.43.54v.53Z" fill="#303030"/><path d="M186.47,182.95v1.07s-1.43,0-1.43,0v-.53c.38-.56.77-.62,1.43-.54Z" fill="#2c2c2c"/><path d="M88.06,227.68v1.43s-.53,0-.53,0c-.56-.38-.62-.77-.54-1.43h1.07Z" fill="#2d2d2d"/><path d="M201.14,180.09c.51.65-1.18,1.64-1.43.53-.21-.94,1.19-.83,1.43-.53Z" fill="#2d2d2d"/><path d="M145.67,179.01v1.43s-.53,0-.53,0c-.56-.38-.62-.77-.54-1.43h1.07Z" fill="#404040"/><path d="M99.15,182.23v1.43s-1.07,0-1.07,0c-.08-.66-.02-1.05.54-1.43h.53Z" fill="#212121"/><path d="M103.09,247.36h-1.43s0-1.07,0-1.07c.66-.08,1.05-.02,1.43.54v.53Z" fill="#2b2b2b"/><path d="M135.3,202.63c-.51-.65,1.18-1.64,1.43-.53.21.94-1.19.83-1.43.53Z" fill="#656565"/><path d="M173.23,228.04c.22-.22,1.42.16,1.42.53,0,1.39-2.35.39-1.42-.53Z" fill="#333"/><path d="M98.8,229.83h-1.07s0-1.43,0-1.43h.53c.56.38.62.77.54,1.43Z" fill="#4a4a4a"/><path d="M108.1,228.4v1.07c-.66.08-1.05.02-1.43-.54v-.53s1.43,0,1.43,0Z" fill="#454545"/><path d="M94.86,229.11v1.43s-1.07,0-1.07,0c-.08-.66-.02-1.05.54-1.43h.53Z" fill="#5b5b5b"/><path d="M214.74,174.36h-1.07s0-1.43,0-1.43h.53c.56.38.62.77.54,1.43Z" fill="#1a1a1a"/><path d="M224.05,156.47v1.43s-.53,0-.53,0c-.56-.38-.62-.77-.54-1.43h1.07Z" fill="#171717"/><path d="M187.9,230.54h-1.07c-.08-.66-.02-1.05.54-1.43h.53s0,1.43,0,1.43Z" fill="#191919"/><path d="M161.78,229.47c.22.22-.16,1.42-.53,1.42-1.39,0-.39-2.35.53-1.42Z" fill="#171717"/><path d="M94.86,201.92v1.43s-.53,0-.53,0c-.56-.38-.62-.77-.54-1.43h1.07Z" fill="#272727"/><path d="M165.71,229.47c.47.47-.62,2.12-1.07.89-.38-1.06.8-1.16,1.07-.89Z" fill="#353535"/><path d="M177.17,231.62c-.27.27-1.45.17-1.07-.89.44-1.23,1.54.42,1.07.89Z" fill="#303030"/><rect x="191.12" y="173.05" width="1.27" height="1.02" transform="translate(-66.56 186.42) rotate(-45)" fill="#0d0d0d"/><path d="M116.69,202.99c-.27.27-1.45.17-1.07-.89.44-1.23,1.54.42,1.07.89Z" fill="#393939"/><path d="M123.85,228.04c.47.47-.62,2.12-1.07.89-.38-1.06.8-1.16,1.07-.89Z" fill="#212121"/><path d="M224.05,164.7c-.27.27-1.45.17-1.07-.89.44-1.23,1.54.42,1.07.89Z" fill="#323232"/><path d="M75.18,207.64v.72c.38-.26.38-.5,0-.72Z" fill="#838383"/><path d="M139.6,246.64v-1.43c1.42,0,1.41,1.43,0,1.43Z" fill="#212121"/><path d="M168.22,233.76h-1.43c0-1.42,1.43-1.41,1.43,0Z" fill="#3c3c3c"/><path d="M221.54,161.12c-.27.27-1.45.17-1.07-.89.44-1.23,1.54.42,1.07.89Z" fill="#2a2a2a"/><path d="M181.82,200.13c.47.47-.62,2.12-1.07.89-.38-1.06.8-1.16,1.07-.89Z" fill="#2a2a2a"/><path d="M185.4,194.76c.47.47-.62,2.12-1.07.89-.38-1.06.8-1.16,1.07-.89Z" fill="#2a2a2a"/><path d="M102.02,234.84c-.27-.27-.17-1.45.89-1.07,1.23.44-.42,1.54-.89,1.07Z" fill="#2c2c2c"/><path d="M222.26,167.92h-1.43c0-1.42,1.43-1.41,1.43,0Z" fill="#505050"/><path d="M91.28,234.84c.47.47-.62,2.12-1.07.89-.38-1.06.8-1.16,1.07-.89Z" fill="#3a3a3a"/><path d="M114.9,236.98c-.27.27-1.45.17-1.07-.89.44-1.23,1.54.42,1.07.89Z" fill="#414141"/><rect x="101.42" y="221.77" width="1.02" height="1.27" transform="translate(-127.81 138.3) rotate(-45.27)" fill="#484848"/><path d="M106.31,236.98c-.27-.27-.17-1.45.89-1.07,1.23.44-.42,1.54-.89,1.07Z" fill="#3d3d3d"/><path d="M134.58,180.08c-.27.27-1.45.17-1.07-.89.44-1.23,1.54.42,1.07.89Z" fill="#181818"/><path d="M98.44,194.76c.47.47-.62,2.12-1.07.89-.38-1.06.8-1.16,1.07-.89Z" fill="#292929"/><path d="M83.77,220.88c0,1.41-1.42,1.42-1.43,0h1.43Z" fill="#2a2a2a"/><path d="M134.58,220.17c.47.47-.62,2.12-1.07.89-.38-1.06.8-1.16,1.07-.89Z" fill="#212121"/><path d="M87.34,219.45v1.43c-1.42,0-1.41-1.43,0-1.43Z" fill="#0b0b0b"/><path d="M165.71,187.96c-.27.27-1.45.17-1.07-.89.44-1.23,1.54.42,1.07.89Z" fill="#373737"/><path d="M103.81,239.13c-.68.73-1.78-1.9-.54-1.43.46.17.76,1.19.54,1.43Z" fill="#595959"/><rect x="172.81" y="187.59" width="1.02" height="1.27" transform="translate(-82.33 177.69) rotate(-45)" fill="#0f0f0f"/><path d="M219.39,164.7c-.27.27-1.45.17-1.07-.89.44-1.23,1.54.42,1.07.89Z" fill="#191919"/><path d="M116.69,240.56c-.27.27-1.45.17-1.07-.89.44-1.23,1.54.42,1.07.89Z" fill="#2f2f2f"/><path d="M85.56,186.17c.47.47-.62,2.12-1.07.89-.38-1.06.8-1.16,1.07-.89Z" fill="#272727"/><path d="M229.06,171.5c-.27-.27-.17-1.45.89-1.07,1.23.44-.42,1.54-.89,1.07Z" fill="#282828"/><path d="M99.15,241.28c-.27.27-1.45.17-1.07-.89.44-1.23,1.54.42,1.07.89Z" fill="#595959"/><path d="M149.61,239.85v1.43c-1.42,0-1.41-1.43,0-1.43Z" fill="#1e1e1e"/><path d="M207.59,187.24c-.27-.27-.17-1.45.89-1.07,1.23.44-.42,1.54-.89,1.07Z" fill="#323232"/><path d="M127.78,244.14c-.27.27-1.45.17-1.07-.89.44-1.23,1.54.42,1.07.89Z" fill="#2c2c2c"/><path d="M115.26,199.41c-.27.27-1.45.17-1.07-.89.44-1.23,1.54.42,1.07.89Z" fill="#2c2c2c"/><rect x="93.24" y="214.74" width="1.27" height="1.02" transform="translate(-124.71 129.43) rotate(-45)" fill="#0d0d0d"/><path d="M113.11,241.28v1.43c-1.42,0-1.41-1.43,0-1.43Z" fill="#373737"/><path d="M116.33,249.15c-.24.22-1.25-.08-1.43-.54-.47-1.24,2.15-.14,1.43.54Z" fill="#2a2a2a"/><path d="M101.66,241.64c.63-.68,1.6,1.43.53,1.42-.37,0-.76-1.18-.53-1.42Z" fill="#212121"/><path d="M94.51,241.64c.63-.68,1.6,1.43.53,1.42-.37,0-.76-1.18-.53-1.42Z" fill="#262626"/><rect x="175.74" y="190.46" width="1.07" height="1.07" transform="translate(-.68 .63) rotate(-.2)" fill="#282828"/><rect x="195.78" y="199.05" width="1.07" height="1.07" transform="translate(-.71 .7) rotate(-.2)" fill="#232323"/><path d="M109.53,243.43v1.43c-1.45-.32-1.52-1.21,0-1.43Z" fill="#444"/><rect x="186.11" y="220.88" width="1.07" height="1.07" transform="translate(-.79 .67) rotate(-.2)" fill="#303030"/><rect x="129.93" y="186.53" width="1.07" height="1.07" transform="translate(-.67 .47) rotate(-.2)" fill="#353535"/><rect x="112.4" y="221.24" width="1.07" height="1.07" transform="translate(-.79 .4) rotate(-.2)" fill="#242424"/><rect x="195.42" y="210.15" width="1.07" height="1.07" transform="translate(-.75 .7) rotate(-.2)" fill="#303030"/><rect x="137.45" y="220.88" width="1.07" height="1.07" transform="translate(-.79 .49) rotate(-.2)" fill="#303030"/><rect x="98.8" y="236.27" width="1.07" height="1.07" transform="translate(-137.82 335.29) rotate(-89.8)" fill="#4c4c4c"/><rect x="206.15" y="166.85" width="1.07" height="1.07" transform="translate(-.6 .74) rotate(-.2)" fill="#262626"/><path d="M162.14,196.55c.63-.68,1.6,1.43.53,1.42-.37,0-.76-1.18-.53-1.42Z" fill="#1a1a1a"/><rect x="93.79" y="233.41" width="1.07" height="1.07" transform="translate(-139.95 327.43) rotate(-89.8)" fill="#3c3c3c"/><path d="M125.99,254.52c.68.63-1.43,1.6-1.42.53,0-.37,1.18-.76,1.42-.53Z" fill="#393939"/><path d="M139.6,183.67c.63-.68,1.6,1.43.53,1.42-.37,0-.76-1.18-.53-1.42Z" fill="#4b4b4b"/><rect x="104.88" y="182.23" width="1.07" height="1.07" transform="translate(-.65 .38) rotate(-.2)" fill="#323232"/><rect x="86.63" y="182.95" width="1.07" height="1.07" transform="translate(-96.63 270) rotate(-89.8)" fill="#2b2b2b"/><rect x="151.76" y="202.99" width="1.07" height="1.07" transform="translate(-.73 .54) rotate(-.2)" fill="#262626"/><rect x="177.88" y="202.99" width="1.07" height="1.07" transform="translate(-.73 .64) rotate(-.2)" fill="#2c2c2c"/><path d="M187.55,216.94c.36.79.6.91.72.36,1.32,1.48-1.68,1.81-1.07-.18.06-.2.19-.17.35-.18Z" fill="#757575"/><rect x="101.3" y="204.78" width="1.07" height="1.07" transform="translate(-.73 .36) rotate(-.2)" fill="#303030"/><rect x="211.43" y="179.34" width=".91" height="1.14" transform="translate(-25.2 325.01) rotate(-71.8)" fill="#232323"/><path d="M183.97,207.64c1.58-1.49,1.57,2.2,0,.72.25-.24.25-.48,0-.72Z" fill="#7e7e7e"/><path d="M120.27,238.06c.11.11.23,1.36-.53,1.07-1.3-.49-.09-1.69.53-1.07Z" fill="#303030"/><rect x="104.91" y="243.99" width="1.02" height="1.02" transform="translate(-142.01 146.15) rotate(-45)" fill="#2f2f2f"/><path d="M75.18,207.64c1.62-.25,1.57.98,0,.72v-1.08h1.43v1.44h-1.43v-1.08Z" fill="#1b1b1b"/><path d="M183.97,207.64c1.12-.2,1.06.93,0,.72-.09-.09-.46.03-.36-.54.04-.2.32-.14.36-.18Z" fill="#343434"/><path d="M218.32,175.43c.28.37.52.73.72,1.08v.36s-1.08,0-1.08,0v-1.44s.36,0,.36,0Z" fill="#6e6e6e"/><path d="M218.32,175.43h.72s0,1.08,0,1.08c-.96.17-.73-.23-.72-1.08Z" fill="#0d0d0d"/><rect x="140.67" y="242" width="1.07" height=".71" fill="#2c2c2c"/><path d="M65.52,180.44c.36.19.71.43,1.07.72v.36s-1.43,0-1.43,0v-1.08s.36,0,.36,0Z" fill="#9f9f9f"/><path d="M65.52,180.44h1.07s0,.72,0,.72c-.85.01-1.24.24-1.07-.72Z" fill="#161616"/><path d="M188.26,217.3c.1,1.32-1.02.98-.72-.36.15,0,.63.26.72.36Z" fill="#0b0b0b"/><rect x="192.56" y="181.52" width="1.43" height="1.43" fill="#707070"/><circle cx="193.28" cy="182.23" r=".44" fill="#0a0a0a"/><rect x="125.64" y="204.06" width="1.43" height="1.43" fill="#6e6e6e"/><circle cx="126.36" cy="204.77" r=".44" fill="#090909"/><circle cx="83.06" cy="208.36" r=".44" fill="#0a0a0a"/></svg>